<svg width="48" height="57" viewBox="0 0 48 57" fill="none" xmlns="http://www.w3.org/2000/svg">
<path d="M6.07617 51.8516C6.07617 51.9492 6.07227 52.0332 6.06445 52.1035C6.06055 52.1699 6.05273 52.2285 6.04102 52.2793C6.0293 52.3262 6.01367 52.3672 5.99414 52.4023C5.97461 52.4375 5.94336 52.4785 5.90039 52.5254C5.85742 52.5684 5.77344 52.625 5.64844 52.6953C5.52734 52.7656 5.37695 52.834 5.19727 52.9004C5.02148 52.9629 4.81836 53.0156 4.58789 53.0586C4.36133 53.1016 4.11523 53.123 3.84961 53.123C3.33008 53.123 2.86133 53.043 2.44336 52.8828C2.02539 52.7227 1.66992 52.4844 1.37695 52.168C1.08398 51.8477 0.859375 51.4492 0.703125 50.9727C0.546875 50.4961 0.46875 49.9414 0.46875 49.3086C0.46875 48.6641 0.554688 48.0918 0.726562 47.5918C0.898438 47.0918 1.13867 46.6719 1.44727 46.332C1.75586 45.9922 2.125 45.7344 2.55469 45.5586C2.98828 45.3828 3.46484 45.2949 3.98438 45.2949C4.19531 45.2949 4.39844 45.3125 4.59375 45.3477C4.78906 45.3828 4.96875 45.4297 5.13281 45.4883C5.30078 45.543 5.45117 45.6074 5.58398 45.6816C5.7168 45.7559 5.80859 45.8203 5.85938 45.875C5.91406 45.9258 5.95117 45.9688 5.9707 46.0039C5.99023 46.0391 6.00586 46.084 6.01758 46.1387C6.0293 46.1934 6.03711 46.2578 6.04102 46.332C6.04883 46.4062 6.05273 46.498 6.05273 46.6074C6.05273 46.7246 6.04883 46.8242 6.04102 46.9062C6.0332 46.9883 6.01953 47.0547 6 47.1055C5.98047 47.1562 5.95703 47.1934 5.92969 47.2168C5.90234 47.2402 5.87109 47.252 5.83594 47.252C5.77734 47.252 5.70312 47.2188 5.61328 47.1523C5.52344 47.082 5.40625 47.0059 5.26172 46.9238C5.12109 46.8379 4.95117 46.7617 4.75195 46.6953C4.55664 46.625 4.32227 46.5898 4.04883 46.5898C3.74805 46.5898 3.47852 46.6523 3.24023 46.7773C3.00586 46.8984 2.80469 47.0742 2.63672 47.3047C2.47266 47.5312 2.34766 47.8066 2.26172 48.1309C2.17578 48.4551 2.13281 48.8203 2.13281 49.2266C2.13281 49.6719 2.17773 50.0586 2.26758 50.3867C2.36133 50.7109 2.49219 50.9785 2.66016 51.1895C2.83203 51.4004 3.03711 51.5586 3.27539 51.6641C3.51758 51.7656 3.78906 51.8164 4.08984 51.8164C4.36328 51.8164 4.59961 51.7852 4.79883 51.7227C4.99805 51.6562 5.16797 51.584 5.30859 51.5059C5.45312 51.4277 5.57031 51.3574 5.66016 51.2949C5.75391 51.2324 5.82617 51.2012 5.87695 51.2012C5.91602 51.2012 5.94727 51.209 5.9707 51.2246C5.99414 51.2402 6.01367 51.2715 6.0293 51.3184C6.04492 51.3652 6.05664 51.4316 6.06445 51.5176C6.07227 51.5996 6.07617 51.7109 6.07617 51.8516ZM12.3809 50.1348C12.3809 50.5801 12.3223 50.9863 12.2051 51.3535C12.0879 51.7207 11.9102 52.0371 11.6719 52.3027C11.4336 52.5684 11.1348 52.7734 10.7754 52.918C10.416 53.0625 9.99609 53.1348 9.51562 53.1348C9.05078 53.1348 8.64648 53.0703 8.30273 52.9414C7.95898 52.8125 7.67383 52.625 7.44727 52.3789C7.2207 52.1328 7.05273 51.8301 6.94336 51.4707C6.83398 51.1113 6.7793 50.7012 6.7793 50.2402C6.7793 49.7949 6.83789 49.3887 6.95508 49.0215C7.07617 48.6504 7.25586 48.334 7.49414 48.0723C7.73242 47.8066 8.0293 47.6016 8.38477 47.457C8.74414 47.3125 9.16406 47.2402 9.64453 47.2402C10.1133 47.2402 10.5195 47.3047 10.8633 47.4336C11.207 47.5586 11.4902 47.7441 11.7129 47.9902C11.9395 48.2363 12.1074 48.5391 12.2168 48.8984C12.3262 49.2578 12.3809 49.6699 12.3809 50.1348ZM10.8633 50.1934C10.8633 49.9355 10.8418 49.6992 10.7988 49.4844C10.7598 49.2656 10.6914 49.0762 10.5938 48.916C10.4961 48.7559 10.3652 48.6309 10.2012 48.541C10.041 48.4512 9.83789 48.4062 9.5918 48.4062C9.37305 48.4062 9.18164 48.4473 9.01758 48.5293C8.85352 48.6074 8.71875 48.7246 8.61328 48.8809C8.50781 49.0332 8.42773 49.2188 8.37305 49.4375C8.32227 49.6523 8.29688 49.8984 8.29688 50.1758C8.29688 50.4336 8.31836 50.6719 8.36133 50.8906C8.4043 51.1055 8.47266 51.293 8.56641 51.4531C8.66406 51.6133 8.79492 51.7383 8.95898 51.8281C9.12305 51.9141 9.32617 51.957 9.56836 51.957C9.79102 51.957 9.98438 51.918 10.1484 51.8398C10.3125 51.7578 10.4473 51.6406 10.5527 51.4883C10.6582 51.3359 10.7363 51.1523 10.7871 50.9375C10.8379 50.7188 10.8633 50.4707 10.8633 50.1934ZM21.8672 52.8008C21.8672 52.8398 21.8555 52.875 21.832 52.9062C21.8086 52.9336 21.7695 52.957 21.7148 52.9766C21.6602 52.9961 21.5859 53.0098 21.4922 53.0176C21.3984 53.0293 21.2793 53.0352 21.1348 53.0352C20.9863 53.0352 20.8652 53.0293 20.7715 53.0176C20.6777 53.0098 20.6016 52.9961 20.543 52.9766C20.4883 52.957 20.4492 52.9336 20.4258 52.9062C20.4062 52.875 20.3965 52.8398 20.3965 52.8008V49.7012C20.3965 49.5254 20.3789 49.3652 20.3438 49.2207C20.3125 49.0762 20.2617 48.9531 20.1914 48.8516C20.125 48.7461 20.0391 48.666 19.9336 48.6113C19.832 48.5527 19.709 48.5234 19.5645 48.5234C19.3887 48.5234 19.2109 48.5918 19.0312 48.7285C18.8516 48.8652 18.6562 49.0645 18.4453 49.3262V52.8008C18.4453 52.8398 18.4336 52.875 18.4102 52.9062C18.3867 52.9336 18.3457 52.957 18.2871 52.9766C18.2324 52.9961 18.1582 53.0098 18.0645 53.0176C17.9707 53.0293 17.8535 53.0352 17.7129 53.0352C17.5684 53.0352 17.4492 53.0293 17.3555 53.0176C17.2617 53.0098 17.1855 52.9961 17.127 52.9766C17.0723 52.957 17.0332 52.9336 17.0098 52.9062C16.9863 52.875 16.9746 52.8398 16.9746 52.8008V49.7012C16.9746 49.5254 16.957 49.3652 16.9219 49.2207C16.8906 49.0762 16.8418 48.9531 16.7754 48.8516C16.709 48.7461 16.623 48.666 16.5176 48.6113C16.4121 48.5527 16.2891 48.5234 16.1484 48.5234C15.9688 48.5234 15.7891 48.5918 15.6094 48.7285C15.4297 48.8652 15.2363 49.0645 15.0293 49.3262V52.8008C15.0293 52.8398 15.0176 52.875 14.9941 52.9062C14.9707 52.9336 14.9297 52.957 14.8711 52.9766C14.8164 52.9961 14.7422 53.0098 14.6484 53.0176C14.5547 53.0293 14.4355 53.0352 14.291 53.0352C14.1465 53.0352 14.0273 53.0293 13.9336 53.0176C13.8398 53.0098 13.7637 52.9961 13.7051 52.9766C13.6504 52.957 13.6113 52.9336 13.5879 52.9062C13.5645 52.875 13.5527 52.8398 13.5527 52.8008V47.5742C13.5527 47.5352 13.5625 47.502 13.582 47.4746C13.6016 47.4434 13.6367 47.418 13.6875 47.3984C13.7383 47.3789 13.8027 47.3652 13.8809 47.3574C13.9629 47.3457 14.0645 47.3398 14.1855 47.3398C14.3105 47.3398 14.4141 47.3457 14.4961 47.3574C14.5781 47.3652 14.6406 47.3789 14.6836 47.3984C14.7305 47.418 14.7637 47.4434 14.7832 47.4746C14.8027 47.502 14.8125 47.5352 14.8125 47.5742V48.1777C15.1016 47.8652 15.3887 47.6309 15.6738 47.4746C15.9629 47.3184 16.2637 47.2402 16.5762 47.2402C16.791 47.2402 16.9844 47.2637 17.1562 47.3105C17.3281 47.3535 17.4805 47.418 17.6133 47.5039C17.75 47.5859 17.8672 47.6855 17.9648 47.8027C18.0625 47.9199 18.1445 48.0508 18.2109 48.1953C18.3672 48.0273 18.5195 47.8828 18.668 47.7617C18.8203 47.6406 18.9688 47.543 19.1133 47.4688C19.2617 47.3906 19.4082 47.334 19.5527 47.2988C19.7012 47.2598 19.8516 47.2402 20.0039 47.2402C20.3516 47.2402 20.6445 47.2988 20.8828 47.416C21.1211 47.5332 21.3125 47.6934 21.457 47.8965C21.6055 48.0957 21.7109 48.3301 21.7734 48.5996C21.8359 48.8691 21.8672 49.1543 21.8672 49.4551V52.8008ZM28.5762 50.1113C28.5762 50.5762 28.5254 50.9961 28.4238 51.3711C28.3262 51.7422 28.1816 52.0586 27.9902 52.3203C27.7988 52.582 27.5605 52.7832 27.2754 52.9238C26.9902 53.0645 26.6641 53.1348 26.2969 53.1348C26.1445 53.1348 26.0039 53.1191 25.875 53.0879C25.75 53.0605 25.627 53.0176 25.5059 52.959C25.3887 52.8965 25.2715 52.8203 25.1543 52.7305C25.0371 52.6406 24.916 52.5352 24.791 52.4141V54.875C24.791 54.9141 24.7793 54.9492 24.7559 54.9805C24.7324 55.0117 24.6914 55.0371 24.6328 55.0566C24.5781 55.0801 24.5039 55.0977 24.4102 55.1094C24.3164 55.1211 24.1973 55.127 24.0527 55.127C23.9082 55.127 23.7891 55.1211 23.6953 55.1094C23.6016 55.0977 23.5254 55.0801 23.4668 55.0566C23.4121 55.0371 23.373 55.0117 23.3496 54.9805C23.3262 54.9492 23.3145 54.9141 23.3145 54.875V47.5742C23.3145 47.5352 23.3242 47.502 23.3438 47.4746C23.3633 47.4434 23.3965 47.418 23.4434 47.3984C23.4941 47.3789 23.5586 47.3652 23.6367 47.3574C23.7188 47.3457 23.8203 47.3398 23.9414 47.3398C24.0586 47.3398 24.1562 47.3457 24.2344 47.3574C24.3164 47.3652 24.3809 47.3789 24.4277 47.3984C24.4785 47.418 24.5137 47.4434 24.5332 47.4746C24.5527 47.502 24.5625 47.5352 24.5625 47.5742V48.1895C24.7148 48.0332 24.8633 47.8965 25.0078 47.7793C25.1562 47.6582 25.3066 47.5586 25.459 47.4805C25.6113 47.3984 25.7676 47.3379 25.9277 47.2988C26.0918 47.2598 26.2656 47.2402 26.4492 47.2402C26.832 47.2402 27.1582 47.3164 27.4277 47.4688C27.6973 47.6172 27.916 47.8223 28.084 48.084C28.2559 48.3457 28.3809 48.6504 28.459 48.998C28.5371 49.3457 28.5762 49.7168 28.5762 50.1113ZM27.041 50.2168C27.041 49.9941 27.0234 49.7812 26.9883 49.5781C26.957 49.3711 26.9004 49.1875 26.8184 49.0273C26.7402 48.8672 26.6348 48.7402 26.502 48.6465C26.373 48.5488 26.2109 48.5 26.0156 48.5C25.918 48.5 25.8203 48.5156 25.7227 48.5469C25.6289 48.5742 25.5312 48.6211 25.4297 48.6875C25.332 48.7539 25.2305 48.8398 25.125 48.9453C25.0195 49.0508 24.9082 49.1816 24.791 49.3379V51.0605C24.998 51.3223 25.1953 51.5254 25.3828 51.6699C25.5703 51.8105 25.7656 51.8809 25.9688 51.8809C26.1602 51.8809 26.3223 51.832 26.4551 51.7344C26.5918 51.6367 26.7031 51.5098 26.7891 51.3535C26.875 51.1934 26.9375 51.0137 26.9766 50.8145C27.0195 50.6152 27.041 50.416 27.041 50.2168ZM31.2363 52.8008C31.2363 52.8398 31.2246 52.875 31.2012 52.9062C31.1777 52.9336 31.1367 52.957 31.0781 52.9766C31.0234 52.9961 30.9492 53.0098 30.8555 53.0176C30.7617 53.0293 30.6426 53.0352 30.498 53.0352C30.3535 53.0352 30.2344 53.0293 30.1406 53.0176C30.0469 53.0098 29.9707 52.9961 29.9121 52.9766C29.8574 52.957 29.8184 52.9336 29.7949 52.9062C29.7715 52.875 29.7598 52.8398 29.7598 52.8008V45.0957C29.7598 45.0566 29.7715 45.0215 29.7949 44.9902C29.8184 44.959 29.8574 44.9336 29.9121 44.9141C29.9707 44.8906 30.0469 44.873 30.1406 44.8613C30.2344 44.8496 30.3535 44.8438 30.498 44.8438C30.6426 44.8438 30.7617 44.8496 30.8555 44.8613C30.9492 44.873 31.0234 44.8906 31.0781 44.9141C31.1367 44.9336 31.1777 44.959 31.2012 44.9902C31.2246 45.0215 31.2363 45.0566 31.2363 45.0957V52.8008ZM37.541 50.0352C37.541 50.2148 37.5 50.3477 37.418 50.4336C37.3398 50.5195 37.2305 50.5625 37.0898 50.5625H33.9082C33.9082 50.7852 33.9336 50.9883 33.9844 51.1719C34.0391 51.3516 34.123 51.5059 34.2363 51.6348C34.3535 51.7598 34.502 51.8555 34.6816 51.9219C34.8652 51.9883 35.084 52.0215 35.3379 52.0215C35.5957 52.0215 35.8223 52.0039 36.0176 51.9688C36.2129 51.9297 36.3809 51.8887 36.5215 51.8457C36.666 51.7988 36.7852 51.7578 36.8789 51.7227C36.9727 51.6836 37.0488 51.6641 37.1074 51.6641C37.1426 51.6641 37.1719 51.6719 37.1953 51.6875C37.2188 51.6992 37.2383 51.7227 37.2539 51.7578C37.2695 51.793 37.2793 51.8438 37.2832 51.9102C37.291 51.9727 37.2949 52.0527 37.2949 52.1504C37.2949 52.2363 37.293 52.3105 37.2891 52.373C37.2852 52.4316 37.2793 52.4824 37.2715 52.5254C37.2637 52.5684 37.252 52.6055 37.2363 52.6367C37.2207 52.6641 37.1992 52.6914 37.1719 52.7188C37.1484 52.7461 37.0801 52.7832 36.9668 52.8301C36.8535 52.877 36.709 52.9238 36.5332 52.9707C36.3574 53.0137 36.1562 53.0508 35.9297 53.082C35.7031 53.1172 35.4609 53.1348 35.2031 53.1348C34.7383 53.1348 34.3301 53.0762 33.9785 52.959C33.6309 52.8418 33.3398 52.6641 33.1055 52.4258C32.8711 52.1875 32.6953 51.8867 32.5781 51.5234C32.4648 51.1602 32.4082 50.7344 32.4082 50.2461C32.4082 49.7812 32.4688 49.3633 32.5898 48.9922C32.7109 48.6172 32.8867 48.3008 33.1172 48.043C33.3477 47.7812 33.627 47.582 33.9551 47.4453C34.2871 47.3086 34.6602 47.2402 35.0742 47.2402C35.5117 47.2402 35.8848 47.3047 36.1934 47.4336C36.5059 47.5625 36.7617 47.7422 36.9609 47.9727C37.1602 48.1992 37.3066 48.4688 37.4004 48.7812C37.4941 49.0938 37.541 49.4336 37.541 49.8008V50.0352ZM36.1113 49.6133C36.123 49.1992 36.0391 48.875 35.8594 48.6406C35.6836 48.4023 35.4102 48.2832 35.0391 48.2832C34.8516 48.2832 34.6875 48.3184 34.5469 48.3887C34.4102 48.459 34.2949 48.5547 34.2012 48.6758C34.1113 48.793 34.041 48.9336 33.9902 49.0977C33.9434 49.2578 33.916 49.4297 33.9082 49.6133H36.1113ZM41.7715 52.2852C41.7715 52.457 41.7598 52.5898 41.7363 52.6836C41.7168 52.7734 41.6895 52.8379 41.6543 52.877C41.6191 52.9121 41.5664 52.9453 41.4961 52.9766C41.4297 53.0039 41.3496 53.0273 41.2559 53.0469C41.166 53.0703 41.0664 53.0879 40.957 53.0996C40.8516 53.1113 40.7441 53.1172 40.6348 53.1172C40.3418 53.1172 40.0879 53.0801 39.873 53.0059C39.6582 52.9316 39.4805 52.8184 39.3398 52.666C39.1992 52.5098 39.0957 52.3145 39.0293 52.0801C38.9629 51.8457 38.9297 51.5684 38.9297 51.248V48.5703H38.3027C38.2285 48.5703 38.1719 48.5254 38.1328 48.4355C38.0938 48.3418 38.0742 48.1875 38.0742 47.9727C38.0742 47.8594 38.0781 47.7637 38.0859 47.6855C38.0977 47.6074 38.1133 47.5469 38.1328 47.5039C38.1523 47.457 38.1758 47.4238 38.2031 47.4043C38.2344 47.3848 38.2695 47.375 38.3086 47.375H38.9297V46.209C38.9297 46.1699 38.9395 46.1348 38.959 46.1035C38.9824 46.0723 39.0215 46.0469 39.0762 46.0273C39.1348 46.0039 39.2109 45.9883 39.3047 45.9805C39.4023 45.9688 39.5215 45.9629 39.6621 45.9629C39.8066 45.9629 39.9258 45.9688 40.0195 45.9805C40.1172 45.9883 40.1934 46.0039 40.248 46.0273C40.3027 46.0469 40.3418 46.0723 40.3652 46.1035C40.3887 46.1348 40.4004 46.1699 40.4004 46.209V47.375H41.5371C41.5762 47.375 41.6094 47.3848 41.6367 47.4043C41.668 47.4238 41.6934 47.457 41.7129 47.5039C41.7324 47.5469 41.7461 47.6074 41.7539 47.6855C41.7656 47.7637 41.7715 47.8594 41.7715 47.9727C41.7715 48.1875 41.752 48.3418 41.7129 48.4355C41.6738 48.5254 41.6172 48.5703 41.543 48.5703H40.4004V51.0254C40.4004 51.3105 40.4453 51.5254 40.5352 51.6699C40.625 51.8105 40.7852 51.8809 41.0156 51.8809C41.0938 51.8809 41.1641 51.875 41.2266 51.8633C41.2891 51.8477 41.3438 51.832 41.3906 51.8164C41.4414 51.7969 41.4824 51.7812 41.5137 51.7695C41.5488 51.7539 41.5801 51.7461 41.6074 51.7461C41.6309 51.7461 41.6523 51.7539 41.6719 51.7695C41.6953 51.7812 41.7129 51.8086 41.7246 51.8516C41.7363 51.8906 41.7461 51.9453 41.7539 52.0156C41.7656 52.0859 41.7715 52.1758 41.7715 52.2852ZM47.5137 50.0352C47.5137 50.2148 47.4727 50.3477 47.3906 50.4336C47.3125 50.5195 47.2031 50.5625 47.0625 50.5625H43.8809C43.8809 50.7852 43.9062 50.9883 43.957 51.1719C44.0117 51.3516 44.0957 51.5059 44.209 51.6348C44.3262 51.7598 44.4746 51.8555 44.6543 51.9219C44.8379 51.9883 45.0566 52.0215 45.3105 52.0215C45.5684 52.0215 45.7949 52.0039 45.9902 51.9688C46.1855 51.9297 46.3535 51.8887 46.4941 51.8457C46.6387 51.7988 46.7578 51.7578 46.8516 51.7227C46.9453 51.6836 47.0215 51.6641 47.0801 51.6641C47.1152 51.6641 47.1445 51.6719 47.168 51.6875C47.1914 51.6992 47.2109 51.7227 47.2266 51.7578C47.2422 51.793 47.252 51.8438 47.2559 51.9102C47.2637 51.9727 47.2676 52.0527 47.2676 52.1504C47.2676 52.2363 47.2656 52.3105 47.2617 52.373C47.2578 52.4316 47.252 52.4824 47.2441 52.5254C47.2363 52.5684 47.2246 52.6055 47.209 52.6367C47.1934 52.6641 47.1719 52.6914 47.1445 52.7188C47.1211 52.7461 47.0527 52.7832 46.9395 52.8301C46.8262 52.877 46.6816 52.9238 46.5059 52.9707C46.3301 53.0137 46.1289 53.0508 45.9023 53.082C45.6758 53.1172 45.4336 53.1348 45.1758 53.1348C44.7109 53.1348 44.3027 53.0762 43.9512 52.959C43.6035 52.8418 43.3125 52.6641 43.0781 52.4258C42.8438 52.1875 42.668 51.8867 42.5508 51.5234C42.4375 51.1602 42.3809 50.7344 42.3809 50.2461C42.3809 49.7812 42.4414 49.3633 42.5625 48.9922C42.6836 48.6172 42.8594 48.3008 43.0898 48.043C43.3203 47.7812 43.5996 47.582 43.9277 47.4453C44.2598 47.3086 44.6328 47.2402 45.0469 47.2402C45.4844 47.2402 45.8574 47.3047 46.166 47.4336C46.4785 47.5625 46.7344 47.7422 46.9336 47.9727C47.1328 48.1992 47.2793 48.4688 47.373 48.7812C47.4668 49.0938 47.5137 49.4336 47.5137 49.8008V50.0352ZM46.084 49.6133C46.0957 49.1992 46.0117 48.875 45.832 48.6406C45.6562 48.4023 45.3828 48.2832 45.0117 48.2832C44.8242 48.2832 44.6602 48.3184 44.5195 48.3887C44.3828 48.459 44.2676 48.5547 44.1738 48.6758C44.084 48.793 44.0137 48.9336 43.9629 49.0977C43.916 49.2578 43.8887 49.4297 43.8809 49.6133H46.084Z" fill="#2E353A"/>
<path d="M8.66667 29.54V31.6683C8.66667 32.1103 8.84226 32.5343 9.15482 32.8468C9.46738 33.1594 9.89131 33.335 10.3333 33.335H12C12.442 33.335 12.866 33.1594 13.1785 32.8468C13.4911 32.5343 13.6667 32.1103 13.6667 31.6683V30.0016H33.6667V31.6683C33.6667 32.1103 33.8423 32.5343 34.1548 32.8468C34.4674 33.1594 34.8913 33.335 35.3333 33.335H37C37.442 33.335 37.866 33.1594 38.1785 32.8468C38.4911 32.5343 38.6667 32.1103 38.6667 31.6683V29.54C39.1723 29.25 39.5926 28.8319 39.8852 28.3277C40.1778 27.8236 40.3324 27.2512 40.3333 26.6683V21.6683C40.3333 20.2833 39.4883 19.0983 38.2867 18.5933L36.0067 11.7533C35.6759 10.7574 35.0397 9.89113 34.1885 9.27747C33.3373 8.66382 32.3144 8.33403 31.265 8.33496H16.0683C15.019 8.33403 13.996 8.66382 13.1448 9.27747C12.2936 9.89113 11.6574 10.7574 11.3267 11.7533L9.04667 18.5933C8.4405 18.8472 7.92285 19.2745 7.55872 19.8216C7.1946 20.3686 7.00022 21.0111 7 21.6683V26.6683C7 27.8983 7.67333 28.9616 8.66667 29.54ZM12.8333 26.6683C12.5049 26.6682 12.1797 26.6034 11.8764 26.4776C11.573 26.3518 11.2974 26.1675 11.0652 25.9352C10.5964 25.4661 10.3331 24.8299 10.3333 24.1666C10.3336 23.5034 10.5972 22.8674 11.0664 22.3985C11.5356 21.9297 12.1717 21.6664 12.835 21.6666C13.4983 21.6669 14.1343 21.9305 14.6031 22.3997C15.072 22.8689 15.3352 23.505 15.335 24.1683C15.3348 24.8316 15.0711 25.4676 14.6019 25.9364C14.1328 26.4053 13.4966 26.6685 12.8333 26.6683ZM34.5 26.6683C33.8367 26.6681 33.2007 26.4044 32.7319 25.9352C32.263 25.4661 31.9998 24.8299 32 24.1666C32.0002 23.5034 32.2639 22.8674 32.7331 22.3985C33.2022 21.9297 33.8384 21.6664 34.5017 21.6666C35.1649 21.6669 35.8009 21.9305 36.2698 22.3997C36.7386 22.8689 37.0019 23.505 37.0017 24.1683C37.0014 24.8316 36.7378 25.4676 36.2686 25.9364C35.7994 26.4053 35.1633 26.6685 34.5 26.6683ZM16.0683 11.6683H31.2633C31.6133 11.6682 31.9544 11.7783 32.2383 11.9829C32.5221 12.1875 32.7344 12.4763 32.845 12.8083L34.6883 18.335H12.645L14.4867 12.8083C14.715 12.1266 15.3517 11.6683 16.0683 11.6683Z" fill="#2E353A"/>
<path d="M40.3333 8.98084V5.46584L24.1933 0.0858428C23.8366 -0.0335515 23.45 -0.0282629 23.0967 0.100843L7 5.95418V9.50084L23.6917 3.43084L40.3333 8.98084Z" fill="#2E353A"/>
</svg>
