<svg width="22" height="20" viewBox="0 0 22 20" fill="none" xmlns="http://www.w3.org/2000/svg">
<path d="M18.0505 1.02211C17.863 0.711077 17.5984 0.453632 17.2824 0.274601C16.9664 0.095571 16.6095 0.000996451 16.2463 0H4.80632C4.07158 0 3.38 0.391579 3.00211 1.02211L0.150527 5.77368C0.0518483 5.93728 -0.000205226 6.12474 6.08083e-07 6.31579C0.00420451 7.33181 0.378415 8.31149 1.05263 9.07158V17.8947C1.05263 19.0558 1.99684 20 3.1579 20H17.8947C19.0558 20 20 19.0558 20 17.8947V9.07158C20.6742 8.31149 21.0484 7.33181 21.0526 6.31579C21.0528 6.12474 21.0008 5.93728 20.9021 5.77368L18.0505 1.02211ZM18.9305 6.58C18.8656 7.08823 18.6177 7.55542 18.2334 7.89424C17.849 8.23306 17.3545 8.42033 16.8421 8.42105C15.6811 8.42105 14.7368 7.47684 14.7368 6.31579C14.7368 6.24421 14.7105 6.18105 14.6958 6.11368L14.7168 6.10947L13.9158 2.10526H16.2463L18.9305 6.58ZM9.28316 2.10526H11.7684L12.6242 6.38421C12.5874 7.51263 11.6632 8.42105 10.5263 8.42105C9.38947 8.42105 8.46526 7.51263 8.42842 6.38421L9.28316 2.10526ZM4.80632 2.10526H7.13684L6.33684 6.10947L6.3579 6.11368C6.34211 6.18105 6.31579 6.24421 6.31579 6.31579C6.31579 7.47684 5.37158 8.42105 4.21053 8.42105C3.69816 8.42033 3.20359 8.23306 2.81924 7.89424C2.4349 7.55542 2.18708 7.08823 2.12211 6.58L4.80632 2.10526ZM8.42105 17.8947V14.7368H12.6316V17.8947H8.42105ZM14.7368 17.8947V14.7368C14.7368 13.5758 13.7926 12.6316 12.6316 12.6316H8.42105C7.26 12.6316 6.31579 13.5758 6.31579 14.7368V17.8947H3.1579V10.3768C3.49579 10.4642 3.84421 10.5263 4.21053 10.5263C4.80823 10.5266 5.39911 10.3994 5.94369 10.153C6.48827 9.90671 6.974 9.54698 7.36842 9.09789C8.14 9.97368 9.27053 10.5263 10.5263 10.5263C11.7821 10.5263 12.9126 9.97368 13.6842 9.09789C14.0786 9.54698 14.5644 9.90671 15.1089 10.153C15.6535 10.3994 16.2444 10.5266 16.8421 10.5263C17.2084 10.5263 17.5568 10.4642 17.8947 10.3768V17.8947H14.7368Z" fill="black"/>
</svg>
