<svg width="23" height="20" viewBox="0 0 23 20" fill="none" xmlns="http://www.w3.org/2000/svg">
<path d="M21.1111 10.2444C21.1111 4.14445 16.3778 0 11.1111 0C5.9 0 1.11111 4.05556 1.11111 10.3111C0.444444 10.6889 0 11.4 0 12.2222V14.4444C0 15.6667 1 16.6667 2.22222 16.6667C2.83333 16.6667 3.33333 16.1667 3.33333 15.5556V10.2111C3.33333 5.95556 6.61111 2.23333 10.8667 2.11111C11.9082 2.07944 12.9454 2.25715 13.917 2.63371C14.8885 3.01028 15.7746 3.57804 16.5227 4.30335C17.2708 5.02865 17.8657 5.89675 18.2722 6.85619C18.6786 7.81564 18.8883 8.84691 18.8889 9.88889V17.7778H11.1111C10.5 17.7778 10 18.2778 10 18.8889C10 19.5 10.5 20 11.1111 20H18.8889C20.1111 20 21.1111 19 21.1111 17.7778V16.4222C21.7667 16.0778 22.2222 15.4 22.2222 14.6V12.0444C22.2222 11.2667 21.7667 10.5889 21.1111 10.2444Z" fill="black"/>
<path d="M7.77778 12.2222C8.39143 12.2222 8.88889 11.7248 8.88889 11.1111C8.88889 10.4975 8.39143 10 7.77778 10C7.16413 10 6.66667 10.4975 6.66667 11.1111C6.66667 11.7248 7.16413 12.2222 7.77778 12.2222Z" fill="black"/>
<path d="M14.4444 12.2222C15.0581 12.2222 15.5556 11.7248 15.5556 11.1111C15.5556 10.4975 15.0581 10 14.4444 10C13.8308 10 13.3333 10.4975 13.3333 11.1111C13.3333 11.7248 13.8308 12.2222 14.4444 12.2222Z" fill="black"/>
<path d="M17.7778 8.92214C17.5128 7.36007 16.7038 5.9421 15.4938 4.91923C14.2839 3.89636 12.751 3.33455 11.1667 3.33325C7.79999 3.33325 4.17777 6.12214 4.46666 10.4999C5.83681 9.93924 7.04693 9.04824 7.98914 7.90635C8.93134 6.76445 9.57635 5.40716 9.86666 3.95547C11.3222 6.8777 14.3111 8.88881 17.7778 8.92214Z" fill="black"/>
</svg>
