<svg width="15" height="18" viewBox="0 0 15 18" fill="none" xmlns="http://www.w3.org/2000/svg">
<path d="M1 4.17383H2.44444H14" stroke="#959595" stroke-width="1.5" stroke-linecap="round" stroke-linejoin="round"/>
<path d="M4.611 4.17382V2.58691C4.611 2.16603 4.76318 1.7624 5.03406 1.46479C5.30495 1.16719 5.67235 1 6.05544 1H8.94432C9.32741 1 9.69481 1.16719 9.96569 1.46479C10.2366 1.7624 10.3888 2.16603 10.3888 2.58691V4.17382M12.5554 4.17382V15.2822C12.5554 15.703 12.4032 16.1067 12.1324 16.4043C11.8615 16.7019 11.4941 16.8691 11.111 16.8691H3.88878C3.50569 16.8691 3.13829 16.7019 2.8674 16.4043C2.59652 16.1067 2.44434 15.703 2.44434 15.2822V4.17382H12.5554Z" stroke="#959595" stroke-width="1.5" stroke-linecap="round" stroke-linejoin="round"/>
<path d="M6.05566 8.14062V12.9013" stroke="#959595" stroke-width="1.5" stroke-linecap="round" stroke-linejoin="round"/>
<path d="M8.94434 8.14062V12.9013" stroke="#959595" stroke-width="1.5" stroke-linecap="round" stroke-linejoin="round"/>
</svg>
