<svg width="24" height="22" viewBox="0 0 24 22" fill="none" xmlns="http://www.w3.org/2000/svg">
<path d="M6.88235 16.2941V11.5882C6.88235 10.3401 7.37815 9.14317 8.26068 8.26064C9.1432 7.37812 10.3402 6.88232 11.5882 6.88232C12.8363 6.88232 14.0333 7.37812 14.9158 8.26064C15.7983 9.14317 16.2941 10.3401 16.2941 11.5882V16.2941" stroke="#D60000" stroke-width="2" stroke-linecap="round" stroke-linejoin="round"/>
<path d="M19.1176 4.05882L18.2941 4.88235M1 11.5882H2.17647H1ZM11.5882 1V2.17647V1ZM21 11.5882H22.1765H21ZM4.05882 4.05882L4.88235 4.88235L4.05882 4.05882Z" stroke="#D60000" stroke-width="2" stroke-linecap="round" stroke-linejoin="round"/>
<path d="M17.4706 16.2942H5.70589C5.05614 16.2942 4.52942 16.8209 4.52942 17.4707V19.8236C4.52942 20.4733 5.05614 21.0001 5.70589 21.0001H17.4706C18.1203 21.0001 18.6471 20.4733 18.6471 19.8236V17.4707C18.6471 16.8209 18.1203 16.2942 17.4706 16.2942Z" stroke="#D60000" stroke-width="2" stroke-linecap="round" stroke-linejoin="round"/>
</svg>
