<svg width="16" height="20" viewBox="0 0 16 20" fill="none" xmlns="http://www.w3.org/2000/svg">
<path d="M14.0386 0H4.94773C3.94773 0 3.12955 0.818182 3.12955 1.81818V3.63636C3.12955 4.13636 3.53864 4.54545 4.03864 4.54545C4.53864 4.54545 4.94773 4.13636 4.94773 3.63636V2.72727H14.0386V17.2727H4.94773V16.3636C4.94773 15.8636 4.53864 15.4545 4.03864 15.4545C3.53864 15.4545 3.12955 15.8636 3.12955 16.3636V18.1818C3.12955 19.1818 3.94773 20 4.94773 20H14.0386C15.0386 20 15.8568 19.1818 15.8568 18.1818V1.81818C15.8568 0.818182 15.0386 0 14.0386 0ZM3.13864 11.3364L1.39318 9.59091C1.075 9.27273 0.556818 9.27273 0.238636 9.59091C-0.0795455 9.90909 -0.0795455 10.4273 0.238636 10.7455L2.48409 12.9909C2.83864 13.3455 3.41136 13.3455 3.76591 12.9909L9.08409 7.67273C9.40227 7.35455 9.40227 6.83636 9.08409 6.51818C8.76591 6.2 8.24773 6.2 7.92954 6.51818L3.13864 11.3364Z" fill="black"/>
</svg>
