<svg width="195" height="222" viewBox="0 0 195 222" fill="none" xmlns="http://www.w3.org/2000/svg">
<path d="M97.0616 182.703C150.667 182.703 194.123 157.613 194.123 126.663C194.123 95.7124 150.667 70.6221 97.0616 70.6221C43.456 70.6221 0 95.7124 0 126.663C0 157.613 43.456 182.703 97.0616 182.703Z" fill="#F5F5F5"/>
<path d="M161.06 154.145C176.267 154.145 188.595 147.027 188.595 138.246C188.595 129.466 176.267 122.348 161.06 122.348C145.852 122.348 133.524 129.466 133.524 138.246C133.524 147.027 145.852 154.145 161.06 154.145Z" fill="#E0E0E0"/>
<path d="M91.373 146.822L60.3103 128.882L95.8158 108.384L126.883 126.32L91.373 146.822Z" fill="#E0E0E0"/>
<path d="M6.79004 141.274L46.8539 164.404L80.4577 145.007L40.3938 121.877L6.79004 141.274Z" fill="#E0E0E0"/>
<path d="M66.032 32.5546V30.2775C66.0149 30.1459 65.9642 30.021 65.8847 29.9147C65.8052 29.8085 65.6996 29.7246 65.5782 29.6711L51.829 21.7837C51.5013 21.619 51.1397 21.5332 50.7729 21.5332C50.4062 21.5332 50.0446 21.619 49.7169 21.7837L10.2017 44.4722C10.0803 44.5258 9.97475 44.6097 9.89526 44.7159C9.81578 44.8221 9.76503 44.9471 9.74792 45.0786V47.3557C9.76464 47.4874 9.81524 47.6125 9.89477 47.7188C9.97431 47.8251 10.0801 47.909 10.2017 47.9621L23.9468 55.8371C24.2745 56.0018 24.6361 56.0876 25.0029 56.0876C25.3696 56.0876 25.7313 56.0018 26.0589 55.8371L65.5741 33.1486C65.6957 33.0954 65.8015 33.0116 65.881 32.9053C65.9606 32.799 66.0112 32.6739 66.0279 32.5422L66.032 32.5546Z" fill="#F0F0F0"/>
<path d="M10.202 45.6727L23.9471 53.56C24.2742 53.7267 24.6361 53.8135 25.0032 53.8135C25.3702 53.8135 25.7321 53.7267 26.0592 53.56L65.5744 30.8715C66.1561 30.5373 66.1561 29.9969 65.5744 29.6587L51.8293 21.7837C51.5016 21.619 51.14 21.5332 50.7732 21.5332C50.4065 21.5332 50.0448 21.619 49.7172 21.7837L10.202 44.4722C9.62033 44.7981 9.62033 45.3385 10.202 45.6727Z" fill="#FAFAFA"/>
<path d="M25.0028 53.8162V56.0891C24.6353 56.0945 24.2723 56.008 23.9467 55.8375L10.2016 47.9708C10.0799 47.9176 9.97419 47.8337 9.89465 47.7275C9.81512 47.6212 9.76452 47.4961 9.7478 47.3644V45.0831C9.75589 44.9909 9.78556 44.9019 9.83443 44.8232C9.67355 45.1161 9.79318 45.4544 10.2016 45.6895L23.9467 53.5645C24.2714 53.7374 24.635 53.824 25.0028 53.8162Z" fill="#E0E0E0"/>
<path d="M32.3868 34.5763L44.0323 41.2138L63.268 30.1748L51.6267 23.5332L32.3868 34.5763Z" fill="#E0E0E0"/>
<path d="M44.1643 40.7106L32.9314 34.263C33.2233 33.3106 33.2016 32.2897 32.8695 31.3506L44.0323 37.7281C44.0323 37.7281 44.2468 38.4335 44.1643 40.7106Z" fill="white"/>
<path d="M43.4588 36.8331C43.7723 37.0356 44.0336 37.3093 44.2214 37.6319C44.4092 37.9544 44.5182 38.3168 44.5396 38.6894V40.8592C44.5396 41.544 44.0529 41.8204 43.4588 41.4822L32.4033 35.1129V34.5766L43.3268 40.8056C43.6857 41.0119 43.9745 40.8427 43.9745 40.4344V38.4213C43.9621 38.1977 43.8969 37.9802 43.7843 37.7866C43.6718 37.593 43.515 37.4288 43.3268 37.3075L32.4033 31.0578V30.4473L43.4588 36.8331Z" fill="#EBEBEB"/>
<path d="M32.4037 30.4679L51.6271 19.4248L62.695 25.7776C63.0092 25.9803 63.271 26.2546 63.4589 26.578C63.6467 26.9014 63.7553 27.2646 63.7758 27.6381V29.8203C63.7904 29.9537 63.7686 30.0886 63.7127 30.2107C63.6567 30.3327 63.5688 30.4373 63.4581 30.5133L44.2224 41.5564C44.331 41.4787 44.4171 41.3737 44.4722 41.252C44.5272 41.1304 44.5492 40.9963 44.5359 40.8634V38.6894C44.5158 38.3165 44.4073 37.9537 44.2194 37.6309C44.0315 37.3081 43.7695 37.0347 43.4551 36.8331L32.4037 30.4679Z" fill="#FAFAFA"/>
<path d="M44.2219 37.621C44.418 37.9394 44.5275 38.3034 44.5396 38.6771V40.8511C44.5529 40.984 44.5309 41.118 44.4759 41.2397C44.4208 41.3614 44.3347 41.4664 44.226 41.5441L63.4618 30.501C63.5725 30.4249 63.6604 30.3204 63.7164 30.1983C63.7723 30.0763 63.7941 29.9414 63.7794 29.8079V27.6381C63.7674 27.2644 63.6579 26.9004 63.4618 26.582L44.2219 37.621Z" fill="#F0F0F0"/>
<path d="M20.5475 18.0547L20.4362 19.5233L33.4388 26.4989L33.7316 25.6409L20.5475 18.0547Z" fill="#EBEBEB"/>
<path d="M33.5584 25.9834L20.9642 18.7148L18.7737 19.9772L31.6154 27.4891L33.5584 25.9834Z" fill="white"/>
<path d="M29.2517 26.71L28.0142 41.3049C28.0202 41.4697 28.0658 41.6306 28.1469 41.7741C28.228 41.9177 28.3423 42.0397 28.4803 42.1299L35.786 46.3582C35.9026 46.4227 36.0325 46.4594 36.1655 46.4655L31.6278 27.9805C31.4955 27.9733 31.3661 27.9381 31.2483 27.8774L30.7244 27.5721L29.2517 26.71Z" fill="#E0E0E0"/>
<path d="M32.1724 27.8604L33.4759 26.7424L34.4288 25.9174C34.5278 25.7606 34.6433 25.6451 34.5815 25.5049L39.0614 43.8537C39.1233 43.9816 39.1398 44.2662 38.9624 44.3735L36.7059 46.3041C36.5351 46.3946 36.3412 46.4319 36.149 46.4113L31.6113 27.9264C31.8008 27.9591 31.9957 27.9362 32.1724 27.8604Z" fill="#F0F0F0"/>
<path d="M34.4329 25.3856C34.6886 25.5341 34.6268 25.6992 34.4329 25.9219L32.1723 27.8566C32.0284 27.9318 31.8685 27.9711 31.7061 27.9711C31.5438 27.9711 31.3839 27.9318 31.24 27.8566L29.2516 26.7098C28.9917 26.5613 28.9464 26.3468 29.1485 26.2313C29.2813 26.1774 29.4247 26.1546 29.5677 26.1646C29.7107 26.1746 29.8495 26.2172 29.9735 26.2891L31.5411 27.1966C31.5891 27.2209 31.6421 27.2335 31.6958 27.2335C31.7496 27.2335 31.8026 27.2209 31.8505 27.1966L33.5006 25.761C33.5872 25.7115 33.5872 25.6332 33.5006 25.5837L20.5475 18.0552L21.1663 17.6963L34.4329 25.3856Z" fill="#FAFAFA"/>
<path d="M16.7937 18.7607L29.1816 25.9138V49.4852L16.7937 42.328V18.7607Z" fill="#EBEBEB"/>
<path d="M28.7815 26.3056L16.7937 19.4248C16.0605 20.2021 15.1003 20.7277 14.0504 20.9264L25.9392 27.7783C25.9392 27.7783 26.7065 27.5968 28.7815 26.3056Z" fill="white"/>
<path d="M24.7883 27.7575C25.1455 27.9364 25.5396 28.0296 25.9392 28.0296C26.3388 28.0296 26.7329 27.9364 27.0901 27.7575L29.1032 26.5777C29.7385 26.2105 29.7385 25.6206 29.1032 25.2535L17.2928 18.4717L16.7937 18.7604L28.4143 25.4721C28.5 25.4971 28.5753 25.5492 28.6288 25.6206C28.6824 25.692 28.7113 25.7789 28.7113 25.8681C28.7113 25.9574 28.6824 26.0443 28.6288 26.1157C28.5753 26.1871 28.5 26.2392 28.4143 26.2642L26.5374 27.345C26.323 27.4527 26.0863 27.5088 25.8464 27.5088C25.6064 27.5088 25.3698 27.4527 25.1554 27.345L13.5389 20.6292L12.9696 20.955L24.7883 27.7575Z" fill="#FAFAFA"/>
<path d="M12.9738 20.9551V44.5223L24.7883 51.3041C25.1456 51.483 25.5396 51.5762 25.9392 51.5762C26.3388 51.5762 26.7329 51.483 27.0902 51.3041L29.1115 50.1449C29.2429 50.087 29.3563 49.9947 29.4397 49.8779C29.5232 49.761 29.5737 49.6238 29.5859 49.4808V25.9136C29.5731 26.0571 29.5214 26.1944 29.4363 26.3107C29.3513 26.427 29.2361 26.5179 29.1032 26.5736L27.0902 27.7575C26.7329 27.9365 26.3388 28.0296 25.9392 28.0296C25.5396 28.0296 25.1456 27.9365 24.7883 27.7575L12.9738 20.9551Z" fill="#EBEBEB"/>
<path d="M25.9393 28.0097C26.3398 28.0175 26.7357 27.9239 27.0902 27.7374L29.1033 26.5741C29.2346 26.5172 29.3481 26.4258 29.4316 26.3096C29.5152 26.1934 29.5656 26.0567 29.5777 25.9141V49.4813C29.5655 49.6244 29.515 49.7615 29.4315 49.8784C29.3481 49.9952 29.2347 50.0875 29.1033 50.1454L27.082 51.3046C26.7275 51.4911 26.3315 51.5848 25.931 51.5769L25.9393 28.0097Z" fill="#F0F0F0"/>
<path d="M125.455 113.561C125.393 112.518 125.253 111.268 125.084 109.816C124.453 104.304 123.591 96.7554 125.876 89.5239C127.266 85.1223 130.616 79.904 135.847 78.456C137.01 78.1343 139.823 77.6599 140.904 80.1556C141.056 80.5162 141.147 80.8996 141.172 81.2901C141.284 82.8741 140.57 84.2726 139.778 85.5472C138.866 87.0282 137.81 88.4349 136.787 89.8044C135.822 91.0998 134.82 92.4363 133.945 93.8224C133 95.3284 132.173 96.9047 131.47 98.5375L131.136 98.3931C131.837 96.7438 132.665 95.1509 133.611 93.6285C134.489 92.23 135.496 90.8852 136.47 89.5858C137.484 88.2245 138.532 86.8219 139.44 85.3575C140.199 84.1199 140.884 82.7957 140.78 81.3148C140.758 80.9655 140.677 80.6225 140.541 80.3C139.576 78.0683 136.985 78.5138 135.917 78.8067C130.826 80.2175 127.555 85.3245 126.194 89.6312C123.933 96.7925 124.791 104.296 125.418 109.774C125.583 111.231 125.728 112.489 125.789 113.541L125.455 113.561Z" fill="#D0D0FF"/>
<path d="M125.827 119.56C125.799 119.564 125.771 119.564 125.744 119.56C125.665 119.544 125.59 119.51 125.527 119.461C125.463 119.412 125.412 119.348 125.377 119.275C125.305 119.071 125.305 118.848 125.377 118.644C125.435 118.249 125.435 117.847 125.377 117.452C125.377 117.229 125.34 116.994 125.34 116.783V114.222C125.669 109.62 127.018 105.149 129.288 101.132C131.301 97.6302 133.528 95.2994 136.3 93.7896C137.795 92.9685 139.434 92.4433 141.127 92.2427C142.622 92.0776 144.125 92.4746 145.343 93.3565C146.601 94.3506 147.166 96.0544 146.692 97.4033C146.358 98.348 145.594 99.0534 144.815 99.6928C143.425 100.827 141.907 101.842 140.442 102.824C139.225 103.649 137.967 104.474 136.791 105.381C133.194 108.158 130.177 111.612 127.91 115.55C127.538 116.189 127.188 116.849 126.866 117.509L126.734 117.769C126.605 118.005 126.492 118.249 126.396 118.5C126.375 118.553 126.355 118.665 126.326 118.792C126.305 119.028 126.23 119.255 126.107 119.457C126.03 119.525 125.93 119.562 125.827 119.56ZM141.721 92.5851C141.535 92.5851 141.35 92.5851 141.16 92.6098C139.516 92.8015 137.926 93.3116 136.478 94.1114C133.772 95.5841 131.589 97.8736 129.609 101.314C127.37 105.281 126.038 109.695 125.711 114.238V116.775C125.711 116.973 125.711 117.188 125.748 117.415C125.814 117.847 125.814 118.286 125.748 118.718C125.704 118.852 125.704 118.997 125.748 119.131C125.759 119.152 125.774 119.17 125.792 119.184C125.811 119.198 125.833 119.208 125.855 119.213C125.929 119.061 125.979 118.898 126.004 118.731C126.024 118.616 126.051 118.503 126.086 118.392C126.187 118.127 126.306 117.87 126.441 117.621L126.569 117.365C126.899 116.697 127.254 116.033 127.625 115.385C128.396 114.05 129.252 112.766 130.187 111.54C132.035 109.126 134.192 106.964 136.602 105.109C137.79 104.202 139.052 103.356 140.273 102.539C141.733 101.561 143.239 100.551 144.621 99.4288C145.355 98.8306 146.077 98.1582 146.382 97.3002C146.795 96.0915 146.287 94.561 145.145 93.6576C144.158 92.9221 142.951 92.5439 141.721 92.5851Z" fill="#D0D0FF"/>
<path d="M125.517 116.037H125.472C125.449 116.031 125.427 116.022 125.407 116.008C125.388 115.994 125.372 115.976 125.359 115.955C125.347 115.935 125.339 115.912 125.336 115.889C125.332 115.865 125.334 115.841 125.34 115.818C128.743 102.246 138.153 96.1905 143.177 94.7508C143.223 94.738 143.272 94.7438 143.314 94.767C143.356 94.7901 143.386 94.8288 143.4 94.8745C143.413 94.921 143.407 94.9707 143.384 95.013C143.361 95.0554 143.322 95.0871 143.276 95.1014C138.326 96.5164 129.057 102.494 125.695 115.905C125.683 115.943 125.66 115.976 125.628 116C125.596 116.024 125.557 116.037 125.517 116.037Z" fill="#D0D0FF"/>
<path d="M125.497 104.899C125.448 104.895 125.403 104.871 125.372 104.834C125.34 104.797 125.324 104.749 125.327 104.701C126.412 90.0439 135.999 82.0122 137.088 81.15C137.107 81.1345 137.128 81.1229 137.151 81.116C137.174 81.109 137.199 81.1068 137.222 81.1095C137.246 81.1122 137.27 81.1198 137.29 81.1317C137.311 81.1436 137.33 81.1597 137.344 81.1789C137.359 81.1976 137.37 81.219 137.377 81.242C137.384 81.265 137.386 81.289 137.383 81.3128C137.38 81.3366 137.373 81.3596 137.361 81.3805C137.35 81.4014 137.334 81.4198 137.315 81.4347C136.239 82.2886 126.763 90.2255 125.695 104.73C125.689 104.778 125.666 104.822 125.629 104.854C125.592 104.885 125.545 104.901 125.497 104.899Z" fill="#D0D0FF"/>
<path d="M124.354 53.7825L101.414 40.5448C101.236 40.4174 101.028 40.3393 100.811 40.3182C100.594 40.2972 100.374 40.3341 100.176 40.4251L98.5259 41.378C98.3445 41.5044 98.2002 41.677 98.1081 41.8779C98.016 42.0789 97.9793 42.3008 98.002 42.5207V105.31C98.0357 105.922 98.2131 106.517 98.5199 107.048C98.8267 107.578 99.2541 108.029 99.7676 108.363L122.704 121.584C122.881 121.712 123.088 121.791 123.306 121.813C123.523 121.834 123.742 121.798 123.941 121.708L125.591 120.751C125.771 120.624 125.913 120.452 126.003 120.251C126.094 120.051 126.13 119.831 126.107 119.612V56.8351C126.075 56.2244 125.9 55.6297 125.595 55.0994C125.29 54.569 124.865 54.1179 124.354 53.7825Z" fill="#C5C5C5"/>
<path d="M102.944 106.387L101.294 107.34V112.562C101.302 112.715 101.347 112.864 101.423 112.997C101.5 113.129 101.607 113.242 101.735 113.325L102.507 113.771C102.644 113.84 102.795 113.876 102.948 113.876C103.102 113.876 103.253 113.84 103.39 113.771L104.161 113.325C104.435 113.148 104.647 112.89 104.767 112.587L106.257 108.297L102.944 106.387Z" fill="#C5C5C5"/>
<path d="M101.294 112.562C101.302 112.715 101.347 112.864 101.423 112.997C101.5 113.129 101.607 113.242 101.735 113.325L102.507 113.771C102.56 113.803 102.62 113.823 102.682 113.829C102.744 113.835 102.807 113.826 102.865 113.804C102.923 113.783 102.976 113.748 103.019 113.703C103.062 113.658 103.094 113.603 103.113 113.544L104.594 109.25L101.294 107.34V112.562Z" fill="#DFDFDF"/>
<path d="M119.494 115.912L117.844 116.869V122.088C117.852 122.241 117.895 122.39 117.971 122.523C118.047 122.657 118.154 122.77 118.282 122.855L119.057 123.3C119.193 123.37 119.344 123.406 119.496 123.406C119.649 123.406 119.8 123.37 119.936 123.3L120.711 122.855C120.985 122.678 121.197 122.42 121.318 122.116L122.803 117.822L119.494 115.912Z" fill="#C5C5C5"/>
<path d="M117.844 122.088C117.852 122.241 117.895 122.39 117.971 122.523C118.047 122.657 118.154 122.77 118.282 122.855L119.057 123.3C119.11 123.333 119.17 123.352 119.232 123.358C119.294 123.364 119.357 123.356 119.415 123.334C119.474 123.312 119.526 123.277 119.569 123.232C119.612 123.187 119.644 123.133 119.663 123.073L121.153 118.779L117.852 116.869L117.844 122.088Z" fill="#DFDFDF"/>
<path d="M99.8749 41.5468L122.811 54.7474C123.325 55.0826 123.752 55.5339 124.059 56.065C124.365 56.596 124.543 57.1918 124.577 57.8042V120.594C124.62 120.814 124.594 121.043 124.501 121.248C124.408 121.452 124.253 121.623 124.058 121.735C123.864 121.848 123.639 121.896 123.415 121.874C123.191 121.852 122.98 121.761 122.811 121.613L99.8749 108.387C99.3619 108.053 98.9351 107.602 98.6291 107.072C98.323 106.541 98.1463 105.946 98.1134 105.335V42.5616C98.0693 42.3414 98.0954 42.113 98.188 41.9085C98.2806 41.7039 98.4351 41.5336 98.6297 41.4215C98.8242 41.3094 99.049 41.2612 99.2724 41.2837C99.4959 41.3062 99.7066 41.3982 99.8749 41.5468Z" fill="#DFDFDF"/>
<path d="M66.5681 127.372L91.377 141.695L126.111 121.642L124.457 120.685L99.648 106.362L66.5681 125.462V127.372Z" fill="#ECECEC"/>
<path d="M91.3771 141.695V139.785L126.111 119.732V121.642L91.3771 141.695Z" fill="#C5C5C5"/>
<path d="M91.5337 138.914L91.2821 138.745C95.6837 132.083 95.6548 120.573 95.2959 117.686C95.267 117.492 95.2464 117.372 95.2423 117.327L95.5434 117.277C95.5434 117.368 95.5764 117.475 95.5929 117.603C95.9147 119.645 97.7339 130.738 99.8873 134.104L99.6315 134.269C97.9278 131.625 96.4716 124.488 95.7414 120.371C95.7868 125.045 95.1062 133.539 91.5337 138.914Z" fill="#FAFAFA"/>
<path d="M106.021 128.741C105.646 128.63 96.8759 125.973 96.0674 122.104L96.3685 122.042C97.1358 125.734 106.017 128.424 106.108 128.453L106.021 128.741Z" fill="#FAFAFA"/>
<path d="M97.1688 127.174L96.946 126.23C96.9155 126.056 96.8271 125.898 96.6953 125.781C96.5634 125.664 96.3959 125.595 96.22 125.586C96.0747 125.565 95.9265 125.589 95.7952 125.654C95.6639 125.72 95.5559 125.824 95.4857 125.953L95.201 125.834C95.2965 125.645 95.4482 125.49 95.6351 125.391C95.822 125.292 96.035 125.254 96.2447 125.281C96.3965 125.29 96.5445 125.332 96.6789 125.403C96.8133 125.474 96.9311 125.573 97.0244 125.693C97.0739 125.302 97.2736 124.946 97.5813 124.699C97.6979 124.638 97.8284 124.608 97.9599 124.613C98.0915 124.617 98.2197 124.655 98.3321 124.724L98.1959 124.996C98.1272 124.952 98.0482 124.926 97.9666 124.921C97.885 124.916 97.8035 124.932 97.7298 124.967C97.3792 125.165 97.243 125.928 97.2224 126.205L97.1688 127.174Z" fill="#FAFAFA"/>
<path d="M98.031 130.322L97.7587 129.464C97.4493 128.494 96.9337 127.937 96.3232 127.9C96.0681 127.895 95.8171 127.965 95.6009 128.1C95.3848 128.236 95.2129 128.432 95.1062 128.663L94.8298 128.531C94.9603 128.242 95.1739 127.997 95.4434 127.829C95.7129 127.661 96.0263 127.577 96.3438 127.587C96.7109 127.607 97.3421 127.805 97.8123 128.762C97.9155 128.007 98.2249 126.795 99.021 126.287C99.3068 126.131 99.6281 126.05 99.954 126.054C100.28 126.057 100.599 126.145 100.881 126.308L100.754 126.584C100.517 126.444 100.249 126.368 99.9747 126.361C99.7002 126.355 99.4287 126.419 99.186 126.547C98.1259 127.207 98.0557 129.389 98.0557 129.414L98.031 130.322Z" fill="#FAFAFA"/>
<path d="M94.3058 132.417L94.0336 132.276C94.6441 131.101 95.9848 130.255 97.1481 130.313C97.3949 130.316 97.6379 130.374 97.8592 130.483C98.0805 130.592 98.2745 130.75 98.4269 130.944C98.5389 130.35 98.7698 129.786 99.1059 129.284C99.4419 128.782 99.8761 128.353 100.382 128.023C100.925 127.662 101.552 127.448 102.202 127.399C102.853 127.351 103.504 127.471 104.095 127.747L103.975 128.023C103.431 127.771 102.832 127.663 102.234 127.707C101.636 127.752 101.06 127.949 100.56 128.279C100.025 128.626 99.5781 129.093 99.2557 129.643C98.9334 130.193 98.7442 130.811 98.7033 131.447V132.227L98.4145 131.501C98.3189 131.243 98.1468 131.02 97.9213 130.862C97.6957 130.705 97.4274 130.619 97.1522 130.618C96.0838 130.564 94.8669 131.34 94.3058 132.417Z" fill="#FAFAFA"/>
<path d="M92.631 136.971L92.3629 136.822C92.7342 136.146 94.7101 132.747 97.0491 132.132C97.3793 132.037 97.7257 132.014 98.0656 132.063C98.4055 132.112 98.7311 132.233 99.021 132.417L98.8642 132.677C98.6086 132.515 98.3219 132.409 98.0227 132.366C97.7234 132.323 97.4184 132.343 97.1275 132.425C95.4114 132.879 93.6376 135.156 92.631 136.971Z" fill="#FAFAFA"/>
<path d="M122.803 100.632V102.542L91.377 120.685L66.5681 106.362V104.452L97.9938 86.3096L122.803 100.632Z" fill="#C5C5C5"/>
<path d="M122.803 100.632L91.377 118.775L66.5681 104.452L97.9938 86.3096L122.803 100.632Z" fill="#ECECEC"/>
<path d="M122.803 79.6266V81.5324L91.377 99.6791L66.5681 85.3524V83.4465L97.9938 65.2998L122.803 79.6266Z" fill="#C5C5C5"/>
<path d="M122.803 79.6266L91.377 97.7692L66.5681 83.4465L97.9938 65.2998L122.803 79.6266Z" fill="#ECECEC"/>
<path d="M91.2697 72.8584L68.3337 59.6371C68.1567 59.5091 67.9489 59.4302 67.7316 59.4085C67.5142 59.3867 67.295 59.4229 67.0961 59.5134C66.7991 59.6825 65.743 60.2972 65.446 60.4663C65.2654 60.5931 65.1219 60.7659 65.0305 60.9668C64.9391 61.1677 64.9031 61.3895 64.9263 61.609V124.382C64.9599 124.994 65.1374 125.589 65.4441 126.119C65.7509 126.65 66.1783 127.1 66.6918 127.435L89.6279 140.66C89.8049 140.788 90.0126 140.867 90.23 140.889C90.4474 140.91 90.6666 140.874 90.8654 140.784C91.1625 140.61 92.2268 140 92.5155 139.823C92.697 139.697 92.8417 139.525 92.9346 139.325C93.0274 139.125 93.065 138.904 93.0435 138.684V75.9151C93.0096 75.3019 92.8312 74.7054 92.5229 74.1742C92.2147 73.643 91.7853 73.1921 91.2697 72.8584Z" fill="#C5C5C5"/>
<path opacity="0.2" d="M91.3769 82.4948L93.0353 81.5377V75.8037L91.3728 76.7608L91.3769 82.4948Z" fill="white"/>
<path opacity="0.2" d="M124.461 63.3949L126.119 62.442V56.708L124.457 57.6651L124.461 63.3949Z" fill="white"/>
<path d="M69.8765 125.463L68.2264 126.416V131.638C68.2348 131.791 68.2791 131.94 68.3558 132.073C68.4325 132.205 68.5394 132.318 68.6678 132.401L69.4392 132.847C69.5761 132.916 69.7273 132.952 69.8806 132.952C70.034 132.952 70.1852 132.916 70.322 132.847L71.0934 132.401C71.3665 132.225 71.5783 131.969 71.6998 131.667L73.189 127.373L69.8765 125.463Z" fill="#C5C5C5"/>
<path d="M68.2223 131.638C68.2306 131.79 68.275 131.939 68.3516 132.072C68.4283 132.205 68.5353 132.317 68.6637 132.401L69.4351 132.846C69.4884 132.878 69.5483 132.898 69.6103 132.904C69.6724 132.91 69.7349 132.901 69.7933 132.88C69.8516 132.858 69.9043 132.823 69.9473 132.778C69.9902 132.733 70.0225 132.679 70.0415 132.619L71.5307 128.325L68.2305 126.415L68.2223 131.638Z" fill="#DFDFDF"/>
<path d="M86.4144 135.013L84.7643 135.966V141.188C84.7718 141.341 84.8154 141.489 84.8914 141.622C84.9674 141.755 85.0737 141.868 85.2016 141.951L85.9771 142.397C86.1132 142.466 86.2637 142.502 86.4164 142.502C86.5691 142.502 86.7196 142.466 86.8558 142.397L87.6313 141.951C87.9032 141.774 88.1147 141.518 88.2377 141.217L89.7228 136.923L86.4144 135.013Z" fill="#C5C5C5"/>
<path d="M84.7643 141.167C84.7718 141.32 84.8154 141.468 84.8914 141.601C84.9674 141.733 85.0737 141.846 85.2016 141.93L85.9771 142.376C86.0304 142.408 86.0903 142.428 86.1523 142.433C86.2144 142.439 86.2769 142.431 86.3353 142.409C86.3936 142.387 86.4463 142.352 86.4892 142.307C86.5322 142.262 86.5645 142.208 86.5835 142.149L88.0686 137.854L84.7684 135.944L84.7643 141.167Z" fill="#DFDFDF"/>
<path d="M66.6753 60.5937L89.6155 73.8149C90.1285 74.1503 90.5553 74.6018 90.8614 75.1329C91.1674 75.6639 91.344 76.2596 91.3769 76.8717V141.695C91.3769 141.695 90.1023 140.94 89.6155 140.659L66.6794 127.434C66.1659 127.1 65.7385 126.649 65.4317 126.119C65.125 125.588 64.9475 124.993 64.9139 124.381V61.6085C64.8697 61.3883 64.8958 61.1599 64.9884 60.9553C65.0811 60.7508 65.2355 60.5805 65.4301 60.4684C65.6246 60.3563 65.8495 60.3081 66.0729 60.3306C66.2963 60.3531 66.507 60.4451 66.6753 60.5937Z" fill="#DFDFDF"/>
<path opacity="0.2" d="M89.6155 73.8149L66.6753 60.5937C66.507 60.4451 66.2963 60.3531 66.0729 60.3306C65.8495 60.3081 65.6246 60.3563 65.4301 60.4684C65.2355 60.5805 65.0811 60.7508 64.9884 60.9553C64.8958 61.1599 64.8697 61.3883 64.9139 61.6085V67.2146L91.3769 82.4778V76.8717C91.344 76.2596 91.1674 75.6639 90.8614 75.1329C90.5553 74.6018 90.1285 74.1503 89.6155 73.8149Z" fill="white"/>
<path d="M121.149 79.7801C121.108 79.7791 121.07 79.7626 121.042 79.7342C121.013 79.7058 120.997 79.6676 120.996 79.6275V60.7919L103.031 71.1626C103.014 71.1735 102.995 71.1808 102.975 71.184C102.955 71.1872 102.935 71.1863 102.916 71.1812C102.896 71.1762 102.878 71.1671 102.863 71.1547C102.847 71.1423 102.834 71.1267 102.824 71.109C102.814 71.0917 102.807 71.0725 102.804 71.0525C102.801 71.0325 102.802 71.0121 102.807 70.9926C102.812 70.973 102.821 70.9546 102.833 70.9385C102.845 70.9223 102.861 70.9088 102.878 70.8986L121.095 60.3958C121.118 60.3816 121.144 60.374 121.171 60.374C121.198 60.374 121.225 60.3816 121.248 60.3958C121.27 60.4095 121.289 60.4288 121.302 60.452C121.315 60.4751 121.322 60.5013 121.322 60.5278V79.6275C121.322 79.6494 121.318 79.6711 121.309 79.6911C121.3 79.7111 121.287 79.7289 121.27 79.7434C121.254 79.7579 121.234 79.7687 121.213 79.775C121.192 79.7813 121.17 79.7831 121.149 79.7801Z" fill="#FAFAFA"/>
<path d="M117.84 75.0026H117.795C117.755 74.9937 117.721 74.9697 117.7 74.9357C117.678 74.9016 117.671 74.8605 117.679 74.8211L120.757 61.4926L114.651 72.0655C114.642 72.0831 114.629 72.0986 114.613 72.1111C114.598 72.1236 114.58 72.1329 114.561 72.1383C114.541 72.1437 114.521 72.1451 114.501 72.1425C114.481 72.1399 114.462 72.1334 114.445 72.1232C114.427 72.1134 114.412 72.1 114.399 72.0841C114.387 72.0681 114.377 72.0498 114.372 72.0302C114.367 72.0106 114.365 71.9901 114.368 71.9699C114.371 71.9498 114.377 71.9304 114.387 71.9128L120.988 60.453C121.007 60.4216 121.036 60.3977 121.071 60.3857C121.105 60.3736 121.143 60.3741 121.177 60.387C121.211 60.4008 121.239 60.4263 121.256 60.4589C121.272 60.4914 121.277 60.5289 121.268 60.5644L117.968 74.8912C117.961 74.9206 117.944 74.947 117.922 74.967C117.899 74.9869 117.87 74.9993 117.84 75.0026Z" fill="#FAFAFA"/>
<path d="M111.227 70.2465C111.206 70.2466 111.186 70.2423 111.166 70.2337C111.147 70.2252 111.13 70.2127 111.116 70.197C111.088 70.1685 111.072 70.1299 111.072 70.0898C111.072 70.0496 111.088 70.0111 111.116 69.9825L121.041 60.4327C121.07 60.4045 121.108 60.3887 121.149 60.3887C121.189 60.3887 121.227 60.4045 121.256 60.4327C121.284 60.462 121.3 60.5012 121.3 60.542C121.3 60.5829 121.284 60.6221 121.256 60.6513L111.331 70.197C111.317 70.2117 111.302 70.2236 111.284 70.2321C111.266 70.2406 111.247 70.2455 111.227 70.2465Z" fill="#FAFAFA"/>
<path d="M121.149 76.731C121.108 76.73 121.07 76.7136 121.042 76.6852C121.013 76.6568 120.997 76.6186 120.996 76.5784C120.996 74.0785 118.207 73.9094 118.088 73.9053C118.065 73.9036 118.043 73.8973 118.023 73.8866C118.003 73.876 117.986 73.8612 117.972 73.8434C117.959 73.8259 117.95 73.8057 117.946 73.7843C117.942 73.7629 117.942 73.7408 117.947 73.7196C118.049 73.2089 118.015 72.6805 117.847 72.1873C117.68 71.6942 117.386 71.2538 116.995 70.9104C116.851 70.7676 116.68 70.657 116.49 70.5859C116.301 70.5148 116.099 70.4848 115.897 70.4979C115.79 70.5161 115.687 70.5572 115.597 70.6184C115.506 70.6796 115.43 70.7595 115.373 70.8526C115.356 70.8827 115.329 70.9061 115.297 70.9188C115.265 70.9316 115.229 70.933 115.196 70.9228C115.163 70.9126 115.134 70.8916 115.115 70.8631C115.095 70.8346 115.086 70.8004 115.089 70.766C115.089 70.6711 115.258 68.4476 113.302 68.229C113.277 68.2259 113.253 68.2168 113.233 68.2025C113.212 68.1881 113.195 68.1689 113.183 68.1465C113.172 68.1248 113.166 68.1008 113.166 68.0764C113.166 68.052 113.172 68.0279 113.183 68.0063C113.183 68.0063 114.049 66.3851 113.715 65.5889C113.676 65.4954 113.616 65.4123 113.54 65.3464C113.463 65.2804 113.372 65.2335 113.274 65.2094C113.254 65.2042 113.236 65.1951 113.22 65.1826C113.204 65.1701 113.191 65.1545 113.181 65.1367C113.171 65.119 113.166 65.0994 113.164 65.0793C113.162 65.0591 113.164 65.0388 113.17 65.0196C113.183 64.9814 113.209 64.9494 113.245 64.9302C113.28 64.911 113.321 64.9061 113.36 64.9165C113.502 64.953 113.634 65.0225 113.744 65.1192C113.855 65.216 113.941 65.3373 113.995 65.4734C114.313 66.2283 113.777 67.4782 113.546 67.9485C115.064 68.2414 115.344 69.6728 115.386 70.3824C115.521 70.286 115.676 70.2199 115.839 70.1885C116.087 70.1645 116.338 70.1969 116.571 70.2833C116.805 70.3698 117.016 70.508 117.188 70.6876C117.598 71.0491 117.912 71.5067 118.101 72.0193C118.291 72.532 118.35 73.0836 118.273 73.6248C118.942 73.7114 121.301 74.1775 121.297 76.5866C121.295 76.625 121.279 76.6611 121.251 76.6879C121.224 76.7146 121.187 76.73 121.149 76.731Z" fill="#FAFAFA"/>
<path d="M121.149 72.6138C121.11 72.614 121.073 72.5996 121.045 72.5736C121.016 72.5476 120.999 72.5119 120.996 72.4736C120.93 71.599 120.423 70.4687 119.783 70.1882C119.656 70.1316 119.516 70.1132 119.379 70.1352C119.242 70.1571 119.114 70.2186 119.012 70.312C118.986 70.3282 118.957 70.3367 118.927 70.3367C118.897 70.3367 118.868 70.3282 118.843 70.312C118.816 70.2976 118.795 70.2759 118.781 70.2495C118.767 70.2231 118.761 70.1932 118.764 70.1635C118.764 70.1635 118.9 68.6165 118.203 67.9771C118.052 67.8508 117.873 67.7625 117.68 67.7194C117.488 67.6764 117.288 67.6799 117.098 67.7296C117.071 67.7352 117.044 67.7335 117.019 67.7248C116.993 67.7161 116.971 67.7007 116.953 67.6801C116.936 67.6594 116.924 67.6344 116.919 67.6076C116.913 67.5809 116.915 67.5532 116.924 67.5275C117.065 67.1438 117.337 66.0672 116.97 65.6835C116.796 65.5061 116.479 65.4896 116.021 65.6381C115.99 65.6485 115.956 65.6484 115.925 65.638C115.893 65.6276 115.866 65.6074 115.848 65.5804C115.829 65.5539 115.819 65.5222 115.819 65.4896C115.819 65.4571 115.829 65.4254 115.848 65.3989C116.103 65.0771 116.735 64.1366 116.578 63.6869C116.552 63.6248 116.51 63.5707 116.456 63.5301C116.403 63.4895 116.339 63.4639 116.273 63.4559C116.253 63.4511 116.235 63.4425 116.218 63.4305C116.202 63.4185 116.189 63.4035 116.178 63.3863C116.168 63.369 116.161 63.3499 116.158 63.33C116.155 63.3101 116.156 63.2898 116.161 63.2703C116.165 63.2506 116.173 63.232 116.184 63.2155C116.196 63.199 116.21 63.1851 116.227 63.1746C116.244 63.1642 116.264 63.1574 116.283 63.1546C116.303 63.1519 116.323 63.1534 116.343 63.1589C116.458 63.1758 116.568 63.2228 116.66 63.2951C116.752 63.3675 116.823 63.4628 116.867 63.5714C117.036 64.0623 116.623 64.809 116.334 65.2215C116.483 65.1861 116.638 65.1875 116.786 65.2256C116.934 65.2637 117.071 65.3374 117.184 65.4401C117.638 65.9104 117.419 66.9046 117.283 67.3707C117.484 67.3467 117.688 67.3655 117.882 67.4259C118.075 67.4864 118.254 67.587 118.405 67.7214C119.02 68.2824 119.086 69.3714 119.078 69.8706C119.207 69.8099 119.348 69.7784 119.49 69.7784C119.633 69.7784 119.774 69.8099 119.903 69.8706C120.682 70.213 121.223 71.4299 121.301 72.4158C121.303 72.4357 121.301 72.4556 121.294 72.4746C121.288 72.4935 121.278 72.511 121.265 72.526C121.252 72.541 121.236 72.5532 121.218 72.5619C121.2 72.5707 121.181 72.5757 121.161 72.5767L121.149 72.6138Z" fill="#FAFAFA"/>
<path d="M130.035 53.8446C130.015 53.6256 129.938 53.4157 129.81 53.2366C129.683 53.0575 129.51 52.9157 129.309 52.8257L104.719 38.6268C104.172 38.3502 103.568 38.2061 102.955 38.2061C102.342 38.2061 101.738 38.3502 101.192 38.6268L63.3719 60.4655C63.1713 60.5555 62.9983 60.6974 62.8706 60.8765C62.743 61.0556 62.6655 61.2654 62.6459 61.4844V63.3944C62.6655 63.6134 62.743 63.8233 62.8706 64.0024C62.9983 64.1814 63.1713 64.3233 63.3719 64.4133L87.9622 78.6081C88.5083 78.8866 89.1126 79.0318 89.7257 79.0318C90.3387 79.0318 90.9431 78.8866 91.4892 78.6081L129.309 56.7735C129.51 56.6834 129.683 56.5416 129.81 56.3625C129.938 56.1834 130.015 55.9736 130.035 55.7545V53.8446Z" fill="#DFDFDF"/>
<path d="M87.9614 76.6981L63.3711 62.5034C62.3976 61.9382 62.3976 61.0265 63.3711 60.4655L101.191 38.6268C101.738 38.3502 102.342 38.2061 102.954 38.2061C103.567 38.2061 104.171 38.3502 104.718 38.6268L129.308 52.8257C130.286 53.3908 130.286 54.2984 129.308 54.8635L91.4884 76.6981C90.9423 76.9766 90.338 77.1218 89.7249 77.1218C89.1119 77.1218 88.5075 76.9766 87.9614 76.6981Z" fill="#ECECEC"/>
<path opacity="0.1" d="M124.457 59.5703L112.882 73.8971L93.0354 85.3569L93.0312 77.717L124.457 59.5703Z" fill="white"/>
<path opacity="0.1" d="M122.803 81.5322L112.882 94.902L93.0354 106.366V98.7219L122.803 81.5322Z" fill="white"/>
<path opacity="0.1" d="M122.803 102.542L112.882 115.912L93.0354 127.376V119.732L122.803 102.542Z" fill="white"/>
<path d="M77.2772 144.269L46.8498 161.838L12.5859 142.008L43.0133 124.443L77.2772 144.269Z" fill="#D0D0FF"/>
<path opacity="0.5" d="M77.2772 144.269L46.8498 161.838L12.5859 142.008L43.0133 124.443L77.2772 144.269Z" fill="white"/>
<path d="M43.0133 100.629V124.444L12.5859 142.009V118.198L43.0133 100.629Z" fill="#D0D0FF"/>
<path opacity="0.23" d="M43.0133 100.629V124.444L12.5859 142.009V118.198L43.0133 100.629Z" fill="white"/>
<path d="M46.8498 138.023V161.838L12.5859 142.008V118.197L46.8498 138.023Z" fill="#D0D0FF"/>
<path opacity="0.38" d="M46.8498 138.023V161.838L12.5859 142.008V118.197L46.8498 138.023Z" fill="white"/>
<path d="M77.2771 120.455V144.269L43.0133 124.444V100.629L77.2771 120.455Z" fill="#D0D0FF"/>
<path opacity="0.4" d="M77.2771 120.455V144.269L43.0133 124.444V100.629L77.2771 120.455Z" fill="white"/>
<path d="M77.2771 144.269V120.454L46.8497 138.023V161.838L77.2771 144.269Z" fill="#D0D0FF"/>
<path opacity="0.23" d="M77.2771 144.269V120.454L46.8497 138.023V161.838L77.2771 144.269Z" fill="white"/>
<path d="M43.0133 100.628L43.0546 87.4443L77.2359 107.295L77.2771 120.454L43.0133 100.628Z" fill="#D0D0FF"/>
<path opacity="0.2" d="M43.0133 100.628L43.0546 87.4443L77.2359 107.295L77.2771 120.454L43.0133 100.628Z" fill="white"/>
<path d="M46.8497 138.023L49.7044 126.489L79.8554 109.081L77.2771 120.454L46.8497 138.023Z" fill="#D0D0FF"/>
<path opacity="0.3" d="M46.8497 138.023L49.7044 126.489L79.8554 109.081L77.2771 120.454L46.8497 138.023Z" fill="white"/>
<path d="M12.5859 118.198L8.95569 106.235L39.3831 88.6699L43.0133 100.629L12.5859 118.198Z" fill="#D0D0FF"/>
<path opacity="0.1" d="M12.5859 118.198L8.95569 106.235L39.3831 88.6699L43.0133 100.629L12.5859 118.198Z" fill="white"/>
<path d="M12.5859 118.198L5.42456 108.31L39.6925 128.135L46.8497 138.023L12.5859 118.198Z" fill="#D0D0FF"/>
<path opacity="0.45" d="M12.5859 118.198L5.42456 108.31L39.6925 128.135L46.8497 138.023L12.5859 118.198Z" fill="white"/>
<g opacity="0.7">
<path opacity="0.7" d="M55.8096 154.756C55.76 154.756 55.7124 154.737 55.6769 154.702C55.6414 154.667 55.621 154.62 55.6199 154.57V150.379C55.6209 150.329 55.6413 150.282 55.6766 150.246C55.712 150.211 55.7596 150.191 55.8096 150.189C55.8592 150.191 55.9065 150.211 55.9412 150.246C55.9759 150.282 55.9953 150.33 55.9953 150.379V154.57C55.9953 154.62 55.9757 154.667 55.9409 154.702C55.9061 154.736 55.8589 154.756 55.8096 154.756Z" fill="white"/>
<path opacity="0.7" d="M55.261 151.831C55.2364 151.835 55.2113 151.835 55.1867 151.831C55.1417 151.81 55.1064 151.773 55.088 151.727C55.0695 151.681 55.0695 151.63 55.0877 151.584L55.756 150.045L56.4986 150.903C56.5251 150.941 56.5366 150.988 56.5308 151.035C56.525 151.081 56.5023 151.123 56.467 151.154C56.4318 151.185 56.3865 151.201 56.3398 151.201C56.2931 151.2 56.2483 151.182 56.2139 151.15L55.8633 150.738L55.4508 151.728C55.4329 151.762 55.4054 151.79 55.3716 151.808C55.3378 151.827 55.2993 151.835 55.261 151.831Z" fill="white"/>
<path opacity="0.7" d="M57.5382 153.769C57.4886 153.768 57.4414 153.748 57.4067 153.712C57.372 153.677 57.3525 153.629 57.3525 153.58V149.393C57.3525 149.343 57.3721 149.296 57.4069 149.261C57.4417 149.227 57.4889 149.207 57.5382 149.207C57.5874 149.207 57.6346 149.227 57.6694 149.261C57.7043 149.296 57.7238 149.343 57.7238 149.393V153.576C57.7244 153.601 57.72 153.625 57.711 153.649C57.7019 153.672 57.6884 153.693 57.6712 153.711C57.6539 153.729 57.6333 153.743 57.6105 153.753C57.5877 153.764 57.5631 153.769 57.5382 153.769Z" fill="white"/>
<path opacity="0.7" d="M56.9894 150.845C56.9648 150.849 56.9398 150.849 56.9152 150.845C56.8925 150.835 56.8721 150.821 56.855 150.803C56.8379 150.785 56.8246 150.764 56.8158 150.741C56.8069 150.718 56.8028 150.693 56.8036 150.669C56.8043 150.644 56.81 150.62 56.8203 150.597L57.4845 149.038L58.227 149.892C58.2613 149.927 58.2804 149.975 58.2804 150.024C58.2804 150.073 58.2613 150.121 58.227 150.156C58.2097 150.173 58.1892 150.187 58.1665 150.197C58.1438 150.206 58.1195 150.211 58.095 150.211C58.0704 150.211 58.0461 150.206 58.0235 150.197C58.0008 150.187 57.9802 150.173 57.963 150.156L57.6123 149.743L57.1998 150.734C57.1827 150.773 57.1525 150.806 57.1143 150.826C57.076 150.847 57.0319 150.853 56.9894 150.845Z" fill="white"/>
</g>
<g opacity="0.7">
<path opacity="0.7" d="M50.8224 157.597C50.7519 157.599 50.6824 157.581 50.6203 157.548C50.5457 157.5 50.4853 157.433 50.4454 157.354C50.4055 157.275 50.3875 157.187 50.3934 157.098V156.583C50.3945 156.533 50.415 156.486 50.4504 156.451C50.4859 156.416 50.5336 156.397 50.5832 156.397C50.6324 156.397 50.6796 156.417 50.7144 156.451C50.7493 156.486 50.7688 156.533 50.7688 156.583V157.098C50.7688 157.173 50.7688 157.214 50.8059 157.222C50.8431 157.23 50.8637 157.222 50.9256 157.189C51.0417 157.082 51.1331 156.951 51.1937 156.805C51.2542 156.659 51.2824 156.501 51.2762 156.343V154.198C51.2762 154.149 51.2958 154.102 51.3306 154.067C51.3654 154.032 51.4126 154.013 51.4618 154.013C51.5111 154.013 51.5583 154.032 51.5931 154.067C51.6279 154.102 51.6475 154.149 51.6475 154.198V156.343C51.6567 156.566 51.6133 156.788 51.5209 156.991C51.4284 157.194 51.2895 157.372 51.1153 157.511C51.0272 157.565 50.926 157.595 50.8224 157.597Z" fill="white"/>
<path opacity="0.7" d="M48.8546 155.868V155.547C48.9036 154.72 49.1452 153.917 49.5599 153.201C49.9746 152.485 50.551 151.875 51.2431 151.421C51.9196 151.034 52.5632 150.976 53.0582 151.265C53.3222 151.446 53.5327 151.694 53.6677 151.985C53.8027 152.275 53.8572 152.596 53.8255 152.915V153.022L48.8546 155.868ZM52.3651 151.438C52.0348 151.453 51.7139 151.553 51.4329 151.727C50.8398 152.117 50.3376 152.63 49.9603 153.232C49.5831 153.833 49.3397 154.509 49.2465 155.213L53.4418 152.787C53.4597 152.548 53.4156 152.308 53.3137 152.092C53.2118 151.875 53.0555 151.688 52.8602 151.549C52.7078 151.469 52.5371 151.431 52.3651 151.438Z" fill="white"/>
</g>
<path opacity="0.7" d="M5.42456 108.31L39.6925 128.135L46.8497 138.023L39.313 128.486L5.42456 108.31Z" fill="white"/>
<path opacity="0.7" d="M77.2771 120.454L46.8497 138.023V161.838L47.419 138.502L77.2771 120.454Z" fill="white"/>
<path d="M32.6262 110.929C35.7655 110.475 38.6325 108.454 40.4641 105.913C41.3182 104.726 41.9474 103.392 42.3204 101.978C42.7165 100.655 42.7817 99.2555 42.5102 97.9019C41.945 95.6371 39.8494 94.2965 37.6342 94.0159C36.5101 93.8681 35.3671 93.9795 34.2928 94.3418C33.1788 94.7241 32.2124 95.4453 31.5289 96.4044C31.1004 96.9154 30.8308 97.5406 30.7534 98.203C30.7468 98.4624 30.8382 98.7148 31.0095 98.9098C31.1808 99.1048 31.4193 99.228 31.6774 99.2549C32.3417 99.3109 33.0055 99.1424 33.5626 98.7764C34.242 98.3954 34.8404 97.8853 35.3241 97.2748C36.3617 95.9943 37.1381 94.5227 37.6094 92.9434C37.9402 91.5882 37.9402 90.1734 37.6094 88.8182C37.3582 87.4006 36.7103 86.0832 35.7407 85.0189C34.6293 84.0081 33.2188 83.3869 31.7228 83.2492C30.2339 83.0446 28.7179 83.1858 27.2923 83.6617C26.6662 83.8516 26.0861 84.169 25.5886 84.594C25.2339 84.924 24.8296 85.4685 24.974 86.0048C25.1184 86.5411 25.9021 86.7804 26.4343 86.7102C27.2219 86.5626 27.9433 86.1716 28.4969 85.5923C29.1138 84.9849 29.6379 84.2899 30.0521 83.5297C30.3598 82.9833 30.5205 82.3664 30.5182 81.7394C30.4646 79.124 27.5729 77.4327 25.3081 76.9542C24.6968 76.8264 24.0706 76.7848 23.4477 76.8304C23.2373 76.8304 23.3652 77.1769 23.5343 77.1645C24.753 77.1092 25.9641 77.3827 27.0407 77.9566C28.1028 78.4448 28.9949 79.2391 29.6024 80.2378C29.8732 80.7302 30.0068 81.2862 29.9894 81.8478C29.972 82.4094 29.8042 82.9561 29.5034 83.4307C29.0995 84.1342 28.5966 84.7761 28.0101 85.3365C27.5192 85.7821 26.7726 86.2977 26.0837 86.2482C25.9699 86.2479 25.8585 86.2157 25.7623 86.1552C25.666 86.0946 25.5887 86.0082 25.5391 85.9058C25.5183 85.7704 25.5295 85.6319 25.5718 85.5016C25.614 85.3712 25.6862 85.2525 25.7825 85.155C26.1468 84.7627 26.5973 84.4605 27.0985 84.2722C28.336 83.7578 29.6761 83.5375 31.0133 83.6287C32.3913 83.6537 33.7314 84.0841 34.8662 84.8663C35.8548 85.6871 36.5568 86.8009 36.871 88.0468C37.269 89.3125 37.3928 90.6485 37.234 91.9657C36.9891 93.2912 36.4798 94.5538 35.7366 95.6784C34.9734 96.9407 34.0164 98.1535 32.5808 98.6485C32.2261 98.7764 31.4835 98.962 31.3433 98.4464C31.203 97.9307 31.6073 97.2955 31.8672 96.8953C32.4419 95.9909 33.2797 95.284 34.268 94.8699C35.2217 94.4876 36.2513 94.3322 37.2753 94.4161C39.2183 94.5605 41.1901 95.5753 41.8666 97.5058C42.206 98.6596 42.2429 99.8813 41.9739 101.054C41.7312 102.338 41.2693 103.572 40.6084 104.7C39.1869 107.097 37.034 108.976 34.466 110.059C33.8555 110.323 33.2285 110.546 32.5891 110.752C32.5231 110.777 32.552 110.942 32.6262 110.929Z" fill="#E0E0E0"/>
<path d="M19.5122 75.114C17.8621 74.9944 15.5891 76.2938 16.3977 77.2426C17.2062 78.1914 19.3513 76.6568 19.3513 76.6568C19.3513 76.6568 19.1492 78.575 19.8504 78.7937C20.5517 79.0123 21.5005 77.1807 20.7992 76.0092C21.1374 76.1425 21.5038 76.1882 21.8644 76.1421C22.225 76.0959 22.5681 75.9594 22.8618 75.7452C23.8601 75.0109 22.8041 74.3179 21.3974 74.4416C21.3974 74.4416 22.4039 71.1415 20.3702 71.7726C19.3513 72.082 18.9924 73.2742 19.5122 75.114Z" fill="#D0D0FF"/>
<path opacity="0.65" d="M19.5122 75.114C17.8621 74.9944 15.5891 76.2938 16.3977 77.2426C17.2062 78.1914 19.3513 76.6568 19.3513 76.6568C19.3513 76.6568 19.1492 78.575 19.8504 78.7937C20.5517 79.0123 21.5005 77.1807 20.7992 76.0092C21.1374 76.1425 21.5038 76.1882 21.8644 76.1421C22.225 76.0959 22.5681 75.9594 22.8618 75.7452C23.8601 75.0109 22.8041 74.3179 21.3974 74.4416C21.3974 74.4416 22.4039 71.1415 20.3702 71.7726C19.3513 72.082 18.9924 73.2742 19.5122 75.114Z" fill="white"/>
<path d="M21.0468 75.8153C20.9555 75.7259 20.859 75.6419 20.758 75.5637C20.6136 75.4523 20.461 75.3451 20.3166 75.2378C20.176 75.1356 20.0285 75.0432 19.8752 74.9614C19.787 74.9124 19.6961 74.8684 19.6029 74.8294C19.4744 74.769 19.3314 74.7462 19.1904 74.7634C19.1535 74.7644 19.1175 74.7754 19.0862 74.7951C19.055 74.8148 19.0296 74.8426 19.0127 74.8755C18.9959 74.9083 18.9881 74.9452 18.9904 74.982C18.9926 75.0189 19.0047 75.0546 19.0254 75.0852C19.1388 75.208 19.2804 75.3015 19.4379 75.3574L19.6607 75.4771C19.8133 75.5678 19.9495 75.6709 20.0732 75.7741C20.197 75.8772 20.362 75.9762 20.4857 76.0793C20.6985 76.2519 20.9364 76.391 21.1911 76.4919C21.2026 76.498 21.2153 76.5012 21.2283 76.5012C21.2412 76.5012 21.254 76.498 21.2654 76.4919C21.4758 76.3268 21.1664 75.935 21.0468 75.8153Z" fill="#ECECEC"/>
<path d="M152.562 29.7331C150.759 32.1587 148.346 45.4955 147.434 49.7733C143.049 49.6454 137.183 49.4391 134.964 49.2081C132.489 48.9482 127.204 48.4408 124.61 48.7956C118.17 49.6206 118.422 53.8531 118.579 54.9586C118.748 56.2209 119.651 56.7985 123.116 56.0106C123.892 55.8402 124.682 55.7476 125.476 55.7342C125.81 55.7342 126.515 55.565 126.779 55.8497C127.192 56.2622 126 56.9552 125.703 57.145C125.245 57.442 124.766 57.8174 124.671 58.3537C124.644 58.4517 124.646 58.5555 124.676 58.6528C124.706 58.75 124.763 58.8366 124.841 58.9023C125.008 58.9709 125.197 58.9709 125.364 58.9023C126.946 58.527 128.472 57.9459 129.902 57.1739C130.442 56.8487 131.009 56.5726 131.598 56.3488C132.493 56.0601 133.417 56.2292 134.316 56.2292C136.251 56.2292 146.477 57.244 151.023 57.706C154.171 58.0237 154.505 54.9174 155.59 51.7699C156.922 47.8674 160.078 27.3446 160.078 27.3446C156.893 26.8826 154.707 26.8537 152.562 29.7331Z" fill="#FFEAEA"/>
<path d="M160.128 27.023C158.605 26.7424 155.177 26.3176 153.313 28.4008C151.448 30.484 151.007 32.6703 150.186 35.8261C149.365 38.9819 147.909 44.6334 147.909 44.6334C147.909 44.6334 150.314 48.0862 157.842 47.1085L160.128 27.023Z" fill="#DFDFDF"/>
<path d="M179.033 136.101L173.741 136.105L172.218 124.617L178.897 124.353L179.033 136.101Z" fill="#FFEAEA"/>
<path d="M161.46 130.363C160.561 131.927 157.669 131.799 155.272 131.246L154.996 119.951L162.07 119.671L161.46 130.363Z" fill="#FFEAEA"/>
<path d="M178.674 63.5068C178.864 68.3952 178.216 97.3004 178.216 97.3004C178.394 98.703 179.846 101.149 180.147 106.211C180.588 113.562 179.091 129.238 179.091 129.238C179.091 129.238 176.059 130.822 172.792 129.609C172.792 129.609 169.467 106.92 168.254 99.6683C167.206 93.3567 165.861 76.4269 165.861 76.4269L163.25 98.1254C163.729 100.694 163.927 103.307 163.84 105.918C163.733 109.292 161.81 125.678 161.81 125.678C159.617 126.395 157.262 126.451 155.037 125.838C155.037 125.838 153.461 100.411 153.28 97.3293C153.073 93.8146 153.214 62.7891 153.214 62.7891L178.674 63.5068Z" fill="#D0D0FF"/>
<path opacity="0.2" d="M165.87 76.4348C165.87 76.4348 161.245 75.1229 158.094 72.3096C158.094 72.3096 159.571 74.8301 163.754 77.0659L163.514 96.0047L165.87 76.4348Z" fill="white"/>
<path d="M167.709 145.684C167.54 145.858 167.639 147 167.846 147.297C168.052 147.594 169.314 148.601 171.505 148.675C173.596 148.741 175.444 148.386 176.636 147.561C177.829 146.736 178.39 145.858 178.46 144.674C178.53 143.49 178.352 142.339 178.872 141.402C179.363 140.54 180.159 139.554 180.32 139.088C180.679 138.078 180.242 136.671 180.242 136.671L167.709 145.684Z" fill="#C5C5C5"/>
<path d="M172.99 135.094C172.992 135.545 172.928 135.994 172.8 136.427C172.352 137.834 171.679 139.159 170.808 140.35C170.205 141.121 169.446 141.769 168.807 142.516C168.123 143.224 167.703 144.146 167.619 145.127C167.594 146.777 169.393 147.251 170.766 147.441C172.255 147.638 173.77 147.497 175.197 147.029C175.948 146.802 176.619 146.363 177.127 145.764C177.635 145.166 177.959 144.433 178.06 143.654C178.117 143.196 178.06 142.734 178.109 142.276C178.249 141.225 178.647 140.224 179.268 139.364C179.628 138.866 179.935 138.333 180.184 137.772C180.568 136.74 180.184 135.614 179.871 134.62C179.602 133.758 179.297 132.78 178.996 132.875C178.996 133.333 178.996 133.374 178.703 133.7C178.291 134.113 178.311 134.686 177.878 135.045C178.003 134.664 178.089 134.272 178.134 133.873C178.154 133.711 178.115 133.547 178.023 133.411C177.874 133.29 177.698 133.206 177.511 133.164C176.859 132.971 176.188 132.845 175.51 132.788C174.865 132.704 174.21 132.724 173.571 132.85C173.383 132.894 173.214 133 173.093 133.151C172.987 133.32 172.934 133.517 172.94 133.717C172.94 133.985 172.986 134.657 172.99 135.094Z" fill="#ECECEC"/>
<path d="M171.422 139.439C172.016 138.96 173.377 138.898 174.128 138.952C174.889 138.986 175.629 139.214 176.278 139.612C176.373 139.676 176.488 139.704 176.603 139.69C176.717 139.676 176.822 139.622 176.9 139.538C176.946 139.49 176.981 139.432 177.002 139.369C177.023 139.307 177.03 139.24 177.023 139.174C177.016 139.108 176.995 139.045 176.961 138.988C176.927 138.931 176.881 138.882 176.826 138.845C176.109 138.359 175.27 138.084 174.405 138.053C172.565 137.999 172.041 138.333 172.041 138.333C172.041 138.333 171.22 138.902 171.422 139.439Z" fill="#F5F5F5"/>
<path d="M170.086 141.171C170.832 140.689 172.338 140.693 173.085 140.759C173.833 140.806 174.556 141.049 175.18 141.464C175.275 141.528 175.39 141.555 175.503 141.542C175.617 141.528 175.722 141.474 175.799 141.39C175.846 141.342 175.881 141.285 175.903 141.223C175.925 141.16 175.933 141.093 175.926 141.027C175.919 140.961 175.898 140.897 175.864 140.84C175.83 140.783 175.784 140.734 175.729 140.697C175 140.186 174.143 139.888 173.254 139.839C171.41 139.781 170.948 140.173 170.948 140.173C170.738 140.264 170.552 140.401 170.403 140.574C170.253 140.746 170.145 140.951 170.086 141.171Z" fill="#F5F5F5"/>
<path d="M175.065 136.27C174.286 136.164 173.493 136.261 172.763 136.551C172.449 136.745 172.256 137.265 172.466 137.376C173.105 137.089 173.805 136.964 174.504 137.013C175.194 137.053 175.872 137.213 176.509 137.483C176.669 137.545 176.859 137.636 177.024 137.718C177.077 137.745 177.135 137.761 177.194 137.765C177.253 137.769 177.313 137.761 177.368 137.742C177.424 137.722 177.476 137.691 177.519 137.651C177.563 137.611 177.598 137.562 177.622 137.508C177.661 137.414 177.665 137.309 177.631 137.213C177.598 137.117 177.53 137.037 177.441 136.988C176.71 136.581 175.899 136.336 175.065 136.27Z" fill="#F5F5F5"/>
<path d="M143.177 137.409C142.99 137.88 142.99 138.406 143.177 138.877C143.359 139.319 145.545 140.688 148.581 140.631C150.839 140.576 153.041 139.918 154.959 138.725C156.151 138.015 157.359 137.929 158.861 137.9C160.363 137.871 162.367 137.231 162.73 136.547C163.093 135.862 162.772 134.637 162.772 134.637L143.177 137.409Z" fill="#C5C5C5"/>
<path d="M155.841 128.54L155.606 128.478C155.473 128.438 155.332 128.425 155.194 128.441C155.045 128.477 154.911 128.558 154.81 128.672C154.498 129.038 154.222 129.433 153.985 129.852C153.304 130.855 151.922 131.651 150.437 132.364C149.423 132.847 148.437 133.214 147.393 133.623C146.349 134.031 144.918 134.262 144.093 134.773C142.855 135.52 142.62 137.521 143.932 138.379C145.071 139.121 148.107 140.008 151.357 139.249C153.135 138.837 155.173 137.055 157.483 136.985C158.956 136.939 161.745 136.659 162.739 135.59C163.114 135.116 162.739 133.528 162.405 132.158C162.058 130.665 162.215 128.445 161.547 128.445L161.505 129.192C161.443 129.415 160.92 129.633 160.754 129.807L160.16 130.434C159.917 130.724 159.62 130.965 159.286 131.143C158.696 131.407 158.007 131.251 157.376 131.086C157.351 131.086 157.694 129.939 157.731 129.827C157.768 129.74 157.779 129.644 157.764 129.551C157.732 129.46 157.669 129.382 157.586 129.332C157.066 128.951 156.471 128.681 155.841 128.54Z" fill="#ECECEC"/>
<path d="M151.848 131.63C151.964 131.433 152.126 131.269 152.322 131.151C152.517 131.034 152.738 130.967 152.966 130.957C153.638 130.866 154.789 131.411 155.495 132.05C155.561 132.11 155.612 132.186 155.643 132.27C155.674 132.354 155.683 132.444 155.671 132.533C155.659 132.621 155.625 132.706 155.573 132.779C155.521 132.851 155.451 132.91 155.371 132.95C155.27 132.999 155.157 133.017 155.046 132.999C154.935 132.981 154.832 132.929 154.752 132.851C153.98 132.081 152.938 131.643 151.848 131.63Z" fill="#F5F5F5"/>
<path d="M149.728 132.69C149.883 132.492 150.082 132.335 150.311 132.231C150.539 132.127 150.789 132.079 151.04 132.092C151.04 132.092 152.781 132.224 153.808 133.28C153.871 133.338 153.92 133.41 153.949 133.491C153.978 133.572 153.988 133.658 153.976 133.743C153.965 133.828 153.933 133.91 153.884 133.98C153.834 134.05 153.769 134.107 153.692 134.146C153.595 134.194 153.485 134.21 153.378 134.193C153.271 134.176 153.172 134.127 153.094 134.051C152.671 133.586 152.149 133.222 151.566 132.986C150.984 132.751 150.355 132.649 149.728 132.69Z" fill="#F5F5F5"/>
<path d="M147.397 133.622C147.572 133.441 147.785 133.299 148.02 133.207C148.255 133.115 148.507 133.075 148.758 133.09C149.745 133.199 150.671 133.616 151.407 134.282C151.47 134.34 151.519 134.413 151.548 134.494C151.577 134.575 151.587 134.662 151.575 134.747C151.564 134.833 151.532 134.914 151.483 134.985C151.433 135.055 151.368 135.113 151.291 135.152C151.194 135.201 151.084 135.217 150.976 135.199C150.869 135.181 150.77 135.13 150.693 135.053C150.293 134.575 149.786 134.197 149.214 133.948C148.642 133.7 148.02 133.588 147.397 133.622Z" fill="#F5F5F5"/>
<path d="M168.947 27.1141C170.894 27.3369 173.196 27.4565 175.057 27.6999C177.453 28.0134 179.322 30.4926 179.908 34.3291C180.551 38.5532 177.845 50.6648 177.845 50.6648L178.707 64.9462C175.197 67.5327 160.247 68.8899 152.797 63.5106C152.797 63.5106 152.97 39.205 153.552 35.4594C154.352 30.3235 155.614 27.1347 161.39 26.7676L168.947 27.1141Z" fill="#ECECEC"/>
<path d="M182.259 58.0527C181.628 59.1087 180.993 60.1648 180.341 61.2085C180.102 61.5962 179.858 61.9799 179.607 62.3594C179.47 62.5451 179.311 62.7129 179.132 62.8585C178.819 63.073 178.167 62.9369 177.787 62.9493C175.923 63.0125 174.064 63.15 172.21 63.3618C172.055 63.3569 171.901 63.3862 171.758 63.4475C171.616 63.5088 171.488 63.6007 171.385 63.7166C171.309 63.8763 171.294 64.0584 171.342 64.2285C171.391 64.3987 171.5 64.5452 171.649 64.6406C171.953 64.8229 172.298 64.9251 172.652 64.9376L174.26 65.1274C174.49 65.1351 174.713 65.2065 174.904 65.3336C175.49 65.808 174.372 66.3773 174.038 66.6083C173.366 67.0752 172.648 67.4732 171.897 67.7964C168.543 69.2072 168.134 70.2302 168.753 71.3935C169.289 72.4042 171.608 76.0798 177.499 72.9157C179.871 71.6411 183.48 67.6149 185.126 65.6678C187.494 62.8585 191.5 56.5924 191.5 56.5924C193.777 53.4655 194.07 52.1825 194.123 50.8831C194.177 49.5837 187.11 39.5883 184.709 36.0778C182.309 32.5673 181.166 28.2977 175.057 27.7119C175.057 27.7119 172.73 35.0878 176.583 39.8606L185.481 52.2733C185.481 52.2733 183.125 56.6047 182.259 58.0527Z" fill="#FFEAEA"/>
<path d="M188.715 40.8387C187.572 39.1886 186.38 37.489 185.229 35.8059C180.382 28.7312 180.791 27.4359 173.802 27.3369C173.184 28.2857 172.817 32.3696 173.749 36.4701C174.528 39.9146 177.462 42.3444 177.462 42.3444L180.96 47.0842C180.96 47.0842 183.101 47.0182 185.666 45.1371C187.148 44.0991 188.225 42.5804 188.715 40.8387Z" fill="#DFDFDF"/>
<path d="M173.555 8.52184C173.204 7.99838 172.717 7.57999 172.147 7.31121C171.576 7.04243 170.944 6.93333 170.317 6.99552L169.954 15.8523L169.36 19.1236L169.463 22.7661C169.808 22.7174 170.134 22.5821 170.413 22.3729C170.691 22.1637 170.912 21.8874 171.055 21.5698C171.6 20.522 173.118 15.4563 173.118 15.4563C174.479 11.294 174.19 9.41288 173.555 8.52184Z" fill="#C5C5C5"/>
<path d="M169.541 15.8935C169.694 15.3552 169.989 14.8679 170.395 14.4826C170.903 13.9381 172.924 13.3482 173.844 15.0643C174.764 16.7804 173.213 19.0451 172.016 19.7381C170.486 20.6292 169.587 19.4164 169.587 19.4164L169.624 27.5719C168.91 29.2219 165.688 30.6905 163.77 30.4595C162.244 30.2656 160.837 29.0652 162.202 27.3161L162.091 24.9895C162.091 24.9895 160.049 25.402 159.038 25.2989C157.36 25.1256 156.242 23.8592 155.648 22.0771C154.691 19.2142 154.266 16.8876 154.67 11.1454C155.115 4.85444 162.388 4.42955 166.443 6.70665C170.498 8.98376 169.541 15.8935 169.541 15.8935Z" fill="#FFEAEA"/>
<path d="M152.356 4.61098C152.17 3.23729 152.644 1.7646 154.084 1.27783C154.612 1.05682 155.192 0.98951 155.757 1.08366C156.322 1.1778 156.849 1.42957 157.277 1.80998C157.457 1.32535 157.77 0.900671 158.178 0.583659C158.587 0.266647 159.076 0.0698702 159.59 0.015443C160.104 -0.0389843 160.623 0.0510952 161.089 0.275559C161.555 0.500022 161.949 0.849973 162.227 1.28608C162.609 0.705245 163.2 0.293278 163.877 0.135153C164.295 0.0419266 164.727 0.0333194 165.148 0.109841C165.568 0.186362 165.97 0.346458 166.328 0.580672C166.913 1.01382 167.602 1.81823 167.429 2.8619C168.588 2.39576 169.797 2.78352 170.659 3.80657C171.172 4.43305 171.462 5.21233 171.484 6.0218C171.514 6.44225 171.454 6.86422 171.307 7.25936C171.142 7.63475 170.803 7.88226 170.704 8.30715C170.56 8.68099 170.486 9.0781 170.486 9.47871C170.581 10.1717 170.733 10.8648 170.824 11.5413C170.922 12.2151 170.978 12.8943 170.993 13.575C170.972 13.7351 170.916 13.8887 170.83 14.0254C170.744 14.162 170.629 14.2786 170.494 14.3671C170.109 14.7039 169.81 15.1283 169.624 15.6046C169.479 15.9016 169.339 16.6359 169.054 16.8422C168.176 17.4568 168.077 15.4685 168.035 15.0848C167.979 14.2043 167.979 13.3211 168.035 12.4406C167.592 12.4349 167.155 12.3365 166.753 12.1518C166.35 11.9671 165.99 11.7001 165.696 11.368C165.392 10.9949 165.191 10.5481 165.115 10.0727C165.067 9.80037 165.045 9.52416 165.049 9.2477C164.475 10.1965 163.143 10.5843 162.194 10.4853C160.602 10.3409 160.053 9.66022 159.797 9.16107C159.697 9.65307 159.48 10.1141 159.166 10.5059C158.76 10.8881 158.27 11.1706 157.735 11.3309C157.274 11.454 156.788 11.4491 156.329 11.3168C155.871 11.1846 155.457 10.9299 155.132 10.5801C154.484 11.5083 152.842 11.0958 152.479 10.8359C151.654 10.2377 151.386 9.52409 151.295 8.50516C151.205 7.48624 151.617 6.32294 152.748 5.92279C152.544 5.51078 152.411 5.06724 152.356 4.61098Z" fill="#C5C5C5"/>
<path d="M162.091 24.9772C162.091 24.9772 165.779 24.045 167.041 23.2859C167.788 22.8487 168.385 22.1958 168.753 21.4131C168.594 22.1852 168.281 22.9175 167.833 23.5664C166.942 24.8329 162.132 25.9714 162.132 25.9714L162.091 24.9772Z" fill="#FFCDCD"/>
<path d="M162.297 15.6213C162.311 15.7776 162.371 15.9263 162.469 16.049C162.566 16.1717 162.698 16.2629 162.847 16.3114C162.996 16.3599 163.156 16.3634 163.308 16.3216C163.459 16.2798 163.594 16.1945 163.698 16.0763C163.801 15.958 163.867 15.8121 163.888 15.6566C163.908 15.5011 163.883 15.343 163.815 15.2017C163.746 15.0605 163.638 14.9425 163.503 14.8623C163.368 14.7822 163.213 14.7434 163.056 14.7509C162.841 14.7678 162.641 14.8684 162.499 15.0312C162.357 15.1939 162.285 15.4058 162.297 15.6213Z" fill="#C5C5C5"/>
<path d="M161.064 21.5904C161.083 21.7917 161.16 21.983 161.287 22.1405C161.414 22.298 161.584 22.4148 161.776 22.4764C161.969 22.538 162.175 22.5417 162.37 22.487C162.564 22.4323 162.739 22.3216 162.871 22.1686C163.003 22.0157 163.087 21.8273 163.113 21.6269C163.139 21.4264 163.106 21.2227 163.017 21.0411C162.928 20.8596 162.788 20.7081 162.614 20.6055C162.44 20.5029 162.239 20.4538 162.037 20.4643C161.76 20.4864 161.502 20.617 161.32 20.8277C161.138 21.0385 161.046 21.3125 161.064 21.5904Z" fill="#FFCDCD"/>
<path d="M162.961 12.8734L164.661 13.6984C164.767 13.4655 164.779 13.2008 164.696 12.9589C164.612 12.7171 164.439 12.5167 164.211 12.399C164.099 12.3451 163.976 12.3146 163.851 12.3094C163.726 12.3042 163.602 12.3244 163.485 12.3687C163.368 12.4131 163.261 12.4807 163.171 12.5674C163.081 12.6541 163.01 12.7582 162.961 12.8734Z" fill="#C5C5C5"/>
<path d="M155.569 13.5876L157.017 12.35C156.942 12.2513 156.847 12.1691 156.738 12.1083C156.63 12.0476 156.51 12.0097 156.386 11.997C156.263 11.9842 156.138 11.9969 156.019 12.0342C155.901 12.0715 155.791 12.1327 155.697 12.2139C155.504 12.383 155.383 12.6197 155.359 12.8752C155.335 13.1308 155.411 13.3858 155.569 13.5876Z" fill="#C5C5C5"/>
<path d="M156.002 15.4598C156.012 15.6124 156.067 15.7587 156.16 15.8802C156.253 16.0017 156.379 16.093 156.524 16.1428C156.669 16.1925 156.825 16.1983 156.973 16.1595C157.121 16.1208 157.254 16.0392 157.355 15.9249C157.457 15.8107 157.523 15.669 157.544 15.5175C157.565 15.3661 157.541 15.2117 157.475 15.0739C157.409 14.936 157.304 14.8208 157.172 14.7426C157.041 14.6645 156.889 14.627 156.736 14.6348C156.53 14.6486 156.338 14.7428 156.201 14.8971C156.063 15.0514 155.992 15.2535 156.002 15.4598Z" fill="#C5C5C5"/>
<path d="M159.831 14.5439L159.806 19.424L157.223 18.6815L159.831 14.5439Z" fill="#FFCDCD"/>
<path d="M153.35 21.3718C153.374 21.3665 153.396 21.3565 153.416 21.3423C153.436 21.3281 153.453 21.3101 153.465 21.2893C153.48 21.2689 153.49 21.2458 153.496 21.2213C153.501 21.1967 153.502 21.1714 153.497 21.1467C153.492 21.122 153.483 21.0985 153.469 21.0777C153.455 21.0568 153.437 21.039 153.416 21.0253L151.172 19.532C151.151 19.5181 151.127 19.5084 151.103 19.5036C151.078 19.4987 151.053 19.4988 151.029 19.5038C151.004 19.5088 150.981 19.5186 150.96 19.5326C150.939 19.5467 150.921 19.5647 150.908 19.5856C150.893 19.6062 150.883 19.6296 150.878 19.6543C150.873 19.679 150.873 19.7044 150.878 19.7291C150.883 19.7538 150.893 19.7773 150.907 19.798C150.921 19.8187 150.94 19.8362 150.961 19.8496L153.201 21.3429C153.222 21.3584 153.247 21.369 153.272 21.374C153.298 21.379 153.324 21.3782 153.35 21.3718Z" fill="#E0E0E0"/>
<path d="M153.111 22.3372C153.145 22.3285 153.177 22.3104 153.203 22.285C153.228 22.2596 153.246 22.2277 153.255 22.1928C153.266 22.143 153.257 22.0909 153.23 22.0476C153.203 22.0044 153.16 21.9735 153.111 21.9618L150.487 21.3554C150.463 21.3492 150.437 21.348 150.412 21.3517C150.387 21.3555 150.364 21.3641 150.342 21.3772C150.321 21.3902 150.302 21.4074 150.287 21.4277C150.272 21.4481 150.262 21.4711 150.256 21.4956C150.245 21.5454 150.254 21.5975 150.281 21.6408C150.308 21.684 150.351 21.7148 150.4 21.7266L153.024 22.3372C153.053 22.3413 153.082 22.3413 153.111 22.3372Z" fill="#E0E0E0"/>
<path d="M150.673 24.0818H150.697L153.226 23.1578C153.274 23.1402 153.312 23.1046 153.334 23.0585C153.355 23.0125 153.357 22.9599 153.339 22.9123C153.322 22.8647 153.286 22.826 153.24 22.8047C153.194 22.7835 153.142 22.7814 153.094 22.7989L150.565 23.7229C150.542 23.7316 150.52 23.745 150.501 23.7622C150.483 23.7794 150.468 23.8002 150.458 23.8232C150.447 23.8463 150.441 23.8712 150.441 23.8965C150.44 23.9217 150.445 23.9469 150.454 23.9704C150.471 24.0119 150.503 24.0458 150.543 24.0662C150.583 24.0866 150.629 24.0921 150.673 24.0818Z" fill="#E0E0E0"/>
<path d="M129.279 43.8708C129.331 43.9754 129.413 44.0625 129.514 44.1212C129.615 44.1799 129.732 44.2077 129.848 44.2011C129.965 44.1946 130.077 44.1539 130.171 44.0842C130.265 44.0145 130.337 43.9187 130.377 43.8089L132.258 39.168C132.288 39.0936 132.303 39.0138 132.302 38.9334C132.301 38.853 132.284 38.7736 132.252 38.7C132.219 38.6264 132.173 38.5601 132.114 38.505C132.055 38.4499 131.986 38.4073 131.911 38.3795C131.835 38.3518 131.755 38.3395 131.675 38.3435C131.594 38.3475 131.516 38.3677 131.443 38.4028C131.371 38.4379 131.306 38.4872 131.253 38.5478C131.201 38.6084 131.161 38.6791 131.136 38.7555L129.25 43.3964C129.223 43.4732 129.211 43.555 129.216 43.6365C129.221 43.7181 129.242 43.7978 129.279 43.8708Z" fill="#E0E0E0"/>
<path d="M126.181 43.846C126.241 43.9677 126.341 44.0653 126.464 44.1228C126.587 44.1804 126.725 44.1945 126.857 44.1628C126.989 44.1312 127.106 44.0556 127.19 43.9486C127.273 43.8416 127.317 43.7094 127.316 43.5738L127.254 37.7985C127.241 37.649 127.173 37.5096 127.063 37.408C126.952 37.3064 126.808 37.25 126.658 37.25C126.508 37.25 126.363 37.3064 126.253 37.408C126.142 37.5096 126.074 37.649 126.062 37.7985L126.119 43.5738C126.118 43.6681 126.139 43.7614 126.181 43.846Z" fill="#E0E0E0"/>
<path d="M120.93 40.6317L120.967 40.7019L123.809 44.8271C123.897 44.9577 124.033 45.0482 124.188 45.0791C124.342 45.11 124.503 45.0787 124.634 44.9921C124.763 44.902 124.851 44.7657 124.881 44.6119C124.911 44.4581 124.88 44.2987 124.795 44.167L121.953 40.0418C121.87 39.9139 121.741 39.8226 121.593 39.787C121.445 39.7513 121.289 39.774 121.157 39.8503C121.025 39.9266 120.927 40.0507 120.884 40.1969C120.841 40.3431 120.856 40.5003 120.926 40.6359L120.93 40.6317Z" fill="#E0E0E0"/>
<path d="M41.9287 205.576C41.9287 205.746 41.9199 205.893 41.9023 206.016C41.8906 206.133 41.8701 206.229 41.8408 206.306C41.8115 206.376 41.7734 206.429 41.7266 206.464C41.6855 206.499 41.6387 206.517 41.5859 206.517H38.7383V215.684C38.7383 215.742 38.7178 215.795 38.6768 215.842C38.6416 215.889 38.5801 215.927 38.4922 215.956C38.4043 215.985 38.2842 216.009 38.1318 216.026C37.9854 216.044 37.8008 216.053 37.5781 216.053C37.3555 216.053 37.168 216.044 37.0156 216.026C36.8691 216.009 36.752 215.985 36.6641 215.956C36.5762 215.927 36.5117 215.889 36.4707 215.842C36.4355 215.795 36.418 215.742 36.418 215.684V206.517H33.5703C33.5117 206.517 33.4619 206.499 33.4209 206.464C33.3799 206.429 33.3447 206.376 33.3154 206.306C33.2861 206.229 33.2627 206.133 33.2451 206.016C33.2334 205.893 33.2275 205.746 33.2275 205.576C33.2275 205.4 33.2334 205.251 33.2451 205.128C33.2627 205.005 33.2861 204.908 33.3154 204.838C33.3447 204.762 33.3799 204.709 33.4209 204.68C33.4619 204.645 33.5117 204.627 33.5703 204.627H41.5859C41.6387 204.627 41.6855 204.645 41.7266 204.68C41.7734 204.709 41.8115 204.762 41.8408 204.838C41.8701 204.908 41.8906 205.005 41.9023 205.128C41.9199 205.251 41.9287 205.4 41.9287 205.576ZM50.6299 215.701C50.6299 215.76 50.6123 215.812 50.5771 215.859C50.542 215.9 50.4834 215.936 50.4014 215.965C50.3193 215.994 50.2051 216.015 50.0586 216.026C49.918 216.044 49.7422 216.053 49.5312 216.053C49.3145 216.053 49.1328 216.044 48.9863 216.026C48.8457 216.015 48.7344 215.994 48.6523 215.965C48.5703 215.936 48.5117 215.9 48.4766 215.859C48.4414 215.812 48.4238 215.76 48.4238 215.701V211.228C48.4238 210.847 48.3945 210.548 48.3359 210.331C48.2832 210.114 48.2041 209.93 48.0986 209.777C47.9932 209.619 47.8555 209.499 47.6855 209.417C47.5215 209.329 47.3281 209.285 47.1055 209.285C46.8242 209.285 46.54 209.388 46.2529 209.593C45.9658 209.798 45.667 210.097 45.3564 210.489V215.701C45.3564 215.76 45.3389 215.812 45.3037 215.859C45.2686 215.9 45.207 215.936 45.1191 215.965C45.0371 215.994 44.9258 216.015 44.7852 216.026C44.6445 216.044 44.4658 216.053 44.249 216.053C44.0322 216.053 43.8535 216.044 43.7129 216.026C43.5723 216.015 43.458 215.994 43.3701 215.965C43.2881 215.936 43.2295 215.9 43.1943 215.859C43.1592 215.812 43.1416 215.76 43.1416 215.701V204.144C43.1416 204.085 43.1592 204.032 43.1943 203.985C43.2295 203.938 43.2881 203.9 43.3701 203.871C43.458 203.836 43.5723 203.81 43.7129 203.792C43.8535 203.774 44.0322 203.766 44.249 203.766C44.4658 203.766 44.6445 203.774 44.7852 203.792C44.9258 203.81 45.0371 203.836 45.1191 203.871C45.207 203.9 45.2686 203.938 45.3037 203.985C45.3389 204.032 45.3564 204.085 45.3564 204.144V208.477C45.7373 208.102 46.124 207.823 46.5166 207.642C46.915 207.454 47.3281 207.36 47.7559 207.36C48.2891 207.36 48.7373 207.448 49.1006 207.624C49.4697 207.8 49.7656 208.04 49.9883 208.345C50.2168 208.649 50.3809 209.007 50.4805 209.417C50.5801 209.821 50.6299 210.313 50.6299 210.894V215.701ZM60.0518 211.553C60.0518 211.822 59.9902 212.021 59.8672 212.15C59.75 212.279 59.5859 212.344 59.375 212.344H54.6025C54.6025 212.678 54.6406 212.982 54.7168 213.258C54.7988 213.527 54.9248 213.759 55.0947 213.952C55.2705 214.14 55.4932 214.283 55.7627 214.383C56.0381 214.482 56.3662 214.532 56.7471 214.532C57.1338 214.532 57.4736 214.506 57.7666 214.453C58.0596 214.395 58.3115 214.333 58.5225 214.269C58.7393 214.198 58.918 214.137 59.0586 214.084C59.1992 214.025 59.3135 213.996 59.4014 213.996C59.4541 213.996 59.498 214.008 59.5332 214.031C59.5684 214.049 59.5977 214.084 59.6211 214.137C59.6445 214.189 59.6592 214.266 59.665 214.365C59.6768 214.459 59.6826 214.579 59.6826 214.726C59.6826 214.854 59.6797 214.966 59.6738 215.06C59.668 215.147 59.6592 215.224 59.6475 215.288C59.6357 215.353 59.6182 215.408 59.5947 215.455C59.5713 215.496 59.5391 215.537 59.498 215.578C59.4629 215.619 59.3604 215.675 59.1904 215.745C59.0205 215.815 58.8037 215.886 58.54 215.956C58.2764 216.021 57.9746 216.076 57.6348 216.123C57.2949 216.176 56.9316 216.202 56.5449 216.202C55.8477 216.202 55.2354 216.114 54.708 215.938C54.1865 215.763 53.75 215.496 53.3984 215.139C53.0469 214.781 52.7832 214.33 52.6074 213.785C52.4375 213.24 52.3525 212.602 52.3525 211.869C52.3525 211.172 52.4434 210.545 52.625 209.988C52.8066 209.426 53.0703 208.951 53.416 208.564C53.7617 208.172 54.1807 207.873 54.6729 207.668C55.1709 207.463 55.7305 207.36 56.3516 207.36C57.0078 207.36 57.5674 207.457 58.0303 207.65C58.499 207.844 58.8828 208.113 59.1816 208.459C59.4805 208.799 59.7002 209.203 59.8408 209.672C59.9814 210.141 60.0518 210.65 60.0518 211.201V211.553ZM57.9072 210.92C57.9248 210.299 57.7988 209.812 57.5293 209.461C57.2656 209.104 56.8555 208.925 56.2988 208.925C56.0176 208.925 55.7715 208.978 55.5605 209.083C55.3555 209.188 55.1826 209.332 55.042 209.514C54.9072 209.689 54.8018 209.9 54.7256 210.146C54.6553 210.387 54.6143 210.645 54.6025 210.92H57.9072ZM66.916 208.591C66.916 208.802 66.9102 208.975 66.8984 209.109C66.8867 209.244 66.8691 209.35 66.8457 209.426C66.8223 209.502 66.79 209.555 66.749 209.584C66.7139 209.613 66.667 209.628 66.6084 209.628C66.5615 209.628 66.5088 209.619 66.4502 209.602C66.3916 209.578 66.3242 209.555 66.248 209.531C66.1777 209.508 66.0986 209.487 66.0107 209.47C65.9229 209.446 65.8262 209.435 65.7207 209.435C65.5977 209.435 65.4746 209.461 65.3516 209.514C65.2285 209.561 65.0996 209.637 64.9648 209.742C64.8359 209.848 64.6982 209.988 64.5518 210.164C64.4111 210.34 64.2588 210.557 64.0947 210.814V215.701C64.0947 215.76 64.0771 215.812 64.042 215.859C64.0068 215.9 63.9453 215.936 63.8574 215.965C63.7754 215.994 63.6641 216.015 63.5234 216.026C63.3828 216.044 63.2041 216.053 62.9873 216.053C62.7705 216.053 62.5918 216.044 62.4512 216.026C62.3105 216.015 62.1963 215.994 62.1084 215.965C62.0264 215.936 61.9678 215.9 61.9326 215.859C61.8975 215.812 61.8799 215.76 61.8799 215.701V207.861C61.8799 207.803 61.8945 207.753 61.9238 207.712C61.9531 207.665 62.0059 207.627 62.082 207.598C62.1582 207.568 62.2549 207.548 62.3721 207.536C62.4951 207.519 62.6475 207.51 62.8291 207.51C63.0166 207.51 63.1719 207.519 63.2949 207.536C63.418 207.548 63.5117 207.568 63.5762 207.598C63.6465 207.627 63.6963 207.665 63.7256 207.712C63.7549 207.753 63.7695 207.803 63.7695 207.861V208.837C63.9746 208.544 64.168 208.304 64.3496 208.116C64.5312 207.923 64.7041 207.771 64.8682 207.659C65.0322 207.548 65.1963 207.472 65.3604 207.431C65.5244 207.384 65.6885 207.36 65.8525 207.36C65.9287 207.36 66.0107 207.366 66.0986 207.378C66.1865 207.384 66.2773 207.398 66.3711 207.422C66.4648 207.439 66.5469 207.463 66.6172 207.492C66.6875 207.516 66.7373 207.542 66.7666 207.571C66.8018 207.601 66.8252 207.633 66.8369 207.668C66.8545 207.703 66.8691 207.753 66.8809 207.817C66.8926 207.876 66.9014 207.967 66.9072 208.09C66.9131 208.213 66.916 208.38 66.916 208.591ZM75.3096 211.553C75.3096 211.822 75.248 212.021 75.125 212.15C75.0078 212.279 74.8438 212.344 74.6328 212.344H69.8604C69.8604 212.678 69.8984 212.982 69.9746 213.258C70.0566 213.527 70.1826 213.759 70.3525 213.952C70.5283 214.14 70.751 214.283 71.0205 214.383C71.2959 214.482 71.624 214.532 72.0049 214.532C72.3916 214.532 72.7314 214.506 73.0244 214.453C73.3174 214.395 73.5693 214.333 73.7803 214.269C73.9971 214.198 74.1758 214.137 74.3164 214.084C74.457 214.025 74.5713 213.996 74.6592 213.996C74.7119 213.996 74.7559 214.008 74.791 214.031C74.8262 214.049 74.8555 214.084 74.8789 214.137C74.9023 214.189 74.917 214.266 74.9229 214.365C74.9346 214.459 74.9404 214.579 74.9404 214.726C74.9404 214.854 74.9375 214.966 74.9316 215.06C74.9258 215.147 74.917 215.224 74.9053 215.288C74.8936 215.353 74.876 215.408 74.8525 215.455C74.8291 215.496 74.7969 215.537 74.7559 215.578C74.7207 215.619 74.6182 215.675 74.4482 215.745C74.2783 215.815 74.0615 215.886 73.7979 215.956C73.5342 216.021 73.2324 216.076 72.8926 216.123C72.5527 216.176 72.1895 216.202 71.8027 216.202C71.1055 216.202 70.4932 216.114 69.9658 215.938C69.4443 215.763 69.0078 215.496 68.6562 215.139C68.3047 214.781 68.041 214.33 67.8652 213.785C67.6953 213.24 67.6104 212.602 67.6104 211.869C67.6104 211.172 67.7012 210.545 67.8828 209.988C68.0645 209.426 68.3281 208.951 68.6738 208.564C69.0195 208.172 69.4385 207.873 69.9307 207.668C70.4287 207.463 70.9883 207.36 71.6094 207.36C72.2656 207.36 72.8252 207.457 73.2881 207.65C73.7568 207.844 74.1406 208.113 74.4395 208.459C74.7383 208.799 74.958 209.203 75.0986 209.672C75.2393 210.141 75.3096 210.65 75.3096 211.201V211.553ZM73.165 210.92C73.1826 210.299 73.0566 209.812 72.7871 209.461C72.5234 209.104 72.1133 208.925 71.5566 208.925C71.2754 208.925 71.0293 208.978 70.8184 209.083C70.6133 209.188 70.4404 209.332 70.2998 209.514C70.165 209.689 70.0596 209.9 69.9834 210.146C69.9131 210.387 69.8721 210.645 69.8604 210.92H73.165ZM83.4307 215.701C83.4307 215.76 83.4131 215.812 83.3779 215.859C83.3428 215.9 83.2812 215.936 83.1934 215.965C83.1113 215.994 83 216.015 82.8594 216.026C82.7188 216.044 82.54 216.053 82.3232 216.053C82.1064 216.053 81.9277 216.044 81.7871 216.026C81.6465 216.015 81.5322 215.994 81.4443 215.965C81.3623 215.936 81.3037 215.9 81.2686 215.859C81.2334 215.812 81.2158 215.76 81.2158 215.701V207.879C81.2158 207.82 81.2334 207.771 81.2686 207.729C81.3037 207.683 81.3623 207.645 81.4443 207.615C81.5322 207.58 81.6465 207.554 81.7871 207.536C81.9277 207.519 82.1064 207.51 82.3232 207.51C82.54 207.51 82.7188 207.519 82.8594 207.536C83 207.554 83.1113 207.58 83.1934 207.615C83.2812 207.645 83.3428 207.683 83.3779 207.729C83.4131 207.771 83.4307 207.82 83.4307 207.879V215.701ZM83.5977 205.207C83.5977 205.652 83.5068 205.96 83.3252 206.13C83.1436 206.3 82.8066 206.385 82.3145 206.385C81.8164 206.385 81.4795 206.303 81.3037 206.139C81.1338 205.975 81.0488 205.679 81.0488 205.251C81.0488 204.806 81.1367 204.498 81.3125 204.328C81.4941 204.152 81.834 204.064 82.332 204.064C82.8242 204.064 83.1582 204.149 83.334 204.319C83.5098 204.483 83.5977 204.779 83.5977 205.207ZM91.165 213.486C91.165 213.932 91.0801 214.324 90.9102 214.664C90.7461 215.004 90.5117 215.288 90.207 215.517C89.9023 215.745 89.542 215.915 89.126 216.026C88.71 216.144 88.2588 216.202 87.7725 216.202C87.4795 216.202 87.1982 216.179 86.9287 216.132C86.665 216.091 86.4277 216.038 86.2168 215.974C86.0059 215.903 85.8301 215.833 85.6895 215.763C85.5488 215.692 85.4463 215.628 85.3818 215.569C85.3174 215.505 85.2676 215.408 85.2324 215.279C85.1973 215.145 85.1797 214.948 85.1797 214.69C85.1797 214.521 85.1855 214.386 85.1973 214.286C85.209 214.181 85.2266 214.099 85.25 214.04C85.2734 213.976 85.3027 213.935 85.3379 213.917C85.373 213.894 85.417 213.882 85.4697 213.882C85.5342 213.882 85.6279 213.92 85.751 213.996C85.8799 214.066 86.0381 214.146 86.2256 214.233C86.4131 214.321 86.6299 214.403 86.876 214.479C87.1279 214.556 87.4121 214.594 87.7285 214.594C87.9277 214.594 88.1035 214.573 88.2559 214.532C88.4141 214.491 88.5488 214.433 88.6602 214.356C88.7773 214.28 88.8652 214.184 88.9238 214.066C88.9824 213.949 89.0117 213.814 89.0117 213.662C89.0117 213.486 88.9561 213.337 88.8447 213.214C88.7393 213.085 88.5957 212.974 88.4141 212.88C88.2383 212.786 88.0361 212.698 87.8076 212.616C87.585 212.534 87.3535 212.443 87.1133 212.344C86.8789 212.244 86.6475 212.13 86.4189 212.001C86.1963 211.872 85.9941 211.714 85.8125 211.526C85.6367 211.339 85.4932 211.113 85.3818 210.85C85.2764 210.586 85.2236 210.27 85.2236 209.9C85.2236 209.525 85.2969 209.183 85.4434 208.872C85.5898 208.556 85.8008 208.286 86.0762 208.063C86.3516 207.841 86.6855 207.668 87.0781 207.545C87.4766 207.422 87.9219 207.36 88.4141 207.36C88.6602 207.36 88.8975 207.378 89.126 207.413C89.3604 207.448 89.5713 207.492 89.7588 207.545C89.9463 207.598 90.1045 207.656 90.2334 207.721C90.3623 207.779 90.4531 207.832 90.5059 207.879C90.5645 207.92 90.6055 207.964 90.6289 208.011C90.6523 208.052 90.6699 208.104 90.6816 208.169C90.6934 208.228 90.7021 208.304 90.708 208.397C90.7197 208.485 90.7256 208.597 90.7256 208.731C90.7256 208.89 90.7197 209.019 90.708 209.118C90.7021 209.218 90.6875 209.297 90.6641 209.355C90.6465 209.414 90.6201 209.455 90.585 209.479C90.5498 209.496 90.5088 209.505 90.4619 209.505C90.4092 209.505 90.3271 209.476 90.2158 209.417C90.1045 209.353 89.9639 209.285 89.7939 209.215C89.6299 209.145 89.4365 209.08 89.2139 209.021C88.9971 208.957 88.748 208.925 88.4668 208.925C88.2676 208.925 88.0947 208.945 87.9482 208.986C87.8018 209.027 87.6816 209.086 87.5879 209.162C87.4941 209.238 87.4238 209.329 87.377 209.435C87.3301 209.534 87.3066 209.643 87.3066 209.76C87.3066 209.941 87.3623 210.094 87.4736 210.217C87.585 210.34 87.7314 210.448 87.9131 210.542C88.0947 210.636 88.2998 210.724 88.5283 210.806C88.7627 210.888 88.9971 210.979 89.2314 211.078C89.4717 211.172 89.7061 211.283 89.9346 211.412C90.1689 211.541 90.377 211.699 90.5586 211.887C90.7402 212.074 90.8867 212.3 90.998 212.563C91.1094 212.821 91.165 213.129 91.165 213.486ZM104.401 215.701C104.401 215.76 104.384 215.812 104.349 215.859C104.313 215.9 104.255 215.936 104.173 215.965C104.091 215.994 103.977 216.015 103.83 216.026C103.689 216.044 103.514 216.053 103.303 216.053C103.086 216.053 102.904 216.044 102.758 216.026C102.617 216.015 102.506 215.994 102.424 215.965C102.342 215.936 102.283 215.9 102.248 215.859C102.213 215.812 102.195 215.76 102.195 215.701V211.228C102.195 210.847 102.166 210.548 102.107 210.331C102.055 210.114 101.976 209.93 101.87 209.777C101.765 209.619 101.627 209.499 101.457 209.417C101.293 209.329 101.1 209.285 100.877 209.285C100.596 209.285 100.312 209.388 100.024 209.593C99.7373 209.798 99.4385 210.097 99.1279 210.489V215.701C99.1279 215.76 99.1104 215.812 99.0752 215.859C99.04 215.9 98.9785 215.936 98.8906 215.965C98.8086 215.994 98.6973 216.015 98.5566 216.026C98.416 216.044 98.2373 216.053 98.0205 216.053C97.8037 216.053 97.625 216.044 97.4844 216.026C97.3438 216.015 97.2295 215.994 97.1416 215.965C97.0596 215.936 97.001 215.9 96.9658 215.859C96.9307 215.812 96.9131 215.76 96.9131 215.701V207.861C96.9131 207.803 96.9277 207.753 96.957 207.712C96.9863 207.665 97.0391 207.627 97.1152 207.598C97.1914 207.568 97.2881 207.548 97.4053 207.536C97.5283 207.519 97.6807 207.51 97.8623 207.51C98.0498 207.51 98.2051 207.519 98.3281 207.536C98.4512 207.548 98.5449 207.568 98.6094 207.598C98.6797 207.627 98.7295 207.665 98.7588 207.712C98.7881 207.753 98.8027 207.803 98.8027 207.861V208.767C99.2363 208.298 99.6758 207.946 100.121 207.712C100.572 207.478 101.041 207.36 101.527 207.36C102.061 207.36 102.509 207.448 102.872 207.624C103.241 207.8 103.537 208.04 103.76 208.345C103.988 208.644 104.152 208.995 104.252 209.399C104.352 209.804 104.401 210.29 104.401 210.858V215.701ZM114.509 211.702C114.509 212.37 114.421 212.979 114.245 213.53C114.069 214.081 113.803 214.556 113.445 214.954C113.088 215.353 112.64 215.66 112.101 215.877C111.562 216.094 110.932 216.202 110.211 216.202C109.514 216.202 108.907 216.105 108.392 215.912C107.876 215.719 107.448 215.438 107.108 215.068C106.769 214.699 106.517 214.245 106.353 213.706C106.188 213.167 106.106 212.552 106.106 211.86C106.106 211.192 106.194 210.583 106.37 210.032C106.552 209.476 106.821 209.001 107.179 208.608C107.536 208.21 107.981 207.902 108.515 207.686C109.054 207.469 109.684 207.36 110.404 207.36C111.107 207.36 111.717 207.457 112.232 207.65C112.748 207.838 113.173 208.116 113.507 208.485C113.847 208.854 114.099 209.309 114.263 209.848C114.427 210.387 114.509 211.005 114.509 211.702ZM112.232 211.79C112.232 211.403 112.2 211.049 112.136 210.727C112.077 210.398 111.975 210.114 111.828 209.874C111.682 209.634 111.485 209.446 111.239 209.312C110.999 209.177 110.694 209.109 110.325 209.109C109.997 209.109 109.71 209.171 109.464 209.294C109.218 209.411 109.016 209.587 108.857 209.821C108.699 210.05 108.579 210.328 108.497 210.656C108.421 210.979 108.383 211.348 108.383 211.764C108.383 212.15 108.415 212.508 108.479 212.836C108.544 213.158 108.646 213.439 108.787 213.68C108.934 213.92 109.13 214.107 109.376 214.242C109.622 214.371 109.927 214.436 110.29 214.436C110.624 214.436 110.914 214.377 111.16 214.26C111.406 214.137 111.608 213.961 111.767 213.732C111.925 213.504 112.042 213.229 112.118 212.906C112.194 212.578 112.232 212.206 112.232 211.79ZM128.237 211.667C128.237 212.364 128.161 212.994 128.009 213.557C127.862 214.113 127.646 214.588 127.358 214.98C127.071 215.373 126.714 215.675 126.286 215.886C125.858 216.097 125.369 216.202 124.818 216.202C124.59 216.202 124.379 216.179 124.186 216.132C123.998 216.091 123.813 216.026 123.632 215.938C123.456 215.845 123.28 215.73 123.104 215.596C122.929 215.461 122.747 215.303 122.56 215.121V218.812C122.56 218.871 122.542 218.924 122.507 218.971C122.472 219.018 122.41 219.056 122.322 219.085C122.24 219.12 122.129 219.146 121.988 219.164C121.848 219.182 121.669 219.19 121.452 219.19C121.235 219.19 121.057 219.182 120.916 219.164C120.775 219.146 120.661 219.12 120.573 219.085C120.491 219.056 120.433 219.018 120.397 218.971C120.362 218.924 120.345 218.871 120.345 218.812V207.861C120.345 207.803 120.359 207.753 120.389 207.712C120.418 207.665 120.468 207.627 120.538 207.598C120.614 207.568 120.711 207.548 120.828 207.536C120.951 207.519 121.104 207.51 121.285 207.51C121.461 207.51 121.607 207.519 121.725 207.536C121.848 207.548 121.944 207.568 122.015 207.598C122.091 207.627 122.144 207.665 122.173 207.712C122.202 207.753 122.217 207.803 122.217 207.861V208.784C122.445 208.55 122.668 208.345 122.885 208.169C123.107 207.987 123.333 207.838 123.562 207.721C123.79 207.598 124.024 207.507 124.265 207.448C124.511 207.39 124.771 207.36 125.047 207.36C125.621 207.36 126.11 207.475 126.515 207.703C126.919 207.926 127.247 208.233 127.499 208.626C127.757 209.019 127.944 209.476 128.062 209.997C128.179 210.519 128.237 211.075 128.237 211.667ZM125.935 211.825C125.935 211.491 125.908 211.172 125.855 210.867C125.809 210.557 125.724 210.281 125.601 210.041C125.483 209.801 125.325 209.61 125.126 209.47C124.933 209.323 124.689 209.25 124.396 209.25C124.25 209.25 124.104 209.273 123.957 209.32C123.816 209.361 123.67 209.432 123.518 209.531C123.371 209.631 123.219 209.76 123.061 209.918C122.902 210.076 122.735 210.272 122.56 210.507V213.091C122.87 213.483 123.166 213.788 123.447 214.005C123.729 214.216 124.021 214.321 124.326 214.321C124.613 214.321 124.856 214.248 125.056 214.102C125.261 213.955 125.428 213.765 125.557 213.53C125.686 213.29 125.779 213.021 125.838 212.722C125.902 212.423 125.935 212.124 125.935 211.825ZM135.049 208.591C135.049 208.802 135.043 208.975 135.031 209.109C135.02 209.244 135.002 209.35 134.979 209.426C134.955 209.502 134.923 209.555 134.882 209.584C134.847 209.613 134.8 209.628 134.741 209.628C134.694 209.628 134.642 209.619 134.583 209.602C134.524 209.578 134.457 209.555 134.381 209.531C134.311 209.508 134.231 209.487 134.144 209.47C134.056 209.446 133.959 209.435 133.854 209.435C133.73 209.435 133.607 209.461 133.484 209.514C133.361 209.561 133.232 209.637 133.098 209.742C132.969 209.848 132.831 209.988 132.685 210.164C132.544 210.34 132.392 210.557 132.228 210.814V215.701C132.228 215.76 132.21 215.812 132.175 215.859C132.14 215.9 132.078 215.936 131.99 215.965C131.908 215.994 131.797 216.015 131.656 216.026C131.516 216.044 131.337 216.053 131.12 216.053C130.903 216.053 130.725 216.044 130.584 216.026C130.443 216.015 130.329 215.994 130.241 215.965C130.159 215.936 130.101 215.9 130.065 215.859C130.03 215.812 130.013 215.76 130.013 215.701V207.861C130.013 207.803 130.027 207.753 130.057 207.712C130.086 207.665 130.139 207.627 130.215 207.598C130.291 207.568 130.388 207.548 130.505 207.536C130.628 207.519 130.78 207.51 130.962 207.51C131.149 207.51 131.305 207.519 131.428 207.536C131.551 207.548 131.645 207.568 131.709 207.598C131.779 207.627 131.829 207.665 131.858 207.712C131.888 207.753 131.902 207.803 131.902 207.861V208.837C132.107 208.544 132.301 208.304 132.482 208.116C132.664 207.923 132.837 207.771 133.001 207.659C133.165 207.548 133.329 207.472 133.493 207.431C133.657 207.384 133.821 207.36 133.985 207.36C134.062 207.36 134.144 207.366 134.231 207.378C134.319 207.384 134.41 207.398 134.504 207.422C134.598 207.439 134.68 207.463 134.75 207.492C134.82 207.516 134.87 207.542 134.899 207.571C134.935 207.601 134.958 207.633 134.97 207.668C134.987 207.703 135.002 207.753 135.014 207.817C135.025 207.876 135.034 207.967 135.04 208.09C135.046 208.213 135.049 208.38 135.049 208.591ZM144.11 211.702C144.11 212.37 144.022 212.979 143.847 213.53C143.671 214.081 143.404 214.556 143.047 214.954C142.689 215.353 142.241 215.66 141.702 215.877C141.163 216.094 140.533 216.202 139.812 216.202C139.115 216.202 138.509 216.105 137.993 215.912C137.478 215.719 137.05 215.438 136.71 215.068C136.37 214.699 136.118 214.245 135.954 213.706C135.79 213.167 135.708 212.552 135.708 211.86C135.708 211.192 135.796 210.583 135.972 210.032C136.153 209.476 136.423 209.001 136.78 208.608C137.138 208.21 137.583 207.902 138.116 207.686C138.655 207.469 139.285 207.36 140.006 207.36C140.709 207.36 141.318 207.457 141.834 207.65C142.35 207.838 142.774 208.116 143.108 208.485C143.448 208.854 143.7 209.309 143.864 209.848C144.028 210.387 144.11 211.005 144.11 211.702ZM141.834 211.79C141.834 211.403 141.802 211.049 141.737 210.727C141.679 210.398 141.576 210.114 141.43 209.874C141.283 209.634 141.087 209.446 140.841 209.312C140.601 209.177 140.296 209.109 139.927 209.109C139.599 209.109 139.312 209.171 139.065 209.294C138.819 209.411 138.617 209.587 138.459 209.821C138.301 210.05 138.181 210.328 138.099 210.656C138.022 210.979 137.984 211.348 137.984 211.764C137.984 212.15 138.017 212.508 138.081 212.836C138.146 213.158 138.248 213.439 138.389 213.68C138.535 213.92 138.731 214.107 138.978 214.242C139.224 214.371 139.528 214.436 139.892 214.436C140.226 214.436 140.516 214.377 140.762 214.26C141.008 214.137 141.21 213.961 141.368 213.732C141.526 213.504 141.644 213.229 141.72 212.906C141.796 212.578 141.834 212.206 141.834 211.79ZM153.304 215.701C153.304 215.766 153.289 215.821 153.26 215.868C153.23 215.909 153.181 215.944 153.11 215.974C153.04 216.003 152.943 216.023 152.82 216.035C152.703 216.047 152.557 216.053 152.381 216.053C152.193 216.053 152.041 216.047 151.924 216.035C151.807 216.023 151.71 216.003 151.634 215.974C151.563 215.944 151.511 215.909 151.476 215.868C151.446 215.821 151.432 215.766 151.432 215.701V214.831C151.027 215.265 150.603 215.602 150.157 215.842C149.718 216.082 149.229 216.202 148.689 216.202C148.092 216.202 147.585 216.088 147.169 215.859C146.759 215.625 146.422 215.312 146.158 214.919C145.9 214.526 145.713 214.069 145.596 213.548C145.479 213.021 145.42 212.467 145.42 211.887C145.42 211.189 145.493 210.562 145.64 210.006C145.792 209.449 146.012 208.975 146.299 208.582C146.586 208.189 146.943 207.888 147.371 207.677C147.799 207.466 148.291 207.36 148.848 207.36C149.287 207.36 149.686 207.451 150.043 207.633C150.4 207.809 150.755 208.069 151.106 208.415V204.17C151.106 204.111 151.121 204.059 151.15 204.012C151.186 203.965 151.244 203.927 151.326 203.897C151.414 203.862 151.528 203.836 151.669 203.818C151.81 203.801 151.988 203.792 152.205 203.792C152.422 203.792 152.601 203.801 152.741 203.818C152.882 203.836 152.993 203.862 153.075 203.897C153.157 203.927 153.216 203.965 153.251 204.012C153.286 204.059 153.304 204.111 153.304 204.17V215.701ZM151.106 210.463C150.79 210.064 150.485 209.76 150.192 209.549C149.905 209.338 149.604 209.232 149.287 209.232C149 209.232 148.751 209.306 148.54 209.452C148.335 209.593 148.168 209.783 148.039 210.023C147.916 210.264 147.822 210.533 147.758 210.832C147.699 211.125 147.67 211.427 147.67 211.737C147.67 212.065 147.696 212.385 147.749 212.695C147.802 213.006 147.887 213.284 148.004 213.53C148.127 213.771 148.288 213.964 148.487 214.11C148.687 214.257 148.938 214.33 149.243 214.33C149.396 214.33 149.542 214.31 149.683 214.269C149.829 214.222 149.976 214.148 150.122 214.049C150.274 213.949 150.43 213.82 150.588 213.662C150.746 213.498 150.919 213.299 151.106 213.064V210.463ZM162.972 215.701C162.972 215.76 162.957 215.812 162.928 215.859C162.898 215.9 162.846 215.936 162.77 215.965C162.699 215.994 162.603 216.015 162.479 216.026C162.362 216.044 162.213 216.053 162.031 216.053C161.838 216.053 161.68 216.044 161.557 216.026C161.439 216.015 161.346 215.994 161.275 215.965C161.205 215.936 161.155 215.9 161.126 215.859C161.097 215.812 161.082 215.76 161.082 215.701V214.796C160.648 215.265 160.206 215.616 159.755 215.851C159.31 216.085 158.847 216.202 158.366 216.202C157.827 216.202 157.373 216.114 157.004 215.938C156.641 215.763 156.345 215.522 156.116 215.218C155.894 214.913 155.732 214.562 155.633 214.163C155.539 213.759 155.492 213.258 155.492 212.66V207.861C155.492 207.803 155.507 207.753 155.536 207.712C155.571 207.665 155.63 207.627 155.712 207.598C155.8 207.568 155.914 207.548 156.055 207.536C156.201 207.519 156.38 207.51 156.591 207.51C156.808 207.51 156.986 207.519 157.127 207.536C157.268 207.548 157.379 207.568 157.461 207.598C157.549 207.627 157.61 207.665 157.646 207.712C157.681 207.753 157.698 207.803 157.698 207.861V212.291C157.698 212.701 157.725 213.015 157.777 213.231C157.83 213.448 157.909 213.636 158.015 213.794C158.126 213.946 158.264 214.066 158.428 214.154C158.598 214.236 158.794 214.277 159.017 214.277C159.298 214.277 159.579 214.175 159.86 213.97C160.147 213.765 160.452 213.466 160.774 213.073V207.861C160.774 207.803 160.789 207.753 160.818 207.712C160.854 207.665 160.912 207.627 160.994 207.598C161.082 207.568 161.196 207.548 161.337 207.536C161.478 207.519 161.656 207.51 161.873 207.51C162.09 207.51 162.269 207.519 162.409 207.536C162.55 207.548 162.661 207.568 162.743 207.598C162.825 207.627 162.884 207.665 162.919 207.712C162.954 207.753 162.972 207.803 162.972 207.861V215.701ZM171.137 214.453C171.137 214.605 171.131 214.734 171.119 214.84C171.113 214.939 171.102 215.024 171.084 215.095C171.072 215.165 171.055 215.224 171.031 215.271C171.014 215.312 170.97 215.367 170.899 215.438C170.829 215.502 170.709 215.584 170.539 215.684C170.369 215.777 170.176 215.862 169.959 215.938C169.742 216.015 169.505 216.076 169.247 216.123C168.995 216.17 168.734 216.193 168.465 216.193C167.861 216.193 167.325 216.1 166.856 215.912C166.394 215.725 166.004 215.449 165.688 215.086C165.371 214.717 165.131 214.269 164.967 213.741C164.809 213.214 164.729 212.61 164.729 211.931C164.729 211.146 164.826 210.469 165.02 209.9C165.219 209.326 165.494 208.852 165.846 208.477C166.197 208.102 166.613 207.823 167.094 207.642C167.574 207.46 168.102 207.369 168.676 207.369C168.91 207.369 169.139 207.39 169.361 207.431C169.59 207.472 169.801 207.527 169.994 207.598C170.193 207.668 170.369 207.747 170.521 207.835C170.68 207.923 170.791 207.999 170.855 208.063C170.92 208.128 170.964 208.184 170.987 208.23C171.017 208.271 171.037 208.327 171.049 208.397C171.066 208.468 171.078 208.556 171.084 208.661C171.096 208.761 171.102 208.884 171.102 209.03C171.102 209.37 171.072 209.61 171.014 209.751C170.955 209.886 170.879 209.953 170.785 209.953C170.686 209.953 170.58 209.912 170.469 209.83C170.357 209.748 170.226 209.657 170.073 209.558C169.921 209.458 169.739 209.367 169.528 209.285C169.317 209.203 169.065 209.162 168.772 209.162C168.198 209.162 167.759 209.385 167.454 209.83C167.149 210.27 166.997 210.917 166.997 211.772C166.997 212.194 167.035 212.566 167.111 212.889C167.188 213.211 167.299 213.48 167.445 213.697C167.598 213.914 167.785 214.078 168.008 214.189C168.236 214.295 168.5 214.348 168.799 214.348C169.104 214.348 169.364 214.304 169.581 214.216C169.804 214.122 169.997 214.02 170.161 213.908C170.325 213.797 170.463 213.697 170.574 213.609C170.686 213.516 170.779 213.469 170.855 213.469C170.908 213.469 170.952 213.483 170.987 213.513C171.022 213.542 171.049 213.598 171.066 213.68C171.09 213.756 171.107 213.855 171.119 213.979C171.131 214.102 171.137 214.26 171.137 214.453ZM177.386 214.928C177.386 215.186 177.368 215.385 177.333 215.525C177.304 215.66 177.263 215.757 177.21 215.815C177.157 215.868 177.078 215.918 176.973 215.965C176.873 216.006 176.753 216.041 176.612 216.07C176.478 216.105 176.328 216.132 176.164 216.149C176.006 216.167 175.845 216.176 175.681 216.176C175.241 216.176 174.86 216.12 174.538 216.009C174.216 215.897 173.949 215.728 173.738 215.499C173.527 215.265 173.372 214.972 173.272 214.62C173.173 214.269 173.123 213.853 173.123 213.372V209.355H172.183C172.071 209.355 171.986 209.288 171.928 209.153C171.869 209.013 171.84 208.781 171.84 208.459C171.84 208.289 171.846 208.146 171.857 208.028C171.875 207.911 171.898 207.82 171.928 207.756C171.957 207.686 171.992 207.636 172.033 207.606C172.08 207.577 172.133 207.562 172.191 207.562H173.123V205.813C173.123 205.755 173.138 205.702 173.167 205.655C173.202 205.608 173.261 205.57 173.343 205.541C173.431 205.506 173.545 205.482 173.686 205.471C173.832 205.453 174.011 205.444 174.222 205.444C174.438 205.444 174.617 205.453 174.758 205.471C174.904 205.482 175.019 205.506 175.101 205.541C175.183 205.57 175.241 205.608 175.276 205.655C175.312 205.702 175.329 205.755 175.329 205.813V207.562H177.034C177.093 207.562 177.143 207.577 177.184 207.606C177.23 207.636 177.269 207.686 177.298 207.756C177.327 207.82 177.348 207.911 177.359 208.028C177.377 208.146 177.386 208.289 177.386 208.459C177.386 208.781 177.356 209.013 177.298 209.153C177.239 209.288 177.154 209.355 177.043 209.355H175.329V213.038C175.329 213.466 175.396 213.788 175.531 214.005C175.666 214.216 175.906 214.321 176.252 214.321C176.369 214.321 176.475 214.312 176.568 214.295C176.662 214.271 176.744 214.248 176.814 214.225C176.891 214.195 176.952 214.172 176.999 214.154C177.052 214.131 177.099 214.119 177.14 214.119C177.175 214.119 177.207 214.131 177.236 214.154C177.271 214.172 177.298 214.213 177.315 214.277C177.333 214.336 177.348 214.418 177.359 214.523C177.377 214.629 177.386 214.764 177.386 214.928Z" fill="#C8C8C8"/>
</svg>
