<svg width="21" height="21" viewBox="0 0 21 21" fill="none" xmlns="http://www.w3.org/2000/svg">
<path d="M9 17.25H9.00005C10.7569 17.2496 12.4651 16.6853 13.8746 15.6431L18.1162 19.8848L18.293 20.0616L18.4698 19.8848L19.8838 18.4708L20.0606 18.294L19.8838 18.1172L15.6421 13.8756C16.6849 12.466 17.2496 10.7573 17.25 9.00006V9C17.25 4.45093 13.5491 0.75 9 0.75C4.45093 0.75 0.75 4.45093 0.75 9C0.75 13.5491 4.45093 17.25 9 17.25ZM9 3.25C12.1709 3.25 14.75 5.82907 14.75 9C14.75 12.1709 12.1709 14.75 9 14.75C5.82907 14.75 3.25 12.1709 3.25 9C3.25 5.82907 5.82907 3.25 9 3.25Z" fill="#C8C8C8" stroke="#C8C8C8" stroke-width="0.5"/>
</svg>
