<svg width="17" height="18" viewBox="0 0 17 18" fill="none" xmlns="http://www.w3.org/2000/svg">
<path d="M7.70938 2.67285H2.49097C2.09554 2.67285 1.71631 2.83904 1.4367 3.13485C1.15708 3.43066 1 3.83187 1 4.25021V15.2917C1 15.7101 1.15708 16.1113 1.4367 16.4071C1.71631 16.7029 2.09554 16.8691 2.49097 16.8691H12.9278C13.3232 16.8691 13.7024 16.7029 13.9821 16.4071C14.2617 16.1113 14.4188 15.7101 14.4188 15.2917V9.77097" stroke="#959595" stroke-width="1.5" stroke-linecap="round" stroke-linejoin="round"/>
<path d="M13.3008 1.49002C13.5973 1.17627 13.9996 1 14.419 1C14.8384 1 15.2406 1.17627 15.5372 1.49002C15.8338 1.80378 16.0004 2.22933 16.0004 2.67305C16.0004 3.11677 15.8338 3.54231 15.5372 3.85607L8.45509 11.3486L5.47314 12.1372L6.21863 8.98251L13.3008 1.49002Z" stroke="#959595" stroke-width="1.5" stroke-linecap="round" stroke-linejoin="round"/>
</svg>
