<svg width="55" height="55" viewBox="0 0 55 55" fill="none" xmlns="http://www.w3.org/2000/svg">
<rect width="55" height="55" rx="27.5" fill="white"/>
<path d="M26.6777 19.627C26.6777 19.9102 26.6631 20.1543 26.6338 20.3594C26.6143 20.5547 26.5801 20.7158 26.5312 20.8428C26.4824 20.96 26.4189 21.0479 26.3408 21.1064C26.2725 21.165 26.1943 21.1943 26.1064 21.1943H21.3604V36.4727C21.3604 36.5703 21.3262 36.6582 21.2578 36.7363C21.1992 36.8145 21.0967 36.8779 20.9502 36.9268C20.8037 36.9756 20.6035 37.0146 20.3496 37.0439C20.1055 37.0732 19.7979 37.0879 19.4268 37.0879C19.0557 37.0879 18.7432 37.0732 18.4893 37.0439C18.2451 37.0146 18.0498 36.9756 17.9033 36.9268C17.7568 36.8779 17.6494 36.8145 17.5811 36.7363C17.5225 36.6582 17.4932 36.5703 17.4932 36.4727V21.1943H12.7471C12.6494 21.1943 12.5664 21.165 12.498 21.1064C12.4297 21.0479 12.3711 20.96 12.3223 20.8428C12.2734 20.7158 12.2344 20.5547 12.2051 20.3594C12.1855 20.1543 12.1758 19.9102 12.1758 19.627C12.1758 19.334 12.1855 19.085 12.2051 18.8799C12.2344 18.6748 12.2734 18.5137 12.3223 18.3965C12.3711 18.2695 12.4297 18.1816 12.498 18.1328C12.5664 18.0742 12.6494 18.0449 12.7471 18.0449H26.1064C26.1943 18.0449 26.2725 18.0742 26.3408 18.1328C26.4189 18.1816 26.4824 18.2695 26.5312 18.3965C26.5801 18.5137 26.6143 18.6748 26.6338 18.8799C26.6631 19.085 26.6777 19.334 26.6777 19.627ZM42.0732 35.5645C42.1904 35.916 42.2637 36.1943 42.293 36.3994C42.3223 36.6045 42.2832 36.7607 42.1758 36.8682C42.0684 36.9658 41.8779 37.0244 41.6045 37.0439C41.3311 37.0732 40.9551 37.0879 40.4766 37.0879C39.9785 37.0879 39.5879 37.0781 39.3047 37.0586C39.0312 37.0488 38.8213 37.0244 38.6748 36.9854C38.5283 36.9365 38.4258 36.873 38.3672 36.7949C38.3086 36.7168 38.2598 36.6143 38.2207 36.4873L36.9463 32.6787H29.8271L28.626 36.3848C28.5869 36.5215 28.5332 36.6387 28.4648 36.7363C28.4062 36.8242 28.3037 36.8975 28.1572 36.9561C28.0205 37.0049 27.8203 37.0391 27.5566 37.0586C27.3027 37.0781 26.9658 37.0879 26.5459 37.0879C26.0967 37.0879 25.7451 37.0732 25.4912 37.0439C25.2373 37.0146 25.0615 36.9463 24.9639 36.8389C24.8662 36.7217 24.832 36.5605 24.8613 36.3555C24.8906 36.1504 24.9639 35.877 25.0811 35.5352L30.9258 18.7188C30.9844 18.5527 31.0527 18.4209 31.1309 18.3232C31.209 18.2158 31.3311 18.1377 31.4971 18.0889C31.6729 18.0303 31.9121 17.9961 32.2148 17.9863C32.5176 17.9668 32.918 17.957 33.416 17.957C33.9922 17.957 34.4512 17.9668 34.793 17.9863C35.1348 17.9961 35.3984 18.0303 35.584 18.0889C35.7793 18.1377 35.916 18.2158 35.9941 18.3232C36.082 18.4307 36.1553 18.5771 36.2139 18.7627L42.0732 35.5645ZM33.3721 21.6631H33.3574L30.6768 29.7197H36.0527L33.3721 21.6631Z" fill="#2F2F8D"/>
</svg>
