<svg width="32" height="21" viewBox="0 0 32 21" fill="none" xmlns="http://www.w3.org/2000/svg">
<path fill-rule="evenodd" clip-rule="evenodd" d="M25.1663 8.7957H28.2603C30.1941 8.7957 31.9344 10.5972 31.9344 12.799V15.201C31.9344 16.6022 30.7742 17.8032 29.4206 17.8032H28.8404C28.8404 15.201 26.7133 12.9992 24.1994 12.9992C21.6855 12.9992 19.5584 15.201 19.5584 17.8032H13.3703C13.3703 15.201 11.2432 12.9992 8.72931 12.9992C6.21542 12.9992 4.08828 15.201 4.08828 17.8032H3.50815C2.15452 17.8032 0.994263 16.6022 0.994263 15.201V12.5988C0.994263 10.5972 2.73465 8.7957 4.66841 8.7957H6.02204C6.79555 4.79238 9.88957 1.7899 13.7571 0.989236C18.9782 -0.211758 24.006 3.39122 25.1663 8.7957ZM17.4312 3.99172C13.9505 2.99089 10.0829 4.99255 9.11606 8.7957H22.0723C21.2988 6.39371 19.5584 4.59222 17.4312 3.99172ZM5.82867 17.8032C5.82867 16.2018 7.1823 14.8007 8.72931 14.8007C10.2763 14.8007 11.63 16.2018 11.63 17.8032C11.63 19.4045 10.2763 20.8056 8.72931 20.8056C7.1823 20.8056 5.82867 19.4045 5.82867 17.8032ZM27.2262 17.6948C27.2262 19.4129 25.8711 20.8057 24.1994 20.8057C22.5278 20.8057 21.1727 19.4129 21.1727 17.6948C21.1727 15.9767 22.5278 14.5839 24.1994 14.5839C25.8711 14.5839 27.2262 15.9767 27.2262 17.6948Z" fill="white"/>
</svg>
