<svg width="17" height="20" viewBox="0 0 17 20" fill="none" xmlns="http://www.w3.org/2000/svg">
<path d="M7.96813 20V16.8127C3.53254 16.5826 0 12.8995 0 8.4108C0 3.77158 3.77158 0 8.4108 0C13.05 0 16.8216 3.77158 16.8216 8.4108C16.8216 12.7933 13.776 17.2023 9.23417 19.3891L7.96813 20ZM8.4108 1.77069C4.74546 1.77069 1.77069 4.74546 1.77069 8.4108C1.77069 12.0761 4.74546 15.0509 8.4108 15.0509H9.73882V17.0872C12.9615 15.0509 15.0509 11.7043 15.0509 8.4108C15.0509 4.74546 12.0761 1.77069 8.4108 1.77069ZM7.52545 11.9522H9.29615V13.7229H7.52545V11.9522ZM9.29615 10.6242H7.52545C7.52545 7.74679 10.1815 7.96813 10.1815 6.19743C10.1815 5.22355 9.38468 4.42674 8.4108 4.42674C7.43692 4.42674 6.64011 5.22355 6.64011 6.19743H4.86941C4.86941 4.24081 6.45418 2.65604 8.4108 2.65604C10.3674 2.65604 11.9522 4.24081 11.9522 6.19743C11.9522 8.4108 9.29615 8.63214 9.29615 10.6242Z" fill="black"/>
</svg>
