<svg width="32" height="20" viewBox="0 0 32 20" fill="none" xmlns="http://www.w3.org/2000/svg">
<path d="M25.3673 7.23755C24.6472 7.23258 23.9608 7.3518 23.318 7.58032L21.7278 4.85306H25.7105C26.3534 4.85306 26.8705 4.32151 26.8705 3.66081V2.07115C26.8705 1.41045 26.3534 0.878906 25.7105 0.878906H23.521C23.1923 0.878906 22.8782 1.02297 22.6607 1.27135L20.8481 3.34288L19.7461 1.45516C19.5335 1.09748 19.1565 0.878906 18.7505 0.878906H14.8838C14.4584 0.878906 14.1104 1.23658 14.1104 1.67374V2.46857C14.1104 2.90572 14.4584 3.2634 14.8838 3.2634H18.0931L19.0211 4.85306H11.5922C10.7367 3.70552 9.42207 2.86598 6.76371 2.86598H4.0812C3.42869 2.86598 2.88252 3.41243 2.89702 4.08306C2.90669 4.72886 3.42386 5.25047 4.05703 5.25047H6.76371C7.94789 5.25047 8.63423 5.79195 9.07406 6.48246L8.52789 7.50083C7.89956 7.30709 7.22772 7.21767 6.53171 7.24251C3.27886 7.36174 0.654338 10.0989 0.577005 13.4472C0.499671 17.0289 3.29819 19.9548 6.76371 19.9548C9.6444 19.9548 12.0659 17.928 12.7571 15.1858H16.8268C17.489 15.1858 18.0158 14.6195 17.9868 13.939C17.8853 11.5992 18.8326 9.28423 20.7031 7.72935L21.3073 8.76262C19.9733 9.93997 19.1275 11.6886 19.142 13.6409C19.1661 17.0984 21.9067 19.925 25.2707 19.9548C28.7314 19.9896 31.5444 17.0984 31.5154 13.5415C31.4816 10.084 28.7314 7.26238 25.3673 7.23755ZM6.76371 17.5703C4.6322 17.5703 2.89702 15.7869 2.89702 13.5962C2.89702 11.4054 4.6322 9.62204 6.76371 9.62204C6.96672 9.62204 7.16972 9.63694 7.36789 9.67171L5.36204 13.4173C4.9367 14.2122 5.49737 15.1858 6.37704 15.1858H10.3066C9.70724 16.5867 8.34423 17.5703 6.76371 17.5703ZM29.1857 13.8148C29.0794 15.8316 27.494 17.461 25.5365 17.5654C23.3083 17.6896 21.4572 15.8614 21.4572 13.5962C21.4572 12.5331 21.8632 11.5694 22.5253 10.859L24.913 14.9524C25.1305 15.3299 25.609 15.4491 25.9764 15.2256L26.6385 14.8182C27.0059 14.5947 27.1219 14.1029 26.9044 13.7253L24.5553 9.70649C24.8067 9.65184 25.0628 9.627 25.3238 9.627C27.5279 9.62204 29.3017 11.5247 29.1857 13.8148Z" fill="white"/>
</svg>
