<svg width="20" height="20" viewBox="0 0 20 20" fill="none" xmlns="http://www.w3.org/2000/svg">
<path d="M11.0288 0.733471C11.4041 0.358253 11.8888 0.111924 12.4131 0.0300162C12.9374 -0.051892 13.4741 0.0348536 13.946 0.277741C14.4178 0.520629 14.8002 0.907103 15.0382 1.38142C15.2761 1.85573 15.3573 2.39337 15.2699 2.91679L14.6443 6.67009C16.0822 6.72189 17.444 7.32954 18.4429 8.36512C19.4418 9.40071 19.9999 10.7834 19.9999 12.2223V14.4445C19.9999 15.9179 19.4145 17.331 18.3727 18.3728C17.3308 19.4147 15.9178 20 14.4443 20H3.33331C2.44926 20 1.60142 19.6488 0.976304 19.0237C0.351187 18.3986 0 17.5507 0 16.6667V10.0001C0 9.11602 0.351187 8.26818 0.976304 7.64306C1.60142 7.01795 2.44926 6.66676 3.33331 6.66676H5.09552L11.0288 0.733471ZM4.44441 8.88897H3.33331C3.03863 8.88897 2.75601 9.00603 2.54764 9.2144C2.33927 9.42278 2.22221 9.70539 2.22221 10.0001V16.6667C2.22221 16.9614 2.33927 17.244 2.54764 17.4524C2.75601 17.6607 3.03863 17.7778 3.33331 17.7778H4.44441V8.88897ZM6.66662 17.7778H14.4443C15.3284 17.7778 16.1762 17.4266 16.8013 16.8015C17.4265 16.1764 17.7777 15.3285 17.7777 14.4445V12.2223C17.7777 11.3382 17.4265 10.4904 16.8013 9.86527C16.1762 9.24016 15.3284 8.88897 14.4443 8.88897H11.111C10.8163 8.88897 10.5337 8.7719 10.3254 8.56353C10.117 8.35516 9.99993 8.07255 9.99993 7.77786C9.99993 7.48318 10.117 7.20057 10.3254 6.9922C10.5337 6.78382 10.8163 6.66676 11.111 6.66676H12.3921L13.0777 2.55124C13.0877 2.49223 13.0786 2.43158 13.0519 2.37805C13.0251 2.32451 12.9821 2.28087 12.9289 2.25342C12.8757 2.22596 12.8152 2.21612 12.7561 2.22532C12.6969 2.23451 12.6422 2.26227 12.5999 2.30457L6.66662 8.23786V17.7778Z" fill="black"/>
</svg>
