<svg width="55" height="60" viewBox="0 0 55 60" fill="none" xmlns="http://www.w3.org/2000/svg">
<path d="M7.30273 55.4609C7.30273 55.5508 7.28711 55.6309 7.25586 55.7012C7.22461 55.7715 7.18164 55.8301 7.12695 55.877C7.07617 55.9238 7.01367 55.959 6.93945 55.9824C6.86914 56.002 6.79688 56.0117 6.72266 56.0117H6.06641C5.92969 56.0117 5.81055 55.998 5.70898 55.9707C5.61133 55.9434 5.51953 55.8945 5.43359 55.8242C5.35156 55.75 5.27148 55.6523 5.19336 55.5312C5.11523 55.4062 5.02734 55.2461 4.92969 55.0508L3.04297 51.5059C2.93359 51.2949 2.82227 51.0684 2.70898 50.8262C2.5957 50.5801 2.49414 50.3418 2.4043 50.1113H2.39258C2.4082 50.3926 2.41992 50.6738 2.42773 50.9551C2.43555 51.2324 2.43945 51.5195 2.43945 51.8164V55.7832C2.43945 55.8223 2.42773 55.8574 2.4043 55.8887C2.38477 55.9199 2.34766 55.9473 2.29297 55.9707C2.24219 55.9902 2.17188 56.0059 2.08203 56.0176C1.99219 56.0293 1.87695 56.0352 1.73633 56.0352C1.59961 56.0352 1.48633 56.0293 1.39648 56.0176C1.30664 56.0059 1.23633 55.9902 1.18555 55.9707C1.13477 55.9473 1.09961 55.9199 1.08008 55.8887C1.06055 55.8574 1.05078 55.8223 1.05078 55.7832V48.9688C1.05078 48.7852 1.10352 48.6484 1.20898 48.5586C1.31836 48.4648 1.45117 48.418 1.60742 48.418H2.43359C2.58203 48.418 2.70703 48.4316 2.80859 48.459C2.91016 48.4824 3 48.5234 3.07812 48.582C3.16016 48.6406 3.23633 48.7227 3.30664 48.8281C3.37695 48.9297 3.44922 49.0566 3.52344 49.209L5 51.9805C5.08594 52.1484 5.16992 52.3145 5.25195 52.4785C5.33789 52.6387 5.41992 52.8008 5.49805 52.9648C5.57617 53.125 5.65234 53.2832 5.72656 53.4395C5.80078 53.5957 5.87305 53.752 5.94336 53.9082H5.94922C5.9375 53.6348 5.92773 53.3496 5.91992 53.0527C5.91602 52.7559 5.91406 52.4727 5.91406 52.2031V48.6465C5.91406 48.6074 5.92578 48.5723 5.94922 48.541C5.97266 48.5098 6.01172 48.4824 6.06641 48.459C6.12109 48.4355 6.19336 48.4199 6.2832 48.4121C6.37305 48.4004 6.48828 48.3945 6.62891 48.3945C6.76172 48.3945 6.87305 48.4004 6.96289 48.4121C7.05273 48.4199 7.12109 48.4355 7.16797 48.459C7.21875 48.4824 7.25391 48.5098 7.27344 48.541C7.29297 48.5723 7.30273 48.6074 7.30273 48.6465V55.4609ZM13.7012 53.0352C13.7012 53.2148 13.6602 53.3477 13.5781 53.4336C13.5 53.5195 13.3906 53.5625 13.25 53.5625H10.0684C10.0684 53.7852 10.0938 53.9883 10.1445 54.1719C10.1992 54.3516 10.2832 54.5059 10.3965 54.6348C10.5137 54.7598 10.6621 54.8555 10.8418 54.9219C11.0254 54.9883 11.2441 55.0215 11.498 55.0215C11.7559 55.0215 11.9824 55.0039 12.1777 54.9688C12.373 54.9297 12.541 54.8887 12.6816 54.8457C12.8262 54.7988 12.9453 54.7578 13.0391 54.7227C13.1328 54.6836 13.209 54.6641 13.2676 54.6641C13.3027 54.6641 13.332 54.6719 13.3555 54.6875C13.3789 54.6992 13.3984 54.7227 13.4141 54.7578C13.4297 54.793 13.4395 54.8438 13.4434 54.9102C13.4512 54.9727 13.4551 55.0527 13.4551 55.1504C13.4551 55.2363 13.4531 55.3105 13.4492 55.373C13.4453 55.4316 13.4395 55.4824 13.4316 55.5254C13.4238 55.5684 13.4121 55.6055 13.3965 55.6367C13.3809 55.6641 13.3594 55.6914 13.332 55.7188C13.3086 55.7461 13.2402 55.7832 13.127 55.8301C13.0137 55.877 12.8691 55.9238 12.6934 55.9707C12.5176 56.0137 12.3164 56.0508 12.0898 56.082C11.8633 56.1172 11.6211 56.1348 11.3633 56.1348C10.8984 56.1348 10.4902 56.0762 10.1387 55.959C9.79102 55.8418 9.5 55.6641 9.26562 55.4258C9.03125 55.1875 8.85547 54.8867 8.73828 54.5234C8.625 54.1602 8.56836 53.7344 8.56836 53.2461C8.56836 52.7812 8.62891 52.3633 8.75 51.9922C8.87109 51.6172 9.04688 51.3008 9.27734 51.043C9.50781 50.7812 9.78711 50.582 10.1152 50.4453C10.4473 50.3086 10.8203 50.2402 11.2344 50.2402C11.6719 50.2402 12.0449 50.3047 12.3535 50.4336C12.666 50.5625 12.9219 50.7422 13.1211 50.9727C13.3203 51.1992 13.4668 51.4688 13.5605 51.7812C13.6543 52.0938 13.7012 52.4336 13.7012 52.8008V53.0352ZM12.2715 52.6133C12.2832 52.1992 12.1992 51.875 12.0195 51.6406C11.8438 51.4023 11.5703 51.2832 11.1992 51.2832C11.0117 51.2832 10.8477 51.3184 10.707 51.3887C10.5703 51.459 10.4551 51.5547 10.3613 51.6758C10.2715 51.793 10.2012 51.9336 10.1504 52.0977C10.1035 52.2578 10.0762 52.4297 10.0684 52.6133H12.2715ZM22.8594 50.5625C22.8594 50.6055 22.8535 50.6582 22.8418 50.7207C22.8301 50.7832 22.8086 50.873 22.7773 50.9902L21.3828 55.7188C21.3633 55.7852 21.3379 55.8398 21.3066 55.8828C21.2754 55.9219 21.2266 55.9531 21.1602 55.9766C21.0977 56 21.0059 56.0156 20.8848 56.0234C20.7676 56.0312 20.6133 56.0352 20.4219 56.0352C20.2305 56.0352 20.0742 56.0293 19.9531 56.0176C19.832 56.0098 19.7363 55.9941 19.666 55.9707C19.5996 55.9473 19.5508 55.916 19.5195 55.877C19.4883 55.834 19.4648 55.7812 19.4492 55.7188L18.5703 52.543L18.5586 52.4902L18.5469 52.543L17.7383 55.7188C17.7227 55.7852 17.6992 55.8398 17.668 55.8828C17.6406 55.9219 17.5918 55.9531 17.5215 55.9766C17.4512 56 17.3555 56.0156 17.2344 56.0234C17.1133 56.0312 16.957 56.0352 16.7656 56.0352C16.5703 56.0352 16.4121 56.0293 16.291 56.0176C16.1738 56.0098 16.0801 55.9941 16.0098 55.9707C15.9434 55.9473 15.8945 55.916 15.8633 55.877C15.832 55.834 15.8086 55.7812 15.793 55.7188L14.4102 50.9902C14.375 50.877 14.3516 50.7891 14.3398 50.7266C14.332 50.6602 14.3281 50.6055 14.3281 50.5625C14.3281 50.5234 14.3379 50.4902 14.3574 50.4629C14.3809 50.4316 14.4199 50.4082 14.4746 50.3926C14.5332 50.373 14.6094 50.3594 14.7031 50.3516C14.8008 50.3438 14.9219 50.3398 15.0664 50.3398C15.2227 50.3398 15.3496 50.3438 15.4473 50.3516C15.5449 50.3594 15.6211 50.373 15.6758 50.3926C15.7305 50.4121 15.7676 50.4395 15.7871 50.4746C15.8105 50.5059 15.8281 50.5449 15.8398 50.5918L16.877 54.4297L16.8887 54.5L16.9004 54.4297L17.873 50.5918C17.8848 50.5449 17.9023 50.5059 17.9258 50.4746C17.9531 50.4395 17.9922 50.4121 18.043 50.3926C18.0938 50.373 18.1641 50.3594 18.2539 50.3516C18.3477 50.3438 18.4668 50.3398 18.6113 50.3398C18.7559 50.3398 18.873 50.3457 18.9629 50.3574C19.0527 50.3652 19.123 50.3789 19.1738 50.3984C19.2285 50.4141 19.2656 50.4375 19.2852 50.4688C19.3086 50.4961 19.3262 50.5293 19.3379 50.5684L20.3809 54.4355L20.3984 54.5L20.4102 54.4297L21.4062 50.5918C21.4141 50.5449 21.4297 50.5059 21.4531 50.4746C21.4766 50.4395 21.5156 50.4121 21.5703 50.3926C21.625 50.373 21.6992 50.3594 21.793 50.3516C21.8867 50.3438 22.0059 50.3398 22.1504 50.3398C22.2949 50.3398 22.4121 50.3438 22.502 50.3516C22.5957 50.3594 22.668 50.373 22.7188 50.3926C22.7734 50.4082 22.8105 50.4316 22.8301 50.4629C22.8496 50.4902 22.8594 50.5234 22.8594 50.5625ZM33.4297 52.1211C33.4297 52.75 33.3516 53.3125 33.1953 53.8086C33.0391 54.3047 32.8066 54.7266 32.498 55.0742C32.1895 55.418 31.8066 55.6816 31.3496 55.8652C30.8965 56.0449 30.3711 56.1348 29.7734 56.1348C29.1836 56.1348 28.668 56.0586 28.2266 55.9062C27.7891 55.75 27.4238 55.5137 27.1309 55.1973C26.8379 54.8809 26.6172 54.4785 26.4688 53.9902C26.3242 53.502 26.252 52.9238 26.252 52.2559C26.252 51.6426 26.3301 51.0918 26.4863 50.6035C26.6426 50.1113 26.875 49.6934 27.1836 49.3496C27.4922 49.0059 27.873 48.7422 28.3262 48.5586C28.7832 48.375 29.3125 48.2832 29.9141 48.2832C30.4883 48.2832 30.9941 48.3594 31.4316 48.5117C31.873 48.6641 32.2402 48.8984 32.5332 49.2148C32.8301 49.5312 33.0527 49.9316 33.2012 50.416C33.3535 50.8965 33.4297 51.4648 33.4297 52.1211ZM31.8125 52.2031C31.8125 51.8047 31.7812 51.4434 31.7188 51.1191C31.6562 50.791 31.5488 50.5117 31.3965 50.2812C31.248 50.0469 31.0488 49.8672 30.7988 49.7422C30.5488 49.6133 30.2363 49.5488 29.8613 49.5488C29.4824 49.5488 29.166 49.6211 28.9121 49.7656C28.6582 49.9062 28.4531 50.0957 28.2969 50.334C28.1406 50.5723 28.0293 50.8516 27.9629 51.1719C27.9004 51.4883 27.8691 51.8242 27.8691 52.1797C27.8691 52.5938 27.9004 52.9668 27.9629 53.2988C28.0254 53.627 28.1309 53.9082 28.2793 54.1426C28.4277 54.377 28.627 54.5566 28.877 54.6816C29.127 54.8027 29.4414 54.8633 29.8203 54.8633C30.1992 54.8633 30.5156 54.793 30.7695 54.6523C31.0234 54.5117 31.2285 54.3203 31.3848 54.0781C31.541 53.8359 31.6504 53.5547 31.7129 53.2344C31.7793 52.9102 31.8125 52.5664 31.8125 52.2031ZM38 51.0605C38 51.2012 37.9961 51.3164 37.9883 51.4062C37.9805 51.4961 37.9688 51.5664 37.9531 51.6172C37.9375 51.668 37.916 51.7031 37.8887 51.7227C37.8652 51.7422 37.834 51.752 37.7949 51.752C37.7637 51.752 37.7285 51.7461 37.6895 51.7344C37.6504 51.7188 37.6055 51.7031 37.5547 51.6875C37.5078 51.6719 37.4551 51.6582 37.3965 51.6465C37.3379 51.6309 37.2734 51.623 37.2031 51.623C37.1211 51.623 37.0391 51.6406 36.957 51.6758C36.875 51.707 36.7891 51.7578 36.6992 51.8281C36.6133 51.8984 36.5215 51.9922 36.4238 52.1094C36.3301 52.2266 36.2285 52.3711 36.1191 52.543V55.8008C36.1191 55.8398 36.1074 55.875 36.084 55.9062C36.0605 55.9336 36.0195 55.957 35.9609 55.9766C35.9062 55.9961 35.832 56.0098 35.7383 56.0176C35.6445 56.0293 35.5254 56.0352 35.3809 56.0352C35.2363 56.0352 35.1172 56.0293 35.0234 56.0176C34.9297 56.0098 34.8535 55.9961 34.7949 55.9766C34.7402 55.957 34.7012 55.9336 34.6777 55.9062C34.6543 55.875 34.6426 55.8398 34.6426 55.8008V50.5742C34.6426 50.5352 34.6523 50.502 34.6719 50.4746C34.6914 50.4434 34.7266 50.418 34.7773 50.3984C34.8281 50.3789 34.8926 50.3652 34.9707 50.3574C35.0527 50.3457 35.1543 50.3398 35.2754 50.3398C35.4004 50.3398 35.5039 50.3457 35.5859 50.3574C35.668 50.3652 35.7305 50.3789 35.7734 50.3984C35.8203 50.418 35.8535 50.4434 35.873 50.4746C35.8926 50.502 35.9023 50.5352 35.9023 50.5742V51.2246C36.0391 51.0293 36.168 50.8691 36.2891 50.7441C36.4102 50.6152 36.5254 50.5137 36.6348 50.4395C36.7441 50.3652 36.8535 50.3145 36.9629 50.2871C37.0723 50.2559 37.1816 50.2402 37.291 50.2402C37.3418 50.2402 37.3965 50.2441 37.4551 50.252C37.5137 50.2559 37.5742 50.2656 37.6367 50.2812C37.6992 50.293 37.7539 50.3086 37.8008 50.3281C37.8477 50.3438 37.8809 50.3613 37.9004 50.3809C37.9238 50.4004 37.9395 50.4219 37.9473 50.4453C37.959 50.4688 37.9688 50.502 37.9766 50.5449C37.9844 50.584 37.9902 50.6445 37.9941 50.7266C37.998 50.8086 38 50.9199 38 51.0605ZM43.7129 55.8008C43.7129 55.8438 43.7031 55.8809 43.6836 55.9121C43.6641 55.9395 43.6309 55.9629 43.584 55.9824C43.5371 56.002 43.4727 56.0156 43.3906 56.0234C43.3125 56.0312 43.2148 56.0352 43.0977 56.0352C42.9727 56.0352 42.8711 56.0312 42.793 56.0234C42.7148 56.0156 42.6504 56.002 42.5996 55.9824C42.5527 55.9629 42.5176 55.9395 42.4941 55.9121C42.4746 55.8809 42.4648 55.8438 42.4648 55.8008V55.2207C42.1953 55.5098 41.9121 55.7344 41.6152 55.8945C41.3223 56.0547 40.9961 56.1348 40.6367 56.1348C40.2383 56.1348 39.9004 56.0586 39.623 55.9062C39.3496 55.75 39.125 55.541 38.9492 55.2793C38.7773 55.0176 38.6523 54.7129 38.5742 54.3652C38.4961 54.0137 38.457 53.6445 38.457 53.2578C38.457 52.793 38.5059 52.375 38.6035 52.0039C38.7051 51.6328 38.8516 51.3164 39.043 51.0547C39.2344 50.793 39.4727 50.5918 39.7578 50.4512C40.043 50.3105 40.3711 50.2402 40.7422 50.2402C41.0352 50.2402 41.3008 50.3008 41.5391 50.4219C41.7773 50.5391 42.0137 50.7129 42.248 50.9434V48.1133C42.248 48.0742 42.2578 48.0391 42.2773 48.0078C42.3008 47.9766 42.3398 47.9512 42.3945 47.9316C42.4531 47.9082 42.5293 47.8906 42.623 47.8789C42.7168 47.8672 42.8359 47.8613 42.9805 47.8613C43.125 47.8613 43.2441 47.8672 43.3379 47.8789C43.4316 47.8906 43.5059 47.9082 43.5605 47.9316C43.6152 47.9512 43.6543 47.9766 43.6777 48.0078C43.7012 48.0391 43.7129 48.0742 43.7129 48.1133V55.8008ZM42.248 52.3086C42.0371 52.043 41.834 51.8398 41.6387 51.6992C41.4473 51.5586 41.2461 51.4883 41.0352 51.4883C40.8438 51.4883 40.6777 51.5371 40.5371 51.6348C40.4004 51.7285 40.2891 51.8555 40.2031 52.0156C40.1211 52.1758 40.0586 52.3555 40.0156 52.5547C39.9766 52.75 39.957 52.9512 39.957 53.1582C39.957 53.377 39.9746 53.5898 40.0098 53.7969C40.0449 54.0039 40.1016 54.1895 40.1797 54.3535C40.2617 54.5137 40.3691 54.6426 40.502 54.7402C40.6348 54.8379 40.8027 54.8867 41.0059 54.8867C41.1074 54.8867 41.2051 54.873 41.2988 54.8457C41.3965 54.8145 41.4941 54.7656 41.5918 54.6992C41.6934 54.6328 41.7969 54.5469 41.9023 54.4414C42.0078 54.332 42.123 54.1992 42.248 54.043V52.3086ZM50.0293 53.0352C50.0293 53.2148 49.9883 53.3477 49.9062 53.4336C49.8281 53.5195 49.7188 53.5625 49.5781 53.5625H46.3965C46.3965 53.7852 46.4219 53.9883 46.4727 54.1719C46.5273 54.3516 46.6113 54.5059 46.7246 54.6348C46.8418 54.7598 46.9902 54.8555 47.1699 54.9219C47.3535 54.9883 47.5723 55.0215 47.8262 55.0215C48.084 55.0215 48.3105 55.0039 48.5059 54.9688C48.7012 54.9297 48.8691 54.8887 49.0098 54.8457C49.1543 54.7988 49.2734 54.7578 49.3672 54.7227C49.4609 54.6836 49.5371 54.6641 49.5957 54.6641C49.6309 54.6641 49.6602 54.6719 49.6836 54.6875C49.707 54.6992 49.7266 54.7227 49.7422 54.7578C49.7578 54.793 49.7676 54.8438 49.7715 54.9102C49.7793 54.9727 49.7832 55.0527 49.7832 55.1504C49.7832 55.2363 49.7812 55.3105 49.7773 55.373C49.7734 55.4316 49.7676 55.4824 49.7598 55.5254C49.752 55.5684 49.7402 55.6055 49.7246 55.6367C49.709 55.6641 49.6875 55.6914 49.6602 55.7188C49.6367 55.7461 49.5684 55.7832 49.4551 55.8301C49.3418 55.877 49.1973 55.9238 49.0215 55.9707C48.8457 56.0137 48.6445 56.0508 48.418 56.082C48.1914 56.1172 47.9492 56.1348 47.6914 56.1348C47.2266 56.1348 46.8184 56.0762 46.4668 55.959C46.1191 55.8418 45.8281 55.6641 45.5938 55.4258C45.3594 55.1875 45.1836 54.8867 45.0664 54.5234C44.9531 54.1602 44.8965 53.7344 44.8965 53.2461C44.8965 52.7812 44.957 52.3633 45.0781 51.9922C45.1992 51.6172 45.375 51.3008 45.6055 51.043C45.8359 50.7812 46.1152 50.582 46.4434 50.4453C46.7754 50.3086 47.1484 50.2402 47.5625 50.2402C48 50.2402 48.373 50.3047 48.6816 50.4336C48.9941 50.5625 49.25 50.7422 49.4492 50.9727C49.6484 51.1992 49.7949 51.4688 49.8887 51.7812C49.9824 52.0938 50.0293 52.4336 50.0293 52.8008V53.0352ZM48.5996 52.6133C48.6113 52.1992 48.5273 51.875 48.3477 51.6406C48.1719 51.4023 47.8984 51.2832 47.5273 51.2832C47.3398 51.2832 47.1758 51.3184 47.0352 51.3887C46.8984 51.459 46.7832 51.5547 46.6895 51.6758C46.5996 51.793 46.5293 51.9336 46.4785 52.0977C46.4316 52.2578 46.4043 52.4297 46.3965 52.6133H48.5996ZM54.6055 51.0605C54.6055 51.2012 54.6016 51.3164 54.5938 51.4062C54.5859 51.4961 54.5742 51.5664 54.5586 51.6172C54.543 51.668 54.5215 51.7031 54.4941 51.7227C54.4707 51.7422 54.4395 51.752 54.4004 51.752C54.3691 51.752 54.334 51.7461 54.2949 51.7344C54.2559 51.7188 54.2109 51.7031 54.1602 51.6875C54.1133 51.6719 54.0605 51.6582 54.002 51.6465C53.9434 51.6309 53.8789 51.623 53.8086 51.623C53.7266 51.623 53.6445 51.6406 53.5625 51.6758C53.4805 51.707 53.3945 51.7578 53.3047 51.8281C53.2188 51.8984 53.127 51.9922 53.0293 52.1094C52.9355 52.2266 52.834 52.3711 52.7246 52.543V55.8008C52.7246 55.8398 52.7129 55.875 52.6895 55.9062C52.666 55.9336 52.625 55.957 52.5664 55.9766C52.5117 55.9961 52.4375 56.0098 52.3438 56.0176C52.25 56.0293 52.1309 56.0352 51.9863 56.0352C51.8418 56.0352 51.7227 56.0293 51.6289 56.0176C51.5352 56.0098 51.459 55.9961 51.4004 55.9766C51.3457 55.957 51.3066 55.9336 51.2832 55.9062C51.2598 55.875 51.248 55.8398 51.248 55.8008V50.5742C51.248 50.5352 51.2578 50.502 51.2773 50.4746C51.2969 50.4434 51.332 50.418 51.3828 50.3984C51.4336 50.3789 51.498 50.3652 51.5762 50.3574C51.6582 50.3457 51.7598 50.3398 51.8809 50.3398C52.0059 50.3398 52.1094 50.3457 52.1914 50.3574C52.2734 50.3652 52.3359 50.3789 52.3789 50.3984C52.4258 50.418 52.459 50.4434 52.4785 50.4746C52.498 50.502 52.5078 50.5352 52.5078 50.5742V51.2246C52.6445 51.0293 52.7734 50.8691 52.8945 50.7441C53.0156 50.6152 53.1309 50.5137 53.2402 50.4395C53.3496 50.3652 53.459 50.3145 53.5684 50.2871C53.6777 50.2559 53.7871 50.2402 53.8965 50.2402C53.9473 50.2402 54.002 50.2441 54.0605 50.252C54.1191 50.2559 54.1797 50.2656 54.2422 50.2812C54.3047 50.293 54.3594 50.3086 54.4062 50.3281C54.4531 50.3438 54.4863 50.3613 54.5059 50.3809C54.5293 50.4004 54.5449 50.4219 54.5527 50.4453C54.5645 50.4688 54.5742 50.502 54.582 50.5449C54.5898 50.584 54.5957 50.6445 54.5996 50.7266C54.6035 50.8086 54.6055 50.9199 54.6055 51.0605Z" fill="#2E353A"/>
<path d="M45.4264 9.5064C44.876 9.0728 43.4 8.7248 42.2952 8.4656L40.8 8.2656V4.6512L41.5656 4.6392C42.2832 5.0032 43.3168 5.6 43.3704 6.4H46.2536C46.2 4.8 44.9848 3.7904 43.9032 2.9888C43.1856 2.4568 42.4 2.1728 40.8 2.0008V0H39.2V1.9392C37.6 2.0928 37.0832 2.4912 36.3608 3.1416C35.416 3.992 34.9952 5.0592 34.9952 6.344C34.9952 7.752 35.3976 8.7864 36.3648 9.4488C36.9056 9.824 37.6 10.1728 39.2 10.496V14.412C38.4 14.2704 38.3984 14.3064 38.116 13.9712C37.844 13.6464 37.7696 12.8 37.6768 12.8H34.816C34.816 14.4 35.2488 15.1664 36.332 16.02C37.1128 16.6352 37.6 16.744 39.2 16.9056V18.4H40.8V16.9312C42.4 16.7768 43.7592 16.3696 44.5408 15.7024C45.5552 14.836 46.3848 13.7472 46.3848 12.4368C46.384 11.1584 46.2816 10.1824 45.4264 9.5064ZM38.4144 7.2776C37.9488 7.024 37.7696 6.64 37.7696 6.1272C37.7696 5.5688 37.924 5.132 38.396 4.82C38.6448 4.656 38.4 4.5368 39.2 4.4576V7.6096C38.4 7.488 38.5904 7.3776 38.4144 7.2776ZM41.8888 14.3336C41.7544 14.38 40.8 14.4168 40.8 14.4496V11.116C42.4 11.2536 42.2768 11.4016 42.5424 11.5624C42.9592 11.8216 43.1688 12.1912 43.1688 12.664C43.1688 13.4768 42.7408 14.0344 41.8888 14.3336ZM38.016 24H37.5736L32.6584 15.1C32.4464 14.7152 31.912 14.4 31.472 14.4H16.5592C16.1192 14.4 15.5848 14.7152 15.3728 15.1L10.4576 24H10.016C9.1352 24 8 24.72 8 25.6V33.6C8 34.48 9.1352 35.2 10.016 35.2H11.2V37.6C11.2 38.92 12.696 40 14.016 40H14.816C16.136 40 16.8 38.92 16.8 37.6V35.2H30.4V37.6C30.4 38.92 31.8952 40 33.216 40H34.016C35.336 40 36 38.92 36 37.6V35.2H38.016C38.896 35.2 39.2 34.48 39.2 33.6V25.6C39.2 24.72 38.8952 24 38.016 24ZM12.816 30.4C12.2856 30.4 11.7769 30.1893 11.4018 29.8142C11.0267 29.4391 10.816 28.9304 10.816 28.4C10.816 27.8696 11.0267 27.3609 11.4018 26.9858C11.7769 26.6107 12.2856 26.4 12.816 26.4C13.3464 26.4 13.8551 26.6107 14.2302 26.9858C14.6053 27.3609 14.816 27.8696 14.816 28.4C14.816 28.9304 14.6053 29.4391 14.2302 29.8142C13.8551 30.1893 13.3464 30.4 12.816 30.4ZM14.416 24L17.6584 17.516C17.8544 17.1216 18.376 16.8 18.816 16.8H29.216C29.656 16.8 30.1768 17.1216 30.3736 17.516L33.616 24H14.416ZM35.216 30.4C34.6856 30.4 34.1769 30.1893 33.8018 29.8142C33.4267 29.4391 33.216 28.9304 33.216 28.4C33.216 27.8696 33.4267 27.3609 33.8018 26.9858C34.1769 26.6107 34.6856 26.4 35.216 26.4C35.7464 26.4 36.2551 26.6107 36.6302 26.9858C37.0053 27.3609 37.216 27.8696 37.216 28.4C37.216 28.9304 37.0053 29.4391 36.6302 29.8142C36.2551 30.1893 35.7464 30.4 35.216 30.4Z" fill="#2E353A"/>
</svg>
