<svg width="55" height="55" viewBox="0 0 55 55" fill="none" xmlns="http://www.w3.org/2000/svg">
<rect width="55" height="55" rx="27.5" fill="#2F2F8D"/>
<path d="M26.0439 21.8018C26.0439 22.8662 25.8779 23.8086 25.5459 24.6289C25.2139 25.4492 24.7305 26.1426 24.0957 26.709C23.4609 27.2656 22.6797 27.6904 21.752 27.9834C20.834 28.2764 19.75 28.4229 18.5 28.4229H16.918V34.4727C16.918 34.5703 16.8838 34.6582 16.8154 34.7363C16.7568 34.8145 16.6543 34.8779 16.5078 34.9268C16.3613 34.9756 16.166 35.0146 15.9219 35.0439C15.6777 35.0732 15.3652 35.0879 14.9844 35.0879C14.6133 35.0879 14.3008 35.0732 14.0469 35.0439C13.8027 35.0146 13.6074 34.9756 13.4609 34.9268C13.3145 34.8779 13.2119 34.8145 13.1533 34.7363C13.0947 34.6582 13.0654 34.5703 13.0654 34.4727V17.4219C13.0654 16.9629 13.1826 16.6211 13.417 16.3965C13.6611 16.1621 13.9785 16.0449 14.3691 16.0449H18.8369C19.2861 16.0449 19.7109 16.0645 20.1113 16.1035C20.5215 16.1328 21.0098 16.2061 21.5762 16.3232C22.1426 16.4307 22.7139 16.6357 23.29 16.9385C23.876 17.2412 24.374 17.627 24.7842 18.0957C25.1943 18.5547 25.5068 19.0967 25.7217 19.7217C25.9365 20.3369 26.0439 21.0303 26.0439 21.8018ZM22.0156 22.0801C22.0156 21.416 21.8984 20.8691 21.6641 20.4395C21.4297 20.0098 21.1416 19.6924 20.7998 19.4873C20.458 19.2822 20.0967 19.1553 19.7158 19.1064C19.3447 19.0479 18.959 19.0186 18.5586 19.0186H16.918V25.4492H18.6465C19.2617 25.4492 19.7744 25.3662 20.1846 25.2002C20.6045 25.0342 20.9463 24.8047 21.21 24.5117C21.4736 24.209 21.6738 23.8525 21.8105 23.4424C21.9473 23.0225 22.0156 22.5684 22.0156 22.0801ZM42.7578 29.3164C42.7578 29.9902 42.665 30.6006 42.4795 31.1475C42.2939 31.6943 42.0352 32.1777 41.7031 32.5977C41.3809 33.0176 40.9902 33.3789 40.5312 33.6816C40.082 33.9844 39.584 34.2334 39.0371 34.4287C38.4902 34.624 37.9043 34.7705 37.2793 34.8682C36.6641 34.9561 35.9756 35 35.2139 35H30.1748C29.8525 35 29.5791 34.9072 29.3545 34.7217C29.1396 34.5264 29.0322 34.2139 29.0322 33.7842V17.2607C29.0322 16.8311 29.1396 16.5234 29.3545 16.3379C29.5791 16.1426 29.8525 16.0449 30.1748 16.0449H34.9355C36.0977 16.0449 37.0791 16.1426 37.8799 16.3379C38.6904 16.5332 39.3691 16.8311 39.916 17.2314C40.4727 17.6221 40.8975 18.1201 41.1904 18.7256C41.4834 19.3311 41.6299 20.0439 41.6299 20.8643C41.6299 21.3232 41.5713 21.7578 41.4541 22.168C41.3369 22.5684 41.166 22.9346 40.9414 23.2666C40.7168 23.5986 40.4385 23.8916 40.1064 24.1455C39.7842 24.3994 39.4131 24.6045 38.9932 24.7607C39.5303 24.8584 40.0234 25.0293 40.4727 25.2734C40.9316 25.5176 41.3271 25.835 41.6592 26.2256C42.001 26.6064 42.2695 27.0557 42.4648 27.5732C42.6602 28.0908 42.7578 28.6719 42.7578 29.3164ZM37.7773 21.333C37.7773 20.9521 37.7188 20.6104 37.6016 20.3076C37.4844 20.0049 37.3086 19.7559 37.0742 19.5605C36.8398 19.3555 36.542 19.1992 36.1807 19.0918C35.8291 18.9844 35.3555 18.9307 34.7598 18.9307H32.8115V23.8525H34.9648C35.5215 23.8525 35.9658 23.7891 36.2979 23.6621C36.6299 23.5254 36.9033 23.3447 37.1182 23.1201C37.3428 22.8857 37.5088 22.6172 37.6162 22.3145C37.7236 22.002 37.7773 21.6748 37.7773 21.333ZM38.7588 29.4482C38.7588 29.0088 38.6855 28.6182 38.5391 28.2764C38.3926 27.9248 38.1777 27.6318 37.8945 27.3975C37.6113 27.1631 37.25 26.9824 36.8105 26.8555C36.3711 26.7285 35.7998 26.665 35.0967 26.665H32.8115V32.0557H35.5947C36.1318 32.0557 36.5811 32.002 36.9424 31.8945C37.3135 31.7773 37.6309 31.6113 37.8945 31.3965C38.168 31.1719 38.3779 30.8984 38.5244 30.5762C38.6807 30.2441 38.7588 29.8682 38.7588 29.4482Z" fill="white"/>
</svg>
