<svg width="32" height="28" viewBox="0 0 32 28" fill="none" xmlns="http://www.w3.org/2000/svg">
<path d="M26.7446 7.03362C26.4689 6.56381 26.0801 6.17494 25.6157 5.90451C25.1513 5.63409 24.6268 5.49123 24.093 5.48973H20.3276V2.30973C20.3276 1.88803 20.1646 1.48361 19.8745 1.18543C19.5844 0.887244 19.1909 0.719727 18.7806 0.719727H3.31057C1.60422 0.719727 0.216553 2.14596 0.216553 3.89973V19.7997C0.216553 20.9859 0.860107 22.0114 1.79914 22.5568C1.98942 25.449 4.31612 27.7497 7.17808 27.7497C9.89926 27.7497 12.1347 25.6684 12.5137 22.9797H17.3125C17.6915 25.6684 19.927 27.7497 22.6481 27.7497C25.3693 27.7497 27.6048 25.6684 27.9838 22.9797H28.0627C29.769 22.9797 31.1567 21.5535 31.1567 19.7997V15.0297C31.157 14.7411 31.0805 14.458 30.9355 14.2109L26.7446 7.03362V7.03362ZM20.3276 8.66973H24.093L26.8777 13.4397H20.3276V8.66973ZM7.17808 24.5697C5.89871 24.5697 4.85757 23.4997 4.85757 22.1847C4.85757 20.8698 5.89871 19.7997 7.17808 19.7997C8.45746 19.7997 9.49859 20.8698 9.49859 22.1847C9.49859 23.4997 8.45746 24.5697 7.17808 24.5697ZM22.6481 24.5697C21.3688 24.5697 20.3276 23.4997 20.3276 22.1847C20.3276 20.8698 21.3688 19.7997 22.6481 19.7997C23.9275 19.7997 24.9687 20.8698 24.9687 22.1847C24.9687 23.4997 23.9275 24.5697 22.6481 24.5697Z" fill="white"/>
</svg>
