<svg width="12" height="13" viewBox="0 0 12 13" fill="none" xmlns="http://www.w3.org/2000/svg">
<path d="M3.58456 1.44582C3.39442 1.44582 3.21207 1.52189 3.07763 1.6573C2.94318 1.7927 2.86765 1.97635 2.86765 2.16785C2.86765 2.35934 2.94318 2.54299 3.07763 2.6784C3.21207 2.8138 3.39442 2.88987 3.58456 2.88987C3.7747 2.88987 3.95704 2.8138 4.09149 2.6784C4.22594 2.54299 4.30147 2.35934 4.30147 2.16785C4.30147 1.97635 4.22594 1.7927 4.09149 1.6573C3.95704 1.52189 3.7747 1.44582 3.58456 1.44582ZM1.5557 1.44582C1.70381 1.02305 1.97849 0.65696 2.34186 0.398009C2.70524 0.139059 3.13942 0 3.58456 0C4.0297 0 4.46388 0.139059 4.82725 0.398009C5.19063 0.65696 5.4653 1.02305 5.61342 1.44582H10.7537C10.9438 1.44582 11.1262 1.52189 11.2606 1.6573C11.3951 1.7927 11.4706 1.97635 11.4706 2.16785C11.4706 2.35934 11.3951 2.54299 11.2606 2.6784C11.1262 2.8138 10.9438 2.88987 10.7537 2.88987H5.61342C5.4653 3.31264 5.19063 3.67873 4.82725 3.93768C4.46388 4.19663 4.0297 4.33569 3.58456 4.33569C3.13942 4.33569 2.70524 4.19663 2.34186 3.93768C1.97849 3.67873 1.70381 3.31264 1.5557 2.88987H0.716912C0.526775 2.88987 0.344426 2.8138 0.209979 2.6784C0.0755317 2.54299 0 2.35934 0 2.16785C0 1.97635 0.0755317 1.7927 0.209979 1.6573C0.344426 1.52189 0.526775 1.44582 0.716912 1.44582H1.5557ZM7.88603 5.77797C7.69589 5.77797 7.51354 5.85404 7.3791 5.98945C7.24465 6.12486 7.16912 6.30851 7.16912 6.5C7.16912 6.69149 7.24465 6.87514 7.3791 7.01055C7.51354 7.14595 7.69589 7.22203 7.88603 7.22203C8.07617 7.22203 8.25852 7.14595 8.39296 7.01055C8.52741 6.87514 8.60294 6.69149 8.60294 6.5C8.60294 6.30851 8.52741 6.12486 8.39296 5.98945C8.25852 5.85404 8.07617 5.77797 7.88603 5.77797ZM5.85717 5.77797C6.00528 5.3552 6.27996 4.98911 6.64333 4.73016C7.00671 4.47121 7.44089 4.33215 7.88603 4.33215C8.33117 4.33215 8.76535 4.47121 9.12872 4.73016C9.4921 4.98911 9.76677 5.3552 9.91489 5.77797H10.7537C10.9438 5.77797 11.1262 5.85404 11.2606 5.98945C11.3951 6.12486 11.4706 6.30851 11.4706 6.5C11.4706 6.69149 11.3951 6.87514 11.2606 7.01055C11.1262 7.14595 10.9438 7.22203 10.7537 7.22203H9.91489C9.76677 7.64479 9.4921 8.01089 9.12872 8.26984C8.76535 8.52879 8.33117 8.66785 7.88603 8.66785C7.44089 8.66785 7.00671 8.52879 6.64333 8.26984C6.27996 8.01089 6.00528 7.64479 5.85717 7.22203H0.716912C0.526775 7.22203 0.344426 7.14595 0.209979 7.01055C0.0755317 6.87514 0 6.69149 0 6.5C0 6.30851 0.0755317 6.12486 0.209979 5.98945C0.344426 5.85404 0.526775 5.77797 0.716912 5.77797H5.85717ZM3.58456 10.1101C3.39442 10.1101 3.21207 10.1862 3.07763 10.3216C2.94318 10.457 2.86765 10.6407 2.86765 10.8322C2.86765 11.0236 2.94318 11.2073 3.07763 11.3427C3.21207 11.4781 3.39442 11.5542 3.58456 11.5542C3.7747 11.5542 3.95704 11.4781 4.09149 11.3427C4.22594 11.2073 4.30147 11.0236 4.30147 10.8322C4.30147 10.6407 4.22594 10.457 4.09149 10.3216C3.95704 10.1862 3.7747 10.1101 3.58456 10.1101ZM1.5557 10.1101C1.70381 9.68736 1.97849 9.32127 2.34186 9.06232C2.70524 8.80337 3.13942 8.66431 3.58456 8.66431C4.0297 8.66431 4.46388 8.80337 4.82725 9.06232C5.19063 9.32127 5.4653 9.68736 5.61342 10.1101H10.7537C10.9438 10.1101 11.1262 10.1862 11.2606 10.3216C11.3951 10.457 11.4706 10.6407 11.4706 10.8322C11.4706 11.0236 11.3951 11.2073 11.2606 11.3427C11.1262 11.4781 10.9438 11.5542 10.7537 11.5542H5.61342C5.4653 11.9769 5.19063 12.343 4.82725 12.602C4.46388 12.8609 4.0297 13 3.58456 13C3.13942 13 2.70524 12.8609 2.34186 12.602C1.97849 12.343 1.70381 11.9769 1.5557 11.5542H0.716912C0.526775 11.5542 0.344426 11.4781 0.209979 11.3427C0.0755317 11.2073 0 11.0236 0 10.8322C0 10.6407 0.0755317 10.457 0.209979 10.3216C0.344426 10.1862 0.526775 10.1101 0.716912 10.1101H1.5557Z" fill="white"/>
</svg>
