<svg width="32" height="19" viewBox="0 0 32 19" fill="none" xmlns="http://www.w3.org/2000/svg">
<path d="M21.9132 0.899414H14.1781V6.68123H0.817627V13.9085H3.63037C3.63037 15.0586 4.07488 16.1616 4.86612 16.9748C5.65735 17.788 6.7305 18.2449 7.84948 18.2449C8.96846 18.2449 10.0416 17.788 10.8328 16.9748C11.6241 16.1616 12.0686 15.0586 12.0686 13.9085H20.5068C20.5068 15.0586 20.9513 16.1616 21.7426 16.9748C22.5338 17.788 23.6069 18.2449 24.7259 18.2449C25.8449 18.2449 26.9181 17.788 27.7093 16.9748C28.5005 16.1616 28.945 15.0586 28.945 13.9085H31.7578V9.57214C31.7578 7.96769 30.5061 6.68123 28.945 6.68123H26.1323L21.9132 0.899414ZM16.2877 3.0676H21.21L23.9665 6.68123H16.2877V3.0676ZM7.84948 11.7403C8.40897 11.7403 8.94554 11.9688 9.34116 12.3754C9.73678 12.782 9.95904 13.3335 9.95904 13.9085C9.95904 14.4835 9.73678 15.035 9.34116 15.4416C8.94554 15.8483 8.40897 16.0767 7.84948 16.0767C7.28999 16.0767 6.75342 15.8483 6.3578 15.4416C5.96218 15.035 5.73992 14.4835 5.73992 13.9085C5.73992 13.3335 5.96218 12.782 6.3578 12.3754C6.75342 11.9688 7.28999 11.7403 7.84948 11.7403V11.7403ZM24.7259 11.7403C25.2854 11.7403 25.822 11.9688 26.2176 12.3754C26.6132 12.782 26.8355 13.3335 26.8355 13.9085C26.8355 14.4835 26.6132 15.035 26.2176 15.4416C25.822 15.8483 25.2854 16.0767 24.7259 16.0767C24.1664 16.0767 23.6299 15.8483 23.2342 15.4416C22.8386 15.035 22.6164 14.4835 22.6164 13.9085C22.6164 13.3335 22.8386 12.782 23.2342 12.3754C23.6299 11.9688 24.1664 11.7403 24.7259 11.7403Z" fill="white"/>
</svg>
