<svg width="32" height="18" viewBox="0 0 32 18" fill="none" xmlns="http://www.w3.org/2000/svg">
<path d="M3.04907 0.0195312C1.488 0.0195312 0.236328 1.30599 0.236328 2.91044V13.0286H3.04907C3.04907 14.1787 3.49359 15.2817 4.28482 16.0949C5.07606 16.9081 6.14921 17.365 7.26819 17.365C8.38717 17.365 9.46032 16.9081 10.2516 16.0949C11.0428 15.2817 11.4873 14.1787 11.4873 13.0286H19.9255C19.9255 14.1787 20.37 15.2817 21.1613 16.0949C21.9525 16.9081 23.0257 17.365 24.1447 17.365C25.2636 17.365 26.3368 16.9081 27.128 16.0949C27.9193 15.2817 28.3638 14.1787 28.3638 13.0286H31.1765V2.91044C31.1765 1.30599 29.9248 0.0195312 28.3638 0.0195312H3.04907ZM2.34589 2.18771H7.97137V5.80135H2.34589V2.18771ZM10.0809 2.18771H15.7064V5.80135H10.0809V2.18771ZM17.816 2.18771H23.4415V5.80135H17.816V2.18771ZM25.551 2.18771H29.067V10.1377L25.551 7.24681V2.18771ZM7.26819 10.8604C7.82768 10.8604 8.36425 11.0889 8.75987 11.4955C9.15549 11.9021 9.37775 12.4536 9.37775 13.0286C9.37775 13.6037 9.15549 14.1551 8.75987 14.5618C8.36425 14.9684 7.82768 15.1968 7.26819 15.1968C6.7087 15.1968 6.17212 14.9684 5.77651 14.5618C5.38089 14.1551 5.15863 13.6037 5.15863 13.0286C5.15863 12.4536 5.38089 11.9021 5.77651 11.4955C6.17212 11.0889 6.7087 10.8604 7.26819 10.8604V10.8604ZM24.1447 10.8604C24.7041 10.8604 25.2407 11.0889 25.6363 11.4955C26.032 11.9021 26.2542 12.4536 26.2542 13.0286C26.2542 13.6037 26.032 14.1551 25.6363 14.5618C25.2407 14.9684 24.7041 15.1968 24.1447 15.1968C23.5852 15.1968 23.0486 14.9684 22.653 14.5618C22.2574 14.1551 22.0351 13.6037 22.0351 13.0286C22.0351 12.4536 22.2574 11.9021 22.653 11.4955C23.0486 11.0889 23.5852 10.8604 24.1447 10.8604Z" fill="white"/>
</svg>
