<svg width="36" height="60" viewBox="0 0 36 60" fill="none" xmlns="http://www.w3.org/2000/svg">
<path d="M6.7207 55.8008C6.7207 55.8438 6.71289 55.8809 6.69727 55.9121C6.68164 55.9395 6.64453 55.9629 6.58594 55.9824C6.52734 56.002 6.44141 56.0156 6.32812 56.0234C6.21484 56.0312 6.06055 56.0352 5.86523 56.0352C5.70117 56.0352 5.57031 56.0312 5.47266 56.0234C5.375 56.0156 5.29688 56.002 5.23828 55.9824C5.18359 55.959 5.14453 55.9316 5.12109 55.9004C5.09766 55.8652 5.07812 55.8242 5.0625 55.7773L4.38281 54.084C4.30078 53.8926 4.2207 53.7227 4.14258 53.5742C4.06445 53.4258 3.97656 53.3027 3.87891 53.2051C3.78516 53.1035 3.67578 53.0273 3.55078 52.9766C3.42578 52.9258 3.28125 52.9004 3.11719 52.9004H2.63672V55.7891C2.63672 55.8281 2.62305 55.8633 2.5957 55.8945C2.57227 55.9258 2.53125 55.9512 2.47266 55.9707C2.41406 55.9902 2.33594 56.0059 2.23828 56.0176C2.14062 56.0293 2.01562 56.0352 1.86328 56.0352C1.71484 56.0352 1.58984 56.0293 1.48828 56.0176C1.39062 56.0059 1.3125 55.9902 1.25391 55.9707C1.19531 55.9512 1.1543 55.9258 1.13086 55.8945C1.10742 55.8633 1.0957 55.8281 1.0957 55.7891V48.9043C1.0957 48.7324 1.13867 48.6094 1.22461 48.5352C1.31445 48.457 1.42383 48.418 1.55273 48.418H3.51562C3.71484 48.418 3.87891 48.4219 4.00781 48.4297C4.13672 48.4375 4.25391 48.4473 4.35938 48.459C4.66406 48.502 4.9375 48.5762 5.17969 48.6816C5.42578 48.7871 5.63281 48.9258 5.80078 49.0977C5.97266 49.2656 6.10352 49.4668 6.19336 49.7012C6.2832 49.9316 6.32812 50.1973 6.32812 50.498C6.32812 50.752 6.29492 50.9844 6.22852 51.1953C6.16602 51.4023 6.07227 51.5879 5.94727 51.752C5.82227 51.916 5.66797 52.0586 5.48438 52.1797C5.30078 52.3008 5.0918 52.3984 4.85742 52.4727C4.9707 52.5273 5.07617 52.5938 5.17383 52.6719C5.27539 52.75 5.36914 52.8457 5.45508 52.959C5.54492 53.0684 5.62891 53.1953 5.70703 53.3398C5.78516 53.4805 5.86133 53.6406 5.93555 53.8203L6.57422 55.3145C6.63281 55.4629 6.67188 55.5723 6.69141 55.6426C6.71094 55.709 6.7207 55.7617 6.7207 55.8008ZM4.73438 50.6562C4.73438 50.4062 4.67773 50.1953 4.56445 50.0234C4.45117 49.8516 4.26562 49.7305 4.00781 49.6602C3.92969 49.6406 3.83984 49.625 3.73828 49.6133C3.64062 49.6016 3.50391 49.5957 3.32812 49.5957H2.63672V51.7461H3.42188C3.64062 51.7461 3.83203 51.7207 3.99609 51.6699C4.16016 51.6152 4.29688 51.541 4.40625 51.4473C4.51562 51.3496 4.59766 51.2344 4.65234 51.1016C4.70703 50.9688 4.73438 50.8203 4.73438 50.6562ZM12.4219 53.0352C12.4219 53.2148 12.3809 53.3477 12.2988 53.4336C12.2207 53.5195 12.1113 53.5625 11.9707 53.5625H8.78906C8.78906 53.7852 8.81445 53.9883 8.86523 54.1719C8.91992 54.3516 9.00391 54.5059 9.11719 54.6348C9.23438 54.7598 9.38281 54.8555 9.5625 54.9219C9.74609 54.9883 9.96484 55.0215 10.2188 55.0215C10.4766 55.0215 10.7031 55.0039 10.8984 54.9688C11.0938 54.9297 11.2617 54.8887 11.4023 54.8457C11.5469 54.7988 11.666 54.7578 11.7598 54.7227C11.8535 54.6836 11.9297 54.6641 11.9883 54.6641C12.0234 54.6641 12.0527 54.6719 12.0762 54.6875C12.0996 54.6992 12.1191 54.7227 12.1348 54.7578C12.1504 54.793 12.1602 54.8438 12.1641 54.9102C12.1719 54.9727 12.1758 55.0527 12.1758 55.1504C12.1758 55.2363 12.1738 55.3105 12.1699 55.373C12.166 55.4316 12.1602 55.4824 12.1523 55.5254C12.1445 55.5684 12.1328 55.6055 12.1172 55.6367C12.1016 55.6641 12.0801 55.6914 12.0527 55.7188C12.0293 55.7461 11.9609 55.7832 11.8477 55.8301C11.7344 55.877 11.5898 55.9238 11.4141 55.9707C11.2383 56.0137 11.0371 56.0508 10.8105 56.082C10.584 56.1172 10.3418 56.1348 10.084 56.1348C9.61914 56.1348 9.21094 56.0762 8.85938 55.959C8.51172 55.8418 8.2207 55.6641 7.98633 55.4258C7.75195 55.1875 7.57617 54.8867 7.45898 54.5234C7.3457 54.1602 7.28906 53.7344 7.28906 53.2461C7.28906 52.7812 7.34961 52.3633 7.4707 51.9922C7.5918 51.6172 7.76758 51.3008 7.99805 51.043C8.22852 50.7812 8.50781 50.582 8.83594 50.4453C9.16797 50.3086 9.54102 50.2402 9.95508 50.2402C10.3926 50.2402 10.7656 50.3047 11.0742 50.4336C11.3867 50.5625 11.6426 50.7422 11.8418 50.9727C12.041 51.1992 12.1875 51.4688 12.2812 51.7812C12.375 52.0938 12.4219 52.4336 12.4219 52.8008V53.0352ZM10.9922 52.6133C11.0039 52.1992 10.9199 51.875 10.7402 51.6406C10.5645 51.4023 10.291 51.2832 9.91992 51.2832C9.73242 51.2832 9.56836 51.3184 9.42773 51.3887C9.29102 51.459 9.17578 51.5547 9.08203 51.6758C8.99219 51.793 8.92188 51.9336 8.87109 52.0977C8.82422 52.2578 8.79688 52.4297 8.78906 52.6133H10.9922ZM18.6328 55.8008C18.6328 55.8398 18.6211 55.875 18.5977 55.9062C18.5742 55.9336 18.5352 55.957 18.4805 55.9766C18.4258 55.9961 18.3496 56.0098 18.252 56.0176C18.1582 56.0293 18.041 56.0352 17.9004 56.0352C17.7559 56.0352 17.6348 56.0293 17.5371 56.0176C17.4434 56.0098 17.3691 55.9961 17.3145 55.9766C17.2598 55.957 17.2207 55.9336 17.1973 55.9062C17.1738 55.875 17.1621 55.8398 17.1621 55.8008V52.8184C17.1621 52.5645 17.1426 52.3652 17.1035 52.2207C17.0684 52.0762 17.0156 51.9531 16.9453 51.8516C16.875 51.7461 16.7832 51.666 16.6699 51.6113C16.5605 51.5527 16.4316 51.5234 16.2832 51.5234C16.0957 51.5234 15.9062 51.5918 15.7148 51.7285C15.5234 51.8652 15.3242 52.0645 15.1172 52.3262V55.8008C15.1172 55.8398 15.1055 55.875 15.082 55.9062C15.0586 55.9336 15.0176 55.957 14.959 55.9766C14.9043 55.9961 14.8301 56.0098 14.7363 56.0176C14.6426 56.0293 14.5234 56.0352 14.3789 56.0352C14.2344 56.0352 14.1152 56.0293 14.0215 56.0176C13.9277 56.0098 13.8516 55.9961 13.793 55.9766C13.7383 55.957 13.6992 55.9336 13.6758 55.9062C13.6523 55.875 13.6406 55.8398 13.6406 55.8008V50.5742C13.6406 50.5352 13.6504 50.502 13.6699 50.4746C13.6895 50.4434 13.7246 50.418 13.7754 50.3984C13.8262 50.3789 13.8906 50.3652 13.9688 50.3574C14.0508 50.3457 14.1523 50.3398 14.2734 50.3398C14.3984 50.3398 14.502 50.3457 14.584 50.3574C14.666 50.3652 14.7285 50.3789 14.7715 50.3984C14.8184 50.418 14.8516 50.4434 14.8711 50.4746C14.8906 50.502 14.9004 50.5352 14.9004 50.5742V51.1777C15.1895 50.8652 15.4824 50.6309 15.7793 50.4746C16.0801 50.3184 16.3926 50.2402 16.7168 50.2402C17.0723 50.2402 17.3711 50.2988 17.6133 50.416C17.8594 50.5332 18.0566 50.6934 18.2051 50.8965C18.3574 51.0957 18.4668 51.3301 18.5332 51.5996C18.5996 51.8691 18.6328 52.1934 18.6328 52.5723V55.8008ZM23.0625 55.2852C23.0625 55.457 23.0508 55.5898 23.0273 55.6836C23.0078 55.7734 22.9805 55.8379 22.9453 55.877C22.9102 55.9121 22.8574 55.9453 22.7871 55.9766C22.7207 56.0039 22.6406 56.0273 22.5469 56.0469C22.457 56.0703 22.3574 56.0879 22.248 56.0996C22.1426 56.1113 22.0352 56.1172 21.9258 56.1172C21.6328 56.1172 21.3789 56.0801 21.1641 56.0059C20.9492 55.9316 20.7715 55.8184 20.6309 55.666C20.4902 55.5098 20.3867 55.3145 20.3203 55.0801C20.2539 54.8457 20.2207 54.5684 20.2207 54.248V51.5703H19.5938C19.5195 51.5703 19.4629 51.5254 19.4238 51.4355C19.3848 51.3418 19.3652 51.1875 19.3652 50.9727C19.3652 50.8594 19.3691 50.7637 19.377 50.6855C19.3887 50.6074 19.4043 50.5469 19.4238 50.5039C19.4434 50.457 19.4668 50.4238 19.4941 50.4043C19.5254 50.3848 19.5605 50.375 19.5996 50.375H20.2207V49.209C20.2207 49.1699 20.2305 49.1348 20.25 49.1035C20.2734 49.0723 20.3125 49.0469 20.3672 49.0273C20.4258 49.0039 20.502 48.9883 20.5957 48.9805C20.6934 48.9688 20.8125 48.9629 20.9531 48.9629C21.0977 48.9629 21.2168 48.9688 21.3105 48.9805C21.4082 48.9883 21.4844 49.0039 21.5391 49.0273C21.5938 49.0469 21.6328 49.0723 21.6562 49.1035C21.6797 49.1348 21.6914 49.1699 21.6914 49.209V50.375H22.8281C22.8672 50.375 22.9004 50.3848 22.9277 50.4043C22.959 50.4238 22.9844 50.457 23.0039 50.5039C23.0234 50.5469 23.0371 50.6074 23.0449 50.6855C23.0566 50.7637 23.0625 50.8594 23.0625 50.9727C23.0625 51.1875 23.043 51.3418 23.0039 51.4355C22.9648 51.5254 22.9082 51.5703 22.834 51.5703H21.6914V54.0254C21.6914 54.3105 21.7363 54.5254 21.8262 54.6699C21.916 54.8105 22.0762 54.8809 22.3066 54.8809C22.3848 54.8809 22.4551 54.875 22.5176 54.8633C22.5801 54.8477 22.6348 54.832 22.6816 54.8164C22.7324 54.7969 22.7734 54.7812 22.8047 54.7695C22.8398 54.7539 22.8711 54.7461 22.8984 54.7461C22.9219 54.7461 22.9434 54.7539 22.9629 54.7695C22.9863 54.7812 23.0039 54.8086 23.0156 54.8516C23.0273 54.8906 23.0371 54.9453 23.0449 55.0156C23.0566 55.0859 23.0625 55.1758 23.0625 55.2852ZM28.8047 53.0352C28.8047 53.2148 28.7637 53.3477 28.6816 53.4336C28.6035 53.5195 28.4941 53.5625 28.3535 53.5625H25.1719C25.1719 53.7852 25.1973 53.9883 25.248 54.1719C25.3027 54.3516 25.3867 54.5059 25.5 54.6348C25.6172 54.7598 25.7656 54.8555 25.9453 54.9219C26.1289 54.9883 26.3477 55.0215 26.6016 55.0215C26.8594 55.0215 27.0859 55.0039 27.2812 54.9688C27.4766 54.9297 27.6445 54.8887 27.7852 54.8457C27.9297 54.7988 28.0488 54.7578 28.1426 54.7227C28.2363 54.6836 28.3125 54.6641 28.3711 54.6641C28.4062 54.6641 28.4355 54.6719 28.459 54.6875C28.4824 54.6992 28.502 54.7227 28.5176 54.7578C28.5332 54.793 28.543 54.8438 28.5469 54.9102C28.5547 54.9727 28.5586 55.0527 28.5586 55.1504C28.5586 55.2363 28.5566 55.3105 28.5527 55.373C28.5488 55.4316 28.543 55.4824 28.5352 55.5254C28.5273 55.5684 28.5156 55.6055 28.5 55.6367C28.4844 55.6641 28.4629 55.6914 28.4355 55.7188C28.4121 55.7461 28.3438 55.7832 28.2305 55.8301C28.1172 55.877 27.9727 55.9238 27.7969 55.9707C27.6211 56.0137 27.4199 56.0508 27.1934 56.082C26.9668 56.1172 26.7246 56.1348 26.4668 56.1348C26.002 56.1348 25.5938 56.0762 25.2422 55.959C24.8945 55.8418 24.6035 55.6641 24.3691 55.4258C24.1348 55.1875 23.959 54.8867 23.8418 54.5234C23.7285 54.1602 23.6719 53.7344 23.6719 53.2461C23.6719 52.7812 23.7324 52.3633 23.8535 51.9922C23.9746 51.6172 24.1504 51.3008 24.3809 51.043C24.6113 50.7812 24.8906 50.582 25.2188 50.4453C25.5508 50.3086 25.9238 50.2402 26.3379 50.2402C26.7754 50.2402 27.1484 50.3047 27.457 50.4336C27.7695 50.5625 28.0254 50.7422 28.2246 50.9727C28.4238 51.1992 28.5703 51.4688 28.6641 51.7812C28.7578 52.0938 28.8047 52.4336 28.8047 52.8008V53.0352ZM27.375 52.6133C27.3867 52.1992 27.3027 51.875 27.123 51.6406C26.9473 51.4023 26.6738 51.2832 26.3027 51.2832C26.1152 51.2832 25.9512 51.3184 25.8105 51.3887C25.6738 51.459 25.5586 51.5547 25.4648 51.6758C25.375 51.793 25.3047 51.9336 25.2539 52.0977C25.207 52.2578 25.1797 52.4297 25.1719 52.6133H27.375ZM34.9805 55.8008C34.9805 55.8438 34.9707 55.8809 34.9512 55.9121C34.9316 55.9395 34.8984 55.9629 34.8516 55.9824C34.8047 56.002 34.7402 56.0156 34.6582 56.0234C34.5801 56.0312 34.4824 56.0352 34.3652 56.0352C34.2402 56.0352 34.1387 56.0312 34.0605 56.0234C33.9824 56.0156 33.918 56.002 33.8672 55.9824C33.8203 55.9629 33.7852 55.9395 33.7617 55.9121C33.7422 55.8809 33.7324 55.8438 33.7324 55.8008V55.2207C33.4629 55.5098 33.1797 55.7344 32.8828 55.8945C32.5898 56.0547 32.2637 56.1348 31.9043 56.1348C31.5059 56.1348 31.168 56.0586 30.8906 55.9062C30.6172 55.75 30.3926 55.541 30.2168 55.2793C30.0449 55.0176 29.9199 54.7129 29.8418 54.3652C29.7637 54.0137 29.7246 53.6445 29.7246 53.2578C29.7246 52.793 29.7734 52.375 29.8711 52.0039C29.9727 51.6328 30.1191 51.3164 30.3105 51.0547C30.502 50.793 30.7402 50.5918 31.0254 50.4512C31.3105 50.3105 31.6387 50.2402 32.0098 50.2402C32.3027 50.2402 32.5684 50.3008 32.8066 50.4219C33.0449 50.5391 33.2812 50.7129 33.5156 50.9434V48.1133C33.5156 48.0742 33.5254 48.0391 33.5449 48.0078C33.5684 47.9766 33.6074 47.9512 33.6621 47.9316C33.7207 47.9082 33.7969 47.8906 33.8906 47.8789C33.9844 47.8672 34.1035 47.8613 34.248 47.8613C34.3926 47.8613 34.5117 47.8672 34.6055 47.8789C34.6992 47.8906 34.7734 47.9082 34.8281 47.9316C34.8828 47.9512 34.9219 47.9766 34.9453 48.0078C34.9688 48.0391 34.9805 48.0742 34.9805 48.1133V55.8008ZM33.5156 52.3086C33.3047 52.043 33.1016 51.8398 32.9062 51.6992C32.7148 51.5586 32.5137 51.4883 32.3027 51.4883C32.1113 51.4883 31.9453 51.5371 31.8047 51.6348C31.668 51.7285 31.5566 51.8555 31.4707 52.0156C31.3887 52.1758 31.3262 52.3555 31.2832 52.5547C31.2441 52.75 31.2246 52.9512 31.2246 53.1582C31.2246 53.377 31.2422 53.5898 31.2773 53.7969C31.3125 54.0039 31.3691 54.1895 31.4473 54.3535C31.5293 54.5137 31.6367 54.6426 31.7695 54.7402C31.9023 54.8379 32.0703 54.8867 32.2734 54.8867C32.375 54.8867 32.4727 54.873 32.5664 54.8457C32.6641 54.8145 32.7617 54.7656 32.8594 54.6992C32.9609 54.6328 33.0645 54.5469 33.1699 54.4414C33.2754 54.332 33.3906 54.1992 33.5156 54.043V52.3086Z" fill="#2E353A"/>
<path d="M30 3.0016H14.8616C13.6592 1.4016 11.6888 0 9.46 0C5.7984 0 2.8304 2.8608 2.8304 6.5224C2.8304 10.1848 5.7984 12.952 9.46 12.952C12.2448 12.952 14.6272 11.0016 15.6104 8.6016H17.8144L19.412 7.0032L21.0088 8.6016H22.0048L23.6016 7.0032L25.1992 8.6016H26.1944L27.792 7.0032L29.3896 8.6016H30V8.8264L29.8608 8.8592L33.0128 5.7696L30 3.0016ZM7.3144 8.2896C6.80508 8.28928 6.31674 8.08665 5.95682 7.72628C5.5969 7.36591 5.39488 6.87732 5.3952 6.368C5.39552 5.85868 5.59815 5.37034 5.95852 5.01042C6.31889 4.6505 6.80748 4.44848 7.3168 4.4488C7.56899 4.44896 7.81868 4.49879 8.05161 4.59544C8.28455 4.6921 8.49616 4.83368 8.67438 5.01212C8.85259 5.19056 8.99391 5.40235 9.09028 5.6354C9.18664 5.86846 9.23616 6.11821 9.236 6.3704C9.23584 6.62259 9.18601 6.87228 9.08936 7.10522C8.9927 7.33815 8.85112 7.54976 8.67268 7.72798C8.49424 7.90619 8.28245 8.04751 8.0494 8.14388C7.81634 8.24024 7.56659 8.28976 7.3144 8.2896ZM31.6 23.8016H31.1576L26.2424 14.9016C26.0304 14.5168 25.496 14.2016 25.056 14.2016H10.144C9.704 14.2016 9.1696 14.5168 8.9576 14.9016L4.0416 23.8016H3.6C2.72 23.8016 2 24.5216 2 25.4016V33.4016C2 34.2816 2.72 35.0016 3.6 35.0016H5.2V37.4016C5.2 38.7216 6.28 39.8016 7.6 39.8016H8.4C9.72 39.8016 10.8 38.7216 10.8 37.4016V35.0016H24.4V37.4016C24.4 38.7216 25.48 39.8016 26.8 39.8016H27.6C28.92 39.8016 30 38.7216 30 37.4016V35.0016H31.6C32.48 35.0016 33.2 34.2816 33.2 33.4016V25.4016C33.2 24.5216 32.48 23.8016 31.6 23.8016ZM6.4 30.2016C5.86957 30.2016 5.36086 29.9909 4.98579 29.6158C4.61071 29.2407 4.4 28.732 4.4 28.2016C4.4 27.6712 4.61071 27.1625 4.98579 26.7874C5.36086 26.4123 5.86957 26.2016 6.4 26.2016C6.93043 26.2016 7.43914 26.4123 7.81421 26.7874C8.18929 27.1625 8.4 27.6712 8.4 28.2016C8.4 28.732 8.18929 29.2407 7.81421 29.6158C7.43914 29.9909 6.93043 30.2016 6.4 30.2016ZM8 23.8016L11.2424 17.3176C11.4392 16.9232 11.96 16.6016 12.4 16.6016H22.8C23.24 16.6016 23.7608 16.9232 23.9576 17.3176L27.2 23.8016H8ZM28.8 30.2016C28.2696 30.2016 27.7609 29.9909 27.3858 29.6158C27.0107 29.2407 26.8 28.732 26.8 28.2016C26.8 27.6712 27.0107 27.1625 27.3858 26.7874C27.7609 26.4123 28.2696 26.2016 28.8 26.2016C29.3304 26.2016 29.8391 26.4123 30.2142 26.7874C30.5893 27.1625 30.8 27.6712 30.8 28.2016C30.8 28.732 30.5893 29.2407 30.2142 29.6158C29.8391 29.9909 29.3304 30.2016 28.8 30.2016Z" fill="#2E353A"/>
</svg>
