<svg width="30" height="18" viewBox="0 0 30 18" fill="none" xmlns="http://www.w3.org/2000/svg">
<path d="M7.4987 1.57898C7.4987 1.33529 7.59748 1.10159 7.77331 0.929273C7.94914 0.756961 8.18761 0.660156 8.43627 0.660156H11.249C11.4977 0.660156 11.7361 0.756961 11.912 0.929273C12.0878 1.10159 12.1866 1.33529 12.1866 1.57898C12.1866 1.82266 12.0878 2.05637 11.912 2.22868C11.7361 2.40099 11.4977 2.4978 11.249 2.4978V3.41662H19.0121L19.7359 1.28863C19.7981 1.10574 19.9173 0.946648 20.0768 0.833859C20.2364 0.72107 20.428 0.660303 20.6247 0.660156H22.4999C22.7485 0.660156 22.987 0.756961 23.1628 0.929273C23.3387 1.10159 23.4374 1.33529 23.4374 1.57898C23.4374 1.82266 23.3387 2.05637 23.1628 2.22868C22.987 2.40099 22.7485 2.4978 22.4999 2.4978H21.2998L20.7166 4.21599L22.2298 6.58655C23.5338 6.05954 24.9923 6.03184 26.3161 6.50892C27.64 6.98601 28.7326 7.93307 29.3775 9.16243C30.0225 10.3918 30.1726 11.8137 29.7982 13.1464C29.4238 14.4792 28.5522 15.6254 27.356 16.358C26.1599 17.0907 24.7266 17.3562 23.3401 17.102C21.9537 16.8478 20.7152 16.0925 19.8702 14.9857C19.0253 13.8788 18.6354 12.5013 18.7779 11.1261C18.9204 9.75083 19.5849 8.47825 20.6397 7.5605L19.6871 6.06834L15.7943 12.173C15.7101 12.3051 15.5929 12.4141 15.4538 12.4897C15.3147 12.5652 15.1583 12.6048 14.9993 12.6048H11.1721C10.9776 13.7317 10.4306 14.7714 9.60678 15.5803C8.78291 16.3891 7.72291 16.927 6.57342 17.1196C5.42394 17.3122 4.24179 17.1499 3.19053 16.6553C2.13927 16.1606 1.27086 15.358 0.705447 14.3584C0.140034 13.3589 -0.0944325 12.2119 0.0344854 11.0761C0.163403 9.94023 0.649333 8.87173 1.42505 8.0184C2.20076 7.16506 3.22791 6.56907 4.36439 6.31288C5.50088 6.0567 6.69052 6.15297 7.76872 6.58839L9.37385 4.07082V2.4978H8.43627C8.18761 2.4978 7.94914 2.40099 7.77331 2.22868C7.59748 2.05637 7.4987 1.82266 7.4987 1.57898ZM10.3114 6.06834L9.35885 7.56418C10.2964 8.38009 10.9527 9.50105 11.1721 10.7672H13.3079L10.3114 6.06834ZM14.9993 9.95311L17.9958 5.25426H12.0028L14.9993 9.95311ZM9.25571 10.7672C9.09619 10.1626 8.78188 9.60789 8.34252 9.15558L7.31494 10.7672H9.25571ZM6.75427 8.17979C6.03892 7.9584 5.27227 7.95235 4.55337 8.1624C3.83448 8.37245 3.19638 8.78896 2.72155 9.3581C2.24671 9.92725 1.95695 10.6229 1.88972 11.3551C1.82248 12.0873 1.98086 12.8224 2.34439 13.4655C2.70791 14.1086 3.25988 14.63 3.92896 14.9625C4.59804 15.2949 5.35348 15.4231 6.09766 15.3304C6.84185 15.2378 7.54057 14.9285 8.10354 14.4426C8.66651 13.9567 9.06786 13.3166 9.25571 12.6048H5.62356C5.45619 12.6048 5.29188 12.5609 5.14768 12.4777C5.00348 12.3944 4.88464 12.2749 4.80351 12.1314C4.72238 11.988 4.68191 11.8259 4.6863 11.6619C4.6907 11.4979 4.73979 11.3381 4.82849 11.199L6.75427 8.17979ZM21.656 9.15374C21.0275 9.80243 20.662 10.6535 20.628 11.5474C20.5939 12.4413 20.8937 13.3167 21.4712 14.0095C22.0487 14.7023 22.8641 15.1649 23.7647 15.3106C24.6653 15.4563 25.5892 15.2752 26.3633 14.8011C27.1373 14.327 27.7084 13.5925 27.9694 12.7353C28.2304 11.8781 28.1634 10.957 27.781 10.1448C27.3986 9.33251 26.7271 8.6848 25.8922 8.32306C25.0574 7.96132 24.1166 7.91038 23.2462 8.17979L25.1701 11.199C25.2353 11.3014 25.2794 11.4153 25.2997 11.5343C25.32 11.6533 25.3163 11.775 25.2886 11.8926C25.2609 12.0102 25.2098 12.1213 25.1384 12.2195C25.0669 12.3177 24.9763 12.4012 24.8719 12.4652C24.7675 12.5291 24.6513 12.5723 24.5298 12.5922C24.4084 12.6121 24.2842 12.6084 24.1642 12.5813C24.0442 12.5542 23.9309 12.5041 23.8306 12.4341C23.7304 12.364 23.6452 12.2753 23.58 12.173L21.656 9.15558V9.15374Z" fill="white"/>
</svg>
