<svg width="53" height="53" viewBox="0 0 53 53" fill="none" xmlns="http://www.w3.org/2000/svg">
<circle cx="26.5" cy="26.5" r="26.5" fill="#1ECA4E"/>
<path d="M36.8881 31.9201V34.9201C36.8892 35.1986 36.8322 35.4743 36.7206 35.7294C36.6091 35.9846 36.4454 36.2137 36.2402 36.402C36.035 36.5902 35.7927 36.7336 35.5289 36.8228C35.265 36.912 34.9855 36.9452 34.7081 36.9201C31.631 36.5857 28.6751 35.5342 26.0781 33.8501C23.6619 32.3148 21.6135 30.2663 20.0781 27.8501C18.3881 25.2413 17.3364 22.2711 17.0081 19.1801C16.9831 18.9036 17.016 18.6249 17.1046 18.3617C17.1932 18.0986 17.3357 17.8568 17.5229 17.6517C17.7101 17.4466 17.9379 17.2828 18.1919 17.1706C18.4459 17.0584 18.7205 17.0004 18.9981 17.0001H21.9981C22.4834 16.9953 22.9539 17.1672 23.3219 17.4836C23.6898 17.8001 23.9302 18.2395 23.9981 18.7201C24.1247 19.6802 24.3596 20.6228 24.6981 21.5301C24.8327 21.888 24.8618 22.277 24.782 22.651C24.7023 23.0249 24.517 23.3682 24.2481 23.6401L22.9781 24.9101C24.4017 27.4136 26.4746 29.4865 28.9781 30.9101L30.2481 29.6401C30.52 29.3712 30.8633 29.1859 31.2372 29.1062C31.6112 29.0264 32.0002 29.0556 32.3581 29.1901C33.2654 29.5286 34.2081 29.7635 35.1681 29.8901C35.6539 29.9586 36.0975 30.2033 36.4146 30.5776C36.7318 30.9519 36.9003 31.4297 36.8881 31.9201Z" stroke="white" stroke-width="2" stroke-linecap="round" stroke-linejoin="round"/>
</svg>
