<svg width="18" height="20" viewBox="0 0 18 20" fill="none" xmlns="http://www.w3.org/2000/svg">
<path d="M14.6735 8.77698H2.88777C1.95791 8.77698 1.2041 9.53078 1.2041 10.4607V16.3535C1.2041 17.2834 1.95791 18.0372 2.88777 18.0372H14.6735C15.6034 18.0372 16.3572 17.2834 16.3572 16.3535V10.4607C16.3572 9.53078 15.6034 8.77698 14.6735 8.77698Z" stroke="#D2D2D2" stroke-width="2" stroke-linecap="round" stroke-linejoin="round"/>
<path d="M4.57144 8.77697V5.40962C4.57144 4.29328 5.01491 3.22266 5.80428 2.43328C6.59366 1.64391 7.66428 1.20044 8.78063 1.20044C9.89697 1.20044 10.9676 1.64391 11.757 2.43328C12.5463 3.22266 12.9898 4.29328 12.9898 5.40962V8.77697" stroke="#D2D2D2" stroke-width="2" stroke-linecap="round" stroke-linejoin="round"/>
</svg>
