<svg width="55" height="55" viewBox="0 0 55 55" fill="none" xmlns="http://www.w3.org/2000/svg">
<rect width="55" height="55" rx="27.5" fill="#2F2F8D"/>
<path d="M38.457 36.0859C38.6133 36.5547 38.7109 36.9258 38.75 37.1992C38.7891 37.4727 38.737 37.681 38.5938 37.8242C38.4505 37.9544 38.1966 38.0326 37.832 38.0586C37.4674 38.0977 36.9661 38.1172 36.3281 38.1172C35.6641 38.1172 35.1432 38.1042 34.7656 38.0781C34.401 38.0651 34.1211 38.0326 33.9258 37.9805C33.7305 37.9154 33.5938 37.8307 33.5156 37.7266C33.4375 37.6224 33.3724 37.4857 33.3203 37.3164L31.6211 32.2383H22.1289L20.5273 37.1797C20.4753 37.362 20.4036 37.5182 20.3125 37.6484C20.2344 37.7656 20.0977 37.8633 19.9023 37.9414C19.7201 38.0065 19.4531 38.0521 19.1016 38.0781C18.763 38.1042 18.3138 38.1172 17.7539 38.1172C17.1549 38.1172 16.6862 38.0977 16.3477 38.0586C16.0091 38.0195 15.7747 37.9284 15.6445 37.7852C15.5143 37.6289 15.4688 37.4141 15.5078 37.1406C15.5469 36.8672 15.6445 36.5026 15.8008 36.0469L23.5938 13.625C23.6719 13.4036 23.763 13.2279 23.8672 13.0977C23.9714 12.9544 24.1341 12.8503 24.3555 12.7852C24.5898 12.707 24.9089 12.6615 25.3125 12.6484C25.7161 12.6224 26.25 12.6094 26.9141 12.6094C27.6823 12.6094 28.2943 12.6224 28.75 12.6484C29.2057 12.6615 29.5573 12.707 29.8047 12.7852C30.0651 12.8503 30.2474 12.9544 30.3516 13.0977C30.4688 13.2409 30.5664 13.4362 30.6445 13.6836L38.457 36.0859ZM26.8555 17.5508H26.8359L23.2617 28.293H30.4297L26.8555 17.5508Z" fill="white"/>
</svg>
