<svg width="329" height="210" viewBox="0 0 329 210" fill="none" xmlns="http://www.w3.org/2000/svg">
<path d="M97.939 59.7562H33.8342V15.9044H97.939V59.7562ZM34.3404 59.25H97.4328V16.4106H34.3404V59.25Z" fill="#EBEBEB"/>
<path d="M38.8457 18.729C38.8457 18.9813 38.7709 19.2279 38.6307 19.4377C38.4905 19.6475 38.2913 19.811 38.0582 19.9075C37.8251 20.004 37.5686 20.0293 37.3212 19.9801C37.0737 19.9309 36.8464 19.8094 36.6681 19.631C36.4897 19.4526 36.3682 19.2253 36.3189 18.9778C36.2697 18.7304 36.295 18.4739 36.3915 18.2408C36.4881 18.0077 36.6516 17.8085 36.8614 17.6683C37.0711 17.5282 37.3178 17.4534 37.5701 17.4534C37.9084 17.4534 38.2328 17.5878 38.472 17.827C38.7113 18.0662 38.8457 18.3907 38.8457 18.729Z" fill="#A6A6A6"/>
<path d="M44.0542 18.729C44.0542 18.9813 43.9793 19.2279 43.8392 19.4377C43.699 19.6475 43.4998 19.811 43.2667 19.9075C43.0336 20.004 42.7771 20.0293 42.5297 19.9801C42.2822 19.9309 42.0549 19.8094 41.8765 19.631C41.6981 19.4526 41.5767 19.2253 41.5274 18.9778C41.4782 18.7304 41.5035 18.4739 41.6 18.2408C41.6966 18.0077 41.8601 17.8085 42.0698 17.6683C42.2796 17.5282 42.5263 17.4534 42.7785 17.4534C43.1169 17.4534 43.4413 17.5878 43.6805 17.827C43.9198 18.0662 44.0542 18.3907 44.0542 18.729Z" fill="#EBEBEB"/>
<path d="M49.2681 18.729C49.2691 18.9827 49.1947 19.231 49.0544 19.4424C48.9141 19.6538 48.7141 19.8187 48.4799 19.9163C48.2457 20.0138 47.9878 20.0396 47.7389 19.9904C47.49 19.9411 47.2613 19.819 47.0819 19.6396C46.9025 19.4602 46.7804 19.2316 46.7311 18.9827C46.6819 18.7338 46.7077 18.4758 46.8052 18.2416C46.9028 18.0074 47.0677 17.8074 47.2791 17.6671C47.4905 17.5268 47.7388 17.4524 47.9925 17.4534C48.3308 17.4534 48.6553 17.5878 48.8945 17.827C49.1337 18.0662 49.2681 18.3907 49.2681 18.729Z" fill="#2F2F8D"/>
<path d="M97.686 20.9714H34.0874V21.4776H97.686V20.9714Z" fill="#EBEBEB"/>
<path d="M307.661 174.617H307.155V110.928L320.686 92.4616V57.9491H321.192V92.6236L307.661 111.095V174.617Z" fill="#EBEBEB"/>
<path d="M320.939 58.2225C320.65 58.2225 320.368 58.1368 320.128 57.9764C319.888 57.816 319.702 57.588 319.591 57.3213C319.481 57.0547 319.453 56.7613 319.509 56.4783C319.566 56.1954 319.705 55.9356 319.91 55.732C320.114 55.5283 320.374 55.3898 320.657 55.3342C320.941 55.2785 321.234 55.3081 321.5 55.4192C321.766 55.5303 321.994 55.718 322.153 55.9584C322.313 56.1988 322.398 56.4811 322.397 56.7697C322.397 56.9609 322.359 57.1502 322.286 57.3268C322.212 57.5034 322.105 57.6638 321.969 57.7987C321.834 57.9337 321.673 58.0406 321.496 58.1133C321.319 58.186 321.13 58.2231 320.939 58.2225ZM320.939 55.818C320.751 55.818 320.567 55.8738 320.41 55.9784C320.254 56.083 320.132 56.2316 320.06 56.4055C319.988 56.5794 319.969 56.7707 320.005 56.9553C320.042 57.1399 320.133 57.3095 320.266 57.4426C320.399 57.5757 320.569 57.6663 320.753 57.703C320.938 57.7398 321.129 57.7209 321.303 57.6489C321.477 57.5769 321.625 57.4549 321.73 57.2984C321.835 57.1419 321.89 56.9579 321.89 56.7697C321.89 56.5173 321.79 56.2752 321.612 56.0968C321.433 55.9183 321.191 55.818 320.939 55.818Z" fill="#EBEBEB"/>
<path d="M311.149 174.617H310.643V113.16L310.688 113.089L324.173 94.6889V70.6041H324.68V94.856L311.149 113.322V174.617Z" fill="#EBEBEB"/>
<path d="M324.427 70.8774C324.138 70.8784 323.855 70.7936 323.615 70.6338C323.374 70.474 323.187 70.2463 323.076 69.9797C322.965 69.7132 322.935 69.4196 322.991 69.1364C323.047 68.8531 323.186 68.5929 323.391 68.3887C323.595 68.1845 323.855 68.0455 324.138 67.9894C324.422 67.9333 324.715 67.9626 324.982 68.0736C325.248 68.1846 325.476 68.3722 325.636 68.6127C325.796 68.8533 325.88 69.1358 325.879 69.4246C325.878 69.8095 325.724 70.1782 325.452 70.4504C325.18 70.7225 324.811 70.876 324.427 70.8774ZM324.427 68.4729C324.238 68.4719 324.054 68.5269 323.896 68.6308C323.739 68.7348 323.617 68.8831 323.544 69.0569C323.471 69.2307 323.451 69.4222 323.487 69.6071C323.524 69.792 323.614 69.9621 323.747 70.0957C323.88 70.2293 324.049 70.3204 324.234 70.3576C324.419 70.3947 324.61 70.3761 324.784 70.3043C324.959 70.2324 325.108 70.1104 325.212 69.9538C325.317 69.7972 325.373 69.613 325.373 69.4246C325.373 69.1731 325.274 68.9318 325.096 68.7534C324.919 68.5751 324.678 68.4743 324.427 68.4729Z" fill="#EBEBEB"/>
<path d="M304.305 90.3812H303.799V174.617H304.305V90.3812Z" fill="#EBEBEB"/>
<path d="M304.052 90.6343C303.763 90.6353 303.481 90.5505 303.24 90.3907C303 90.2309 302.812 90.0032 302.701 89.7366C302.59 89.47 302.561 89.1765 302.617 88.8932C302.673 88.61 302.812 88.3497 303.016 88.1456C303.221 87.9414 303.481 87.8024 303.764 87.7463C304.047 87.6902 304.341 87.7195 304.607 87.8305C304.874 87.9415 305.102 88.1291 305.261 88.3696C305.421 88.6101 305.506 88.8927 305.505 89.1815C305.504 89.5664 305.35 89.9351 305.078 90.2073C304.806 90.4794 304.437 90.6329 304.052 90.6343ZM304.052 88.2298C303.864 88.2288 303.679 88.2838 303.522 88.3877C303.365 88.4917 303.242 88.64 303.169 88.8138C303.097 88.9876 303.077 89.1791 303.113 89.364C303.149 89.5489 303.24 89.719 303.372 89.8526C303.505 89.9862 303.675 90.0773 303.86 90.1144C304.044 90.1516 304.236 90.133 304.41 90.0612C304.584 89.9893 304.733 89.8673 304.838 89.7107C304.943 89.5541 304.999 89.3699 304.999 89.1815C304.999 88.9299 304.899 88.6887 304.722 88.5103C304.545 88.332 304.304 88.2312 304.052 88.2298Z" fill="#EBEBEB"/>
<path d="M301.071 174.617H300.564V131.869L291.382 114.542V83.421H291.888V114.42L301.071 131.748V174.617Z" fill="#EBEBEB"/>
<path d="M291.63 83.6741C291.342 83.6741 291.06 83.5886 290.82 83.4284C290.58 83.2682 290.393 83.0405 290.283 82.7741C290.173 82.5077 290.144 82.2146 290.2 81.9318C290.256 81.649 290.395 81.3892 290.599 81.1854C290.803 80.9815 291.063 80.8426 291.346 80.7864C291.628 80.7301 291.921 80.759 292.188 80.8693C292.454 80.9797 292.682 81.1665 292.842 81.4063C293.002 81.646 293.088 81.9279 293.088 82.2162C293.088 82.6029 292.934 82.9737 292.661 83.2471C292.387 83.5205 292.017 83.6741 291.63 83.6741ZM291.63 81.2696C291.442 81.2696 291.257 81.3256 291.101 81.4304C290.944 81.5352 290.822 81.6841 290.75 81.8583C290.678 82.0325 290.66 82.2241 290.697 82.4088C290.734 82.5935 290.825 82.7631 290.959 82.896C291.092 83.0289 291.262 83.1191 291.447 83.1552C291.632 83.1914 291.824 83.1718 291.998 83.099C292.171 83.0262 292.32 82.9034 292.424 82.7463C292.528 82.5891 292.583 82.4046 292.582 82.2162C292.582 82.0915 292.557 81.968 292.509 81.8528C292.461 81.7376 292.391 81.633 292.303 81.5451C292.214 81.4571 292.109 81.3875 291.994 81.3402C291.878 81.2929 291.755 81.269 291.63 81.2696Z" fill="#EBEBEB"/>
<path d="M297.856 174.617H297.35V133.727L286.522 114.572V94.046H287.029V114.436L297.856 133.595V174.617Z" fill="#EBEBEB"/>
<path d="M286.776 94.2991C286.487 94.3001 286.204 94.2153 285.964 94.0555C285.723 93.8957 285.536 93.6681 285.425 93.4015C285.314 93.1349 285.284 92.8414 285.341 92.5581C285.397 92.2748 285.536 92.0146 285.74 91.8104C285.944 91.6062 286.204 91.4673 286.487 91.4112C286.771 91.3551 287.064 91.3844 287.331 91.4954C287.597 91.6063 287.825 91.794 287.985 92.0345C288.145 92.275 288.229 92.5576 288.228 92.8463C288.227 93.2312 288.074 93.6 287.801 93.8721C287.529 94.1443 287.161 94.2978 286.776 94.2991ZM286.776 91.8947C286.587 91.8937 286.403 91.9486 286.246 92.0526C286.088 92.1565 285.966 92.3048 285.893 92.4786C285.82 92.6524 285.8 92.8439 285.837 93.0289C285.873 93.2138 285.963 93.3838 286.096 93.5174C286.229 93.651 286.398 93.7422 286.583 93.7793C286.768 93.8164 286.959 93.7979 287.134 93.726C287.308 93.6541 287.457 93.5322 287.561 93.3756C287.666 93.2189 287.722 93.0348 287.722 92.8463C287.722 92.5948 287.623 92.3535 287.445 92.1752C287.268 91.9969 287.027 91.896 286.776 91.8947Z" fill="#EBEBEB"/>
<path d="M22.9712 174.617H22.465V141.461L8.93433 122.995V103.507H9.44052V122.828L22.9712 141.299V174.617Z" fill="#EBEBEB"/>
<path d="M9.18751 103.78C8.89875 103.781 8.61619 103.696 8.37568 103.537C8.13516 103.377 7.94752 103.149 7.83655 102.883C7.72558 102.616 7.69629 102.322 7.75238 102.039C7.80847 101.756 7.94742 101.496 8.1516 101.291C8.35579 101.087 8.61602 100.948 8.89929 100.892C9.18255 100.836 9.47609 100.865 9.74269 100.976C10.0093 101.087 10.2369 101.275 10.3967 101.516C10.5565 101.756 10.6413 102.039 10.6403 102.327C10.6403 102.713 10.4872 103.082 10.2148 103.355C9.94234 103.627 9.57282 103.78 9.18751 103.78ZM9.18751 101.376C8.99908 101.375 8.81459 101.43 8.65743 101.534C8.50027 101.638 8.37751 101.786 8.3047 101.96C8.2319 102.134 8.21233 102.325 8.24847 102.51C8.28462 102.695 8.37485 102.865 8.50774 102.999C8.64063 103.132 8.81019 103.223 8.99492 103.26C9.17966 103.298 9.37127 103.279 9.54545 103.207C9.71964 103.135 9.86856 103.013 9.97336 102.857C10.0782 102.7 10.1341 102.516 10.1341 102.327C10.1341 102.076 10.0345 101.835 9.85716 101.656C9.67978 101.478 9.43903 101.377 9.18751 101.376Z" fill="#EBEBEB"/>
<path d="M19.4836 174.617H18.9774V143.694L5.44678 125.228V116.162H5.95297V125.061L19.4836 143.532V174.617Z" fill="#EBEBEB"/>
<path d="M5.71004 116.435C5.42149 116.435 5.13943 116.349 4.89958 116.189C4.65973 116.029 4.47287 115.801 4.36268 115.534C4.25249 115.267 4.22392 114.974 4.28058 114.691C4.33725 114.408 4.4766 114.148 4.68099 113.945C4.88538 113.741 5.14561 113.602 5.42874 113.547C5.71187 113.491 6.00515 113.521 6.27145 113.632C6.53774 113.743 6.76507 113.931 6.92465 114.171C7.08423 114.411 7.16888 114.694 7.16788 114.982C7.16654 115.368 7.01236 115.738 6.73911 116.01C6.46585 116.282 6.09581 116.435 5.71004 116.435ZM5.71004 114.031C5.52182 114.031 5.33783 114.086 5.18133 114.191C5.02483 114.296 4.90286 114.444 4.83083 114.618C4.7588 114.792 4.73995 114.983 4.77667 115.168C4.81339 115.353 4.90403 115.522 5.03712 115.655C5.17021 115.788 5.33978 115.879 5.52438 115.916C5.70898 115.952 5.90033 115.934 6.07422 115.861C6.24811 115.789 6.39674 115.667 6.5013 115.511C6.60587 115.354 6.66169 115.17 6.66169 114.982C6.66169 114.73 6.56142 114.488 6.38295 114.309C6.20449 114.131 5.96243 114.031 5.71004 114.031Z" fill="#EBEBEB"/>
<path d="M26.3272 120.753H25.821V174.617H26.3272V120.753Z" fill="#EBEBEB"/>
<path d="M26.0741 121.006C25.7855 121.006 25.5034 120.92 25.2636 120.76C25.0237 120.6 24.8369 120.372 24.7267 120.105C24.6165 119.838 24.5879 119.545 24.6446 119.262C24.7013 118.979 24.8406 118.719 25.045 118.516C25.2494 118.312 25.5096 118.173 25.7928 118.118C26.0759 118.062 26.3692 118.092 26.6355 118.203C26.9018 118.314 27.1291 118.502 27.2887 118.742C27.4483 118.982 27.5329 119.265 27.5319 119.553C27.5306 119.939 27.3764 120.309 27.1031 120.581C26.8299 120.853 26.4598 121.006 26.0741 121.006ZM26.0741 118.602C25.8858 118.602 25.7018 118.657 25.5453 118.762C25.3888 118.867 25.2669 119.015 25.1948 119.189C25.1228 119.363 25.104 119.554 25.1407 119.739C25.1774 119.924 25.268 120.093 25.4011 120.226C25.5342 120.359 25.7038 120.45 25.8884 120.487C26.073 120.523 26.2643 120.504 26.4382 120.432C26.6121 120.36 26.7607 120.238 26.8653 120.082C26.9699 119.925 27.0257 119.741 27.0257 119.553C27.0257 119.301 26.9254 119.059 26.747 118.88C26.5685 118.702 26.3264 118.602 26.0741 118.602Z" fill="#EBEBEB"/>
<path d="M29.5619 174.617H29.0557V146.933L29.081 146.873L38.2381 129.606V98.6068H38.7443V129.728L38.719 129.783L29.5619 147.055V174.617Z" fill="#EBEBEB"/>
<path d="M38.4913 98.8599C38.203 98.8599 37.9211 98.7744 37.6814 98.6142C37.4416 98.454 37.2548 98.2263 37.1444 97.96C37.0341 97.6936 37.0052 97.4004 37.0615 97.1176C37.1177 96.8349 37.2566 96.5751 37.4604 96.3712C37.6643 96.1673 37.9241 96.0285 38.2069 95.9722C38.4897 95.916 38.7828 95.9448 39.0492 96.0552C39.3156 96.1655 39.5433 96.3524 39.7034 96.5921C39.8636 96.8319 39.9491 97.1137 39.9491 97.4021C39.9491 97.7887 39.7955 98.1595 39.5221 98.4329C39.2487 98.7063 38.8779 98.8599 38.4913 98.8599ZM38.4913 96.4555C38.3029 96.4555 38.1187 96.5114 37.9621 96.6162C37.8055 96.721 37.6835 96.8699 37.6116 97.0441C37.5397 97.2183 37.5212 97.4099 37.5583 97.5946C37.5954 97.7794 37.6866 97.9489 37.8202 98.0818C37.9538 98.2147 38.1238 98.305 38.3088 98.3411C38.4937 98.3772 38.6852 98.3577 38.859 98.2849C39.0328 98.2121 39.1811 98.0893 39.285 97.9321C39.389 97.775 39.4439 97.5905 39.4429 97.4021C39.4429 97.2773 39.4183 97.1538 39.3704 97.0386C39.3225 96.9235 39.2523 96.8189 39.1639 96.7309C39.0755 96.643 38.9705 96.5733 38.8551 96.5261C38.7397 96.4788 38.616 96.4548 38.4913 96.4555Z" fill="#EBEBEB"/>
<path d="M32.7762 174.617H32.27V148.781L32.3004 148.72L43.0976 129.621V109.232H43.6038V129.758L43.5683 129.814L32.7762 148.913V174.617Z" fill="#EBEBEB"/>
<path d="M43.3508 109.485C43.0621 109.486 42.7795 109.401 42.539 109.241C42.2985 109.082 42.1108 108.854 41.9999 108.587C41.8889 108.321 41.8596 108.027 41.9157 107.744C41.9718 107.461 42.1107 107.201 42.3149 106.996C42.5191 106.792 42.7793 106.653 43.0626 106.597C43.3459 106.541 43.6394 106.57 43.906 106.681C44.1726 106.792 44.4002 106.98 44.56 107.22C44.7198 107.461 44.8046 107.743 44.8036 108.032C44.8023 108.417 44.6488 108.786 44.3766 109.058C44.1045 109.33 43.7357 109.484 43.3508 109.485ZM43.3508 107.081C43.1624 107.08 42.9779 107.135 42.8208 107.238C42.6636 107.342 42.5408 107.491 42.468 107.665C42.3952 107.838 42.3757 108.03 42.4118 108.215C42.4479 108.4 42.5382 108.57 42.6711 108.703C42.804 108.837 42.9735 108.928 43.1583 108.965C43.343 109.002 43.5346 108.984 43.7088 108.912C43.883 108.84 44.0319 108.718 44.1367 108.561C44.2415 108.405 44.2974 108.221 44.2974 108.032C44.2974 107.781 44.1979 107.539 44.0205 107.361C43.8431 107.183 43.6024 107.082 43.3508 107.081Z" fill="#EBEBEB"/>
<path d="M321.577 49.3539L325.12 43.6592L323.379 42.581C323.125 42.4233 322.921 42.1971 322.79 41.9284C322.659 41.6597 322.607 41.3595 322.64 41.0624C322.667 40.7249 322.677 40.3875 322.67 40.05C322.661 39.7562 322.734 39.4657 322.881 39.2109C323.027 38.9561 323.242 38.7471 323.5 38.6073L325.307 37.6354L322.083 31.7636L320.276 32.7355C320.015 32.8726 319.721 32.9347 319.427 32.9151C319.133 32.8954 318.851 32.7947 318.611 32.6241C318.337 32.4368 318.054 32.2596 317.76 32.1179C317.5 31.9795 317.283 31.7711 317.135 31.5162C316.986 31.2613 316.912 30.9701 316.92 30.6752L316.986 28.6201L310.289 28.4125L310.223 30.4728C310.212 30.7676 310.119 31.0535 309.954 31.2985C309.79 31.5435 309.56 31.7378 309.291 31.8597C309.14 31.9306 308.993 32.0015 308.851 32.0825C308.709 32.1635 308.563 32.2394 308.421 32.3254C308.17 32.4795 307.882 32.561 307.588 32.561C307.294 32.561 307.006 32.4795 306.755 32.3254L304.999 31.2371L301.456 36.9318L303.202 38.0202C303.456 38.1774 303.661 38.4035 303.791 38.6724C303.922 38.9412 303.974 39.2416 303.941 39.5387C303.913 39.8754 303.902 40.2134 303.911 40.5511C303.918 40.846 303.844 41.1373 303.697 41.3928C303.55 41.6483 303.335 41.858 303.075 41.9989L301.299 42.8999L304.467 48.8072L306.275 47.8404C306.535 47.7025 306.828 47.6395 307.122 47.6583C307.416 47.677 307.699 47.7769 307.94 47.9467C308.214 48.1306 308.498 48.2996 308.79 48.4529C309.051 48.5913 309.267 48.7997 309.416 49.0545C309.564 49.3094 309.639 49.6007 309.631 49.8955L309.57 51.9507L316.267 52.1582L316.333 50.1031C316.344 49.8088 316.437 49.5235 316.601 49.2793C316.766 49.0351 316.995 48.8418 317.264 48.7212L317.704 48.4984L318.135 48.2504C318.386 48.0965 318.675 48.015 318.97 48.015C319.265 48.015 319.554 48.0965 319.805 48.2504L321.577 49.3539ZM315.907 45.1272C314.95 45.64 313.862 45.8575 312.781 45.752C311.7 45.6465 310.674 45.2228 309.834 44.5345C308.994 43.8462 308.376 42.9242 308.06 41.8851C307.744 40.846 307.743 39.7364 308.057 38.6967C308.371 37.6569 308.987 36.7337 309.826 36.0438C310.664 35.3538 311.689 34.9281 312.77 34.8205C313.851 34.7129 314.939 34.9281 315.898 35.4391C316.856 35.9501 317.642 36.7338 318.155 37.6911C318.495 38.3284 318.706 39.0265 318.775 39.7454C318.845 40.4643 318.772 41.1899 318.561 41.8806C318.35 42.5713 318.005 43.2136 317.545 43.7707C317.085 44.3278 316.52 44.7887 315.882 45.1272H315.907Z" fill="#EBEBEB"/>
<path d="M13.394 99.9786L17.4436 97.6299L16.7248 96.3846C16.6218 96.2053 16.5711 96.0008 16.5782 95.7942C16.5854 95.5876 16.6502 95.3871 16.7653 95.2153C16.8935 95.0196 17.0099 94.8171 17.1146 94.6079C17.2085 94.4204 17.3532 94.2631 17.5322 94.1539C17.7112 94.0447 17.9173 93.988 18.1269 93.9903H19.5645V89.2928H18.1269C17.9173 89.2951 17.7112 89.2384 17.5322 89.1292C17.3532 89.02 17.2085 88.8627 17.1146 88.6752C17.0099 88.466 16.8935 88.2635 16.7653 88.0678C16.6502 87.8961 16.5854 87.6956 16.5782 87.4889C16.5711 87.2823 16.6218 87.0778 16.7248 86.8985L17.4436 85.6533L13.394 83.3045L12.6752 84.5548C12.5735 84.7306 12.425 84.8748 12.2463 84.9713C12.0676 85.0678 11.8656 85.1129 11.6628 85.1015H10.9491C10.747 85.1122 10.5458 85.0674 10.3673 84.972C10.1888 84.8765 10.0399 84.734 9.93668 84.5599L9.21282 83.3045L5.16325 85.6533L5.88205 86.9036C5.98501 87.0828 6.03578 87.2874 6.02863 87.494C6.02147 87.7006 5.95667 87.9011 5.84155 88.0729C5.71434 88.2672 5.59774 88.4683 5.49228 88.6752C5.39836 88.8627 5.25365 89.02 5.07464 89.1292C4.89564 89.2384 4.68955 89.2951 4.47988 89.2928H3.0271V93.9903H4.4647C4.67437 93.988 4.88045 94.0447 5.05946 94.1539C5.23846 94.2631 5.38318 94.4204 5.47709 94.6079C5.58256 94.8148 5.69915 95.0159 5.82637 95.2102C5.94138 95.383 6.00607 95.5843 6.01322 95.7917C6.02038 95.9991 5.9697 96.2044 5.86686 96.3846L5.14806 97.6299L9.19764 99.9786L9.9215 98.7283C10.0245 98.5537 10.1732 98.4104 10.3516 98.3141C10.53 98.2178 10.7314 98.172 10.9339 98.1816C11.0453 98.1816 11.1617 98.1816 11.2781 98.1816C11.3945 98.1816 11.511 98.1816 11.6274 98.1816C11.8298 98.1725 12.0309 98.2186 12.2092 98.3148C12.3876 98.4111 12.5364 98.554 12.6398 98.7283L13.394 99.9786ZM11.2781 95.4887C10.5174 95.4877 9.77414 95.2612 9.14216 94.8378C8.51017 94.4145 8.01787 93.8133 7.72746 93.1103C7.43706 92.4072 7.3616 91.6339 7.51061 90.8879C7.65962 90.142 8.02642 89.457 8.56465 88.9195C9.10288 88.3819 9.78837 88.0161 10.5345 87.868C11.2806 87.72 12.0539 87.7965 12.7566 88.0878C13.4592 88.3791 14.0598 88.8722 14.4823 89.5048C14.9048 90.1373 15.1303 90.8809 15.1303 91.6416C15.1309 92.1474 15.0317 92.6484 14.8383 93.1157C14.6449 93.5831 14.3611 94.0077 14.0032 94.3652C13.6453 94.7226 13.2203 95.0058 12.7527 95.1986C12.285 95.3914 11.7839 95.49 11.2781 95.4887Z" fill="#EBEBEB"/>
<path d="M300.863 53.4743L298.519 49.4247L297.279 50.1283C297.099 50.2312 296.894 50.2819 296.686 50.2747C296.479 50.2675 296.278 50.2029 296.105 50.0878C295.909 49.9595 295.707 49.8429 295.497 49.7386C295.31 49.6446 295.153 49.4999 295.043 49.3209C294.934 49.1419 294.878 48.9358 294.88 48.7262V47.2886H290.192V48.7262C290.195 48.9358 290.138 49.1419 290.029 49.3209C289.92 49.4999 289.762 49.6446 289.575 49.7386C289.365 49.844 289.16 49.9606 288.962 50.0878C288.791 50.203 288.59 50.2678 288.383 50.2749C288.177 50.2821 287.972 50.2313 287.793 50.1283L286.548 49.4095L284.204 53.4591L285.454 54.1779C285.632 54.2842 285.777 54.4372 285.873 54.6202C285.97 54.8032 286.014 55.0092 286.001 55.2156C286.001 55.332 286.001 55.4485 286.001 55.5598C286.001 55.6712 286.001 55.7927 286.001 55.9091C286.011 56.1117 285.966 56.3133 285.869 56.4918C285.773 56.6703 285.629 56.8189 285.454 56.9215L284.204 57.6454L286.548 61.6949L287.798 60.9761C287.977 60.8732 288.182 60.8224 288.389 60.8296C288.595 60.8367 288.796 60.9015 288.967 61.0166C289.167 61.1449 289.369 61.2613 289.575 61.3659C289.762 61.4598 289.92 61.6045 290.029 61.7835C290.138 61.9625 290.195 62.1686 290.192 62.3783V63.8159H294.885V62.3783C294.883 62.1686 294.939 61.9625 295.048 61.7835C295.158 61.6045 295.315 61.4598 295.502 61.3659C295.712 61.2579 295.914 61.1415 296.11 61.0166C296.282 60.9015 296.482 60.8367 296.689 60.8296C296.895 60.8224 297.1 60.8732 297.279 60.9761L298.529 61.6949L300.873 57.6454L299.623 56.9266C299.449 56.8229 299.307 56.6739 299.212 56.4955C299.116 56.3172 299.071 56.1162 299.081 55.9142C299.081 55.7977 299.081 55.6813 299.081 55.5649C299.081 55.4485 299.081 55.3371 299.081 55.2207C299.068 55.0141 299.112 54.8079 299.208 54.6248C299.305 54.4417 299.45 54.2888 299.628 54.183L300.863 53.4743ZM296.373 55.5548C296.373 56.3159 296.147 57.0599 295.724 57.6926C295.301 58.3254 294.7 58.8185 293.997 59.1095C293.294 59.4005 292.52 59.4764 291.774 59.3276C291.027 59.1787 290.342 58.8118 289.804 58.2733C289.266 57.7347 288.9 57.0488 288.752 56.3022C288.604 55.5556 288.681 54.7819 288.973 54.079C289.265 53.3762 289.759 52.7757 290.392 52.3536C291.026 51.9314 291.77 51.7067 292.531 51.7077C293.036 51.7077 293.536 51.8072 294.002 52.0006C294.469 52.194 294.893 52.4775 295.25 52.8348C295.606 53.1921 295.889 53.6162 296.082 54.0829C296.275 54.5497 296.374 55.0498 296.373 55.5548Z" fill="#EBEBEB"/>
<path d="M24.186 136.075C20.9514 129.429 15.2921 126.017 8.91406 127.905C2.53598 129.794 1.5489 138.682 6.30715 140.93C11.0654 143.177 15.8338 136.617 18.3648 135.271C20.8957 133.924 24.186 136.075 24.186 136.075Z" fill="#2F2F8D"/>
<path d="M27.3142 153.757C27.3142 152.957 27.2687 152.152 27.2383 151.352C27.1843 149.753 27.127 148.153 27.0662 146.554C26.97 143.633 26.6461 140.768 25.4514 138.065C24.3812 135.62 22.5929 133.558 20.3237 132.152C19.477 131.636 18.562 131.24 17.6054 130.978C16.747 130.106 15.6526 129.505 14.4568 129.247C12.98 128.947 11.4619 128.909 9.97194 129.135C9.96301 129.139 9.95526 129.144 9.94978 129.152C9.9443 129.16 9.94136 129.169 9.94136 129.179C9.94136 129.188 9.9443 129.197 9.94978 129.205C9.95526 129.213 9.96301 129.218 9.97194 129.222C11.3917 129.037 12.834 129.138 14.2139 129.52C14.8054 129.684 15.3787 129.908 15.9248 130.188C16.2775 130.372 16.6159 130.582 16.9372 130.816C15.18 130.427 13.3452 130.595 11.6879 131.297C11.3389 131.221 10.9817 131.191 10.6249 131.206C10.1585 131.221 9.69503 131.287 9.24302 131.403C8.32032 131.664 7.43797 132.051 6.62092 132.552C6.57536 132.578 6.62092 132.648 6.66648 132.623C7.46973 132.184 8.33004 131.859 9.22277 131.656C9.65611 131.56 10.096 131.495 10.5389 131.464C10.7854 131.458 11.0321 131.465 11.2779 131.484C9.46225 132.325 8.00262 133.781 7.15749 135.595C7.15749 135.645 7.20811 135.686 7.22836 135.635C7.73157 134.583 8.46525 133.659 9.37489 132.93C10.2845 132.201 11.3468 131.686 12.4827 131.423C12.6244 131.388 12.7662 131.368 12.9129 131.343C12.8614 131.556 12.8225 131.772 12.7965 131.99C12.756 132.314 12.7003 132.633 12.6345 132.952C12.5063 133.612 12.3372 134.263 12.1283 134.901C11.9113 135.545 11.6526 136.174 11.3539 136.784C11.0682 137.432 10.7062 138.044 10.2757 138.606C10.2352 138.652 10.3111 138.708 10.3415 138.657C10.7262 138.055 11.1716 137.503 11.5209 136.88C11.8605 136.286 12.1533 135.667 12.3966 135.028C12.6408 134.381 12.8304 133.716 12.9636 133.038C13.0344 132.679 13.0901 132.319 13.1306 131.955C13.1743 131.739 13.188 131.517 13.1711 131.297C13.9216 131.181 14.684 131.164 15.4389 131.246C15.1554 132.836 14.8517 134.486 13.9608 135.863C13.9304 135.908 14.0114 135.954 14.0367 135.903C14.4517 135.173 14.817 134.415 15.1301 133.636C15.425 132.88 15.6092 132.085 15.6768 131.277C16.9943 131.451 18.2659 131.878 19.4226 132.532C21.6009 133.799 23.3405 135.701 24.4087 137.984C25.5305 140.443 26.1583 143.098 26.2563 145.799C26.4689 149.201 26.5145 152.618 26.8536 156.004C26.8536 156.227 27.2231 156.303 27.2687 156.05C27.3561 155.289 27.3714 154.521 27.3142 153.757Z" fill="#263238"/>
<path d="M19.8428 131.626C19.6278 131.368 19.3792 131.14 19.1038 130.948C18.8406 130.73 18.5672 130.517 18.2838 130.325C17.7247 129.934 17.1034 129.642 16.4463 129.459C16.3956 129.459 16.3754 129.53 16.4463 129.54C17.103 129.72 17.714 130.037 18.2382 130.472C18.5115 130.669 18.7444 130.882 19.0228 131.105C19.2469 131.341 19.4964 131.551 19.7669 131.732C19.781 131.742 19.7985 131.746 19.8156 131.744C19.8327 131.741 19.848 131.731 19.858 131.717C19.8681 131.703 19.8722 131.685 19.8693 131.668C19.8665 131.651 19.8569 131.636 19.8428 131.626Z" fill="#263238"/>
<path d="M9.52124 134.015C8.98536 134.637 8.48995 135.294 8.03808 135.979C7.59348 136.667 7.22355 137.4 6.93457 138.166C6.93457 138.191 6.93457 138.201 6.97 138.166C7.70966 136.719 8.58419 135.344 9.58198 134.061C9.61741 134.056 9.55161 134.015 9.52124 134.015Z" fill="#263238"/>
<path d="M16.4764 133.377C16.4083 133.793 16.2858 134.198 16.1119 134.582C15.9338 134.952 15.7273 135.307 15.4944 135.645C15.4944 135.645 15.4944 135.691 15.5349 135.675C16.0897 135.033 16.442 134.24 16.5473 133.398C16.5675 133.347 16.4865 133.327 16.4764 133.377Z" fill="#263238"/>
<path d="M26.8638 136.242C26.8638 136.242 31.4195 130.487 40.283 132.527C48.6809 134.466 52.5583 149.869 44.0694 151.712C35.5805 153.554 37.0788 139.3 33.986 136.88C31.7131 135.109 28.4482 135.488 26.8638 136.242Z" fill="#2F2F8D"/>
<path d="M47.1064 140.94C46.5317 140.433 45.9229 139.966 45.2841 139.543C44.6865 139.131 44.0339 138.806 43.3454 138.576C43.0013 138.051 42.6153 137.555 42.1912 137.093C41.4137 136.254 40.5144 135.538 39.5236 134.967H39.7868C40.2539 134.942 40.7219 134.942 41.189 134.967C42.132 135.026 43.0564 135.256 43.9174 135.645C43.968 135.645 44.0034 135.589 43.9528 135.569C43.0792 135.193 42.1655 134.918 41.2295 134.749C40.7733 134.668 40.3109 134.627 39.8476 134.628C39.5995 134.628 39.3414 134.628 39.1085 134.673H38.9668C38.1612 134.266 37.3121 133.952 36.4358 133.737L36.6838 133.671C37.1167 133.576 37.5543 133.503 37.9949 133.453C38.8745 133.36 39.7623 133.379 40.6372 133.509C40.6929 133.509 40.7081 133.433 40.6372 133.428C39.7505 133.322 38.8568 133.286 37.9645 133.322C37.2157 133.34 36.4709 133.437 35.7423 133.61C35.2105 133.512 34.6727 133.45 34.1326 133.423C31.0499 133.296 27.6887 134.435 25.7905 136.966C23.8922 139.497 23.5227 142.884 23.1886 145.946C22.6709 150.207 22.5574 154.507 22.8495 158.788C22.8495 159.042 23.2241 158.996 23.2342 158.758C23.3506 155.124 23.4771 151.494 23.8264 147.875C23.9833 146.194 24.1656 144.514 24.444 142.853C24.6463 141.425 25.0556 140.033 25.6589 138.723C26.3136 137.38 27.3533 136.263 28.6454 135.514C29.9397 134.774 31.3813 134.33 32.8671 134.213C34.2017 134.103 35.5451 134.23 36.8357 134.587C36.7954 134.845 36.7954 135.108 36.8357 135.367C36.8665 135.695 36.931 136.019 37.028 136.334C37.126 136.629 37.2496 136.915 37.3976 137.189C37.5646 137.493 37.7671 137.766 37.9544 138.055C37.9544 138.1 38.0556 138.055 38.0202 138.004C37.6574 137.486 37.4232 136.889 37.3368 136.263C37.2809 135.965 37.2453 135.664 37.2305 135.362C37.2305 135.134 37.2305 134.906 37.2305 134.678C38.6333 135.106 39.9435 135.792 41.0928 136.703C41.3054 136.875 41.5129 137.057 41.7154 137.245C41.423 137.513 41.1707 137.821 40.9662 138.161C40.6442 138.608 40.3646 139.084 40.131 139.583C39.7218 140.566 39.4461 141.6 39.311 142.656C39.3141 142.665 39.3199 142.673 39.3276 142.678C39.3353 142.684 39.3445 142.687 39.354 142.687C39.3635 142.687 39.3727 142.684 39.3804 142.678C39.3881 142.673 39.3939 142.665 39.397 142.656C39.5631 141.634 39.9056 140.649 40.4094 139.745C40.6443 139.298 40.9064 138.865 41.194 138.449C41.3459 138.237 41.4978 138.024 41.6597 137.822C41.7458 137.715 41.842 137.604 41.923 137.483C42.9623 138.505 43.8109 139.705 44.4286 141.026C44.0092 141.467 43.6593 141.968 43.3909 142.514C43.0732 143.084 42.7974 143.676 42.5658 144.286C42.1368 145.462 41.7834 146.664 41.5079 147.885C41.511 147.894 41.5168 147.902 41.5245 147.907C41.5322 147.913 41.5414 147.916 41.5509 147.916C41.5604 147.916 41.5696 147.913 41.5773 147.907C41.585 147.902 41.5908 147.894 41.5939 147.885C41.8638 146.657 42.2838 145.467 42.8442 144.342C43.1075 143.79 43.3909 143.243 43.6845 142.707C43.989 142.207 44.2661 141.692 44.5147 141.163C45.1044 142.451 45.4478 143.838 45.5271 145.253C45.5271 145.308 45.6131 145.303 45.6131 145.253C45.45 143.033 44.7705 140.882 43.6288 138.971C44.1654 139.199 44.707 139.421 45.2284 139.7C45.8915 140.053 46.5087 140.487 47.0659 140.991C47.0912 141.041 47.1469 140.975 47.1064 140.94Z" fill="#263238"/>
<path d="M46.2053 139.103C45.8572 138.766 45.4615 138.483 45.031 138.262C44.5945 138.066 44.1424 137.907 43.6794 137.786C43.6288 137.786 43.6085 137.857 43.6794 137.867C44.135 137.988 44.5725 138.168 44.9803 138.404C45.3997 138.62 45.8024 138.867 46.1851 139.143C46.2053 139.163 46.2509 139.123 46.2053 139.103Z" fill="#263238"/>
<path d="M31.217 128.553C31.217 128.553 32.0624 118.217 39.7465 114.886C46.165 112.087 49.84 119.3 45.3146 123.714C41.6498 127.268 35.7475 125.653 31.217 128.553Z" fill="#2F2F8D"/>
<path d="M43.8821 116.865C42.7126 117.338 41.5717 117.879 40.4653 118.485C39.5431 119.016 38.6554 119.604 37.8077 120.247C37.9343 119.989 38.0456 119.71 38.1772 119.457C38.375 119.056 38.593 118.666 38.8302 118.288C39.3013 117.506 39.8693 116.786 40.5209 116.147C40.5614 116.106 40.5209 116.05 40.4602 116.086C39.8126 116.73 39.2168 117.424 38.6784 118.161C38.4124 118.536 38.169 118.927 37.9495 119.33C37.7245 119.701 37.554 120.101 37.4433 120.52C37.4129 120.545 37.3825 120.561 37.3572 120.586C36.0157 121.655 34.7861 122.857 33.6873 124.175C33.6873 124.074 33.7278 123.972 33.7531 123.881C33.8999 123.375 34.0568 122.869 34.2188 122.363C34.5475 121.294 35.0156 120.272 35.6108 119.325C35.6412 119.28 35.5653 119.239 35.5349 119.285C34.9304 120.227 34.3925 121.209 33.9252 122.226C33.7218 122.72 33.5527 123.227 33.419 123.745C33.3097 124.084 33.2268 124.43 33.171 124.782C32.8369 125.207 32.5078 125.638 32.194 126.078C28.8987 130.776 27.2383 136.455 26.8435 142.14C26.7262 143.836 26.6975 145.538 26.7574 147.237C26.7681 148.949 26.9187 150.657 27.208 152.345C27.208 152.451 27.3952 152.421 27.3952 152.314C27.3548 150.821 27.2029 149.333 27.1725 147.839C27.1422 146.346 27.1725 144.843 27.3143 143.35C27.5569 140.365 28.1203 137.416 28.9948 134.552C29.8882 131.621 31.2047 128.836 32.9027 126.286C33.2266 126.22 33.5455 126.134 33.8644 126.048C34.1833 125.962 34.6339 125.85 35.0135 125.744C35.7524 125.557 36.4699 125.294 37.1547 124.959C37.1594 124.957 37.1635 124.953 37.1667 124.949C37.17 124.945 37.1724 124.94 37.1738 124.935C37.1753 124.93 37.1756 124.924 37.175 124.919C37.1743 124.913 37.1726 124.908 37.1699 124.904C37.1673 124.899 37.1637 124.895 37.1595 124.892C37.1552 124.888 37.1504 124.886 37.1452 124.885C37.14 124.883 37.1346 124.883 37.1293 124.883C37.124 124.884 37.1189 124.886 37.1142 124.889C36.4348 125.256 35.6994 125.509 34.9376 125.638C34.3403 125.759 33.7126 125.835 33.1102 125.972C33.667 125.162 34.2593 124.377 34.8971 123.623C36.3628 123.756 37.8405 123.647 39.2706 123.299C40.0307 123.115 40.778 122.881 41.508 122.601C42.2774 122.307 43.0266 121.922 43.7656 121.588C43.8264 121.563 43.7656 121.477 43.7353 121.507C42.3586 122.259 40.8556 122.751 39.301 122.96C37.9296 123.178 36.5438 123.293 35.1552 123.304C35.7019 122.676 36.2638 122.064 36.8662 121.492C38.891 119.568 41.2802 117.802 43.9529 116.88C43.958 116.931 43.9327 116.845 43.8821 116.865Z" fill="#263238"/>
<path d="M37.6254 116.901C37.279 117.336 36.9643 117.797 36.6839 118.278C36.3979 118.785 36.1704 119.323 36.0056 119.882H36.036C36.2941 119.376 36.5118 118.87 36.77 118.364C37.0252 117.867 37.3323 117.399 37.6862 116.967C37.7216 116.916 37.6609 116.855 37.6254 116.901Z" fill="#263238"/>
<path d="M25.2387 126.696C25.1931 127.141 24.0795 122.94 17.5799 119.214C11.6777 115.828 4.63143 107.015 10.4173 101.452C15.0895 96.9616 27.3951 106.751 25.2387 126.696Z" fill="#2F2F8D"/>
<path d="M29.7136 150.775C29.6242 146.403 29.2862 142.039 28.7012 137.705C28.1887 133.724 27.2694 129.806 25.9576 126.012C25.4514 124.645 24.9452 123.299 24.3226 121.963C24.3632 121.447 24.3632 120.929 24.3226 120.414C24.2871 119.751 24.2264 119.092 24.1656 118.434C24.1049 117.776 24.0391 117.113 23.9632 116.455C23.8872 115.797 23.7404 115.139 23.7151 114.481C23.7151 114.425 23.6189 114.435 23.6341 114.481C23.7625 115.171 23.8403 115.87 23.867 116.572C23.9176 117.209 23.953 117.847 23.9733 118.49C23.9935 119.133 23.9733 119.766 23.9733 120.409C23.9733 120.636 23.9733 120.884 23.9733 121.127C23.3608 119.837 22.7078 118.566 21.9991 117.326C22.4395 114.633 21.8675 111.818 21.3158 109.181C21.3158 109.131 21.2246 109.156 21.2348 109.206C21.5047 110.583 21.6487 111.98 21.665 113.383C21.665 114.491 21.6347 115.595 21.6347 116.703C21.4777 116.435 21.3208 116.172 21.1588 115.909C20.3185 114.532 19.4192 113.182 18.4608 111.859C18.5394 111.22 18.5189 110.573 18.4001 109.94C18.2918 109.232 18.1345 108.532 17.9293 107.845C17.7237 107.158 17.4838 106.482 17.2105 105.82C16.927 105.137 16.5524 104.489 16.2791 103.795C16.2791 103.74 16.1728 103.795 16.2032 103.831C16.5497 104.473 16.8231 105.152 17.0181 105.855C17.2327 106.52 17.4102 107.196 17.5496 107.88C17.6863 108.569 17.7977 109.252 17.8939 109.945C17.9597 110.401 18.0002 110.877 18.0761 111.338C16.6844 109.467 15.162 107.698 13.5203 106.043C13.4849 106.002 13.4292 106.043 13.4646 106.103C15.9316 108.888 18.1346 111.896 20.0452 115.088C20.1161 115.21 20.1869 115.331 20.2527 115.453C19.8984 115.23 19.4884 115.048 19.1492 114.861C18.5215 114.511 17.8888 114.167 17.2561 113.848L15.4135 112.836C15.0997 112.659 14.7858 112.476 14.4669 112.33C14.0766 112.166 13.7007 111.969 13.3432 111.742C13.2976 111.707 13.2419 111.783 13.2925 111.813C13.9202 112.158 14.472 112.669 15.0794 113.054C15.6868 113.438 16.3044 113.813 16.9321 114.162C18.0862 114.81 19.3416 115.271 20.4755 115.939C21.2651 117.321 21.9941 118.738 22.6622 120.181C21.9738 119.735 21.2651 119.32 20.5514 118.915C20.0908 118.657 19.6301 118.409 19.1644 118.161C18.7002 117.945 18.262 117.677 17.8584 117.361C17.8179 117.326 17.7622 117.361 17.7977 117.422C18.5553 118.104 19.3954 118.689 20.2983 119.163C21.1335 119.67 21.9738 120.12 22.8293 120.545C23.5245 122.067 24.1505 123.618 24.7073 125.197C27.4458 132.942 28.4481 141.163 28.929 149.333C29.0757 151.767 29.1466 154.197 29.177 156.637C29.2074 159.077 29.0808 161.507 29.0859 163.936C29.0859 164.012 29.2023 164.028 29.2124 163.936C29.506 161.78 29.5566 159.583 29.6528 157.406C29.749 155.23 29.7642 152.987 29.7136 150.775Z" fill="#263238"/>
<path d="M17.9042 115.711C16.7186 115.185 15.5657 114.589 14.4519 113.924C13.3228 113.289 12.2279 112.594 11.1718 111.844C11.1718 111.844 11.1363 111.844 11.1718 111.874C12.1685 112.678 13.2188 113.414 14.3152 114.076C15.4589 114.722 16.6424 115.296 17.8586 115.792C17.9143 115.792 17.9548 115.731 17.9042 115.711Z" fill="#263238"/>
<path d="M19.787 106.954C19.6909 106.574 19.5744 106.205 19.4479 105.835C19.4514 105.829 19.4533 105.822 19.4533 105.815C19.4533 105.808 19.4514 105.801 19.4479 105.795C19.3669 105.582 19.2808 105.375 19.1948 105.167L19.1644 105.091C19.1644 105.051 19.129 105.015 19.1138 104.975C19.0986 104.934 19.0885 104.975 19.1138 104.975C19.1391 104.975 19.1543 105.116 19.1796 105.192C19.1874 105.232 19.1976 105.271 19.21 105.309C19.639 106.753 19.9605 108.226 20.1718 109.718C20.1718 109.763 20.2477 109.763 20.2477 109.718C20.1826 108.784 20.0284 107.858 19.787 106.954Z" fill="#263238"/>
<path d="M36.5828 152.345L36.1171 157.842L34.6997 174.607H19.4885L18.0712 157.842L17.6055 152.345H36.5828Z" fill="#37474F"/>
<path d="M36.5828 152.345L36.1171 157.842H18.0712L17.6055 152.345H36.5828Z" fill="#263238"/>
<path d="M38.076 150.143H16.1172V155.417H38.076V150.143Z" fill="#37474F"/>
<path d="M0 174.607L41.0374 174.486L82.0747 174.44L164.149 174.354L246.224 174.44L287.262 174.486L328.299 174.607L287.262 174.734L246.224 174.774L164.149 174.86L82.0747 174.774L41.0374 174.729L0 174.607Z" fill="#263238"/>
<path d="M283.081 27.2482H44.3633V186.933H283.081V27.2482Z" fill="#EBEBEB"/>
<path d="M281.344 29.1971H46.0996V184.984H281.344V29.1971Z" fill="#263238"/>
<path d="M314.171 198.905H13.2727V209.864H314.171V198.905Z" fill="#DBDBDB"/>
<path d="M13.2727 198.905L44.3684 186.933H283.081L314.176 198.905H13.2727Z" fill="#EBEBEB"/>
<path d="M47.1423 194.658L67.208 186.933H260.241L280.307 194.658H47.1423Z" fill="#263238"/>
<path d="M268.057 41.032H59.3975V173.149H268.057V41.032Z" fill="white"/>
<path d="M268.057 41.032H59.2202V46.1142H268.057V41.032Z" fill="#455A64"/>
<path d="M63.2596 43.5731C63.2596 43.8223 63.1857 44.066 63.0472 44.2733C62.9087 44.4806 62.7119 44.6421 62.4815 44.7375C62.2512 44.8329 61.9978 44.8579 61.7533 44.8093C61.5088 44.7606 61.2842 44.6406 61.1079 44.4643C60.9317 44.288 60.8116 44.0634 60.763 43.819C60.7144 43.5745 60.7393 43.321 60.8347 43.0907C60.9301 42.8604 61.0917 42.6635 61.2989 42.525C61.5062 42.3865 61.7499 42.3126 61.9992 42.3126C62.3335 42.3126 62.6541 42.4454 62.8905 42.6818C63.1268 42.9182 63.2596 43.2388 63.2596 43.5731Z" fill="#C7C7C7"/>
<path d="M68.4078 43.5731C68.4078 43.8224 68.3339 44.066 68.1954 44.2733C68.0569 44.4806 67.8601 44.6422 67.6297 44.7376C67.3994 44.8329 67.146 44.8579 66.9015 44.8093C66.657 44.7606 66.4324 44.6406 66.2561 44.4643C66.0799 44.288 65.9598 44.0635 65.9112 43.819C65.8625 43.5745 65.8875 43.321 65.9829 43.0907C66.0783 42.8604 66.2399 42.6636 66.4471 42.5251C66.6544 42.3866 66.8981 42.3126 67.1474 42.3126C67.3131 42.312 67.4773 42.3441 67.6305 42.4072C67.7838 42.4703 67.923 42.5631 68.0401 42.6803C68.1573 42.7975 68.2501 42.9367 68.3132 43.0899C68.3764 43.2432 68.4085 43.4074 68.4078 43.5731Z" fill="white"/>
<path d="M73.5404 43.5731C73.5404 43.8224 73.4665 44.066 73.328 44.2733C73.1895 44.4806 72.9926 44.6422 72.7623 44.7376C72.532 44.8329 72.2786 44.8579 72.0341 44.8093C71.7896 44.7606 71.565 44.6406 71.3887 44.4643C71.2124 44.288 71.0924 44.0635 71.0438 43.819C70.9951 43.5745 71.0201 43.321 71.1155 43.0907C71.2109 42.8604 71.3724 42.6636 71.5797 42.5251C71.787 42.3866 72.0307 42.3126 72.28 42.3126C72.4457 42.312 72.6099 42.3441 72.7631 42.4072C72.9163 42.4703 73.0555 42.5631 73.1727 42.6803C73.2899 42.7975 73.3827 42.9367 73.4458 43.0899C73.5089 43.2432 73.5411 43.4074 73.5404 43.5731Z" fill="#2F2F8D"/>
<path d="M268.057 46.1142H264.351V173.144H268.057V46.1142Z" fill="#DBDBDB"/>
<path d="M266.199 90.1533C265.945 90.1533 265.702 90.0525 265.523 89.8731C265.343 89.6936 265.242 89.4503 265.242 89.1966V47.815C265.242 47.5613 265.343 47.3179 265.523 47.1385C265.702 46.9591 265.945 46.8583 266.199 46.8583C266.453 46.8583 266.696 46.9591 266.876 47.1385C267.055 47.3179 267.156 47.5613 267.156 47.815V89.1966C267.156 89.4503 267.055 89.6936 266.876 89.8731C266.696 90.0525 266.453 90.1533 266.199 90.1533Z" fill="#A6A6A6"/>
<path d="M238.854 79.0626H89.4451V101.71H238.854V79.0626Z" fill="white"/>
<path d="M239.107 101.958H89.1919V78.8094H239.107V101.958ZM89.6981 101.452H238.601V79.3156H89.6981V101.452Z" fill="#DBDBDB"/>
<path d="M102.636 85.1977C102.927 86.0376 103.126 86.9066 103.229 87.7894C103.448 89.512 103.448 91.2554 103.229 92.9779C103.123 93.8608 102.923 94.7298 102.631 95.5697C102.337 94.7304 102.137 93.8612 102.034 92.9779C101.818 91.2552 101.818 89.5122 102.034 87.7894C102.143 86.9067 102.345 86.038 102.636 85.1977Z" fill="#37474F"/>
<path d="M107.82 90.3812C106.981 90.6798 106.112 90.8836 105.228 90.9886C104.369 91.098 103.503 91.1521 102.637 91.1506C101.77 91.1548 100.904 91.1007 100.045 90.9886C99.1597 90.8863 98.2888 90.686 97.448 90.3913C98.2902 90.1014 99.1606 89.9011 100.045 89.794C100.904 89.6844 101.77 89.6303 102.637 89.632C103.503 89.6347 104.369 89.6905 105.228 89.799C106.111 89.8982 106.98 90.0934 107.82 90.3812Z" fill="#37474F"/>
<path d="M106.301 86.7162C105.913 87.5157 105.439 88.2709 104.889 88.9688C104.36 89.6554 103.787 90.3064 103.173 90.9177C102.561 91.5324 101.91 92.1072 101.224 92.6387C100.524 93.1891 99.7676 93.6626 98.9666 94.051C99.355 93.25 99.8285 92.4931 100.379 91.7934C100.91 91.1077 101.485 90.4568 102.1 89.8445C102.713 89.2329 103.364 88.6598 104.049 88.1285C104.747 87.5793 105.503 87.1058 106.301 86.7162Z" fill="#37474F"/>
<path d="M106.301 94.051C105.503 93.6614 104.748 93.188 104.049 92.6387C103.363 92.1072 102.712 91.5324 102.1 90.9177C101.48 90.3054 100.902 89.6527 100.369 88.9638C99.8184 88.2641 99.3449 87.5072 98.9565 86.7061C99.7586 87.0927 100.516 87.5663 101.214 88.1184C102.588 89.1798 103.82 90.4132 104.879 91.7883C105.434 92.489 105.91 93.2476 106.301 94.051Z" fill="#37474F"/>
<path d="M122.854 85.1977C123.145 86.0376 123.343 86.9066 123.446 87.7894C123.555 88.6491 123.61 89.5146 123.613 90.3812C123.615 91.2493 123.561 92.1167 123.451 92.9779C123.344 93.8604 123.143 94.7291 122.854 95.5697C122.56 94.7304 122.36 93.8612 122.257 92.9779C122.145 92.1169 122.091 91.2494 122.095 90.3812C122.093 89.5147 122.147 88.649 122.257 87.7894C122.361 86.9064 122.562 86.0375 122.854 85.1977Z" fill="#37474F"/>
<path d="M128.037 90.3811C127.198 90.6757 126.329 90.8761 125.446 90.9784C124.586 91.0876 123.721 91.1418 122.854 91.1404C121.986 91.1444 121.118 91.0903 120.257 90.9784C119.374 90.8755 118.505 90.6752 117.666 90.3811C118.506 90.0918 119.375 89.8916 120.257 89.7838C121.119 89.6744 121.986 89.6203 122.854 89.6218C123.721 89.6246 124.586 89.6804 125.446 89.7888C126.329 89.8918 127.198 90.0904 128.037 90.3811Z" fill="#37474F"/>
<path d="M126.519 86.7162C126.13 87.5157 125.657 88.2709 125.107 88.9688C124.578 89.6554 124.005 90.3064 123.391 90.9177C122.778 91.5324 122.127 92.1072 121.442 92.6387C120.742 93.1891 119.985 93.6626 119.184 94.051C119.572 93.25 120.046 92.4931 120.596 91.7934C121.128 91.1077 121.703 90.4568 122.317 89.8445C122.929 89.2304 123.58 88.6572 124.266 88.1285C124.964 87.5782 125.719 87.1047 126.519 86.7162Z" fill="#37474F"/>
<path d="M126.519 94.051C125.719 93.6626 124.964 93.1891 124.266 92.6387C123.578 92.1098 122.927 91.5348 122.317 90.9177C121.708 90.3044 121.14 89.6517 120.617 88.9638C120.066 88.2641 119.593 87.5072 119.204 86.7061C120.006 87.0927 120.763 87.5663 121.462 88.1184C122.836 89.1798 124.067 90.4132 125.127 91.7883C125.671 92.4904 126.137 93.249 126.519 94.051Z" fill="#37474F"/>
<path d="M143.066 85.1977C143.361 86.0368 143.561 86.906 143.664 87.7894C143.773 88.649 143.827 89.5147 143.826 90.3812C143.83 91.2494 143.776 92.1169 143.664 92.9779C143.561 93.8612 143.361 94.7304 143.066 95.5697C142.776 94.7296 142.578 93.8606 142.474 92.9779C142.363 92.1168 142.307 91.2494 142.307 90.3812C142.31 89.5146 142.366 88.6491 142.474 87.7894C142.577 86.9066 142.776 86.0376 143.066 85.1977Z" fill="#37474F"/>
<path d="M148.255 90.3811C147.416 90.6752 146.546 90.8755 145.663 90.9784C144.802 91.0878 143.934 91.1419 143.066 91.1404C142.2 91.1443 141.334 91.0902 140.475 90.9784C139.591 90.876 138.722 90.6757 137.883 90.3811C138.723 90.0912 139.592 89.891 140.475 89.7838C141.334 89.6745 142.2 89.6204 143.066 89.6218C143.934 89.6245 144.802 89.6803 145.663 89.7888C146.546 89.8924 147.415 90.091 148.255 90.3811Z" fill="#37474F"/>
<path d="M146.736 86.7162C146.348 87.5157 145.874 88.2709 145.324 88.9688C144.796 89.6554 144.222 90.3064 143.608 90.9177C142.996 91.5324 142.345 92.1072 141.659 92.6387C140.96 93.1891 140.203 93.6626 139.402 94.051C139.788 93.249 140.262 92.4919 140.814 91.7934C141.345 91.109 141.918 90.4581 142.53 89.8445C143.144 89.2316 143.797 88.6584 144.484 88.1285C145.182 87.5782 145.937 87.1047 146.736 86.7162Z" fill="#37474F"/>
<path d="M146.736 94.051C145.937 93.6626 145.182 93.1891 144.484 92.6387C143.795 92.1086 143.143 91.5336 142.53 90.9177C141.917 90.3037 141.344 89.6511 140.814 88.9638C140.262 88.2652 139.788 87.5081 139.402 86.7061C140.204 87.0927 140.961 87.5663 141.659 88.1184C143.033 89.1798 144.265 90.4132 145.324 91.7883C145.875 92.4894 146.349 93.2481 146.736 94.051Z" fill="#37474F"/>
<path d="M163.284 85.1977C163.576 86.0375 163.777 86.9064 163.881 87.7894C164.097 89.5122 164.097 91.2552 163.881 92.9779C163.778 93.8612 163.578 94.7304 163.284 95.5697C162.992 94.7298 162.792 93.8608 162.687 92.9779C162.577 92.1167 162.523 91.2493 162.525 90.3812C162.528 89.5146 162.583 88.6491 162.692 87.7894C162.795 86.9066 162.993 86.0376 163.284 85.1977Z" fill="#37474F"/>
<path d="M168.472 90.3811C167.633 90.6752 166.764 90.8755 165.881 90.9784C165.019 91.0878 164.152 91.1419 163.284 91.1404C162.417 91.1443 161.551 91.0902 160.692 90.9784C159.809 90.876 158.939 90.6757 158.1 90.3811C158.941 90.0912 159.81 89.891 160.692 89.7838C161.552 89.6745 162.417 89.6204 163.284 89.6218C164.152 89.6245 165.019 89.6803 165.881 89.7888C166.763 89.8924 167.632 90.091 168.472 90.3811Z" fill="#37474F"/>
<path d="M166.954 86.7162C166.565 87.5157 166.092 88.2709 165.541 88.9688C165.011 89.6554 164.436 90.3065 163.82 90.9177C163.21 91.5348 162.559 92.1098 161.871 92.6387C161.174 93.1891 160.418 93.6626 159.619 94.051C160.004 93.2479 160.477 92.4906 161.031 91.7934C161.561 91.1078 162.134 90.4568 162.747 89.8445C163.361 89.2329 164.012 88.6598 164.696 88.1285C165.397 87.5793 166.153 87.1058 166.954 86.7162Z" fill="#37474F"/>
<path d="M166.954 94.051C166.153 93.6615 165.397 93.188 164.696 92.6387C164.01 92.1072 163.359 91.5324 162.747 90.9177C162.133 90.3083 161.56 89.6589 161.031 88.9739C160.477 88.2767 160.004 87.5194 159.619 86.7162C160.419 87.1028 161.175 87.5764 161.871 88.1285C162.559 88.6557 163.21 89.2291 163.82 89.8445C164.435 90.4587 165.01 91.1113 165.541 91.7985C166.092 92.4964 166.565 93.2516 166.954 94.051Z" fill="#37474F"/>
<path d="M183.502 85.1977C183.791 86.0381 183.992 86.9069 184.099 87.7894C184.315 89.5122 184.315 91.2552 184.099 92.9779C183.996 93.8612 183.796 94.7304 183.502 95.5697C183.21 94.7298 183.01 93.8608 182.904 92.9779C182.685 91.2554 182.685 89.512 182.904 87.7894C183.009 86.9064 183.209 86.0374 183.502 85.1977Z" fill="#37474F"/>
<path d="M188.69 90.3811C187.849 90.6758 186.978 90.8761 186.093 90.9784C185.234 91.088 184.368 91.1421 183.501 91.1404C182.635 91.1444 181.769 91.0903 180.91 90.9784C180.028 90.8763 179.16 90.6759 178.323 90.3811C179.163 90.0907 180.032 89.8904 180.915 89.7838C181.774 89.6744 182.64 89.6203 183.506 89.6218C184.373 89.6243 185.239 89.6801 186.098 89.7888C186.981 89.8922 187.85 90.0908 188.69 90.3811Z" fill="#37474F"/>
<path d="M187.171 86.7162C186.783 87.5169 186.308 88.2723 185.754 88.9688C184.691 90.3407 183.459 91.5737 182.089 92.6387C181.391 93.1891 180.636 93.6626 179.836 94.051C180.221 93.2479 180.695 92.4906 181.249 91.7934C181.778 91.1078 182.352 90.4568 182.965 89.8445C183.578 89.2329 184.229 88.6598 184.914 88.1285C185.613 87.5781 186.37 87.1047 187.171 86.7162Z" fill="#37474F"/>
<path d="M187.171 94.051C186.37 93.6626 185.613 93.1891 184.914 92.6387C184.228 92.1072 183.577 91.5324 182.965 90.9177C182.351 90.3083 181.777 89.6589 181.249 88.9739C180.695 88.2767 180.221 87.5194 179.836 86.7162C180.637 87.1028 181.392 87.5764 182.089 88.1285C182.777 88.6557 183.428 89.2291 184.038 89.8445C184.652 90.4574 185.225 91.1102 185.754 91.7985C186.308 92.495 186.783 93.2504 187.171 94.051Z" fill="#37474F"/>
<path d="M203.719 85.1977C204.01 86.0376 204.208 86.9066 204.311 87.7894C204.531 89.512 204.531 91.2554 204.311 92.9779C204.206 93.8608 204.006 94.7298 203.714 95.5697C203.42 94.7304 203.219 93.8612 203.117 92.9779C202.901 91.2552 202.901 89.5122 203.117 87.7894C203.225 86.9067 203.427 86.038 203.719 85.1977Z" fill="#37474F"/>
<path d="M208.902 90.3811C208.064 90.6763 207.194 90.8766 206.311 90.9784C205.451 91.0878 204.586 91.1419 203.719 91.1404C202.852 91.1446 201.987 91.0905 201.127 90.9784C200.242 90.8761 199.371 90.6758 198.531 90.3811C199.373 90.0912 200.243 89.8909 201.127 89.7838C201.987 89.6742 202.853 89.6201 203.719 89.6218C204.586 89.6245 205.451 89.6803 206.311 89.7888C207.194 89.8913 208.063 90.0899 208.902 90.3811Z" fill="#37474F"/>
<path d="M207.384 86.7162C206.999 87.5178 206.525 88.2734 205.971 88.9688C205.444 89.6566 204.871 90.3077 204.255 90.9177C203.643 91.5324 202.992 92.1072 202.307 92.6387C201.608 93.188 200.853 93.6614 200.054 94.051C200.439 93.2491 200.911 92.492 201.461 91.7934C202.526 90.423 203.759 89.1917 205.131 88.1285C205.83 87.5793 206.585 87.1058 207.384 86.7162Z" fill="#37474F"/>
<path d="M207.384 94.051C206.585 93.6614 205.83 93.188 205.131 92.6387C203.762 91.572 202.53 90.3412 201.461 88.9739C200.911 88.2753 200.439 87.5182 200.054 86.7162C200.854 87.104 201.609 87.5775 202.307 88.1285C202.992 88.6583 203.643 89.2315 204.255 89.8445C204.87 90.4574 205.443 91.1102 205.971 91.7985C206.525 92.4939 206.999 93.2495 207.384 94.051Z" fill="#37474F"/>
<path d="M189.697 85.8051V113.373H181.907V85.8051C181.907 75.3218 173.944 66.7974 164.149 66.7974C154.354 66.7974 146.392 75.3218 146.392 85.8051V113.373H138.602V85.8051C138.602 70.7913 150.062 58.592 164.149 58.592C178.237 58.592 189.697 70.7913 189.697 85.8051Z" fill="#455A64"/>
<path d="M138.602 92.9728L146.392 93.2867V113.373H138.602V92.9728Z" fill="#263238"/>
<path d="M189.697 95.0533V113.373H181.906V94.7344L189.697 95.0533Z" fill="#263238"/>
<path d="M199.684 97.6754H128.619V162.15H199.684V97.6754Z" fill="#2F2F8D"/>
<path opacity="0.1" d="M199.679 97.6754H164.149V162.15H199.679V97.6754Z" fill="black"/>
<path d="M167.156 132.274L170.127 146.382H157.503L160.479 132.274C159.315 131.549 158.419 130.464 157.927 129.184C157.434 127.904 157.372 126.499 157.749 125.181C158.126 123.862 158.922 122.702 160.017 121.877C161.112 121.051 162.446 120.604 163.818 120.604C165.189 120.604 166.523 121.051 167.618 121.877C168.713 122.702 169.509 123.862 169.887 125.181C170.264 126.499 170.201 127.904 169.709 129.184C169.216 130.464 168.32 131.549 167.156 132.274Z" fill="#263238"/>
<path d="M143.507 132.249C143.507 132.249 139.791 161.993 133.686 168.695C126.357 176.723 121.032 175.549 118.075 179.689C115.119 175.544 109.799 176.723 102.459 168.69C96.3545 161.993 92.644 132.244 92.644 132.244C108.731 124.438 118.085 115.686 118.085 115.686C118.364 115.959 127.668 124.565 143.507 132.249Z" fill="#EBEBEB"/>
<path d="M118.085 115.691V179.684C115.129 175.539 109.809 176.718 102.469 168.685C96.3645 161.988 92.6541 132.239 92.6541 132.239C108.731 124.438 118.085 115.686 118.085 115.686V115.691Z" fill="#DBDBDB"/>
<path d="M139.563 134.648C139.563 134.648 136.425 159.771 131.267 165.43C125.066 172.223 120.571 171.226 118.07 174.724C115.57 171.226 111.075 172.223 104.879 165.43C99.7205 159.771 96.5872 134.648 96.5872 134.648C110.179 128.068 118.07 120.652 118.07 120.652C118.07 120.652 125.972 128.047 139.563 134.648Z" fill="#DBDBDB"/>
<path d="M96.5923 134.648C96.5923 134.648 99.7307 159.771 104.889 165.43C111.08 172.218 115.554 171.226 118.085 174.714V120.662C117.837 120.885 109.986 128.149 96.5923 134.648Z" fill="#C7C7C7"/>
<path d="M125.119 154.733C129.01 150.842 129.01 144.535 125.119 140.644C121.229 136.754 114.921 136.754 111.031 140.644C107.141 144.535 107.141 150.842 111.031 154.733C114.921 158.623 121.229 158.623 125.119 154.733Z" fill="#2F2F8D"/>
<path d="M116.942 154.162L112.502 149.546L114.147 147.961L116.592 150.507L121.867 142.418L123.78 143.664L116.942 154.162Z" fill="white"/>
<path d="M83.7083 182.079L84.89 176.028L155.576 189.832C156.222 189.958 156.791 190.336 157.159 190.881C157.526 191.427 157.661 192.096 157.535 192.742L157.304 193.925C157.178 194.57 156.801 195.139 156.255 195.507C155.71 195.874 155.04 196.01 154.395 195.883L83.7083 182.079Z" fill="#2F2F8D"/>
<path opacity="0.1" d="M84.8846 176.022L83.7019 182.078L92.2371 183.745L93.4198 177.689L84.8846 176.022Z" fill="black"/>
<path d="M57.8483 168.305L55.7678 179.067C55.4158 180.871 55.4226 182.727 55.7879 184.528C56.1531 186.33 56.8695 188.042 57.8964 189.566C58.9232 191.091 60.2402 192.398 61.7723 193.414C63.3044 194.429 65.0216 195.133 66.8257 195.485C68.6298 195.837 70.4856 195.83 72.2871 195.465C74.0886 195.1 75.8005 194.384 77.3251 193.357C78.8497 192.33 80.1571 191.013 81.1727 189.481C82.1883 187.949 82.8922 186.232 83.2442 184.427L85.3398 173.691C86.054 170.045 85.2908 166.265 83.218 163.182C81.1452 160.1 77.9326 157.966 74.287 157.252C70.6414 156.538 66.8614 157.301 63.7785 159.374C60.6957 161.447 58.5625 164.659 57.8483 168.305ZM80.9258 170.993C80.3032 174.187 77.514 176.49 74.0668 177.042C77.0534 178.859 78.7745 182.033 78.1468 185.227C77.3166 189.499 72.6039 192.182 67.628 191.21C62.6521 190.239 59.3061 185.981 60.1414 181.714C60.764 178.52 63.5531 176.217 67.0054 175.64C64.0138 173.833 62.2978 170.649 62.9204 167.455C63.7556 163.177 68.4582 160.505 73.429 161.476C78.3999 162.448 81.7813 166.721 80.946 170.993H80.9258Z" fill="#2F2F8D"/>
<path d="M85.4157 173.294L83.1678 184.805C83.0467 185.426 83.4512 186.026 84.0713 186.147L84.6178 186.254C85.2379 186.375 85.8387 185.971 85.9598 185.351L88.2078 173.84C88.3289 173.219 87.9244 172.619 87.3043 172.497L86.7578 172.391C86.1377 172.27 85.5368 172.674 85.4157 173.294Z" fill="#2F2F8D"/>
<path d="M88.208 173.841L85.96 185.352C85.8389 185.972 86.2434 186.573 86.8635 186.694L87.41 186.801C88.0301 186.922 88.631 186.517 88.7521 185.897L91 174.386C91.1211 173.766 90.7166 173.165 90.0965 173.044L89.55 172.937C88.9299 172.816 88.3291 173.221 88.208 173.841Z" fill="#2F2F8D"/>
<path d="M138.683 183.936L140.789 184.346L141.978 178.232L143.78 178.581L143.158 181.77L145.258 182.18L145.881 178.991L147.475 179.3L146.488 184.341L148.594 184.756L149.581 179.715L151.839 180.155L150.528 186.888L152.634 187.298L153.95 180.565L156.086 180.985L154.405 189.591L135.595 185.916L137.27 177.31L139.872 177.816L138.683 183.936Z" fill="#2F2F8D"/>
<path d="M211.226 152.416L197.432 163.552C194.785 165.668 192.502 167.571 191.413 168.67C191.132 168.901 190.906 169.191 190.75 169.52C190.75 169.52 190.75 169.52 190.75 169.55C190.846 170.76 207.146 192.41 207.961 192.972C208.776 193.534 210.456 191.236 210.492 189.894C210.527 188.553 207.996 177.467 207.996 177.467L221.664 166.199L211.226 152.416Z" fill="#C95F50"/>
<path d="M200.246 161.279L197.417 163.562C194.769 165.678 192.486 167.581 191.398 168.68C191.144 168.936 190.921 169.221 190.735 169.53C190.735 169.53 190.735 169.53 190.735 169.56C190.831 170.77 207.131 192.42 207.946 192.982C208.761 193.544 210.441 191.246 210.477 189.904C210.512 188.563 207.981 177.477 207.981 177.477L210.887 175.194L200.246 161.279Z" fill="#EBEBEB"/>
<path d="M207.93 192.997C207.105 192.436 190.811 170.791 190.72 169.571C190.674 169.11 193.691 166.533 197.422 163.567L197.543 163.471L208.189 177.32L207.951 177.493C207.951 177.493 210.482 188.568 210.446 189.92C210.411 191.271 208.75 193.564 207.93 192.997Z" fill="#2F2F8D"/>
<path d="M208.584 192.122C205.926 188.406 194.861 173.671 191.95 170.198C191.95 170.168 191.909 170.198 191.95 170.198C194.481 173.939 205.688 188.588 208.548 192.152C208.589 192.228 208.644 192.228 208.584 192.122Z" fill="#263238"/>
<path d="M208.806 178.697C207.991 177.062 206.452 175.468 204.6 175.154C204.529 175.154 204.514 175.24 204.564 175.28C206.037 176.313 207.395 177.501 208.614 178.824C208.632 178.845 208.658 178.858 208.685 178.862C208.713 178.865 208.741 178.859 208.764 178.843C208.788 178.828 208.805 178.805 208.812 178.778C208.82 178.751 208.818 178.723 208.806 178.697Z" fill="#263238"/>
<path d="M208.963 180.206C208.148 178.566 206.604 176.976 204.757 176.662C204.686 176.662 204.671 176.754 204.716 176.789C206.189 177.822 207.546 179.01 208.766 180.332C208.774 180.345 208.785 180.356 208.797 180.365C208.81 180.374 208.824 180.38 208.839 180.384C208.854 180.387 208.87 180.387 208.885 180.384C208.9 180.382 208.915 180.376 208.928 180.368C208.941 180.359 208.952 180.349 208.961 180.336C208.969 180.323 208.976 180.309 208.979 180.294C208.982 180.279 208.982 180.264 208.98 180.248C208.977 180.233 208.971 180.219 208.963 180.206Z" fill="#263238"/>
<path d="M209.115 181.709C208.305 180.074 206.761 178.485 204.914 178.166C204.843 178.166 204.822 178.257 204.873 178.292C206.345 179.326 207.702 180.514 208.923 181.836C208.931 181.848 208.942 181.859 208.954 181.868C208.967 181.876 208.981 181.882 208.996 181.885C209.01 181.888 209.026 181.888 209.04 181.885C209.055 181.883 209.069 181.877 209.082 181.869C209.095 181.86 209.106 181.85 209.114 181.837C209.123 181.825 209.129 181.81 209.132 181.796C209.135 181.781 209.135 181.766 209.132 181.751C209.129 181.736 209.123 181.722 209.115 181.709Z" fill="#263238"/>
<path d="M218.667 139.143C217.69 143.967 197.68 163.208 197.68 163.208L211.631 179.31C211.631 179.31 240.038 150.963 238.555 140.297C237.265 131.029 223.369 93.7575 223.369 93.7575H207.384C207.384 93.7575 219.624 134.4 218.667 139.143Z" fill="#37474F"/>
<path d="M218.667 139.143C217.69 143.967 197.68 163.208 197.68 163.208L211.631 179.31C211.631 179.31 240.038 150.963 238.555 140.297C237.265 131.029 223.369 93.7575 223.369 93.7575H207.384C207.384 93.7575 219.624 134.4 218.667 139.143Z" fill="#37474F"/>
<path d="M213.215 175.483C211.362 173.175 211.929 173.813 210.051 171.525C209.13 170.406 203.081 163.061 202.038 162.165C202.038 162.165 201.977 162.165 201.993 162.205C202.691 163.385 208.867 170.623 209.808 171.727C211.732 173.974 211.205 173.311 213.149 175.539C213.19 175.579 213.25 175.523 213.215 175.483Z" fill="#263238"/>
<path d="M220.656 136.794C220.423 135.59 220.15 134.39 219.912 133.19C219.389 130.74 218.837 128.299 218.257 125.866C217.103 121.036 215.849 116.234 214.496 111.459C213.134 106.671 211.691 101.887 210.026 97.1895C209.824 96.6074 209.611 96.0303 209.398 95.4533C209.398 95.4439 209.395 95.4349 209.388 95.4282C209.381 95.4216 209.372 95.4178 209.363 95.4178C209.354 95.4178 209.345 95.4216 209.338 95.4282C209.331 95.4349 209.328 95.4439 209.328 95.4533C210.77 100.161 212.253 104.853 213.6 109.581C214.946 114.309 216.186 119.037 217.361 123.795C217.948 126.184 218.495 128.584 219.031 130.983C219.295 132.163 219.538 133.347 219.801 134.527C220.113 135.727 220.338 136.948 220.474 138.181C220.511 139.349 220.181 140.5 219.532 141.472C218.93 142.454 218.226 143.375 217.543 144.301C216.176 146.154 203.147 160.677 202.727 161.072C202.691 161.102 202.727 161.147 202.777 161.117C204.524 159.548 215.579 147.581 216.981 145.729C217.68 144.813 218.353 143.886 219.006 142.945C219.671 142.095 220.206 141.152 220.595 140.145C220.903 139.052 220.924 137.898 220.656 136.794Z" fill="#263238"/>
<path d="M220.621 93.7575L217.715 131.899C214.941 118.845 207.384 93.7575 207.384 93.7575H220.621Z" fill="#263238"/>
<path d="M246.902 198.895C245.956 199.198 218.859 198.778 217.842 198.11C217.677 197.787 217.587 197.43 217.578 197.067C217.576 197.057 217.576 197.047 217.578 197.037C217.381 195.518 217.285 192.542 217.234 189.15L216.637 186.219H234.005L234.683 189.368C234.683 189.368 244.984 194.172 246.032 195.027C247.08 195.883 247.859 198.596 246.902 198.895Z" fill="#EBEBEB"/>
<path d="M246.903 198.895C245.951 199.198 218.859 198.778 217.842 198.11C217.447 197.862 217.28 193.909 217.214 189.13V188.978L234.693 189.054V189.353C234.693 189.353 244.989 194.151 246.032 195.007C247.075 195.862 247.854 198.596 246.903 198.895Z" fill="#2F2F8D"/>
<path d="M246.614 197.842C242.058 197.659 223.618 197.336 219.092 197.518C219.057 197.518 219.057 197.543 219.092 197.548C223.613 197.827 242.043 197.983 246.614 197.918C246.71 197.913 246.71 197.847 246.614 197.842Z" fill="#263238"/>
<path d="M236.151 189.429C234.359 189.064 232.157 189.307 230.76 190.568C230.709 190.613 230.76 190.689 230.836 190.674C232.563 190.147 234.341 189.807 236.141 189.662C236.156 189.662 236.171 189.66 236.186 189.655C236.2 189.649 236.213 189.641 236.225 189.631C236.236 189.621 236.245 189.608 236.251 189.594C236.258 189.58 236.262 189.565 236.262 189.55C236.263 189.535 236.261 189.52 236.255 189.505C236.25 189.491 236.242 189.478 236.232 189.466C236.221 189.455 236.209 189.446 236.195 189.439C236.181 189.433 236.166 189.429 236.151 189.429Z" fill="#263238"/>
<path d="M237.432 190.228C235.645 189.864 233.438 190.107 232.046 191.367C231.995 191.418 232.046 191.494 232.122 191.474C233.847 190.947 235.624 190.608 237.422 190.461C237.452 190.463 237.483 190.452 237.505 190.431C237.528 190.41 237.542 190.381 237.543 190.35C237.544 190.319 237.533 190.289 237.513 190.266C237.492 190.243 237.463 190.23 237.432 190.228Z" fill="#263238"/>
<path d="M238.717 191.033C236.925 190.669 234.723 190.912 233.331 192.167C233.276 192.218 233.331 192.294 233.407 192.279C235.133 191.755 236.91 191.415 238.707 191.266C238.723 191.267 238.738 191.265 238.752 191.259C238.767 191.254 238.78 191.246 238.791 191.236C238.802 191.225 238.811 191.213 238.818 191.199C238.824 191.185 238.828 191.17 238.829 191.155C238.829 191.14 238.827 191.124 238.822 191.11C238.817 191.096 238.809 191.082 238.798 191.071C238.788 191.06 238.775 191.051 238.762 191.044C238.748 191.038 238.733 191.034 238.717 191.033Z" fill="#263238"/>
<path d="M221.856 93.7575C221.233 96.3891 220.773 99.0568 220.479 101.745C220.15 105.096 219.73 108.063 219.285 108.432C218.839 108.802 216.247 110.457 215.397 110.963C215.397 110.963 223.284 134.876 225.318 142.854C228.27 154.405 235.336 189.074 235.336 189.074H216.506C216.506 189.074 210.78 156.075 208.275 145.071C206.129 135.64 197.908 107.349 197.908 107.349C197.041 105.168 196.651 102.826 196.765 100.481C196.88 98.1367 197.495 95.8439 198.571 93.7575C198.571 93.7575 221.856 93.7474 221.856 93.7575Z" fill="#37474F"/>
<path d="M234.647 185.43C231.686 185.43 232.537 185.379 229.585 185.394C228.138 185.394 218.621 185.465 217.275 185.713C217.267 185.713 217.259 185.716 217.253 185.722C217.248 185.728 217.244 185.735 217.244 185.744C217.244 185.752 217.248 185.759 217.253 185.765C217.259 185.771 217.267 185.774 217.275 185.774C218.631 185.976 228.143 185.744 229.591 185.708C232.552 185.632 231.701 185.622 234.653 185.516C234.661 185.512 234.669 185.506 234.674 185.498C234.679 185.49 234.681 185.48 234.681 185.471C234.68 185.461 234.677 185.452 234.671 185.445C234.665 185.438 234.657 185.432 234.647 185.43Z" fill="#263238"/>
<path d="M220.606 107.486C218.777 108.492 217.039 109.656 215.412 110.963C215.402 110.974 215.396 110.988 215.395 111.003C215.394 111.017 215.398 111.032 215.406 111.044C215.414 111.056 215.426 111.065 215.44 111.07C215.454 111.075 215.469 111.074 215.483 111.069C217.244 109.966 219.026 108.893 220.742 107.693C220.763 107.673 220.777 107.645 220.78 107.616C220.783 107.587 220.776 107.558 220.76 107.533C220.743 107.508 220.719 107.49 220.691 107.482C220.663 107.473 220.633 107.474 220.606 107.486Z" fill="#263238"/>
<path d="M219.168 94.4763C219.168 94.4105 219.036 94.4156 219.046 94.4763C219.374 96.5814 219.596 98.7017 219.71 100.829C219.775 101.811 219.826 107.303 218.08 107.172C217.786 107.172 217.573 106.898 217.487 106.478C217.409 105.921 217.399 105.357 217.457 104.798C217.457 103.644 217.457 102.494 217.366 101.34C217.231 99.2091 216.879 97.0974 216.313 95.0382C216.313 95.0234 216.307 95.0093 216.297 94.9988C216.286 94.9884 216.272 94.9825 216.257 94.9825C216.243 94.9825 216.228 94.9884 216.218 94.9988C216.208 95.0093 216.202 95.0234 216.202 95.0382C216.707 97.9621 216.991 100.92 217.052 103.887C217.052 105.319 216.683 107.531 218.176 107.516C219.669 107.501 220.115 103.831 220.145 102.844C220.183 100.024 219.854 97.2114 219.168 94.4763Z" fill="#263238"/>
<path d="M218.146 107.324C218.053 107.709 217.985 108.099 217.943 108.493C217.887 108.804 217.887 109.123 217.943 109.434C217.948 109.446 217.957 109.457 217.967 109.464C217.978 109.471 217.991 109.475 218.004 109.475C218.017 109.475 218.03 109.471 218.04 109.464C218.051 109.457 218.06 109.446 218.065 109.434C218.2 109.133 218.286 108.812 218.318 108.483C218.394 108.118 218.475 107.759 218.54 107.389C218.549 107.337 218.537 107.283 218.506 107.24C218.475 107.197 218.428 107.168 218.376 107.159C218.324 107.15 218.27 107.163 218.227 107.194C218.183 107.224 218.154 107.271 218.146 107.324Z" fill="#263238"/>
<path d="M200.596 107.227C202.218 107.137 203.821 106.834 205.364 106.326C207.116 105.766 208.704 104.786 209.991 103.471C210.719 102.749 211.319 101.909 211.767 100.986C211.767 100.951 211.838 100.986 211.828 101.016C211.553 101.91 211.129 102.75 210.573 103.502C209.998 104.246 209.315 104.901 208.548 105.446C207.029 106.559 205.242 107.249 203.37 107.445C202.446 107.589 201.505 107.575 200.586 107.405C200.439 107.384 200.479 107.238 200.596 107.227Z" fill="#263238"/>
<path d="M214.303 175.053C214.258 174.617 214.197 174.182 214.136 173.747C214.02 172.917 213.878 172.081 213.747 171.251C213.493 169.576 213.205 167.905 212.906 166.24C212.319 162.914 211.636 159.598 210.917 156.298C210.507 154.435 210.036 152.593 209.535 150.73C209.505 150.598 209.322 150.664 209.343 150.786C209.646 152.476 209.94 154.162 210.284 155.848C210.628 157.533 210.973 159.194 211.297 160.869C211.955 164.18 212.567 167.505 213.225 170.816C213.407 171.752 213.58 172.689 213.762 173.625C213.853 174.091 213.944 174.562 214.045 175.022C214.146 175.483 214.288 175.944 214.364 176.409C214.364 176.455 214.44 176.435 214.435 176.409C214.364 175.959 214.359 175.523 214.303 175.053Z" fill="#263238"/>
<path d="M227.292 150.031C226.665 146.908 225.819 143.825 224.969 140.753C223.258 134.577 221.243 128.488 219.234 122.398C218.653 120.647 218.073 118.894 217.492 117.139C217.204 116.263 215.787 111.53 215.609 111.064C215.606 111.057 215.601 111.05 215.595 111.045C215.588 111.04 215.58 111.038 215.571 111.038C215.563 111.038 215.555 111.04 215.548 111.045C215.542 111.05 215.536 111.057 215.533 111.064C215.943 112.674 216.5 115.023 216.971 116.633C217.442 118.242 217.943 119.776 218.434 121.34C219.396 124.423 220.373 127.506 221.304 130.593C223.152 136.703 224.984 142.813 226.482 149.019C226.903 150.76 227.323 152.497 227.702 154.243C228.082 155.989 228.416 157.741 228.781 159.487C228.781 159.538 228.872 159.523 228.867 159.487C228.553 156.318 227.93 153.17 227.292 150.031Z" fill="#263238"/>
<path d="M215.584 166.376C214.546 160.419 213.306 154.491 211.929 148.599C210.553 142.707 209.009 136.794 207.313 130.958C205.617 125.121 203.739 119.315 201.745 113.595C200.729 110.897 199.875 108.14 199.188 105.339C198.566 102.555 198.252 99.5433 198.9 96.7339C199.058 96.021 199.273 95.3219 199.543 94.6434C199.543 94.5978 199.492 94.5573 199.472 94.6029C197.209 99.8825 198.677 105.653 200.403 110.857C201.345 113.707 202.352 116.536 203.289 119.391C204.225 122.246 205.156 125.263 206.037 128.219C207.773 134.076 209.388 139.968 210.831 145.901C212.274 151.833 213.564 157.807 214.698 163.81C215.832 169.814 216.789 175.883 217.761 181.932C217.887 182.722 217.983 183.511 218.09 184.301C218.09 184.346 218.161 184.346 218.156 184.301C217.406 178.302 216.617 172.329 215.584 166.376Z" fill="#263238"/>
<path d="M215.199 68.7564C217.416 76.8556 223.805 86.6252 226.842 87.9919C229.484 89.1663 241.744 84.6308 246.371 81.6847C247.687 80.8444 242.245 73.2666 240.661 73.7931C235.483 75.5192 229.849 78.0705 229.413 77.9237C228.532 77.625 223.035 70.8825 219.031 66.3469C214.541 61.2495 214.318 65.532 215.199 68.7564Z" fill="#C95F50"/>
<path d="M255.113 74.8156C256.156 74.3803 264.179 74.1272 264.179 72.3859C264.179 70.6446 253.964 71.1305 253.964 71.1305L255.113 74.8156Z" fill="#C95F50"/>
<path d="M239.725 75.0181C241.127 73.2768 242.362 71.3988 243.582 71.0546C244.422 70.8167 253.509 71.2065 254.926 71.1204C256.343 71.0343 261.41 71.166 261.507 72.4112C261.674 74.1677 255.68 74.1525 255.042 75.0535C252.83 78.1565 244.412 82.7477 244.412 82.7477L239.725 75.0181Z" fill="#C95F50"/>
<path d="M261.663 72.4365C261.57 72.1132 261.363 71.8345 261.081 71.6519C260.418 71.2889 259.671 71.1057 258.915 71.1204C257.807 71.0209 256.693 71.0124 255.584 71.0951C255.584 71.0951 255.584 71.1305 255.584 71.1356C256.419 71.1356 257.244 71.1356 258.074 71.2267C258.836 71.2551 259.592 71.3706 260.327 71.5709C260.657 71.6559 260.957 71.8312 261.192 72.0771C261.274 72.1696 261.33 72.2816 261.356 72.4021C261.382 72.5227 261.376 72.6478 261.339 72.7655C261.101 73.5299 259.588 73.7779 258.889 73.9146C257.978 74.1171 257.031 74.2942 256.115 74.4815C256.075 74.4815 256.115 74.5524 256.115 74.5423C257.067 74.355 258.069 74.2841 259.026 74.112C259.825 74.034 260.591 73.7554 261.253 73.3021C261.397 73.2123 261.513 73.083 261.585 72.9295C261.658 72.776 261.685 72.6049 261.663 72.4365Z" fill="#263238"/>
<path d="M239.376 73.945L246.564 84.4688C246.564 84.4688 235.427 90.0369 231.165 89.9509C227.115 89.8547 225.642 89.2574 224.362 88.0476C223.567 87.2984 219.057 80.9254 215.377 70.3307C212.289 61.452 216.86 62.7378 220.945 67.6782C222.97 70.1282 229.469 77.4326 229.793 77.4073C230.117 77.382 239.376 73.945 239.376 73.945Z" fill="#2F2F8D"/>
<path d="M237.163 75.6559C238.242 77.215 239.274 78.8045 240.292 80.4041C240.798 81.1836 242.661 84.3726 243.202 85.2787C243.202 85.3142 243.126 85.3749 243.101 85.3395C242.539 84.5397 240.509 81.3557 240.018 80.566C239.006 78.9513 238.049 77.3314 237.118 75.6863C237.116 75.6833 237.115 75.6799 237.114 75.6764C237.113 75.6729 237.113 75.6693 237.114 75.6657C237.115 75.6622 237.116 75.6589 237.118 75.6559C237.12 75.6529 237.122 75.6503 237.125 75.6483C237.128 75.6463 237.132 75.645 237.135 75.6443C237.139 75.6436 237.143 75.6436 237.146 75.6443C237.15 75.645 237.153 75.6464 237.156 75.6484C237.159 75.6504 237.161 75.6529 237.163 75.6559Z" fill="#263238"/>
<path opacity="0.1" d="M233.321 89.6826C232.616 89.8562 231.892 89.9462 231.165 89.9509C227.115 89.8547 225.642 89.2574 224.362 88.0476C223.572 87.2984 219.057 80.9305 215.382 70.3307C214.804 68.8633 214.463 67.3137 214.369 65.7395C214.369 65.6433 214.369 65.5421 214.369 65.451C214.364 65.3616 214.364 65.272 214.369 65.1827C214.378 65.1096 214.389 65.0369 214.405 64.965C214.456 64.6346 214.613 64.3295 214.85 64.0944C217.366 67.4656 229.16 83.3956 233.321 89.6826Z" fill="black"/>
<path d="M259.709 69.6271H232.456V71.09H259.709V69.6271Z" fill="#C7C7C7"/>
<path d="M259.709 69.6271V71.09H243.157L244.275 69.6271H259.709Z" fill="#A6A6A6"/>
<path d="M245.48 71.09H263.708L273.194 54.9828H254.966L245.48 71.09Z" fill="#C7C7C7"/>
<path d="M258.656 63.0263C258.317 63.7705 258.565 64.5449 259.213 64.7778C259.576 64.8616 259.956 64.812 260.285 64.6382C260.615 64.4644 260.87 64.1779 261.005 63.8312C261.344 63.0871 261.096 62.3126 260.448 62.0798C260.086 61.9971 259.706 62.0471 259.377 62.2208C259.048 62.3945 258.792 62.6803 258.656 63.0263Z" fill="white"/>
<path d="M196.814 99.3055C196.88 99.3763 225.349 99.1739 225.607 98.8803C225.961 98.4652 219.219 67.6884 216.257 63.9071C215.625 63.0972 213.559 62.8947 211.808 63.1276C211.352 63.1843 210.901 63.2808 210.461 63.4161H210.416C210.06 63.5272 209.727 63.6984 209.429 63.9223C204.595 67.8656 200.631 81.5126 199.715 85.6078C198.196 92.3604 196.576 99.0372 196.814 99.3055Z" fill="#EBEBEB"/>
<path d="M210.112 63.4869C210.112 63.4869 211.97 76.1419 212.41 79.4423C212.851 82.7427 212.41 100.07 212.41 100.07L194.547 101.588C194.547 101.588 198.292 90.0673 198.328 89.3384C198.328 89.3384 201.289 75.4939 204.347 69.779C205.712 67.2326 207.695 65.0693 210.112 63.4869Z" fill="#2F2F8D"/>
<path d="M216.06 63.7097C216.06 63.7097 218.474 76.5266 218.687 77.5845C218.9 78.6425 221.992 99.4724 221.992 99.4724L226.462 99.5686L224.037 90.0521C224.037 90.0521 218.849 65.6788 216.06 63.7097Z" fill="#2F2F8D"/>
<path d="M215.052 67.8048C213.696 67.9617 211.124 66.0736 210.406 64.0741C210.36 63.9324 210.765 62.6315 211.18 61.037C211.428 60.06 211.686 58.9717 211.843 57.9593C211.874 57.7517 217.948 60.4903 217.948 60.4903C217.384 61.6972 216.971 62.9688 216.718 64.2766C216.706 64.4181 216.706 64.5604 216.718 64.7018V64.7727C216.698 65.5877 216.51 67.6428 215.052 67.8048Z" fill="#C95F50"/>
<path d="M216.698 64.7119C216.7 64.7355 216.7 64.7592 216.698 64.7828C216.479 64.7749 216.261 64.7512 216.045 64.7119C212.324 64.0387 212.076 59.2045 212.071 57.9896C213.175 58.3288 217.953 60.5206 217.953 60.5206C217.39 61.7294 216.977 63.0027 216.723 64.312C216.706 64.4446 216.697 64.5782 216.698 64.7119Z" fill="#263238"/>
<path d="M211.914 49.8854C210.937 52.0621 211.312 58.7439 212.734 60.3991C214.799 62.8036 218.591 63.4869 220.737 60.9053C222.818 58.4098 222.18 49.7082 220.55 48.1593C218.15 45.8814 213.352 46.6761 211.914 49.8854Z" fill="#C95F50"/>
<path d="M216.834 54.6183C216.834 54.6183 216.799 54.6183 216.804 54.6588C216.839 55.1094 216.804 55.6257 216.409 55.7978C216.409 55.7978 216.409 55.8282 216.409 55.8231C216.905 55.7269 216.941 55.0486 216.834 54.6183Z" fill="#263238"/>
<path d="M216.409 54.1679C215.685 54.1679 215.701 55.6055 216.374 55.6207C217.047 55.6359 217.017 54.1831 216.409 54.1679Z" fill="#263238"/>
<path d="M219.608 54.5931C219.608 54.5931 219.644 54.6184 219.644 54.6336C219.644 55.0841 219.699 55.6055 220.109 55.7472C220.109 55.7472 220.109 55.7776 220.109 55.7725C219.608 55.7118 219.527 55.0487 219.608 54.5931Z" fill="#263238"/>
<path d="M220.003 54.1223C220.727 54.0565 220.803 55.5093 220.13 55.57C219.457 55.6308 219.396 54.1729 220.003 54.1223Z" fill="#263238"/>
<path d="M215.827 53.5301C216.024 53.4744 216.197 53.3934 216.389 53.3225C216.597 53.2789 216.784 53.1666 216.92 53.0036C216.953 52.945 216.966 52.8771 216.957 52.8104C216.948 52.7437 216.917 52.6818 216.87 52.6341C216.759 52.5546 216.628 52.5061 216.492 52.4936C216.356 52.4812 216.219 52.5052 216.095 52.5632C215.827 52.6463 215.599 52.8269 215.458 53.0694C215.431 53.1251 215.422 53.187 215.429 53.248C215.436 53.3091 215.46 53.3669 215.499 53.4148C215.537 53.4628 215.588 53.499 215.646 53.5194C215.704 53.5397 215.767 53.5434 215.827 53.5301Z" fill="#263238"/>
<path d="M220.56 52.8973C220.364 52.8603 220.169 52.8129 219.978 52.7556C219.768 52.7323 219.571 52.6417 219.416 52.4974C219.374 52.4428 219.352 52.3762 219.352 52.3076C219.352 52.2391 219.374 52.1724 219.416 52.1178C219.518 52.0281 219.642 51.9668 219.775 51.9401C219.909 51.9135 220.046 51.9224 220.175 51.9659C220.448 52.0169 220.693 52.1664 220.864 52.3861C220.898 52.4377 220.918 52.4982 220.92 52.5605C220.921 52.6228 220.905 52.6842 220.874 52.7378C220.842 52.7913 220.795 52.8347 220.74 52.863C220.684 52.8912 220.622 52.9031 220.56 52.8973Z" fill="#263238"/>
<path d="M216.688 58.7844C216.794 58.8907 216.905 59.0324 217.067 59.0476C217.243 59.045 217.416 59.0035 217.574 58.9261C217.574 58.9261 217.599 58.9261 217.574 58.9514C217.509 59.0402 217.422 59.11 217.321 59.1537C217.221 59.1973 217.11 59.2131 217.002 59.1995C216.91 59.1775 216.827 59.1287 216.763 59.0593C216.699 58.9899 216.657 58.903 216.642 58.8097C216.637 58.7793 216.667 58.7692 216.688 58.7844Z" fill="#263238"/>
<path d="M217.143 57.4329C217.257 57.6078 217.405 57.7575 217.58 57.8724C217.754 57.9874 217.95 58.0652 218.155 58.1011C218.338 58.1288 218.524 58.1288 218.707 58.1011C218.742 58.1063 218.778 58.1063 218.814 58.1011H218.91C218.934 58.0966 218.956 58.0843 218.973 58.066C218.989 58.0477 218.999 58.0244 219.001 57.9998C219.003 57.9847 219.003 57.9693 219.001 57.9543V57.9138C219.001 57.5645 218.965 57.038 218.965 57.038C219.092 57.0988 219.745 57.3823 219.73 57.2C219.67 55.6366 219.453 54.0832 219.082 52.5633C219.082 52.5525 219.078 52.5422 219.07 52.5346C219.062 52.527 219.052 52.5228 219.041 52.5228C219.031 52.5228 219.02 52.527 219.013 52.5346C219.005 52.5422 219.001 52.5525 219.001 52.5633C219.046 54.0059 219.345 55.4334 219.416 56.8862C219.184 56.7817 218.939 56.7101 218.687 56.6736C218.636 56.6736 218.783 57.686 218.768 57.848C218.484 57.8806 218.197 57.8558 217.923 57.7749C217.649 57.694 217.394 57.5588 217.173 57.3772C217.153 57.3671 217.118 57.3974 217.143 57.4329Z" fill="#263238"/>
<path d="M218.52 57.9492C218.332 58.197 218.085 58.3937 217.801 58.5212C217.64 58.5849 217.463 58.5972 217.295 58.5566C216.936 58.4655 216.926 58.1365 216.986 57.853C217.021 57.7022 217.074 57.556 217.143 57.4177C217.534 57.7369 218.016 57.9231 218.52 57.9492Z" fill="#263238"/>
<path d="M217.806 58.5211C217.645 58.5848 217.469 58.5972 217.3 58.5566C216.941 58.4655 216.931 58.1364 216.991 57.853C217.182 57.8574 217.366 57.9256 217.514 58.0467C217.662 58.1677 217.765 58.3348 217.806 58.5211Z" fill="#FF9BBC"/>
<path d="M211.357 55.6611C211.357 55.6611 209.743 51.652 210.294 49.5868C210.542 48.6503 211.945 48.22 211.945 48.22C211.907 47.8174 211.981 47.4121 212.16 47.0493C212.339 46.6864 212.615 46.3803 212.957 46.1649C214.258 45.2841 216.951 45.9675 216.951 45.9675C216.951 45.9675 219.138 43.6997 221.476 45.1221C223.815 46.5445 221.719 49.116 221.719 49.116C221.719 49.116 222.428 50.5688 220.013 51.2218C217.599 51.8748 213.362 50.1537 213.362 50.1537C213.317 51.7249 213.039 53.2808 212.537 54.7702C212.44 55.0119 212.279 55.2226 212.071 55.3795C211.863 55.5365 211.616 55.6339 211.357 55.6611Z" fill="#263238"/>
<path d="M217.396 46.0637C216.873 45.7467 216.291 45.5384 215.685 45.4512C215.147 45.3626 214.599 45.3626 214.061 45.4512C213.58 45.5079 213.124 45.6936 212.741 45.9886C212.358 46.2836 212.062 46.6769 211.884 47.1267C211.807 47.3634 211.779 47.6131 211.801 47.8609C211.823 48.1087 211.894 48.3496 212.01 48.5694C212.01 48.5694 212.046 48.5694 212.036 48.5694C211.575 47.7544 212.036 46.6914 212.755 46.1902C213.592 45.6734 214.589 45.479 215.559 45.6436C216.181 45.7381 216.79 45.9081 217.371 46.1497C217.377 46.1514 217.383 46.1519 217.388 46.1513C217.394 46.1507 217.4 46.1489 217.405 46.1461C217.41 46.1433 217.415 46.1395 217.419 46.1349C217.422 46.1303 217.425 46.125 217.427 46.1194C217.428 46.1137 217.429 46.1078 217.428 46.1019C217.428 46.0961 217.426 46.0904 217.423 46.0852C217.42 46.0801 217.416 46.0755 217.412 46.0718C217.407 46.0681 217.402 46.0654 217.396 46.0637Z" fill="#263238"/>
<path d="M223.086 46.6104C223.026 46.2593 222.879 45.9288 222.659 45.6487C222.439 45.3686 222.152 45.1476 221.826 45.0057C221.088 44.639 220.248 44.532 219.441 44.702C218.631 44.875 217.881 45.2612 217.27 45.8207C217.27 45.8207 217.27 45.8561 217.27 45.8207C217.818 45.3291 218.489 44.9944 219.211 44.8518C219.934 44.7093 220.681 44.7642 221.375 45.0108C221.698 45.0977 221.995 45.2632 222.238 45.4927C222.482 45.7222 222.664 46.0084 222.77 46.3259C222.876 46.6433 222.902 46.9819 222.844 47.3116C222.787 47.6413 222.649 47.9517 222.443 48.215C221.958 48.8326 221.309 49.3011 220.57 49.5666C220.57 49.5666 220.57 49.602 220.57 49.5919C221.262 49.3826 221.89 49.0032 222.398 48.4884C222.639 48.2421 222.825 47.9473 222.944 47.6235C223.063 47.2997 223.111 46.9543 223.086 46.6104Z" fill="#263238"/>
<path d="M212.886 55.489C212.886 55.489 211.631 53.2162 210.613 53.6465C209.596 54.0768 210.385 57.2557 211.469 57.7973C211.603 57.8755 211.752 57.9258 211.907 57.9452C212.061 57.9646 212.218 57.9527 212.368 57.9102C212.517 57.8677 212.657 57.7954 212.778 57.6977C212.9 57.6001 213 57.479 213.073 57.3417L212.886 55.489Z" fill="#C95F50"/>
<path d="M210.861 54.5424C210.861 54.5424 210.861 54.5424 210.861 54.5728C211.205 54.7907 211.499 55.0788 211.724 55.4181C211.949 55.7574 212.1 56.1403 212.167 56.5419C212.13 56.4584 212.074 56.384 212.005 56.3238C211.936 56.2636 211.855 56.219 211.767 56.1931C211.679 56.1672 211.586 56.1605 211.496 56.1735C211.405 56.1865 211.318 56.2189 211.241 56.2686C211.241 56.2686 211.241 56.3192 211.241 56.3141C211.385 56.2844 211.535 56.3001 211.67 56.359C211.805 56.4179 211.919 56.5172 211.995 56.6431C212.117 56.856 212.218 57.0797 212.299 57.3113C212.329 57.3872 212.461 57.3619 212.441 57.2759C212.567 56.2635 211.934 54.7702 210.861 54.5424Z" fill="#263238"/>
<path d="M206.523 66.4027C199.356 74.4512 193.965 85.7849 194.015 88.4577C194.086 91.3936 197.822 101.735 201.38 106.595C201.841 107.217 204.615 106.954 206.949 105.663C209.424 104.302 211.454 101.872 210.968 101.148C209.14 98.4297 204.812 87.9008 204.853 86.2557C204.888 84.7371 208.437 75.413 209.788 70.022C211.11 64.8335 209.859 62.6416 206.523 66.4027Z" fill="#C95F50"/>
<path d="M197.052 105.79L210.401 99.27C210.401 99.27 205.152 87.5566 205.152 86.2911C205.152 85.0256 208.604 75.1244 209.905 70.5484C211.206 65.9723 210.704 60.8294 205.005 67.7491C199.305 74.6688 194.324 84.9598 193.757 87.6932C193.19 90.4267 197.052 105.79 197.052 105.79Z" fill="#2F2F8D"/>
<path d="M205.82 82.93C206.093 82.0627 206.377 81.1971 206.67 80.3332C206.999 79.3664 207.338 78.4046 207.683 77.4479C208.027 76.4912 208.417 75.6003 208.791 74.679C208.791 74.6132 208.933 74.679 208.913 74.7245C208.467 75.9546 208.052 77.1998 207.637 78.4451C207.951 77.8781 208.265 77.3163 208.599 76.7594C208.606 76.753 208.615 76.7489 208.624 76.7477C208.633 76.7465 208.643 76.7483 208.651 76.7527C208.66 76.7572 208.666 76.7641 208.671 76.7726C208.675 76.781 208.676 76.7906 208.675 76.7999C208.3 77.4884 207.905 78.1616 207.505 78.8247C207.409 79.1234 207.308 79.4271 207.207 79.7258C206.645 81.3962 206.108 83.0768 205.627 84.7877C205.508 85.1665 205.428 85.5567 205.39 85.952C205.369 86.4027 205.436 86.853 205.587 87.2782C205.83 88.0628 206.093 88.8373 206.377 89.6067C206.933 91.1607 207.541 92.6895 208.174 94.208C208.897 95.9392 209.723 97.6451 210.543 99.3308C210.543 99.3308 210.036 99.4624 210.036 99.4725C210.036 99.4826 209.996 99.4725 210.006 99.4472C210.016 99.4219 210.32 99.2801 210.33 99.2801C209.495 97.8223 208.7 96.3898 207.996 94.856C207.293 93.3222 206.68 91.8188 206.118 90.2293C205.83 89.4194 205.552 88.6095 205.298 87.7895C205.011 87.0293 204.933 86.2061 205.071 85.4053C205.258 84.565 205.562 83.745 205.82 82.93Z" fill="#263238"/>
<path d="M196.824 102.029C197.298 101.773 197.784 101.543 198.282 101.34C198.718 101.138 199.148 100.93 199.588 100.733C200.54 100.303 201.492 99.8674 202.448 99.4421C203.405 99.0169 204.357 98.5867 205.313 98.1716C206.27 97.7565 207.212 97.3111 208.184 96.9517C208.219 96.9517 208.244 96.9922 208.214 97.0124C207.328 97.5591 206.381 98.0248 205.45 98.4753C204.519 98.9258 203.602 99.3612 202.666 99.7813C201.73 100.201 200.748 100.611 199.781 101.001C199.315 101.189 198.844 101.361 198.368 101.538C197.875 101.751 197.367 101.932 196.85 102.079C196.844 102.08 196.838 102.079 196.832 102.076C196.827 102.073 196.823 102.068 196.82 102.063C196.817 102.057 196.816 102.051 196.817 102.045C196.818 102.039 196.82 102.033 196.824 102.029Z" fill="#263238"/>
</svg>
