<svg width="271" height="207" viewBox="0 0 271 207" fill="none" xmlns="http://www.w3.org/2000/svg">
<path d="M270.798 181.895H0V182.03H270.798V181.895Z" fill="#E0E0E0"/>
<path d="M205.443 186.888H186.812V187.024H205.443V186.888Z" fill="#E0E0E0"/>
<path d="M227.362 186.504H216.877V186.639H227.362V186.504Z" fill="#E0E0E0"/>
<path d="M133.958 186.823H120.05V186.959H133.958V186.823Z" fill="#E0E0E0"/>
<path d="M144.005 188.746H134.505V188.881H144.005V188.746Z" fill="#E0E0E0"/>
<path d="M78.3527 185.453H49.6536V185.589H78.3527V185.453Z" fill="#E0E0E0"/>
<path d="M128.358 157.74H23.7814C22.9622 157.738 22.177 157.412 21.5982 156.832C21.0194 156.252 20.6943 155.466 20.6943 154.647V7.64185C20.7015 6.8273 21.0297 6.04846 21.6077 5.4745C22.1857 4.90054 22.9669 4.57781 23.7814 4.57642H128.358C129.178 4.57642 129.965 4.90223 130.545 5.48219C131.125 6.06215 131.451 6.84874 131.451 7.66893V154.647C131.451 155.467 131.125 156.254 130.545 156.834C129.965 157.414 129.178 157.74 128.358 157.74ZM23.7814 4.68474C22.9981 4.68617 22.2473 4.99835 21.6939 5.55276C21.1405 6.10718 20.8297 6.85851 20.8297 7.64185V154.647C20.8297 155.43 21.1405 156.182 21.6939 156.736C22.2473 157.291 22.9981 157.603 23.7814 157.604H128.358C129.142 157.603 129.893 157.291 130.448 156.737C131.002 156.182 131.314 155.431 131.315 154.647V7.64185C131.314 6.85801 131.002 6.10669 130.448 5.55243C129.893 4.99818 129.142 4.68617 128.358 4.68474H23.7814Z" fill="#E0E0E0"/>
<path d="M245.511 157.74H140.929C140.109 157.738 139.323 157.412 138.744 156.832C138.164 156.253 137.838 155.467 137.836 154.647V7.64185C137.845 6.82681 138.174 6.04797 138.753 5.47416C139.332 4.90035 140.114 4.5778 140.929 4.57642H245.511C246.324 4.57923 247.104 4.90259 247.681 5.4764C248.258 6.05021 248.585 6.82824 248.592 7.64185V154.647C248.592 155.465 248.268 156.25 247.691 156.83C247.113 157.41 246.329 157.737 245.511 157.74ZM140.929 4.68474C140.145 4.68617 139.394 4.99818 138.839 5.55243C138.285 6.10669 137.973 6.85801 137.972 7.64185V154.647C137.973 155.431 138.285 156.182 138.839 156.737C139.394 157.291 140.145 157.603 140.929 157.604H245.511C246.295 157.603 247.046 157.291 247.6 156.737C248.154 156.182 248.466 155.431 248.468 154.647V7.64185C248.466 6.85801 248.154 6.10669 247.6 5.55243C247.046 4.99818 246.295 4.68617 245.511 4.68474H140.929Z" fill="#E0E0E0"/>
<path d="M235.069 17.7209H153.45V87.8901H235.069V17.7209Z" fill="#E0E0E0"/>
<path d="M236.883 17.7209H155.265V87.8901H236.883V17.7209Z" fill="#F0F0F0"/>
<path d="M233.628 84.597V21.0137L158.52 21.0137V84.597H233.628Z" fill="#FAFAFA"/>
<path d="M209.625 84.597V21.0137H204.718V84.597H209.625Z" fill="#E0E0E0"/>
<path d="M183.812 84.597V21.0137H178.905V84.597H183.812Z" fill="#E0E0E0"/>
<path d="M211.352 86.6822V18.5603H206.445V86.6822H211.352Z" fill="#F0F0F0"/>
<path d="M185.534 86.6878V18.5659H180.628V86.6878H185.534Z" fill="#F0F0F0"/>
<path d="M233.628 84.5916V21.0083H232.258V84.5916H233.628Z" fill="#E0E0E0"/>
<path d="M96.0465 73.1371C96.0465 73.1371 86.1136 56.028 99.8972 42.3853C99.8972 42.3853 103.493 44.7304 103.439 47.8825C103.385 51.0345 99.5831 51.8307 100.401 54.4628C101.219 57.095 104.799 59.6676 102.448 61.8448C100.098 64.022 102.827 65.9501 102.67 68.6147C102.513 71.2794 96.0465 73.1371 96.0465 73.1371Z" fill="#E0E0E0"/>
<path d="M97.6063 75.937C97.6063 75.937 101.636 56.5587 84.2614 47.969C84.2614 47.969 81.5859 51.3269 82.6366 54.3002C83.6873 57.2736 87.538 56.8295 87.5922 59.5862C87.6464 62.3429 85.063 65.9175 87.9767 67.239C90.8905 68.5605 88.9137 71.2576 89.9048 73.7381C90.8959 76.2186 97.6063 75.937 97.6063 75.937Z" fill="#E6E6E6"/>
<path d="M88.7622 71.0139C88.7622 71.0139 88.9355 87.7438 95.6242 87.7438C102.313 87.7438 102.481 71.0139 102.481 71.0139H88.7622Z" fill="#F0F0F0"/>
<path d="M48.5759 81.4504C48.5759 81.4504 48.9496 87.7438 63.2315 87.7438C77.5134 87.7438 77.8925 81.4504 77.8925 81.4504H48.5759Z" fill="#E6E6E6"/>
<path d="M199.145 119.395H191.606C190.667 119.395 189.905 120.156 189.905 121.095V133.563C189.905 134.502 190.667 135.263 191.606 135.263H199.145C200.084 135.263 200.845 134.502 200.845 133.563V121.095C200.845 120.156 200.084 119.395 199.145 119.395Z" fill="#F0F0F0"/>
<path d="M219.14 124.583H214.066C213.434 124.583 212.923 125.095 212.923 125.726V134.121C212.923 134.752 213.434 135.264 214.066 135.264H219.14C219.771 135.264 220.283 134.752 220.283 134.121V125.726C220.283 125.095 219.771 124.583 219.14 124.583Z" fill="#E6E6E6"/>
<path d="M219.899 123.549H213.307C213.095 123.549 212.923 123.721 212.923 123.933V124.366C212.923 124.579 213.095 124.751 213.307 124.751H219.899C220.111 124.751 220.283 124.579 220.283 124.366V123.933C220.283 123.721 220.111 123.549 219.899 123.549Z" fill="#F0F0F0"/>
<path d="M172.455 126.436C172.455 126.436 172.726 135.264 183.065 135.264C193.404 135.264 193.68 126.436 193.68 126.436H172.455Z" fill="#E6E6E6"/>
<path d="M146.74 114.775H162.387V111.688H146.74V114.775Z" fill="#E0E0E0"/>
<path d="M240.176 111.693H162.387V114.78H240.176V111.693Z" fill="#F0F0F0"/>
<path d="M146.74 138.35H162.387V135.263H146.74V138.35Z" fill="#E0E0E0"/>
<path d="M240.176 135.263H162.387V138.351H240.176V135.263Z" fill="#F0F0F0"/>
<path d="M152.378 114.775H149.491V181.889H152.378V114.775Z" fill="#E0E0E0"/>
<path d="M165.273 114.775H162.387V181.889H165.273V114.775Z" fill="#F0F0F0"/>
<path d="M230.167 114.775H227.281V181.889H230.167V114.775Z" fill="#E0E0E0"/>
<path d="M240.176 114.775H237.289V181.889H240.176V114.775Z" fill="#F0F0F0"/>
<path d="M48.5757 91.6704H33.7793V177.833H48.5757V91.6704Z" fill="#E6E6E6"/>
<path d="M109.587 177.827H36.6228V181.895H109.587V177.827Z" fill="#E6E6E6"/>
<path d="M48.5759 177.827H112.425L112.425 91.6649L48.5759 91.6649L48.5759 177.827Z" fill="#F0F0F0"/>
<path d="M54.3924 145.272H106.608V124.226H54.3924V145.272Z" fill="#E6E6E6"/>
<path d="M54.3924 170.153H106.608V149.107H54.3924V170.153Z" fill="#E6E6E6"/>
<path d="M86.3627 126.533H74.6372C74.2555 126.532 73.8899 126.379 73.6201 126.109C73.3502 125.84 73.198 125.474 73.1965 125.092C73.1965 124.71 73.3481 124.343 73.6182 124.072C73.8882 123.801 74.2546 123.648 74.6372 123.646H86.3627C86.7453 123.648 87.1117 123.801 87.3817 124.072C87.6518 124.343 87.8034 124.71 87.8034 125.092C87.8019 125.474 87.6497 125.84 87.3798 126.109C87.11 126.379 86.7444 126.532 86.3627 126.533Z" fill="#F0F0F0"/>
<path d="M54.3924 120.386H106.608V99.3393H54.3924V120.386Z" fill="#E6E6E6"/>
<path d="M86.3627 101.652H74.6372C74.2546 101.651 73.8882 101.498 73.6182 101.227C73.3481 100.956 73.1965 100.589 73.1965 100.206C73.198 99.8244 73.3502 99.4588 73.6201 99.1889C73.8899 98.919 74.2555 98.7668 74.6372 98.7654H86.3627C86.7444 98.7668 87.11 98.919 87.3798 99.1889C87.6497 99.4588 87.8019 99.8244 87.8034 100.206C87.8034 100.589 87.6518 100.956 87.3817 101.227C87.1117 101.498 86.7453 101.651 86.3627 101.652Z" fill="#F0F0F0"/>
<path d="M86.3627 151.414H74.6372C74.2555 151.412 73.8899 151.26 73.6201 150.99C73.3502 150.72 73.198 150.355 73.1965 149.973C73.1965 149.591 73.3481 149.224 73.6182 148.953C73.8882 148.682 74.2546 148.529 74.6372 148.527H86.3627C86.7453 148.529 87.1117 148.682 87.3817 148.953C87.6518 149.224 87.8034 149.591 87.8034 149.973C87.8019 150.355 87.6497 150.72 87.3798 150.99C87.11 151.26 86.7444 151.412 86.3627 151.414Z" fill="#F0F0F0"/>
<path d="M114.396 87.7437H48.5759V91.6702H114.396V87.7437Z" fill="#E6E6E6"/>
<path d="M31.7106 91.665H48.5759V87.7385H31.7106V91.665Z" fill="#E0E0E0"/>
<path d="M65.0674 21.0137H41.1289V47.3027H65.0674V21.0137Z" fill="#E6E6E6"/>
<path d="M67.6616 21.0137H42.9324V47.3027H67.6616V21.0137Z" fill="#F0F0F0"/>
<path d="M65.5874 45.2286V23.0828H45.0014V45.2286H65.5874Z" fill="#FAFAFA"/>
<path d="M60.5991 39.8614V28.45H49.9947V39.8614H60.5991Z" fill="#F0F0F0"/>
<path d="M90.3057 13.2527H72.1514V32.7555H90.3057V13.2527Z" fill="#E6E6E6"/>
<path d="M92.2337 13.2527H73.8899V32.7555H92.2337V13.2527Z" fill="#F0F0F0"/>
<path d="M90.6956 31.2174V14.7908L75.428 14.7908V31.2174H90.6956Z" fill="#FAFAFA"/>
<path d="M83.0593 18.8474L78.8835 26.0831H87.235L83.0593 18.8474Z" fill="#F0F0F0"/>
<path d="M135.399 206.353C193.394 206.353 240.409 203.608 240.409 200.222C240.409 196.836 193.394 194.092 135.399 194.092C77.4035 194.092 30.3889 196.836 30.3889 200.222C30.3889 203.608 77.4035 206.353 135.399 206.353Z" fill="#F5F5F5"/>
<path d="M227.362 53.7642H174.231C171.429 53.7642 169.156 56.0362 169.156 58.8389V73.2887C169.156 76.0914 171.429 78.3634 174.231 78.3634H227.362C230.164 78.3634 232.437 76.0914 232.437 73.2887V58.8389C232.437 56.0362 230.164 53.7642 227.362 53.7642Z" fill="#2F2F8D"/>
<path d="M216.822 57.9128H175.32C174.829 57.9128 174.432 58.3105 174.432 58.8011V59.7759C174.432 60.2665 174.829 60.6641 175.32 60.6641H216.822C217.313 60.6641 217.711 60.2665 217.711 59.7759V58.8011C217.711 58.3105 217.313 57.9128 216.822 57.9128Z" fill="#2F2F8D"/>
<path d="M203.678 64.542H175.32C174.829 64.542 174.432 64.9397 174.432 65.4302V66.4051C174.432 66.8956 174.829 67.2933 175.32 67.2933H203.678C204.168 67.2933 204.566 66.8956 204.566 66.4051V65.4302C204.566 64.9397 204.168 64.542 203.678 64.542Z" fill="#2F2F8D"/>
<path d="M196.074 71.1711H175.32C174.829 71.1711 174.432 71.5688 174.432 72.0594V73.0342C174.432 73.5248 174.829 73.9224 175.32 73.9224H196.074C196.564 73.9224 196.962 73.5248 196.962 73.0342V72.0594C196.962 71.5688 196.564 71.1711 196.074 71.1711Z" fill="#2F2F8D"/>
<path d="M221.794 71.1711H201.04C200.55 71.1711 200.152 71.5688 200.152 72.0594V73.0342C200.152 73.5248 200.55 73.9224 201.04 73.9224H221.794C222.285 73.9224 222.682 73.5248 222.682 73.0342V72.0594C222.682 71.5688 222.285 71.1711 221.794 71.1711Z" fill="#2F2F8D"/>
<g opacity="0.5">
<path opacity="0.5" d="M216.822 57.9128H175.32C174.829 57.9128 174.432 58.3105 174.432 58.8011V59.7759C174.432 60.2665 174.829 60.6641 175.32 60.6641H216.822C217.313 60.6641 217.711 60.2665 217.711 59.7759V58.8011C217.711 58.3105 217.313 57.9128 216.822 57.9128Z" fill="white"/>
<path opacity="0.5" d="M203.678 64.542H175.32C174.829 64.542 174.432 64.9397 174.432 65.4302V66.4051C174.432 66.8956 174.829 67.2933 175.32 67.2933H203.678C204.168 67.2933 204.566 66.8956 204.566 66.4051V65.4302C204.566 64.9397 204.168 64.542 203.678 64.542Z" fill="white"/>
<path opacity="0.5" d="M196.074 71.1711H175.32C174.829 71.1711 174.432 71.5688 174.432 72.0594V73.0342C174.432 73.5248 174.829 73.9224 175.32 73.9224H196.074C196.564 73.9224 196.962 73.5248 196.962 73.0342V72.0594C196.962 71.5688 196.564 71.1711 196.074 71.1711Z" fill="white"/>
<path opacity="0.5" d="M221.794 71.1711H201.04C200.55 71.1711 200.152 71.5688 200.152 72.0594V73.0342C200.152 73.5248 200.55 73.9224 201.04 73.9224H221.794C222.285 73.9224 222.682 73.5248 222.682 73.0342V72.0594C222.682 71.5688 222.285 71.1711 221.794 71.1711Z" fill="white"/>
</g>
<path d="M184.803 48.0286H124.497C120.387 48.0286 117.055 51.3603 117.055 55.4701V76.6573C117.055 80.7671 120.387 84.0988 124.497 84.0988H184.803C188.913 84.0988 192.245 80.7671 192.245 76.6573V55.4701C192.245 51.3603 188.913 48.0286 184.803 48.0286Z" fill="#2F2F8D"/>
<path d="M186.937 54.1106H126.094C125.373 54.1106 124.789 54.695 124.789 55.4158V56.8402C124.789 57.5611 125.373 58.1455 126.094 58.1455H186.937C187.658 58.1455 188.242 57.5611 188.242 56.8402V55.4158C188.242 54.695 187.658 54.1106 186.937 54.1106Z" fill="#2F2F8D"/>
<path d="M167.662 63.8323H126.094C125.373 63.8323 124.789 64.4167 124.789 65.1375V66.5619C124.789 67.2828 125.373 67.8672 126.094 67.8672H167.662C168.383 67.8672 168.967 67.2828 168.967 66.5619V65.1375C168.967 64.4167 168.383 63.8323 167.662 63.8323Z" fill="#2F2F8D"/>
<path d="M156.516 73.554H126.094C125.373 73.554 124.789 74.1383 124.789 74.8592V76.2836C124.789 77.0045 125.373 77.5888 126.094 77.5888H156.516C157.237 77.5888 157.821 77.0045 157.821 76.2836V74.8592C157.821 74.1383 157.237 73.554 156.516 73.554Z" fill="#2F2F8D"/>
<path d="M189.152 73.554H163.806C163.085 73.554 162.5 74.1383 162.5 74.8592V76.2836C162.5 77.0045 163.085 77.5888 163.806 77.5888H189.152C189.873 77.5888 190.458 77.0045 190.458 76.2836V74.8592C190.458 74.1383 189.873 73.554 189.152 73.554Z" fill="#2F2F8D"/>
<g opacity="0.5">
<path opacity="0.5" d="M186.937 54.1106H126.094C125.373 54.1106 124.789 54.695 124.789 55.4158V56.8402C124.789 57.5611 125.373 58.1455 126.094 58.1455H186.937C187.658 58.1455 188.242 57.5611 188.242 56.8402V55.4158C188.242 54.695 187.658 54.1106 186.937 54.1106Z" fill="white"/>
<path opacity="0.5" d="M167.662 63.8323H126.094C125.373 63.8323 124.789 64.4167 124.789 65.1375V66.5619C124.789 67.2828 125.373 67.8672 126.094 67.8672H167.662C168.383 67.8672 168.967 67.2828 168.967 66.5619V65.1375C168.967 64.4167 168.383 63.8323 167.662 63.8323Z" fill="white"/>
<path opacity="0.5" d="M156.516 73.554H126.094C125.373 73.554 124.789 74.1383 124.789 74.8592V76.2836C124.789 77.0045 125.373 77.5888 126.094 77.5888H156.516C157.237 77.5888 157.821 77.0045 157.821 76.2836V74.8592C157.821 74.1383 157.237 73.554 156.516 73.554Z" fill="white"/>
<path opacity="0.5" d="M189.152 73.554H163.806C163.085 73.554 162.5 74.1383 162.5 74.8592V76.2836C162.5 77.0045 163.085 77.5888 163.806 77.5888H189.152C189.873 77.5888 190.458 77.0045 190.458 76.2836V74.8592C190.458 74.1383 189.873 73.554 189.152 73.554Z" fill="white"/>
</g>
<path d="M147.309 90.636H118.263C116.343 90.636 114.786 92.1927 114.786 94.113V137.625C114.786 139.545 116.343 141.102 118.263 141.102H147.309C149.229 141.102 150.786 139.545 150.786 137.625V94.113C150.786 92.1927 149.229 90.636 147.309 90.636Z" fill="#2F2F8D"/>
<path opacity="0.4" d="M147.309 90.636H118.263C116.343 90.636 114.786 92.1927 114.786 94.113V137.625C114.786 139.545 116.343 141.102 118.263 141.102H147.309C149.229 141.102 150.786 139.545 150.786 137.625V94.113C150.786 92.1927 149.229 90.636 147.309 90.636Z" fill="black"/>
<path d="M145.976 95.9004H119.59C119.237 95.9004 118.951 96.1865 118.951 96.5395V97.4981C118.951 97.8511 119.237 98.1372 119.59 98.1372H145.976C146.329 98.1372 146.615 97.8511 146.615 97.4981V96.5395C146.615 96.1865 146.329 95.9004 145.976 95.9004Z" fill="#FAFAFA"/>
<path d="M137.576 101.284H119.59C119.237 101.284 118.951 101.57 118.951 101.923V102.881C118.951 103.234 119.237 103.52 119.59 103.52H137.576C137.929 103.52 138.215 103.234 138.215 102.881V101.923C138.215 101.57 137.929 101.284 137.576 101.284Z" fill="#FAFAFA"/>
<path d="M145.976 106.673H119.59C119.237 106.673 118.951 106.959 118.951 107.312V108.27C118.951 108.623 119.237 108.909 119.59 108.909H145.976C146.329 108.909 146.615 108.623 146.615 108.27V107.312C146.615 106.959 146.329 106.673 145.976 106.673Z" fill="#FAFAFA"/>
<path d="M129.398 112.056H119.59C119.237 112.056 118.951 112.342 118.951 112.695V113.654C118.951 114.007 119.237 114.293 119.59 114.293H129.398C129.751 114.293 130.037 114.007 130.037 113.654V112.695C130.037 112.342 129.751 112.056 129.398 112.056Z" fill="#FAFAFA"/>
<path d="M143.122 112.056H133.314C132.961 112.056 132.675 112.342 132.675 112.695V113.654C132.675 114.007 132.961 114.293 133.314 114.293H143.122C143.475 114.293 143.761 114.007 143.761 113.654V112.695C143.761 112.342 143.475 112.056 143.122 112.056Z" fill="#FAFAFA"/>
<path d="M145.976 117.445H119.59C119.237 117.445 118.951 117.731 118.951 118.084V119.043C118.951 119.395 119.237 119.682 119.59 119.682H145.976C146.329 119.682 146.615 119.395 146.615 119.043V118.084C146.615 117.731 146.329 117.445 145.976 117.445Z" fill="#FAFAFA"/>
<path d="M145.976 122.828H119.59C119.237 122.828 118.951 123.114 118.951 123.467V124.426C118.951 124.779 119.237 125.065 119.59 125.065H145.976C146.329 125.065 146.615 124.779 146.615 124.426V123.467C146.615 123.114 146.329 122.828 145.976 122.828Z" fill="#FAFAFA"/>
<path d="M141.297 128.217H119.59C119.237 128.217 118.951 128.503 118.951 128.856V129.815C118.951 130.168 119.237 130.454 119.59 130.454H141.297C141.65 130.454 141.936 130.168 141.936 129.815V128.856C141.936 128.503 141.65 128.217 141.297 128.217Z" fill="#FAFAFA"/>
<path d="M129.718 133.601H119.59C119.237 133.601 118.951 133.887 118.951 134.24V135.199C118.951 135.551 119.237 135.838 119.59 135.838H129.718C130.071 135.838 130.357 135.551 130.357 135.199V134.24C130.357 133.887 130.071 133.601 129.718 133.601Z" fill="#FAFAFA"/>
<path d="M155.167 90.3274H114.878L132.691 104.501L160.003 114.791V95.153C160.001 93.8722 159.49 92.6448 158.583 91.7401C157.676 90.8355 156.448 90.3274 155.167 90.3274Z" fill="#2F2F8D"/>
<path opacity="0.4" d="M155.167 90.3274H114.878L132.691 104.501L160.003 114.791V95.153C160.001 93.8722 159.49 92.6448 158.583 91.7401C157.676 90.8355 156.448 90.3274 155.167 90.3274Z" fill="black"/>
<path d="M153.407 97.6279H123.928C123.485 97.6279 123.126 97.9868 123.126 98.4295V99.9243C123.126 100.367 123.485 100.726 123.928 100.726H153.407C153.85 100.726 154.209 100.367 154.209 99.9243V98.4295C154.209 97.9868 153.85 97.6279 153.407 97.6279Z" fill="#FAFAFA"/>
<path d="M224.844 128.694V100.358C224.844 98.1859 223.083 96.4255 220.912 96.4255H171.708C169.536 96.4255 167.776 98.1859 167.776 100.358V128.694C167.776 130.865 169.536 132.626 171.708 132.626H220.912C223.083 132.626 224.844 130.865 224.844 128.694Z" fill="#2F2F8D"/>
<path d="M233.828 119.714V91.378C233.828 89.2065 232.068 87.446 229.896 87.446H180.692C178.521 87.446 176.76 89.2065 176.76 91.378V119.714C176.76 121.886 178.521 123.646 180.692 123.646H229.896C232.068 123.646 233.828 121.886 233.828 119.714Z" fill="#2F2F8D"/>
<path opacity="0.5" d="M233.828 119.714V91.378C233.828 89.2065 232.068 87.446 229.896 87.446H180.692C178.521 87.446 176.76 89.2065 176.76 91.378V119.714C176.76 121.886 178.521 123.646 180.692 123.646H229.896C232.068 123.646 233.828 121.886 233.828 119.714Z" fill="white"/>
<path d="M228.835 110.003V92.5587C228.835 91.5925 228.052 90.8093 227.086 90.8093H211.006C210.039 90.8093 209.256 91.5925 209.256 92.5587V110.003C209.256 110.97 210.039 111.753 211.006 111.753H227.086C228.052 111.753 228.835 110.97 228.835 110.003Z" fill="#2F2F8D"/>
<path opacity="0.7" d="M228.835 110.003V92.5587C228.835 91.5925 228.052 90.8093 227.086 90.8093H211.006C210.039 90.8093 209.256 91.5925 209.256 92.5587V110.003C209.256 110.97 210.039 111.753 211.006 111.753H227.086C228.052 111.753 228.835 110.97 228.835 110.003Z" fill="white"/>
<path d="M206.191 118.441V105.075C206.191 104.333 205.59 103.732 204.848 103.732H192.526C191.785 103.732 191.183 104.333 191.183 105.075V118.441C191.183 119.183 191.785 119.785 192.526 119.785H204.848C205.59 119.785 206.191 119.183 206.191 118.441Z" fill="#2F2F8D"/>
<path opacity="0.3" d="M206.191 118.441V105.075C206.191 104.333 205.59 103.732 204.848 103.732H192.526C191.785 103.732 191.183 104.333 191.183 105.075V118.441C191.183 119.183 191.785 119.785 192.526 119.785H204.848C205.59 119.785 206.191 119.183 206.191 118.441Z" fill="white"/>
<path d="M198.684 33.6925V26.4731C198.684 24.2656 196.895 22.4761 194.687 22.4761L62.4676 22.4761C60.2602 22.4761 58.4706 24.2656 58.4706 26.4731V33.6925C58.4706 35.9 60.2602 37.6895 62.4676 37.6895L194.687 37.6895C196.895 37.6895 198.684 35.9 198.684 33.6925Z" fill="#2F2F8D"/>
<path opacity="0.5" d="M198.684 33.6925V26.4731C198.684 24.2656 196.895 22.4761 194.687 22.4761L62.4676 22.4761C60.2602 22.4761 58.4706 24.2656 58.4706 26.4731V33.6925C58.4706 35.9 60.2602 37.6895 62.4676 37.6895L194.687 37.6895C196.895 37.6895 198.684 35.9 198.684 33.6925Z" fill="white"/>
<path d="M173.668 40.235V34.9978H135.621V40.235H173.668Z" fill="#2F2F8D"/>
<path opacity="0.5" d="M173.668 40.235V34.9978H135.621V40.235H173.668Z" fill="white"/>
<path d="M212.327 11.2164V3.99698C212.327 1.78951 210.538 0 208.33 0L76.1104 0C73.903 0 72.1135 1.78951 72.1135 3.99698V11.2164C72.1135 13.4239 73.903 15.2134 76.1104 15.2134L208.33 15.2134C210.538 15.2134 212.327 13.4239 212.327 11.2164Z" fill="#2F2F8D"/>
<path d="M70.6024 79.999C70.1258 81.0822 69.6004 82.252 69.1401 83.3948C68.6797 84.5375 68.2031 85.7128 67.7861 86.8826C66.9304 89.1632 66.2443 91.5038 65.7334 93.8855L65.5764 94.752L65.5222 95.077C65.5222 95.1691 65.5222 95.2882 65.4897 95.3965C65.4691 95.9239 65.48 96.4519 65.5222 96.978C65.6251 98.1208 65.8092 99.3448 66.0638 100.569C66.5187 103.022 67.0982 105.551 67.6886 108.043L64.9102 109.126C63.615 106.765 62.512 104.304 61.6119 101.766C61.1376 100.445 60.754 99.0931 60.4637 97.72C60.301 96.9603 60.1996 96.1887 60.1604 95.4128C60.1604 95.1961 60.1604 94.9903 60.1604 94.7574C60.1604 94.5246 60.1604 94.2646 60.1983 94.1129L60.3066 93.0298C60.4685 91.6347 60.7163 90.251 61.0486 88.8865C61.3519 87.5326 61.7419 86.2165 62.1318 84.9167C62.5218 83.6168 63.0092 82.3387 63.5237 81.0822C63.7783 80.4539 64.0653 79.8311 64.3144 79.2082C64.5636 78.5854 64.856 77.9896 65.2027 77.3235L70.6024 79.999Z" fill="#E4897B"/>
<path d="M67.5425 107.312L69.6547 109.375L65.0457 111.541C65.0457 111.541 63.93 109.586 64.7045 107.821L67.5425 107.312Z" fill="#E4897B"/>
<path d="M71.3606 112.446L67.4665 114.038L65.051 111.52L69.6546 109.375L71.3606 112.446Z" fill="#E4897B"/>
<path opacity="0.4" d="M150.244 110.226C142.581 109.365 135.345 106.252 129.451 101.28C123.557 96.3076 119.269 89.6995 117.13 82.2909C114.991 74.8822 115.097 67.0057 117.434 59.6571C119.771 52.3085 124.234 45.8177 130.259 41.0052C136.284 36.1928 143.601 33.2748 151.284 32.6201C158.968 31.9654 166.673 33.6034 173.425 37.3271C180.178 41.0508 185.675 46.6929 189.221 53.5402C192.768 60.3875 194.204 68.1326 193.35 75.7963C192.782 80.8881 191.216 85.818 188.742 90.3044C186.268 94.7908 182.934 98.7457 178.931 101.943C174.928 105.14 170.334 107.518 165.412 108.939C160.489 110.36 155.335 110.797 150.244 110.226Z" fill="#FAFAFA"/>
<path opacity="0.4" d="M178.613 40.7496L119.308 88.1338C119.059 87.5922 118.815 87.0506 118.588 86.509C117.101 82.9726 116.15 79.2342 115.766 75.4171L166.99 34.4888C171.196 35.8916 175.128 38.0096 178.613 40.7496Z" fill="#FAFAFA"/>
<path opacity="0.4" d="M192.299 61.5088L136.542 106.055C131.245 103.294 126.655 99.3502 123.126 94.5299L184.007 45.8838C187.932 50.3882 190.769 55.7341 192.299 61.5088Z" fill="#FAFAFA"/>
<path d="M110.697 56.5696L110.182 56.3963C111.073 53.7669 112.193 51.2207 113.529 48.7869L114 49.0469C112.682 51.4534 111.577 53.9706 110.697 56.5696ZM117.272 43.9288L116.833 43.6093C121.284 37.591 127.109 32.724 133.823 29.414L134.066 29.9015C127.429 33.1772 121.671 37.9922 117.272 43.9451V43.9288ZM176.625 30.6435C174.855 29.6942 173.024 28.8637 171.144 28.1575L171.339 27.6484C173.238 28.3712 175.087 29.2179 176.874 30.1831L176.625 30.6435Z" fill="#2F2F8D"/>
<path opacity="0.3" d="M110.697 56.5696L110.182 56.3963C111.073 53.7669 112.193 51.2207 113.529 48.7869L114 49.0469C112.682 51.4534 111.577 53.9706 110.697 56.5696ZM117.272 43.9288L116.833 43.6093C121.284 37.591 127.109 32.724 133.823 29.414L134.066 29.9015C127.429 33.1772 121.671 37.9922 117.272 43.9451V43.9288ZM176.625 30.6435C174.855 29.6942 173.024 28.8637 171.144 28.1575L171.339 27.6484C173.238 28.3712 175.087 29.2179 176.874 30.1831L176.625 30.6435Z" fill="black"/>
<path d="M194.904 51.5544C189.889 41.1532 181.064 33.0808 170.258 29.0105C159.452 24.9403 147.494 25.1844 136.863 29.6923C126.232 34.2002 117.744 42.6261 113.158 53.2233C108.571 63.8205 108.239 75.7762 112.229 86.6119C108.611 87.8792 105.037 89.2386 101.484 90.6413C96.3606 92.6741 91.284 94.7972 86.2544 97.0105C81.2284 99.2365 76.2241 101.506 71.2685 103.878C68.7825 105.042 66.3291 106.272 63.854 107.463C62.5664 108.017 61.3999 108.817 60.4203 109.819C59.8902 110.374 59.4234 110.986 59.0284 111.644C58.5464 112.423 58.1815 113.268 57.9452 114.152C57.5377 115.746 57.7139 117.433 58.4421 118.908C59.1702 120.383 60.4021 121.549 61.9151 122.195C62.7553 122.547 63.6417 122.777 64.5473 122.877C65.3121 122.964 66.0842 122.964 66.849 122.877C68.2389 122.708 69.5822 122.269 70.8027 121.583C73.2561 120.342 75.7258 119.146 78.163 117.873C83.0373 115.387 87.9117 112.793 92.7265 110.16C97.5413 107.528 102.361 104.772 107.063 101.944C110.312 99.9785 113.594 97.9691 116.811 95.8677C122.989 105.62 132.682 112.622 143.881 115.422C155.08 118.223 166.928 116.607 176.969 110.911C187.01 105.214 194.474 95.8724 197.815 84.8222C201.156 73.7719 200.117 61.8599 194.915 51.5544H194.904ZM170.283 103.293C163.989 106.4 156.915 107.57 149.956 106.657C142.996 105.744 136.464 102.787 131.185 98.1613C125.906 93.5356 122.117 87.4484 120.297 80.6693C118.477 73.8902 118.708 66.7238 120.961 60.0762C123.214 53.4285 127.388 47.5982 132.954 43.3224C138.521 39.0466 145.23 36.5174 152.234 36.0546C159.238 35.5917 166.221 37.216 172.302 40.722C178.383 44.2281 183.287 49.4584 186.395 55.7518C188.46 59.9312 189.68 64.4764 189.988 69.1277C190.295 73.7789 189.683 78.4452 188.187 82.8599C186.691 87.2747 184.339 91.3515 181.267 94.8574C178.195 98.3634 174.463 101.23 170.283 103.293Z" fill="#2F2F8D"/>
<path opacity="0.3" d="M194.904 51.5544C189.889 41.1532 181.064 33.0808 170.258 29.0105C159.452 24.9403 147.494 25.1844 136.863 29.6923C126.232 34.2002 117.744 42.6261 113.158 53.2233C108.571 63.8205 108.239 75.7762 112.229 86.6119C108.611 87.8792 105.037 89.2386 101.484 90.6413C96.3606 92.6741 91.284 94.7972 86.2544 97.0105C81.2284 99.2365 76.2241 101.506 71.2685 103.878C68.7825 105.042 66.3291 106.272 63.854 107.463C62.5664 108.017 61.3999 108.817 60.4203 109.819C59.8902 110.374 59.4234 110.986 59.0284 111.644C58.5464 112.423 58.1815 113.268 57.9452 114.152C57.5377 115.746 57.7139 117.433 58.4421 118.908C59.1702 120.383 60.4021 121.549 61.9151 122.195C62.7553 122.547 63.6417 122.777 64.5473 122.877C65.3121 122.964 66.0842 122.964 66.849 122.877C68.2389 122.708 69.5822 122.269 70.8027 121.583C73.2561 120.342 75.7258 119.146 78.163 117.873C83.0373 115.387 87.9117 112.793 92.7265 110.16C97.5413 107.528 102.361 104.772 107.063 101.944C110.312 99.9785 113.594 97.9691 116.811 95.8677C122.989 105.62 132.682 112.622 143.881 115.422C155.08 118.223 166.928 116.607 176.969 110.911C187.01 105.214 194.474 95.8724 197.815 84.8222C201.156 73.7719 200.117 61.8599 194.915 51.5544H194.904ZM170.283 103.293C163.989 106.4 156.915 107.57 149.956 106.657C142.996 105.744 136.464 102.787 131.185 98.1613C125.906 93.5356 122.117 87.4484 120.297 80.6693C118.477 73.8902 118.708 66.7238 120.961 60.0762C123.214 53.4285 127.388 47.5982 132.954 43.3224C138.521 39.0466 145.23 36.5174 152.234 36.0546C159.238 35.5917 166.221 37.216 172.302 40.722C178.383 44.2281 183.287 49.4584 186.395 55.7518C188.46 59.9312 189.68 64.4764 189.988 69.1277C190.295 73.7789 189.683 78.4452 188.187 82.8599C186.691 87.2747 184.339 91.3515 181.267 94.8574C178.195 98.3634 174.463 101.23 170.283 103.293Z" fill="black"/>
<path d="M85.572 60.6586C85.572 60.9782 85.7399 61.2381 85.9511 61.2381C86.1624 61.2381 86.3303 60.9782 86.3303 60.6586C86.3303 60.3391 86.1624 60.0791 85.9511 60.0791C85.7399 60.0791 85.572 60.3607 85.572 60.6586Z" fill="#263238"/>
<path d="M85.7236 61.238C86.107 62.2189 86.6227 63.1428 87.2563 63.9839C87.0373 64.1407 86.7865 64.2476 86.5218 64.2971C86.257 64.3467 85.9846 64.3378 85.7236 64.271V61.238Z" fill="#DE5753"/>
<path d="M84.451 58.8767C84.4208 58.8767 84.391 58.8699 84.3638 58.8568C84.3366 58.8436 84.3127 58.8245 84.294 58.8009C84.2657 58.7595 84.2545 58.7089 84.2626 58.6595C84.2706 58.6101 84.2974 58.5657 84.3373 58.5355C84.5758 58.3546 84.8545 58.234 85.1497 58.184C85.4448 58.1341 85.7477 58.1561 86.0325 58.2484C86.0581 58.2554 86.0819 58.2676 86.1024 58.2844C86.123 58.3011 86.1398 58.322 86.1518 58.3457C86.1637 58.3693 86.1706 58.3952 86.172 58.4217C86.1733 58.4482 86.1691 58.4746 86.1596 58.4994C86.1501 58.5241 86.1355 58.5466 86.1167 58.5653C86.098 58.5841 86.0755 58.5987 86.0508 58.6082C86.026 58.6177 85.9996 58.622 85.9731 58.6206C85.9466 58.6193 85.9207 58.6124 85.8971 58.6005C85.6709 58.5311 85.4313 58.517 85.1985 58.5594C84.9658 58.6018 84.7466 58.6995 84.5593 58.8442C84.5272 58.8655 84.4895 58.8768 84.451 58.8767Z" fill="#263238"/>
<path d="M74.632 63.0686C75.1736 65.977 75.7693 71.3117 73.7329 73.256C73.7329 73.256 74.5291 76.2077 79.9396 76.2077C85.8972 76.2077 82.7776 73.256 82.7776 73.256C79.528 72.4761 79.6201 70.0714 80.1833 67.8076L74.632 63.0686Z" fill="#E4897B"/>
<path d="M71.301 74.7888C71.9455 73.7868 70.8623 71.355 70.8623 71.355C70.8623 71.355 80.4377 68.9449 84.3535 72.644C85.1658 73.4077 84.2668 74.5342 84.2668 74.5342L71.301 74.7888Z" fill="#2F2F8D"/>
<path opacity="0.1" d="M71.301 74.7888C71.9455 73.7868 70.8623 71.355 70.8623 71.355C70.8623 71.355 80.4377 68.9449 84.3535 72.644C85.1658 73.4077 84.2668 74.5342 84.2668 74.5342L71.301 74.7888Z" fill="black"/>
<path d="M55.4595 185.291C54.9558 185.291 54.1488 184.451 53.9105 184.137C53.9002 184.122 53.8948 184.104 53.8948 184.086C53.8948 184.067 53.9002 184.049 53.9105 184.034C53.9192 184.019 53.9319 184.006 53.9471 183.998C53.9624 183.989 53.9797 183.985 53.9971 183.985C54.0567 183.985 55.3836 184.105 55.7465 184.576C55.786 184.625 55.8141 184.683 55.8291 184.745C55.8441 184.807 55.8454 184.871 55.8332 184.933C55.8284 185.014 55.7988 185.091 55.7484 185.154C55.6979 185.217 55.6291 185.263 55.5515 185.285L55.4595 185.291ZM54.203 184.207C54.5983 184.662 55.232 185.177 55.5028 185.112C55.5028 185.112 55.6111 185.085 55.6436 184.912C55.6507 184.875 55.6495 184.838 55.6402 184.802C55.6308 184.767 55.6134 184.734 55.5894 184.706C55.1882 184.402 54.7055 184.225 54.203 184.197V184.207Z" fill="#2F2F8D"/>
<path d="M54.2624 184.197C54.1652 184.206 54.0672 184.206 53.97 184.197C53.9529 184.195 53.9365 184.189 53.923 184.178C53.9095 184.168 53.8995 184.153 53.8942 184.137C53.8865 184.122 53.8826 184.105 53.8826 184.088C53.8826 184.071 53.8865 184.055 53.8942 184.039C53.9321 184.007 54.7282 183.178 55.3294 183.178C55.4013 183.177 55.4728 183.19 55.5391 183.218C55.6054 183.246 55.6649 183.288 55.7139 183.341C55.7678 183.386 55.8047 183.448 55.8185 183.517C55.8323 183.586 55.8222 183.658 55.7897 183.72C55.6327 184.023 54.804 184.197 54.2624 184.197ZM54.192 184.007C54.7336 184.007 55.5189 183.839 55.6489 183.601C55.6489 183.601 55.6868 183.53 55.6002 183.444C55.5687 183.409 55.53 183.383 55.487 183.365C55.444 183.347 55.3976 183.339 55.351 183.341C54.9071 183.443 54.5035 183.675 54.192 184.007Z" fill="#2F2F8D"/>
<path d="M91.1992 197.585C90.7887 197.582 90.3792 197.544 89.9752 197.471C89.9552 197.467 89.9371 197.456 89.9242 197.441C89.9113 197.425 89.9045 197.405 89.9048 197.384C89.9018 197.366 89.9043 197.346 89.912 197.329C89.9197 197.312 89.9322 197.297 89.9481 197.287C90.0077 197.254 91.3942 196.458 92.0604 196.642C92.1221 196.656 92.1804 196.683 92.2316 196.72C92.2829 196.757 92.3259 196.805 92.3582 196.859C92.4007 196.919 92.4234 196.991 92.4234 197.065C92.4234 197.138 92.4007 197.21 92.3582 197.271C92.2012 197.514 91.7083 197.585 91.1992 197.585ZM90.2839 197.33C91.0205 197.438 92.0279 197.433 92.212 197.173C92.2391 197.141 92.2608 197.081 92.212 196.967C92.1706 196.9 92.1046 196.851 92.0279 196.832C91.6054 196.724 90.766 197.081 90.2839 197.33Z" fill="#2F2F8D"/>
<path d="M89.997 197.476C89.9793 197.482 89.9606 197.482 89.9429 197.476C89.9278 197.467 89.9161 197.453 89.9094 197.436C89.9026 197.42 89.901 197.402 89.9049 197.384C89.9416 196.821 90.158 196.283 90.5224 195.852C90.596 195.788 90.6826 195.741 90.776 195.714C90.8695 195.687 90.9677 195.68 91.064 195.695C91.3239 195.695 91.3997 195.852 91.416 195.955C91.4864 196.404 90.5386 197.265 90.0566 197.482L89.997 197.476ZM90.9665 195.852C90.8473 195.851 90.7319 195.893 90.6415 195.971C90.3353 196.313 90.1456 196.743 90.0999 197.2C90.5874 196.902 91.2373 196.231 91.1831 195.96C91.1831 195.96 91.1831 195.868 90.999 195.852H90.9665Z" fill="#2F2F8D"/>
<path d="M85.6208 197.379H89.6016L89.9969 188.167H86.0162L85.6208 197.379Z" fill="#E4897B"/>
<path d="M50.1733 181.564L53.4987 183.742L60.8428 177.54L57.512 175.358L50.1733 181.564Z" fill="#E4897B"/>
<path d="M54.0457 183.536L50.5904 180.703C50.5293 180.653 50.4528 180.626 50.3737 180.626C50.2947 180.626 50.2181 180.653 50.1571 180.703L47.3083 182.94C47.2395 182.995 47.1839 183.064 47.1457 183.144C47.1075 183.223 47.0876 183.31 47.0876 183.398C47.0876 183.486 47.1075 183.573 47.1457 183.652C47.1839 183.731 47.2395 183.801 47.3083 183.855C48.5323 184.825 49.1768 185.236 50.6987 186.482C51.6356 187.246 53.9483 189.585 55.2535 190.642C56.5588 191.698 57.7557 190.56 57.3224 190.013C55.3781 187.549 54.6144 185.442 54.3924 184.137C54.354 183.901 54.2307 183.687 54.0457 183.536Z" fill="#263238"/>
<path d="M89.5744 196.919H85.2416C85.1626 196.919 85.086 196.946 85.0241 196.995C84.9622 197.044 84.9187 197.113 84.9004 197.189L84.1151 200.726C84.0954 200.812 84.0954 200.901 84.1152 200.987C84.135 201.072 84.174 201.152 84.2293 201.221C84.2847 201.289 84.3548 201.344 84.4345 201.381C84.5142 201.418 84.6013 201.437 84.6892 201.436C86.2544 201.409 88.5183 201.316 90.4897 201.316C92.7915 201.316 94.7846 201.441 97.4817 201.441C99.1065 201.441 99.5723 199.789 98.8844 199.643C95.7757 198.961 93.2302 198.89 90.5439 197.227C90.2556 197.037 89.9199 196.93 89.5744 196.919Z" fill="#263238"/>
<path d="M65.8903 74.4421C62.4404 76.0669 60.4744 86.953 60.4744 86.953L68.907 90.3163C70.1413 87.3023 71.1391 84.1968 71.8912 81.0279C73.0502 76.0128 69.4215 72.7632 65.8903 74.4421Z" fill="#263238"/>
<path d="M70.3641 80.5784C68.2789 82.6906 67.3257 86.8284 66.9087 89.5201L68.9288 90.3271C70.1281 87.3987 71.1057 84.3844 71.8535 81.3095C71.6747 80.1614 71.2306 79.701 70.3641 80.5784Z" fill="#203048"/>
<path d="M88.8975 74.3664C88.8975 74.3664 93.1328 79.1541 89.1358 108.758H67.8565C67.7103 105.508 69.7629 89.5582 66.6108 74.166C68.9625 73.71 71.3416 73.4097 73.7328 73.267C76.7451 73.0881 79.7652 73.0881 82.7775 73.267C84.8428 73.4748 86.889 73.8424 88.8975 74.3664Z" fill="#263238"/>
<path d="M90.8417 85.8591L87.2564 79.6794C86.5643 82.5627 86.2817 85.5291 86.4169 88.4912C86.5144 90.6143 88.4587 98.4782 90.2081 99.6264C90.6723 95.0524 90.8838 90.4563 90.8417 85.8591Z" fill="#203048"/>
<path d="M91.3402 78.5962C91.8818 81.2283 92.4234 83.9255 93.003 86.5685C93.5825 89.2115 94.1836 91.8653 94.8823 94.427C95.061 95.0607 95.2289 95.7106 95.4239 96.3172L95.5701 96.783L95.6405 97.0159V96.9888C95.6026 96.94 95.5593 96.9346 95.5918 96.9888C95.8144 97.2319 96.099 97.4097 96.415 97.5033C96.927 97.6938 97.4542 97.8406 97.991 97.942C100.552 98.3478 103.144 98.5164 105.736 98.4457L106.25 101.392C105.525 101.625 104.848 101.793 104.133 101.961C103.418 102.129 102.714 102.269 101.993 102.378C100.503 102.626 98.9921 102.727 97.4819 102.681C96.6426 102.658 95.8077 102.549 94.9906 102.356C93.9516 102.129 92.9754 101.676 92.131 101.029C91.5795 100.584 91.1244 100.031 90.7932 99.4043C90.7066 99.2418 90.6308 99.0577 90.5604 98.9006L90.4629 98.6461L90.2625 98.1045C89.9863 97.4166 89.7588 96.7396 89.5097 96.0626C88.5944 93.3547 87.8307 90.6196 87.1591 87.89C86.4876 85.1603 85.908 82.4361 85.426 79.6361L91.3402 78.5962Z" fill="#E4897B"/>
<path d="M83.5844 77.2694C82.4633 80.9035 87.0073 91.7409 87.0073 91.7409L96.0574 89.4662C96.0574 89.4662 95.7107 83.8336 93.6473 79.3654C90.5385 72.628 84.9276 72.9096 83.5844 77.2694Z" fill="#263238"/>
<path d="M105.66 98.4458L110.166 98.332L108 103.022C108 103.022 106.164 103.266 104.658 100.791L103.071 98.8953L104.896 98.5324C105.147 98.4795 105.403 98.4505 105.66 98.4458Z" fill="#E4897B"/>
<path d="M113.009 99.204L110.431 103.093L108 103.022L110.166 98.332L113.009 99.204Z" fill="#E4897B"/>
<path d="M89.9971 188.167L89.7913 192.916H85.8105L86.0164 188.167H89.9971Z" fill="#CE6F64"/>
<path d="M57.5121 175.358L60.8429 177.54L57.0517 180.736L53.7263 178.558L57.5121 175.358Z" fill="#CE6F64"/>
<path d="M74.8811 59.9708C75.1194 63.9082 75.0598 66.2316 77.0475 68.2518C80.0371 71.301 84.906 69.4975 85.8484 65.5438C86.6987 62.0018 86.1679 56.1525 82.3118 54.5819C81.4609 54.2385 80.5367 54.1168 79.626 54.2284C78.7152 54.34 77.8478 54.6811 77.105 55.2198C76.3622 55.7585 75.7685 56.4771 75.3795 57.3081C74.9905 58.1391 74.819 59.0553 74.8811 59.9708Z" fill="#E4897B"/>
<path d="M70.245 59.2775C71.2253 62.8683 73.5325 67.0061 76.5167 67.2714C80.2212 67.5964 81.8947 63.7673 82.3822 59.8137C84.6027 58.2918 83.4383 56.6182 85.6642 56.407C88.5239 56.1362 87.6086 50.9044 83.8445 50.0649C83.8445 50.0649 85.1064 52.4209 82.458 51.2294C79.9393 50.0324 77.1412 49.5473 74.3666 49.8266C74.3666 49.8266 77.7461 51.5164 74.4424 52.2692C71.1386 53.0221 70.1529 55.0585 71.6748 56.2879C71.6748 56.2933 69.6005 56.9161 70.245 59.2775Z" fill="#263238"/>
<path d="M80.1237 60.626C80.1965 61.6047 80.5906 62.532 81.2448 63.2635C82.1114 64.2222 83.0158 63.6264 83.1675 62.462C83.3083 61.4167 83.0213 59.6565 81.9597 59.1258C80.8982 58.595 80.0533 59.4453 80.1237 60.626Z" fill="#E4897B"/>
<path d="M81.5858 108.758C81.5858 108.758 85.4636 136.839 82.409 148.094C77.5672 165.912 59.0554 180.952 59.0554 180.952L52.7783 176.836C52.7783 176.836 68.5442 164.136 70.4722 149.215C72.2054 135.821 67.8563 119.622 67.8563 108.752L81.5858 108.758Z" fill="#2F2F8D"/>
<path opacity="0.1" d="M81.5858 108.758C81.5858 108.758 85.4636 136.839 82.409 148.094C77.5672 165.912 59.0554 180.952 59.0554 180.952L52.7783 176.836C52.7783 176.836 68.5442 164.136 70.4722 149.215C72.2054 135.821 67.8563 119.622 67.8563 108.752L81.5858 108.758Z" fill="black"/>
<path d="M83.189 124.811C82.1567 123.628 81.0202 122.54 79.7932 121.561C80.454 130.676 80.9956 144.178 80.3944 153.77C81.2027 151.931 81.876 150.036 82.4091 148.099C83.8985 142.602 83.7414 133.108 83.189 124.811Z" fill="#2F2F8D"/>
<path opacity="0.3" d="M83.189 124.811C82.1567 123.628 81.0202 122.54 79.7932 121.561C80.454 130.676 80.9956 144.178 80.3944 153.77C81.2027 151.931 81.876 150.036 82.4091 148.099C83.8985 142.602 83.7414 133.108 83.189 124.811Z" fill="black"/>
<path d="M61.5848 179.55C61.6118 179.55 59.153 181.174 59.153 181.174L52.2964 176.679L54.4628 174.886L61.5848 179.55Z" fill="#2F2F8D"/>
<path opacity="0.3" d="M61.5848 179.55C61.6118 179.55 59.153 181.174 59.153 181.174L52.2964 176.679L54.4628 174.886L61.5848 179.55Z" fill="black"/>
<path d="M89.1359 108.758C89.1359 108.758 95.1259 134.159 95.5484 146.296C96.025 159.901 91.2752 191.996 91.2752 191.996H84.5323C84.5323 191.996 83.7037 159.652 83.4058 147.26C83.0754 133.747 75.1465 108.758 75.1465 108.758H89.1359Z" fill="#2F2F8D"/>
<path opacity="0.1" d="M89.1359 108.758C89.1359 108.758 95.1259 134.159 95.5484 146.296C96.025 159.901 91.2752 191.996 91.2752 191.996H84.5323C84.5323 191.996 83.7037 159.652 83.4058 147.26C83.0754 133.747 75.1465 108.758 75.1465 108.758H89.1359Z" fill="black"/>
<path d="M92.5695 189.314C92.602 189.314 92.1904 192.109 92.1904 192.109H83.9906L83.7686 189.612L92.5695 189.314Z" fill="#2F2F8D"/>
<path opacity="0.3" d="M92.5695 189.314C92.602 189.314 92.1904 192.109 92.1904 192.109H83.9906L83.7686 189.612L92.5695 189.314Z" fill="black"/>
<path d="M192.808 84.3481C193.269 84.7814 193.631 85.1497 194.011 85.5613C194.39 85.9729 194.747 86.3737 195.094 86.7907C195.798 87.6194 196.459 88.4914 197.098 89.3687C198.374 91.1287 199.509 92.9868 200.493 94.9255L200.694 95.3209C200.792 95.5122 200.873 95.7115 200.938 95.9166C201.068 96.3129 201.148 96.7242 201.176 97.1406C201.211 97.875 201.11 98.6095 200.878 99.307C200.482 100.466 199.895 101.55 199.139 102.513C197.778 104.261 196.173 105.804 194.373 107.095L193.025 105.546C193.658 104.804 194.319 104.008 194.91 103.212C195.51 102.441 196.053 101.626 196.534 100.775C196.984 100.032 197.316 99.2247 197.52 98.3809C197.59 98.079 197.603 97.7668 197.558 97.4602C197.539 97.3571 197.506 97.2569 197.46 97.1623C197.44 97.1208 197.417 97.0809 197.39 97.0431L197.217 96.7507C196.172 95.0476 195.039 93.4006 193.821 91.8168C193.22 91.0206 192.575 90.257 191.925 89.5041C191.606 89.125 191.275 88.7567 190.945 88.3885C190.615 88.0202 190.257 87.6519 189.97 87.3648L192.808 84.3481Z" fill="#E4897B"/>
<path d="M193.545 105.091L189.499 104.43L191.617 107.972C191.617 107.972 194.222 107.88 194.964 106.348L193.545 105.091Z" fill="#E4897B"/>
<path d="M186.509 106.066L188.437 108.942L191.617 107.972L189.499 104.43L186.509 106.066Z" fill="#E4897B"/>
<path d="M193.35 197.536C193.075 197.56 192.8 197.485 192.575 197.325C192.507 197.261 192.457 197.18 192.43 197.091C192.402 197.002 192.398 196.907 192.418 196.816C192.422 196.758 192.442 196.702 192.475 196.654C192.509 196.606 192.555 196.569 192.608 196.545C193.079 196.334 194.314 197.124 194.455 197.217C194.471 197.226 194.483 197.241 194.49 197.259C194.497 197.277 194.498 197.296 194.493 197.314C194.491 197.333 194.483 197.35 194.47 197.364C194.457 197.377 194.44 197.386 194.422 197.39C194.071 197.479 193.712 197.528 193.35 197.536ZM192.808 196.697C192.769 196.691 192.729 196.691 192.689 196.697C192.665 196.708 192.645 196.725 192.631 196.747C192.616 196.769 192.608 196.795 192.608 196.821C192.593 196.882 192.595 196.945 192.612 197.005C192.629 197.064 192.661 197.119 192.705 197.162C192.911 197.347 193.442 197.374 194.151 197.233C193.745 196.964 193.288 196.782 192.808 196.697Z" fill="#2F2F8D"/>
<path d="M194.433 197.385H194.384C194 197.163 193.258 196.301 193.35 195.83C193.367 195.756 193.408 195.689 193.467 195.641C193.526 195.592 193.598 195.563 193.675 195.559C193.748 195.549 193.822 195.555 193.893 195.578C193.963 195.6 194.027 195.638 194.081 195.689C194.525 196.079 194.53 197.249 194.53 197.314C194.529 197.331 194.524 197.347 194.516 197.361C194.507 197.375 194.496 197.387 194.482 197.395L194.433 197.385ZM193.74 195.76H193.696C193.577 195.76 193.55 195.825 193.539 195.874C193.485 196.15 193.945 196.811 194.33 197.119C194.339 196.665 194.209 196.219 193.956 195.841C193.924 195.811 193.885 195.788 193.843 195.774C193.801 195.76 193.757 195.755 193.713 195.76H193.74Z" fill="#2F2F8D"/>
<path d="M174.892 197.536C174.546 197.569 174.2 197.481 173.912 197.287C173.847 197.229 173.797 197.157 173.766 197.076C173.735 196.995 173.723 196.908 173.733 196.821C173.737 196.769 173.753 196.718 173.782 196.673C173.81 196.629 173.849 196.592 173.896 196.567C174.399 196.285 176.013 197.108 176.197 197.211C176.214 197.222 176.228 197.238 176.236 197.256C176.245 197.274 176.248 197.294 176.246 197.314C176.243 197.333 176.234 197.351 176.22 197.364C176.207 197.378 176.189 197.387 176.17 197.39C175.75 197.479 175.322 197.528 174.892 197.536ZM174.172 196.697C174.11 196.693 174.048 196.706 173.993 196.735C173.974 196.744 173.957 196.758 173.946 196.777C173.934 196.795 173.928 196.816 173.928 196.837C173.92 196.894 173.925 196.951 173.944 197.005C173.963 197.059 173.995 197.107 174.036 197.146C174.286 197.368 174.952 197.406 175.851 197.255C175.327 196.975 174.759 196.787 174.172 196.697Z" fill="#2F2F8D"/>
<path d="M176.154 197.384H176.111C175.629 197.168 174.67 196.301 174.746 195.83C174.746 195.722 174.843 195.586 175.109 195.559C175.206 195.549 175.304 195.558 175.397 195.587C175.49 195.616 175.576 195.664 175.65 195.727C176.16 196.15 176.257 197.244 176.257 197.292C176.259 197.309 176.257 197.326 176.25 197.341C176.243 197.356 176.233 197.369 176.219 197.379C176.199 197.388 176.176 197.39 176.154 197.384ZM175.185 195.76H175.125C174.952 195.76 174.941 195.846 174.936 195.868C174.892 196.144 175.542 196.832 176.019 197.13C175.972 196.667 175.782 196.23 175.477 195.879C175.395 195.809 175.292 195.767 175.185 195.76Z" fill="#2F2F8D"/>
<path d="M182.556 71.8967C182.399 74.3447 181.976 79.3166 183.856 80.6922C183.856 80.6922 183.514 83.1998 179.079 83.7847C174.204 84.4184 176.43 81.6671 176.43 81.6671C179.014 80.6814 178.683 78.7154 177.979 76.9173L182.556 71.8967Z" fill="#E4897B"/>
<path d="M172.466 67.5694C172.439 67.5694 172.412 67.5636 172.388 67.5524C172.364 67.5412 172.342 67.5248 172.325 67.5044C172.17 67.3207 171.974 67.1759 171.753 67.0818C171.532 66.9878 171.292 66.947 171.052 66.9628C171.027 66.9674 171.001 66.9668 170.976 66.961C170.951 66.9553 170.927 66.9445 170.906 66.9293C170.885 66.9141 170.868 66.8948 170.855 66.8726C170.842 66.8504 170.833 66.8258 170.83 66.8003C170.824 66.7494 170.838 66.6981 170.869 66.6575C170.901 66.6169 170.947 66.5904 170.998 66.5837C171.304 66.5578 171.611 66.6064 171.894 66.7252C172.177 66.8441 172.427 67.0296 172.623 67.2661C172.646 67.2943 172.661 67.3286 172.666 67.365C172.671 67.4014 172.665 67.4384 172.65 67.4718C172.635 67.5052 172.61 67.5336 172.58 67.5537C172.549 67.5738 172.513 67.5849 172.476 67.5856L172.466 67.5694Z" fill="#263238"/>
<path d="M171.621 69.9688C171.429 70.7456 171.132 71.4926 170.738 72.1893C170.919 72.2866 171.119 72.3429 171.324 72.3541C171.529 72.3653 171.734 72.3313 171.924 72.2543L171.621 69.9688Z" fill="#DE5753"/>
<path d="M171.838 69.3729C171.881 69.6979 171.746 69.9795 171.534 70.012C171.323 70.0445 171.112 69.7954 171.074 69.4704C171.036 69.1455 171.166 68.8638 171.377 68.8367C171.588 68.8097 171.8 69.0263 171.838 69.3729Z" fill="#263238"/>
<path d="M171.475 68.8421L170.668 68.7175C170.668 68.7175 171.144 69.2754 171.475 68.8421Z" fill="#263238"/>
<path d="M180.617 197.298H176.555L176.284 187.901H180.346L180.617 197.298Z" fill="#E4897B"/>
<path d="M199.058 197.298H194.996L193.691 187.901H197.753L199.058 197.298Z" fill="#E4897B"/>
<path d="M194.747 196.843H199.307C199.385 196.842 199.46 196.87 199.519 196.921C199.578 196.971 199.616 197.042 199.627 197.119L200.168 200.731C200.178 200.823 200.169 200.915 200.141 201.002C200.112 201.089 200.066 201.169 200.005 201.237C199.943 201.305 199.868 201.36 199.785 201.397C199.701 201.433 199.61 201.452 199.518 201.452C197.932 201.425 197.162 201.333 195.159 201.333C193.924 201.333 192.12 201.457 190.42 201.457C188.719 201.457 188.627 199.773 189.336 199.621C192.516 198.939 193.019 197.996 194.086 197.092C194.272 196.937 194.505 196.85 194.747 196.843Z" fill="#263238"/>
<path d="M176.419 196.843H180.974C181.053 196.842 181.129 196.869 181.188 196.92C181.248 196.971 181.287 197.042 181.299 197.119L181.841 200.731C181.851 200.823 181.841 200.915 181.813 201.002C181.785 201.089 181.739 201.169 181.677 201.237C181.616 201.305 181.541 201.36 181.457 201.397C181.373 201.433 181.283 201.452 181.191 201.452C179.604 201.425 178.835 201.333 176.831 201.333C175.596 201.333 173.04 201.457 171.339 201.457C169.639 201.457 169.547 199.773 170.256 199.621C173.435 198.939 174.686 197.996 175.759 197.092C175.945 196.937 176.178 196.85 176.419 196.843Z" fill="#263238"/>
<path d="M176.284 187.901L176.425 192.748H180.487L180.346 187.901H176.284Z" fill="#CE6F64"/>
<path d="M197.753 187.901H193.691L194.368 192.748H198.424L197.753 187.901Z" fill="#CE6F64"/>
<path d="M182.61 66.8274C182.886 70.846 183.087 72.5412 181.343 74.8538C178.716 78.3254 173.722 77.7893 172.249 73.9331C170.922 70.4615 170.695 64.4768 174.389 62.3755C175.201 61.9098 176.119 61.6594 177.056 61.6481C177.992 61.6368 178.916 61.865 179.74 62.3109C180.563 62.7569 181.259 63.4059 181.761 64.1963C182.264 64.9867 182.556 65.8924 182.61 66.8274Z" fill="#E4897B"/>
<path d="M184.95 70.5591C187.203 71.8156 188.876 68.7177 188.876 68.7177C188.876 68.7177 184.836 69.1564 185.199 66.7517C185.675 63.5617 183.39 59.6839 177.66 60.1822C177.34 60.2092 177.037 60.2471 176.739 60.2959C176.139 60.0116 175.461 59.9381 174.814 60.0876C174.167 60.237 173.59 60.6005 173.175 61.1191C171.55 61.2545 169.357 63.1934 170.846 65.7552C170.951 65.4608 171.113 65.1902 171.323 64.959C171.448 66.4593 172.758 68.8423 174.394 68.9993C174.746 71.052 173.381 73.4296 173.852 75.5743C174.551 78.6668 179.766 79.3655 179.766 79.3655C179.587 78.9793 179.52 78.5501 179.573 78.1275C179.627 77.7048 179.799 77.306 180.07 76.977C183.612 78.6018 185.946 77.0149 185.946 77.0149C183.531 76.1159 184.262 74.5128 184.262 74.5128C185.096 74.8831 186.041 74.9156 186.898 74.6035C187.756 74.2914 188.459 73.659 188.86 72.8392C188.057 72.8773 187.261 72.6823 186.567 72.2777C185.873 71.8731 185.312 71.2762 184.95 70.5591Z" fill="#263238"/>
<path d="M175.807 69.6166C175.817 70.0023 175.75 70.3861 175.611 70.7458C175.471 71.1055 175.262 71.4341 174.995 71.7126C174.28 72.4546 173.403 71.9347 173.164 70.9869C172.953 70.1312 173.072 68.7176 174.004 68.3277C174.209 68.2471 174.431 68.219 174.649 68.2461C174.868 68.2731 175.076 68.3544 175.256 68.4825C175.435 68.6105 175.579 68.7814 175.675 68.9795C175.772 69.1776 175.817 69.3966 175.807 69.6166Z" fill="#E4897B"/>
<path d="M179.182 107.057C179.182 107.057 180.211 133.79 182.659 149.486C184.63 162.17 193.388 191.806 193.388 191.806H198.923C198.923 191.806 194.357 163.183 193.355 150.645C190.821 118.913 197.401 112.099 191.189 105.492L179.182 107.057Z" fill="#263238"/>
<path d="M183.807 115.511C183.807 115.511 181.305 115.078 179.842 119.844C180.384 128.873 181.31 140.853 182.659 149.486C182.956 151.408 183.411 153.726 183.969 156.267C182.913 141.015 183.807 115.511 183.807 115.511Z" fill="#161F33"/>
<path d="M174.865 107.621C174.865 107.621 170.305 137.197 170.57 149.573C170.846 162.446 175.564 191.817 175.564 191.817H181.05C181.05 191.817 180.184 163.21 180.666 150.569C181.207 136.785 186.834 106.066 186.834 106.066L174.865 107.621Z" fill="#263238"/>
<path d="M199.724 192.066H192.364L191.79 189.596L199.67 189.65L199.724 192.066Z" fill="#2F2F8D"/>
<path opacity="0.2" d="M199.724 192.066H192.364L191.79 189.596L199.67 189.65L199.724 192.066Z" fill="black"/>
<path d="M190.913 80.6978C193.03 80.9036 196.247 86.9207 196.247 86.9207L190.902 91.0206C190.902 91.0206 186.477 87.1374 187.002 84.9548C187.549 82.6855 188.882 80.5083 190.913 80.6978Z" fill="#2F2F8D"/>
<path opacity="0.1" d="M190.913 80.6978C193.03 80.9036 196.247 86.9207 196.247 86.9207L190.902 91.0206C190.902 91.0206 186.477 87.1374 187.002 84.9548C187.549 82.6855 188.882 80.5083 190.913 80.6978Z" fill="black"/>
<path d="M189.315 83.2866C188.775 83.1411 188.216 83.0791 187.657 83.1025C187.373 83.6946 187.153 84.3156 187.002 84.9547C186.46 87.1211 190.902 91.0206 190.902 91.0206L191.297 90.7173L189.315 83.2866Z" fill="#2F2F8D"/>
<path opacity="0.3" d="M189.315 83.2866C188.775 83.1411 188.216 83.0791 187.657 83.1025C187.373 83.6946 187.153 84.3156 187.002 84.9547C186.46 87.1211 190.902 91.0206 190.902 91.0206L191.297 90.7173L189.315 83.2866Z" fill="black"/>
<path d="M173.051 89.0652C171.507 92.9701 169.882 96.94 168.588 100.856C168.501 101.105 168.431 101.343 168.355 101.587L168.171 102.188C168.121 102.365 168.121 102.553 168.171 102.73C168.477 103.407 168.962 103.987 169.574 104.409C171.193 105.57 172.957 106.515 174.822 107.22L174.334 109.213C172.041 108.91 169.823 108.187 167.792 107.079C166.542 106.411 165.524 105.38 164.873 104.122C164.499 103.317 164.369 102.421 164.499 101.544C164.511 101.436 164.529 101.33 164.553 101.224L164.607 100.997L164.699 100.585C164.764 100.309 164.829 100.043 164.9 99.7726C165.441 97.6062 166.135 95.5481 166.866 93.5063C167.597 91.4645 168.36 89.4497 169.222 87.4404L173.051 89.0652Z" fill="#E4897B"/>
<path d="M169.763 83.5844C169.763 83.5844 167.932 84.5105 174.865 107.62L191.21 105.486C190.062 98.8682 189.52 94.7683 190.912 80.6977C188.568 80.5298 186.216 80.5298 183.872 80.6977C181.376 80.8428 178.895 81.1686 176.446 81.6725C173.311 82.3712 169.763 83.5844 169.763 83.5844Z" fill="#2F2F8D"/>
<path opacity="0.1" d="M169.763 83.5844C169.763 83.5844 167.932 84.5105 174.865 107.62L191.21 105.486C190.062 98.8682 189.52 94.7683 190.912 80.6977C188.568 80.5298 186.216 80.5298 183.872 80.6977C181.376 80.8428 178.895 81.1686 176.446 81.6725C173.311 82.3712 169.763 83.5844 169.763 83.5844Z" fill="black"/>
<path d="M191.33 104.496L192.267 105.855C192.337 105.963 192.218 106.093 192.034 106.12L174.892 108.363C174.746 108.363 174.611 108.325 174.589 108.233L174.253 106.786C174.226 106.689 174.345 106.586 174.508 106.564L191.059 104.398C191.109 104.39 191.159 104.395 191.207 104.412C191.254 104.429 191.296 104.458 191.33 104.496Z" fill="#2F2F8D"/>
<path opacity="0.2" d="M191.33 104.496L192.267 105.855C192.337 105.963 192.218 106.093 192.034 106.12L174.892 108.363C174.746 108.363 174.611 108.325 174.589 108.233L174.253 106.786C174.226 106.689 174.345 106.586 174.508 106.564L191.059 104.398C191.109 104.39 191.159 104.395 191.207 104.412C191.254 104.429 191.296 104.458 191.33 104.496Z" fill="black"/>
<path d="M189.347 106.635L189.791 106.575C189.878 106.575 189.938 106.51 189.927 106.456L189.472 104.582C189.455 104.55 189.427 104.525 189.393 104.511C189.36 104.498 189.322 104.496 189.288 104.506L188.844 104.561C188.752 104.561 188.692 104.625 188.708 104.685L189.163 106.554C189.174 106.613 189.261 106.646 189.347 106.635Z" fill="#263238"/>
<path d="M178.602 108.021L179.046 107.962C179.133 107.962 179.198 107.897 179.182 107.843L178.727 105.969C178.709 105.937 178.681 105.912 178.648 105.897C178.615 105.883 178.578 105.879 178.542 105.887L178.098 105.947C178.012 105.947 177.947 106.012 177.963 106.066L178.418 107.94C178.429 108.021 178.515 108.054 178.602 108.021Z" fill="#263238"/>
<path d="M170.527 91.4267C170.976 93.5173 171.61 96.1657 172.536 99.5181L172.737 91.0205L170.527 91.4267Z" fill="#2F2F8D"/>
<path opacity="0.3" d="M170.527 91.4267C170.976 93.5173 171.61 96.1657 172.536 99.5181L172.737 91.0205L170.527 91.4267Z" fill="black"/>
<path d="M169.763 83.5844C167.732 84.4023 165.972 91.3509 165.972 91.3509L172.959 94.7521C172.959 94.7521 176.333 86.2545 174.822 84.5972C173.311 82.9399 172.103 82.6475 169.763 83.5844Z" fill="#2F2F8D"/>
<path opacity="0.1" d="M169.763 83.5844C167.732 84.4023 165.972 91.3509 165.972 91.3509L172.959 94.7521C172.959 94.7521 176.333 86.2545 174.822 84.5972C173.311 82.9399 172.103 82.6475 169.763 83.5844Z" fill="black"/>
<path d="M181.987 192.066H174.627L174.053 189.596L182.247 189.65L181.987 192.066Z" fill="#2F2F8D"/>
<path opacity="0.2" d="M181.987 192.066H174.627L174.053 189.596L182.247 189.65L181.987 192.066Z" fill="black"/>
<path d="M174.935 106.548L174.345 106.304C174.2 106.245 174.042 106.226 173.887 106.248C173.732 106.27 173.585 106.332 173.462 106.429C173.339 106.526 173.243 106.653 173.185 106.799C173.127 106.944 173.109 107.103 173.132 107.258L173.56 110.079C173.58 110.221 173.632 110.356 173.711 110.474C173.79 110.593 173.894 110.693 174.017 110.767C174.139 110.84 174.276 110.886 174.418 110.9C174.56 110.914 174.704 110.896 174.838 110.848C175.053 110.77 175.254 110.659 175.434 110.518C175.63 110.356 175.785 110.149 175.886 109.916C175.988 109.683 176.033 109.429 176.019 109.175L175.959 108.005C175.949 107.689 175.846 107.383 175.665 107.124C175.483 106.865 175.229 106.665 174.935 106.548Z" fill="#E4897B"/>
</svg>
