<svg width="315" height="274" viewBox="0 0 315 274" fill="none" xmlns="http://www.w3.org/2000/svg">
<path d="M7.396 218.297H292.564" stroke="#000049" stroke-miterlimit="10"/>
<path d="M7.396 164.305H292.564" stroke="#000049" stroke-miterlimit="10"/>
<path d="M7.396 110.314H292.564" stroke="#000049" stroke-miterlimit="10"/>
<path d="M7.396 56.323H292.564" stroke="#000049" stroke-miterlimit="10"/>
<path d="M72.2335 25.666V218.424" stroke="#000049" stroke-miterlimit="10"/>
<path d="M243.638 25.666V218.424" stroke="#000049" stroke-miterlimit="10"/>
<path d="M78.6012 97.1189L76.4786 99.3547" stroke="#000049" stroke-miterlimit="10"/>
<path d="M114.749 58.9976L81.1554 94.4233" stroke="#000049" stroke-miterlimit="10"/>
<path d="M116.843 64.7639L97.9731 84.1572" stroke="#000049" stroke-miterlimit="10"/>
<path d="M250.975 97.1189L248.853 99.3547" stroke="#000049" stroke-miterlimit="10"/>
<path d="M287.116 58.9976L253.53 94.4233" stroke="#000049" stroke-miterlimit="10"/>
<path d="M289.217 64.7639L270.347 84.1572" stroke="#000049" stroke-miterlimit="10"/>
<path d="M3.12257 206.148L1 208.384" stroke="#000049" stroke-miterlimit="10"/>
<path d="M39.2628 168.02L5.67664 203.453" stroke="#000049" stroke-miterlimit="10"/>
<path d="M41.3642 173.786L22.4874 193.186" stroke="#000049" stroke-miterlimit="10"/>
<path d="M30.8999 50.9954L28.7844 53.2311" stroke="#000049" stroke-miterlimit="10"/>
<path d="M67.0474 12.8669L33.4612 48.2927" stroke="#000049" stroke-miterlimit="10"/>
<path d="M69.1416 18.6333L50.272 38.0265" stroke="#000049" stroke-miterlimit="10"/>
<path d="M187.97 50.9954L185.855 53.2311" stroke="#000049" stroke-miterlimit="10"/>
<path d="M224.118 12.8669L190.531 48.2927" stroke="#000049" stroke-miterlimit="10"/>
<path d="M226.212 18.6333L207.342 38.0265" stroke="#000049" stroke-miterlimit="10"/>
<path d="M139.406 153.204L137.283 155.44" stroke="#000049" stroke-miterlimit="10"/>
<path d="M175.546 115.083L141.96 150.509" stroke="#000049" stroke-miterlimit="10"/>
<path d="M177.648 120.849L158.778 140.243" stroke="#000049" stroke-miterlimit="10"/>
<path d="M284.222 258.194C284.222 258.194 266.704 220.865 270.51 219.79C274.317 218.714 282.298 224.657 282.298 224.657C282.298 224.657 258.878 161.9 264.942 157.032C271.005 152.164 282.326 177.076 282.326 177.076C282.326 177.076 270.234 138.637 271.656 124.012C273.079 109.388 288.439 123.474 288.439 123.474C288.439 123.474 276.135 70.9973 287.562 68.2874C298.988 65.5776 298.606 128.335 298.606 128.335C298.606 128.335 302.356 83.4285 306.934 95.8738C311.511 108.319 301.889 149.971 301.889 149.971C301.889 149.971 308.165 135.906 311.653 148.889C315.141 161.872 304.719 214.349 304.719 214.349C304.719 214.349 313.577 205.696 314.405 216.514C315.233 227.332 296.066 260.876 296.066 260.876L285.22 261.979L284.222 258.194Z" fill="#2F2F8D"/>
<path opacity="0.6" d="M284.222 258.194C284.222 258.194 266.704 220.865 270.51 219.79C274.317 218.714 282.298 224.657 282.298 224.657C282.298 224.657 258.878 161.9 264.942 157.032C271.005 152.164 282.326 177.076 282.326 177.076C282.326 177.076 270.234 138.637 271.656 124.012C273.079 109.388 288.439 123.474 288.439 123.474C288.439 123.474 276.135 70.9973 287.562 68.2874C298.988 65.5776 298.606 128.335 298.606 128.335C298.606 128.335 302.356 83.4285 306.934 95.8738C311.511 108.319 301.889 149.971 301.889 149.971C301.889 149.971 308.165 135.906 311.653 148.889C315.141 161.872 304.719 214.349 304.719 214.349C304.719 214.349 313.577 205.696 314.405 216.514C315.233 227.332 296.066 260.876 296.066 260.876L285.22 261.979L284.222 258.194Z" fill="white"/>
<path d="M287.965 259.857C287.965 259.857 273.362 233.891 276.064 229.016C278.767 224.141 286.882 235.511 286.882 235.511C286.882 235.511 268.487 189.522 271.197 185.199C273.906 180.876 282.559 199.809 282.559 199.809C282.559 199.809 279.312 136.514 284.717 138.672C290.123 140.83 290.646 171.098 290.646 171.098C290.646 171.098 287.406 99.1497 292.274 101.315C297.141 103.48 296.604 183.543 296.604 183.543C296.604 183.543 306.339 152.702 307.959 166.768C309.58 180.833 295.521 218.707 295.521 218.707C295.521 218.707 309.042 188.949 310.691 204.67C312.339 220.391 299.844 249.541 299.844 249.541C299.844 249.541 304.712 237.64 304.712 244.128C304.712 250.616 300.927 258.739 300.927 258.739" stroke="#000049" stroke-linecap="round" stroke-linejoin="round"/>
<path d="M247.784 179.369L267.489 222.372L255.093 225.867L240.476 207.67L247.784 179.369Z" fill="#2F2F8D"/>
<g opacity="0.1">
<path opacity="0.1" d="M244.226 193.137L243.391 196.384L259.756 224.551L262.105 223.893L244.226 193.137Z" fill="black"/>
<path opacity="0.1" d="M255.185 225.846L257.548 225.181L242.322 200.51L241.509 203.672L255.185 225.846Z" fill="black"/>
<path opacity="0.1" d="M246.249 185.305L245.386 188.658L264.178 223.306L266.498 222.648L246.249 185.305Z" fill="black"/>
</g>
<path d="M247.784 179.369L267.489 222.372L255.093 225.867L240.476 207.67L247.784 179.369Z" stroke="#000049" stroke-linecap="round" stroke-linejoin="round"/>
<path d="M208.595 167.39L182.933 179.213L196.616 234.732L192.258 258.088H240.943L236.124 232.709L247.94 179.369L221.033 168.324L208.595 167.39Z" fill="#2F2F8D"/>
<g opacity="0.1">
<path opacity="0.1" d="M208.828 258.088L209.812 235.971C209.822 235.867 209.822 235.763 209.812 235.659L199.729 171.48L196.758 172.845L206.663 235.992L205.68 258.088H208.828Z" fill="black"/>
<path opacity="0.1" d="M214.729 230.678C214.729 230.678 214.729 230.622 214.729 230.593L206.734 168.246L203.741 169.661L211.594 230.983L213.618 258.123H216.774L214.729 230.678Z" fill="black"/>
<path opacity="0.1" d="M199.927 258.088L202.757 236.501C202.782 236.342 202.782 236.18 202.757 236.02L191.968 175.067L189.017 176.425L199.63 236.331L196.8 258.088H199.927Z" fill="black"/>
<path opacity="0.1" d="M246.822 178.909L243.858 177.692L233.04 233.636C233.008 233.818 233.008 234.005 233.04 234.187L236.931 258.088H240.122L236.167 233.961L236.259 233.501L236.103 232.709L238.473 222.032L246.822 178.909Z" fill="black"/>
<path opacity="0.1" d="M218.465 173.744L215.323 173.836L217.934 258.088H221.075L218.465 173.744Z" fill="black"/>
<path opacity="0.1" d="M229.495 233.551L239.945 176.086L236.973 174.862L226.361 233.261C226.325 233.441 226.325 233.626 226.361 233.805L230.507 258.088H233.698L229.495 233.551Z" fill="black"/>
<path opacity="0.1" d="M223.785 231.598L231.731 172.711L228.724 171.48L220.644 231.372C220.627 231.498 220.627 231.627 220.644 231.754L223.573 258.088H226.736L223.785 231.598Z" fill="black"/>
</g>
<path d="M208.595 167.39L182.933 179.213L196.616 234.732L192.258 258.088H240.943L236.124 232.709L247.94 179.369L221.033 168.324L208.595 167.39Z" stroke="#000049" stroke-linecap="round" stroke-linejoin="round"/>
<path d="M182.933 179.213L162.719 222.987L175.624 225.711L190.241 207.514L182.933 179.213Z" fill="#2F2F8D"/>
<g opacity="0.1">
<path opacity="0.1" d="M188.246 199.788L174.167 225.407L175.624 225.712L178.992 221.516L189.102 203.12L188.246 199.788Z" fill="black"/>
<path opacity="0.1" d="M186.98 194.892L186.06 191.326L170.346 224.601L172.716 225.103L186.98 194.892Z" fill="black"/>
<path opacity="0.1" d="M165.216 223.511L167.587 224.013L184.97 187.102L184.044 183.522L165.216 223.511Z" fill="black"/>
</g>
<path d="M182.402 186.5L189.534 205.639L182.374 194.679" stroke="#000049" stroke-miterlimit="10"/>
<path d="M182.933 179.213L162.719 222.987L175.624 225.711L190.241 207.514L182.933 179.213Z" stroke="#000049" stroke-linecap="round" stroke-linejoin="round"/>
<path d="M176.551 219.181L202.057 248.267L197.104 253.864L164.962 228.266C164.962 228.266 160.554 226.143 163.2 221.827" fill="#2F2F8D"/>
<g opacity="0.1">
<path opacity="0.1" d="M199.383 250.291L201.774 248.246L188.911 233.275L176.551 219.181L173.225 219.839L199.383 250.291Z" fill="black"/>
<path opacity="0.1" d="M194.288 251.635L196.418 253.333L198.42 251.571L170.912 220.299L167.346 220.999L194.288 251.635Z" fill="black"/>
</g>
<path d="M176.551 219.181L202.057 248.267L197.104 253.864L164.962 228.266C164.962 228.266 160.554 226.143 163.2 221.827" stroke="#000049" stroke-linecap="round" stroke-linejoin="round"/>
<path d="M197.961 247.171C198.668 246.775 210.972 243.831 211.142 245.338C211.311 246.845 214.976 248.508 216.646 248.508C218.316 248.508 219.986 247.171 220.318 249.173C220.651 251.175 218.818 251.345 217.318 251.508C215.818 251.671 210.639 250.008 210.639 250.008C210.639 250.008 205.8 254.013 203.798 255.01C201.795 256.008 198.137 255.718 196.793 254.678C195.449 253.638 193.63 249.506 197.961 247.171Z" fill="white" stroke="#000049" stroke-linecap="round" stroke-linejoin="round"/>
<path d="M209.316 245.168C209.316 245.168 213.986 243.831 214.976 244.334C215.967 244.836 216.484 254.847 216.484 254.847C216.484 254.847 215.981 255.845 214.976 254.847C213.972 253.85 210.639 246.357 210.639 246.357" fill="white"/>
<path d="M209.316 245.168C209.316 245.168 213.986 243.831 214.976 244.334C215.967 244.836 216.484 254.847 216.484 254.847C216.484 254.847 215.981 255.845 214.976 254.847C213.972 253.85 210.639 246.357 210.639 246.357" stroke="#000049" stroke-linecap="round" stroke-linejoin="round"/>
<path d="M206.974 245.501C206.974 245.501 211.814 244.334 212.819 246.166C213.823 247.999 216.321 256.178 214.319 256.517C212.316 256.857 211.651 254.175 211.651 254.175L208.481 248.338L206.309 248.006" fill="white"/>
<path d="M206.974 245.501C206.974 245.501 211.814 244.334 212.819 246.166C213.823 247.999 216.321 256.178 214.319 256.517C212.316 256.857 211.651 254.175 211.651 254.175L208.481 248.338L206.309 248.006" stroke="#000049" stroke-linecap="round" stroke-linejoin="round"/>
<path d="M205.312 247.001C205.312 247.001 207.647 246.003 208.814 246.838C209.981 247.673 215.323 256.178 214.319 256.517C213.314 256.857 210.979 256.68 210.646 256.015C210.314 255.35 205.977 249.647 205.977 249.647" fill="white"/>
<path d="M205.312 247.001C205.312 247.001 207.647 246.003 208.814 246.838C209.981 247.673 215.323 256.178 214.319 256.517C213.314 256.857 210.979 256.68 210.646 256.015C210.314 255.35 205.977 249.647 205.977 249.647" stroke="#000049" stroke-linecap="round" stroke-linejoin="round"/>
<path d="M203.621 249.838C203.621 249.838 205.786 247.836 206.953 248.508C208.121 249.18 212.96 255.512 211.962 256.177C210.965 256.842 210.293 256.177 209.295 254.847C208.579 253.95 207.736 253.163 206.79 252.512L204.788 253.177" fill="white"/>
<path d="M203.621 249.838C203.621 249.838 205.786 247.836 206.953 248.508C208.121 249.18 212.96 255.512 211.962 256.177C210.965 256.842 210.293 256.177 209.295 254.847C208.579 253.95 207.736 253.163 206.79 252.512L204.788 253.177" stroke="#000049" stroke-linecap="round" stroke-linejoin="round"/>
<path d="M252.921 220.115L244.431 249.003L250.572 253.291L264.447 230.99C264.447 230.99 270.149 224.551 266.569 220.929" fill="#2F2F8D"/>
<g opacity="0.1">
<path opacity="0.1" d="M250.763 252.944L250.869 252.767L262.621 220.695L259.338 220.497L247.982 251.501L249.256 252.385L250.763 252.944Z" fill="black"/>
<path opacity="0.1" d="M244.445 249.024L247.112 250.892L258.079 220.511L257.775 220.405L254.838 220.228L244.445 249.024Z" fill="black"/>
<path opacity="0.1" d="M267.538 222.62C267.35 221.981 267.005 221.399 266.534 220.929L264.85 220.83L255.978 244.595L264.411 231.025L267.538 222.62Z" fill="black"/>
</g>
<path d="M252.921 220.115L244.431 249.003L250.572 253.291L264.447 230.99C264.447 230.99 270.149 224.551 266.569 220.929" stroke="#000049" stroke-linecap="round" stroke-linejoin="round"/>
<path d="M248.704 247.171C247.997 246.775 235.686 243.831 235.523 245.338C235.36 246.845 231.681 248.508 230.018 248.508C228.356 248.508 226.679 247.171 226.346 249.173C226.014 251.175 227.846 251.345 229.346 251.508C230.846 251.671 236.025 250.008 236.025 250.008C236.025 250.008 240.865 254.013 242.867 255.01C244.869 256.008 248.527 255.718 249.872 254.678C251.216 253.638 253.041 249.506 248.704 247.171Z" fill="white" stroke="#000049" stroke-linecap="round" stroke-linejoin="round"/>
<path d="M237.355 245.168C237.355 245.168 232.686 243.831 231.695 244.334C230.705 244.836 230.195 254.847 230.195 254.847C230.195 254.847 230.698 255.845 231.695 254.847C232.693 253.85 236.039 246.357 236.039 246.357" fill="white"/>
<path d="M237.355 245.168C237.355 245.168 232.686 243.831 231.695 244.334C230.705 244.836 230.195 254.847 230.195 254.847C230.195 254.847 230.698 255.845 231.695 254.847C232.693 253.85 236.039 246.357 236.039 246.357" stroke="#000049" stroke-linecap="round" stroke-linejoin="round"/>
<path d="M239.704 245.501C239.704 245.501 234.872 244.334 233.867 246.166C232.863 247.999 230.33 256.178 232.367 256.517C234.405 256.857 235.035 254.175 235.035 254.175L238.204 248.338L240.377 248.006" fill="white"/>
<path d="M239.704 245.501C239.704 245.501 234.872 244.334 233.867 246.166C232.863 247.999 230.33 256.178 232.367 256.517C234.405 256.857 235.035 254.175 235.035 254.175L238.204 248.338L240.377 248.006" stroke="#000049" stroke-linecap="round" stroke-linejoin="round"/>
<path d="M241.36 247.001C241.36 247.001 239.025 246.003 237.858 246.838C236.69 247.673 231.349 256.178 232.353 256.517C233.358 256.857 235.686 256.68 236.025 256.015C236.365 255.35 240.695 249.647 240.695 249.647" fill="white"/>
<path d="M241.36 247.001C241.36 247.001 239.025 246.003 237.858 246.838C236.69 247.673 231.349 256.178 232.353 256.517C233.358 256.857 235.686 256.68 236.025 256.015C236.365 255.35 240.695 249.647 240.695 249.647" stroke="#000049" stroke-linecap="round" stroke-linejoin="round"/>
<path d="M243.03 249.838C243.03 249.838 240.865 247.829 239.704 248.536C238.544 249.244 233.698 255.541 234.702 256.206C235.707 256.871 236.372 256.206 237.37 254.876C238.085 253.978 238.929 253.192 239.874 252.541L241.877 253.206" fill="white"/>
<path d="M243.03 249.838C243.03 249.838 240.865 247.829 239.704 248.536C238.544 249.244 233.698 255.541 234.702 256.206C235.707 256.871 236.372 256.206 237.37 254.876C238.085 253.978 238.929 253.192 239.874 252.541L241.877 253.206" stroke="#000049" stroke-linecap="round" stroke-linejoin="round"/>
<path d="M210.455 164.433C210.455 164.433 206.415 165.678 204.703 168.169C202.991 170.659 205.015 189.939 205.015 189.939L217.927 182.786L231.455 191.34C231.455 191.34 230.21 171.593 229.12 168.791C228.03 165.989 221.189 162.728 218.854 163.039C216.519 163.35 210.455 164.433 210.455 164.433Z" fill="#2F2F8D" stroke="#000049" stroke-linecap="round" stroke-linejoin="round"/>
<path d="M208.595 153.707V171.593L217.149 194.609L224.457 171.126V153.551L208.595 153.707Z" fill="white" stroke="#000049" stroke-linecap="round" stroke-linejoin="round"/>
<path d="M208.573 160.131C210.988 161.825 213.867 162.732 216.816 162.728C219.512 162.73 222.154 161.969 224.436 160.534V153.551L208.573 153.728V160.131Z" fill="#000049" stroke="#000049" stroke-linecap="round" stroke-linejoin="round"/>
<path d="M216.837 158.681C213.016 158.681 209.351 157.163 206.649 154.462C203.946 151.76 202.427 148.096 202.425 144.275L199.885 124.012C199.885 119.508 201.674 115.189 204.859 112.005C208.043 108.82 212.362 107.031 216.866 107.031C221.369 107.031 225.688 108.82 228.873 112.005C232.057 115.189 233.846 119.508 233.846 124.012L231.214 144.247C231.218 146.139 230.849 148.013 230.128 149.762C229.408 151.511 228.35 153.101 227.015 154.441C225.68 155.782 224.094 156.846 222.348 157.573C220.601 158.301 218.729 158.677 216.837 158.681Z" fill="white" stroke="#000049" stroke-linecap="round" stroke-linejoin="round"/>
<path d="M220.538 138.728C220.538 138.728 224.21 135.651 228.596 138.969" stroke="#000049" stroke-linecap="round" stroke-linejoin="round"/>
<path d="M213.901 138.375C212.81 137.68 211.512 137.387 210.229 137.547" stroke="#000049" stroke-linecap="round" stroke-linejoin="round"/>
<path d="M221.96 131.384C221.96 131.384 225.872 129.488 228.243 133.16" stroke="#000049" stroke-linecap="round" stroke-linejoin="round"/>
<path d="M215.649 146.907C215.649 146.907 217.311 148.209 218.733 146.907" stroke="#000049" stroke-linecap="round" stroke-linejoin="round"/>
<path d="M214.021 149.752C214.021 149.752 217.46 151.874 219.469 149.752" stroke="#000049" stroke-linecap="round" stroke-linejoin="round"/>
<path d="M224.082 121.889C224.082 121.889 209.875 135.007 205.913 144.566C201.951 154.124 205.503 164.107 207.689 166.98C209.875 169.853 211.227 170.256 211.227 170.256C211.227 170.256 203.713 173.128 198.795 165.614C193.878 158.101 195.102 149.624 196.609 143.752C198.116 137.88 197.699 120.658 201.116 114.92C204.533 109.182 209.451 104.944 217.651 105.899C225.851 106.855 230.217 111.093 232.813 116.42C235.41 121.748 234.179 130.769 234.999 134.731C235.82 138.693 239.372 150.58 240.193 157.683C241.013 164.787 231.327 169.845 229.799 170.532C228.76 170.969 227.65 171.208 226.523 171.239C226.523 171.239 229.799 154.846 230.485 145.415C231.172 135.983 231.214 130.38 231.214 130.38C231.214 130.38 224.769 122.3 224.082 121.889Z" fill="#000049"/>
<path d="M222.42 112.692C222.42 112.692 220.743 117.312 208.679 130.55C196.616 143.787 193.34 156.417 197.005 168.756" stroke="#707070" stroke-miterlimit="10"/>
<path d="M219.441 108.079C219.441 108.079 212.804 113.576 204.583 121.812C199.53 126.91 195.215 132.69 191.763 138.983" stroke="#707070" stroke-miterlimit="10"/>
<path d="M225.391 113.802C225.391 113.802 230.429 122.958 233.174 128.455C235.919 133.953 239.131 164.85 229.516 175.859" stroke="#707070" stroke-miterlimit="10"/>
<path d="M221.96 106.246L224.082 121.889" stroke="#707070" stroke-miterlimit="10"/>
<path d="M224.082 121.889C224.082 121.889 209.875 135.007 205.913 144.566C201.951 154.124 205.503 164.107 207.689 166.98C209.875 169.853 211.227 170.256 211.227 170.256C211.227 170.256 203.713 173.128 198.795 165.614C193.878 158.101 195.102 149.624 196.609 143.752C198.116 137.88 197.699 120.658 201.116 114.92C204.533 109.182 209.451 104.944 217.651 105.899C225.851 106.855 230.217 111.093 232.813 116.42C235.41 121.748 234.179 130.769 234.999 134.731C235.82 138.693 239.372 150.58 240.193 157.683C241.013 164.787 231.327 169.845 229.799 170.532C228.76 170.969 227.65 171.208 226.523 171.239C226.523 171.239 229.799 154.846 230.485 145.415C231.172 135.983 231.214 130.38 231.214 130.38C231.214 130.38 224.769 122.3 224.082 121.889Z" stroke="#000049" stroke-linecap="round" stroke-linejoin="round"/>
<path d="M198.484 131.045H196.39C195.233 131.045 194.296 131.982 194.296 133.139V141.523C194.296 142.68 195.233 143.617 196.39 143.617H198.484C199.641 143.617 200.578 142.68 200.578 141.523V133.139C200.578 131.982 199.641 131.045 198.484 131.045Z" fill="white" stroke="#000049" stroke-linecap="round" stroke-linejoin="round"/>
<path d="M236.881 131.045H234.787C233.631 131.045 232.693 131.982 232.693 133.139V141.523C232.693 142.68 233.631 143.617 234.787 143.617H236.881C238.038 143.617 238.976 142.68 238.976 141.523V133.139C238.976 131.982 238.038 131.045 236.881 131.045Z" fill="white" stroke="#000049" stroke-linecap="round" stroke-linejoin="round"/>
<path d="M236.379 131.045V124.21C236.379 118.92 234.278 113.847 230.537 110.107C226.797 106.366 221.724 104.265 216.434 104.265C211.144 104.265 206.07 106.366 202.328 110.106C198.587 113.846 196.484 118.92 196.482 124.21V131.045" stroke="#000049" stroke-width="2" stroke-linejoin="round"/>
<path d="M235.834 143.554C235.834 143.554 234.95 150.395 226.58 153.183" stroke="#000049" stroke-linecap="round" stroke-linejoin="round"/>
<path d="M226.261 152.886C226.615 153.912 225.618 155.185 224.026 155.716C222.434 156.247 220.87 155.886 220.488 154.86C220.106 153.834 221.132 152.56 222.717 152.03C224.302 151.499 225.929 151.86 226.261 152.886Z" stroke="#000049" stroke-linecap="round" stroke-linejoin="round"/>
<path d="M83.0586 161.709L53.8237 175.64L62.2574 258.258H120.536L128.779 174.267L101.306 161.511L83.0586 161.709Z" fill="#2F2F8D" stroke="#000049" stroke-linecap="round" stroke-linejoin="round"/>
<path d="M94.7753 186.918C95.3224 186.918 95.7659 186.474 95.7659 185.927C95.7659 185.38 95.3224 184.937 94.7753 184.937C94.2283 184.937 93.7848 185.38 93.7848 185.927C93.7848 186.474 94.2283 186.918 94.7753 186.918Z" fill="#000049"/>
<path d="M95.7659 191.871C95.7659 192.067 95.7078 192.258 95.5989 192.421C95.4901 192.584 95.3354 192.711 95.1544 192.786C94.9734 192.861 94.7742 192.88 94.5821 192.842C94.3899 192.804 94.2134 192.71 94.0749 192.571C93.9364 192.433 93.842 192.256 93.8038 192.064C93.7656 191.872 93.7852 191.673 93.8602 191.492C93.9352 191.311 94.0621 191.156 94.225 191.047C94.3879 190.938 94.5794 190.88 94.7753 190.88C95.038 190.88 95.29 190.984 95.4757 191.17C95.6615 191.356 95.7659 191.608 95.7659 191.871Z" fill="#000049"/>
<path d="M104.914 165.926L96.9262 174.833L93.5159 183.486L89.8438 174.706L82.1177 165.926V150.332H104.914V165.926Z" fill="white" stroke="#000049" stroke-linecap="round" stroke-linejoin="round"/>
<path d="M82.1177 157.266C83.6214 159.094 85.5119 160.565 87.653 161.575C89.794 162.584 92.1323 163.106 94.4993 163.103C98.3197 163.107 102.015 161.742 104.914 159.254V150.332H82.1177V157.266Z" fill="#000049" stroke="#000049" stroke-linecap="round" stroke-linejoin="round"/>
<path d="M96.1055 106.692H92.8933C84.9141 106.692 78.4457 113.16 78.4457 121.139V144.268C78.4457 152.247 84.9141 158.716 92.8933 158.716H96.1055C104.085 158.716 110.553 152.247 110.553 144.268V121.139C110.553 113.16 104.085 106.692 96.1055 106.692Z" fill="white" stroke="#000049" stroke-linecap="round" stroke-linejoin="round"/>
<path d="M97.577 129.757L97.103 141.127C97.0937 141.62 96.9334 142.098 96.6436 142.496C96.3538 142.895 95.9486 143.195 95.4828 143.356C94.6267 143.617 93.6503 143.356 93.1196 141.424" stroke="#000049" stroke-linecap="round" stroke-linejoin="round"/>
<path d="M88.2944 145.613H101.03C101.03 145.613 98.8012 150.466 94.4782 150.466C90.1552 150.466 88.2944 145.613 88.2944 145.613Z" fill="#000049" stroke="#000049" stroke-linecap="round" stroke-linejoin="round"/>
<path d="M89.2001 147.318H99.9261C100.334 146.785 100.689 146.214 100.987 145.613H88.2944C88.5362 146.211 88.8397 146.782 89.2001 147.318Z" fill="white" stroke="#000049" stroke-linecap="round" stroke-linejoin="round"/>
<path d="M88.1458 134.872C88.6538 134.872 89.0656 133.903 89.0656 132.707C89.0656 131.512 88.6538 130.542 88.1458 130.542C87.6379 130.542 87.2261 131.512 87.2261 132.707C87.2261 133.903 87.6379 134.872 88.1458 134.872Z" fill="#000049"/>
<path d="M101.9 134.872C102.408 134.872 102.82 133.903 102.82 132.707C102.82 131.512 102.408 130.542 101.9 130.542C101.392 130.542 100.98 131.512 100.98 132.707C100.98 133.903 101.392 134.872 101.9 134.872Z" fill="#000049"/>
<path d="M99.0204 127.005C99.0204 127.005 102.162 125.038 105.706 128.186" stroke="#000049" stroke-linecap="round" stroke-linejoin="round"/>
<path d="M94.4994 106.692C90.2417 106.692 86.1584 108.383 83.1477 111.394C80.1371 114.404 78.4457 118.488 78.4457 122.745V137.37H78.5801H79.889V131.342C79.889 131.342 86.4407 131.342 94.1739 127.153C101.907 122.965 103.86 116.13 103.86 116.13C103.86 116.13 105.565 124.387 107.398 125.958L109.237 127.528V137.49H110.546V122.745C110.546 118.489 108.856 114.407 105.847 111.396C102.837 108.386 98.7559 106.694 94.4994 106.692Z" fill="#000049" stroke="#000049" stroke-linecap="round" stroke-linejoin="round"/>
<path d="M75.4387 129.63H78.4457V141.551H75.4387C74.6731 141.551 73.9389 141.247 73.3975 140.706C72.8561 140.165 72.552 139.43 72.552 138.665V132.502C72.5557 131.739 72.8615 131.008 73.4025 130.47C73.9434 129.932 74.6755 129.63 75.4387 129.63Z" fill="white" stroke="#000049" stroke-linecap="round" stroke-linejoin="round"/>
<path d="M113.369 141.552H110.362V129.63H113.369C113.748 129.63 114.123 129.704 114.474 129.849C114.824 129.995 115.142 130.207 115.41 130.475C115.678 130.743 115.891 131.061 116.036 131.412C116.181 131.762 116.256 132.137 116.256 132.516V138.679C116.252 139.442 115.946 140.173 115.405 140.711C114.864 141.249 114.132 141.552 113.369 141.552Z" fill="white" stroke="#000049" stroke-linecap="round" stroke-linejoin="round"/>
<path d="M75.8278 129.63V122.024C75.8278 117.089 77.7882 112.356 81.2779 108.866C84.7675 105.376 89.5005 103.416 94.4356 103.416V103.416C99.3702 103.418 104.102 105.379 107.591 108.868C111.081 112.357 113.042 117.089 113.044 122.024V129.63" stroke="#000049" stroke-width="2" stroke-linejoin="round"/>
<path d="M113.058 141.552C113.058 141.552 112.138 148.627 103.492 151.513" stroke="#000049" stroke-linecap="round" stroke-linejoin="round"/>
<path d="M103.152 151.202C103.52 152.263 102.487 153.579 100.846 154.152C99.2044 154.725 97.577 154.322 97.2091 153.261C96.8412 152.2 97.8742 150.884 99.5157 150.311C101.157 149.737 102.806 150.141 103.152 151.202Z" stroke="#000049" stroke-linecap="round" stroke-linejoin="round"/>
<path d="M53.8238 175.64L29.0958 227.961L39.2983 236.862L57.7435 213.712L53.8238 175.64Z" fill="#2F2F8D" stroke="#000049" stroke-linecap="round" stroke-linejoin="round"/>
<path d="M51.7932 191.679L57.8001 211.943L50.6682 200.304" stroke="#000049" stroke-miterlimit="10"/>
<path d="M128.779 174.267L152.325 226.858L137.807 233.14L124.852 212.339L128.779 174.267Z" fill="#2F2F8D" stroke="#000049" stroke-linecap="round" stroke-linejoin="round"/>
<path d="M42.4397 226.659L63.6301 246.477L57.7435 253.347L26.9379 234.237L30.4755 224.82" fill="#2F2F8D"/>
<path d="M42.4397 226.659L63.6301 246.477L57.7435 253.347L26.9379 234.237L30.4755 224.82" stroke="#000049" stroke-linecap="round" stroke-linejoin="round"/>
<path d="M60.0995 245.303C60.9627 244.836 75.4033 241.376 75.6014 243.145C75.7995 244.914 80.1154 246.874 82.0752 246.874C84.0351 246.874 86.002 245.303 86.3911 247.659C86.7803 250.015 84.6294 250.206 82.8535 250.404C81.0776 250.602 75.0071 248.635 75.0071 248.635C75.0071 248.635 69.3469 253.347 66.9625 254.529C64.5782 255.711 60.2906 255.307 58.7199 254.133C57.1492 252.958 54.9983 248.048 60.0995 245.303Z" fill="white" stroke="#000049" stroke-linecap="round" stroke-linejoin="round"/>
<path d="M73.4364 242.947C73.4364 242.947 78.9339 241.376 80.1083 241.97C81.2828 242.565 81.8772 254.331 81.8772 254.331C81.8772 254.331 81.2828 255.505 80.1083 254.331C78.9339 253.156 75.0142 244.291 75.0142 244.291" fill="white"/>
<path d="M73.4364 242.947C73.4364 242.947 78.9339 241.376 80.1083 241.97C81.2828 242.565 81.8772 254.331 81.8772 254.331C81.8772 254.331 81.2828 255.505 80.1083 254.331C78.9339 253.156 75.0142 244.291 75.0142 244.291" stroke="#000049" stroke-linecap="round" stroke-linejoin="round"/>
<path d="M70.6982 243.343C70.6982 243.343 76.3584 241.97 77.5612 244.128C78.764 246.286 81.686 255.901 79.33 256.291C76.9739 256.68 76.1886 253.545 76.1886 253.545L72.4599 246.675L69.9128 246.286" fill="white"/>
<path d="M70.6982 243.343C70.6982 243.343 76.3584 241.97 77.5612 244.128C78.764 246.286 81.686 255.901 79.33 256.291C76.9739 256.68 76.1886 253.545 76.1886 253.545L72.4599 246.675L69.9128 246.286" stroke="#000049" stroke-linecap="round" stroke-linejoin="round"/>
<path d="M68.7313 245.105C68.7313 245.105 71.4836 243.93 72.8562 244.914C74.2288 245.897 80.5116 255.901 79.33 256.319C78.1485 256.736 75.4033 256.517 75.0141 255.732C74.625 254.946 69.5167 248.274 69.5167 248.274" fill="white"/>
<path d="M68.7313 245.105C68.7313 245.105 71.4836 243.93 72.8562 244.914C74.2288 245.897 80.5116 255.901 79.33 256.319C78.1485 256.736 75.4033 256.517 75.0141 255.732C74.625 254.946 69.5167 248.274 69.5167 248.274" stroke="#000049" stroke-linecap="round" stroke-linejoin="round"/>
<path d="M66.7715 248.444C66.7715 248.444 69.3256 246.088 70.6982 246.873C72.0708 247.659 77.7735 255.116 76.5848 255.901C75.3962 256.687 74.6179 255.901 73.4434 254.331C72.6028 253.274 71.6111 252.346 70.5001 251.578L68.1441 252.364" fill="white"/>
<path d="M66.7715 248.444C66.7715 248.444 69.3256 246.088 70.6982 246.873C72.0708 247.659 77.7735 255.116 76.5848 255.901C75.3962 256.687 74.6179 255.901 73.4434 254.331C72.6028 253.274 71.6111 252.346 70.5001 251.578L68.1441 252.364" stroke="#000049" stroke-linecap="round" stroke-linejoin="round"/>
<path d="M134.248 221.65L121.824 247.871L129.819 252.095L153.316 227.197L146.573 219.733" fill="#2F2F8D"/>
<path d="M134.248 221.65L121.824 247.871L129.819 252.095L153.316 227.197L146.573 219.733" stroke="#000049" stroke-linecap="round" stroke-linejoin="round"/>
<path d="M128.043 245.303C127.18 244.836 112.732 241.376 112.541 243.145C112.35 244.914 108.027 246.874 106.06 246.874C104.093 246.874 102.141 245.303 101.744 247.659C101.348 250.015 103.513 250.206 105.282 250.404C107.051 250.602 113.128 248.635 113.128 248.635C113.128 248.635 118.789 253.347 121.173 254.529C123.557 255.711 127.845 255.307 129.416 254.133C130.986 252.958 133.144 248.048 128.043 245.303Z" fill="white" stroke="#000049" stroke-linecap="round" stroke-linejoin="round"/>
<path d="M114.699 242.947C114.699 242.947 109.202 241.376 108.027 241.97C106.853 242.565 106.258 254.331 106.258 254.331C106.258 254.331 106.846 255.505 108.027 254.331C109.209 253.156 113.128 244.291 113.128 244.291" fill="white"/>
<path d="M114.699 242.947C114.699 242.947 109.202 241.376 108.027 241.97C106.853 242.565 106.258 254.331 106.258 254.331C106.258 254.331 106.846 255.505 108.027 254.331C109.209 253.156 113.128 244.291 113.128 244.291" stroke="#000049" stroke-linecap="round" stroke-linejoin="round"/>
<path d="M117.444 243.343C117.444 243.343 111.784 241.97 110.574 244.128C109.365 246.286 106.457 255.901 108.813 256.319C111.169 256.736 111.947 253.574 111.947 253.574L115.676 246.704L118.23 246.314" fill="white"/>
<path d="M117.444 243.343C117.444 243.343 111.784 241.97 110.574 244.128C109.365 246.286 106.457 255.901 108.813 256.319C111.169 256.736 111.947 253.574 111.947 253.574L115.676 246.704L118.23 246.314" stroke="#000049" stroke-linecap="round" stroke-linejoin="round"/>
<path d="M119.425 245.105C119.425 245.105 116.68 243.93 115.308 244.914C113.935 245.897 107.631 255.901 108.813 256.319C109.994 256.736 112.732 256.517 113.128 255.732C113.525 254.946 118.619 248.274 118.619 248.274" fill="white"/>
<path d="M119.425 245.105C119.425 245.105 116.68 243.93 115.308 244.914C113.935 245.897 107.631 255.901 108.813 256.319C109.994 256.736 112.732 256.517 113.128 255.732C113.525 254.946 118.619 248.274 118.619 248.274" stroke="#000049" stroke-linecap="round" stroke-linejoin="round"/>
<path d="M121.371 248.444C121.371 248.444 118.817 246.088 117.444 246.873C116.072 247.659 110.369 255.116 111.558 255.901C112.746 256.687 113.518 255.901 114.699 254.331C115.54 253.274 116.531 252.346 117.642 251.578L119.998 252.364" fill="white"/>
<path d="M121.371 248.444C121.371 248.444 118.817 246.088 117.444 246.873C116.072 247.659 110.369 255.116 111.558 255.901C112.746 256.687 113.518 255.901 114.699 254.331C115.54 253.274 116.531 252.346 117.642 251.578L119.998 252.364" stroke="#000049" stroke-linecap="round" stroke-linejoin="round"/>
<path d="M165.174 76.7563H119.185C117.052 76.7563 115.007 77.6029 113.499 79.11C111.991 80.6172 111.142 82.6615 111.14 84.7938V98.2368C111.135 99.2956 111.338 100.345 111.739 101.325C112.14 102.305 112.73 103.196 113.476 103.948C114.222 104.699 115.109 105.296 116.087 105.703C117.064 106.111 118.112 106.322 119.171 106.324H124.831L117.112 116.42L134.467 106.324H165.174C166.23 106.321 167.276 106.11 168.251 105.703C169.226 105.296 170.111 104.702 170.856 103.953C171.601 103.204 172.191 102.315 172.593 101.338C172.995 100.361 173.2 99.3144 173.197 98.258V84.815C173.201 82.6827 172.358 80.6361 170.854 79.125C169.349 77.6139 167.306 76.762 165.174 76.7563Z" fill="white" stroke="#000049" stroke-miterlimit="10"/>
<path d="M135.861 92.4633C135.862 92.8344 135.754 93.1976 135.549 93.5069C135.343 93.8162 135.051 94.0576 134.709 94.2006C134.366 94.3436 133.989 94.3817 133.625 94.3102C133.261 94.2386 132.926 94.0606 132.663 93.7987C132.4 93.5368 132.221 93.2027 132.148 92.8388C132.075 92.4749 132.112 92.0975 132.253 91.7545C132.395 91.4115 132.635 91.1183 132.944 90.9119C133.252 90.7056 133.615 90.5955 133.986 90.5955C134.482 90.5955 134.958 90.792 135.309 91.1421C135.661 91.4922 135.859 91.9673 135.861 92.4633Z" fill="#000049"/>
<path d="M144.04 92.4633C144.041 92.8348 143.932 93.1982 143.727 93.5077C143.522 93.8171 143.229 94.0585 142.886 94.2013C142.543 94.344 142.165 94.3818 141.801 94.3097C141.437 94.2375 141.102 94.0588 140.839 93.7962C140.577 93.5335 140.398 93.1988 140.326 92.8344C140.254 92.4701 140.291 92.0925 140.434 91.7496C140.577 91.4067 140.818 91.114 141.128 90.9085C141.437 90.703 141.801 90.5941 142.172 90.5955C142.668 90.5955 143.143 90.7923 143.493 91.1426C143.843 91.4929 144.04 91.9679 144.04 92.4633Z" fill="#000049"/>
<path d="M152.219 92.4633C152.219 92.8328 152.109 93.1939 151.904 93.5011C151.699 93.8082 151.407 94.0476 151.066 94.189C150.725 94.3304 150.349 94.3674 149.987 94.2953C149.624 94.2232 149.292 94.0453 149.03 93.7841C148.769 93.5229 148.591 93.19 148.519 92.8277C148.447 92.4654 148.484 92.0898 148.625 91.7485C148.767 91.4072 149.006 91.1155 149.313 90.9102C149.621 90.705 149.982 90.5955 150.351 90.5955C150.847 90.5955 151.322 90.7923 151.672 91.1425C152.022 91.4928 152.219 91.9679 152.219 92.4633Z" fill="#000049"/>
<path d="M259.126 256.128H173.417V259.588H259.126V256.128Z" fill="white" stroke="#000049" stroke-linecap="round" stroke-linejoin="round"/>
<path d="M272.293 256.128H197.586V259.588H272.293V256.128Z" fill="white" stroke="#000049" stroke-linecap="round" stroke-linejoin="round"/>
<path d="M273.744 249.98H202.27L209.974 195.408H281.449L273.744 249.98Z" fill="white" stroke="#000049" stroke-linecap="round" stroke-linejoin="round"/>
<path d="M276.701 249.98H205.227L212.932 195.408H284.406L276.701 249.98Z" fill="#000049" stroke="#000049" stroke-linecap="round" stroke-linejoin="round"/>
<path d="M254.796 224.615L261.97 259.581H243.525L236.358 224.615H254.796ZM242.287 234.994C242.322 235.136 242.404 235.262 242.52 235.352C242.635 235.442 242.777 235.49 242.924 235.489L253.374 235.39C253.472 235.389 253.568 235.365 253.656 235.322C253.743 235.278 253.82 235.215 253.88 235.137C253.94 235.06 253.981 234.97 254.002 234.874C254.022 234.778 254.02 234.679 253.997 234.584L253.056 230.664C253.021 230.521 252.939 230.394 252.824 230.303C252.708 230.212 252.566 230.162 252.419 230.162L241.969 230.261C241.871 230.262 241.774 230.286 241.686 230.33C241.599 230.374 241.522 230.436 241.461 230.514C241.401 230.591 241.359 230.681 241.337 230.777C241.316 230.872 241.317 230.972 241.339 231.067L242.287 234.994Z" fill="white" stroke="#000049" stroke-linecap="round" stroke-linejoin="round"/>
<path d="M132.352 256.128H46.6423V259.588H132.352V256.128Z" fill="white" stroke="#000049" stroke-linecap="round" stroke-linejoin="round"/>
<path d="M145.519 256.128H70.8113V259.588H145.519V256.128Z" fill="white" stroke="#000049" stroke-linecap="round" stroke-linejoin="round"/>
<path d="M146.969 249.98H75.4951L83.2001 195.408H154.674L146.969 249.98Z" fill="white" stroke="#000049" stroke-linecap="round" stroke-linejoin="round"/>
<path d="M149.927 249.98H78.4526L86.1576 195.408H157.632L149.927 249.98Z" fill="#000049" stroke="#000049" stroke-linecap="round" stroke-linejoin="round"/>
<path d="M128.029 224.615L135.196 259.581H116.751L109.584 224.615H128.029ZM115.513 234.994C115.549 235.136 115.631 235.261 115.746 235.351C115.862 235.44 116.003 235.489 116.149 235.489L126.6 235.39C126.698 235.389 126.794 235.365 126.882 235.321C126.97 235.278 127.047 235.215 127.107 235.137C127.167 235.06 127.21 234.97 127.231 234.874C127.252 234.779 127.251 234.679 127.229 234.584L126.281 230.664C126.248 230.521 126.166 230.393 126.051 230.302C125.935 230.21 125.792 230.161 125.644 230.162L115.194 230.261C115.096 230.262 115 230.286 114.912 230.33C114.825 230.373 114.748 230.436 114.688 230.514C114.629 230.591 114.587 230.681 114.567 230.777C114.547 230.873 114.548 230.972 114.572 231.067L115.513 234.994Z" fill="white" stroke="#000049" stroke-linecap="round" stroke-linejoin="round"/>
<path d="M307.45 259.581H2.5636V263.005H307.45V259.581Z" fill="#000049" stroke="#000049" stroke-linecap="round" stroke-linejoin="round"/>
</svg>
